<svg xmlns="http://www.w3.org/2000/svg" xmlns:xlink="http://www.w3.org/1999/xlink" width="86" height="104" viewBox="0 0 86 104">
  <defs>
    <clipPath id="clip-path">
      <rect id="Rect치ngulo_403288" data-name="Rect치ngulo 403288" width="86" height="86" transform="translate(-0.429 -0.429)" fill="#fff" stroke="#707070" stroke-width="1"/>
    </clipPath>
    <clipPath id="clip-path-2">
      <path id="path6708" d="M0-122H84.291v84.291H0Z" transform="translate(0 122)"/>
    </clipPath>
  </defs>
  <g id="Grupo_1103750" data-name="Grupo 1103750" transform="translate(-178.571 -414.999)">
    <g id="Grupo_1102625" data-name="Grupo 1102625" transform="translate(-209.643 -6037.215)">
      <g id="Grupo_1101953" data-name="Grupo 1101953" transform="translate(388.643 6444.643)">
        <path id="Rect치ngulo_403287" data-name="Rect치ngulo 403287" d="M27.5,0h0A27.5,27.5,0,0,1,55,27.5V104a0,0,0,0,1,0,0H0a0,0,0,0,1,0,0V27.5A27.5,27.5,0,0,1,27.5,0Z" transform="translate(14.571 7.571)" fill="#ffd839"/>
        <g id="Enmascarar_grupo_1098769" data-name="Enmascarar grupo 1098769" transform="translate(0 17)" clip-path="url(#clip-path)">
          <g id="g6702" transform="translate(0.589 0.589)">
            <g id="g6704">
              <g id="g6706" clip-path="url(#clip-path-2)">
                <g id="g6712" transform="translate(30.1 1.235)">
                  <path id="path6714" d="M-20.161-7.673a3.1,3.1,0,0,1-.67-2.1,9.066,9.066,0,0,0-1.664-5.751,23.668,23.668,0,0,0-12.053-8.862,9.241,9.241,0,0,0-6.08.166,3.074,3.074,0,0,1-2.182,0,9.243,9.243,0,0,0-6.08-.166,23.668,23.668,0,0,0-12.053,8.862A9.063,9.063,0,0,0-62.6-9.776a3.1,3.1,0,0,1-.67,2.1,9.025,9.025,0,0,0-1.951,5.618V-2a23.264,23.264,0,0,0,3.654,12.588l.853.9,6.751-2,10.619,11.5,2.146.513a23.445,23.445,0,0,0,6.426-1.036,9.272,9.272,0,0,0,4.91-3.636,3.072,3.072,0,0,1,1.785-1.249,9.251,9.251,0,0,0,5.07-3.346A23.285,23.285,0,0,0-18.209-2v-.074a9,9,0,0,0-1.951-5.6" transform="translate(65.225 24.823)" fill="#f4c0a6"/>
                </g>
                <g id="g6716" transform="translate(30.1 1.235)">
                  <path id="path6718" d="M-12.435-19.441a9.274,9.274,0,0,1-4.91-3.636,3.073,3.073,0,0,0-1.785-1.249,9.25,9.25,0,0,1-5.07-3.346A23.286,23.286,0,0,1-29-41.9v-.074a9,9,0,0,1,1.951-5.6,3.1,3.1,0,0,0,.67-2.1,9.063,9.063,0,0,1,1.664-5.751A23.7,23.7,0,0,1-17.4-62.173a3.1,3.1,0,0,1-.42-.123,9.244,9.244,0,0,0-6.08-.166A23.668,23.668,0,0,0-35.947-53.6a9.063,9.063,0,0,0-1.664,5.751,3.1,3.1,0,0,1-.67,2.1,9.023,9.023,0,0,0-1.951,5.618v.059A23.265,23.265,0,0,0-36.578-27.48l.853.9,6.751-2,10.619,11.5,2.146.513a23.451,23.451,0,0,0,6.426-1.036,9.182,9.182,0,0,0,2.016-.9,23.309,23.309,0,0,1-4.668-.931" transform="translate(40.232 62.897)" fill="#e9ae8d"/>
                </g>
                <g id="g6720" transform="translate(47.928 18.152)">
                  <path id="path6722" d="M-4.889-2.283A.824.824,0,0,0-4.5-3.255a.822.822,0,0,0-.881-.57A3.6,3.6,0,0,1-9.329-6.718a.823.823,0,0,0-.808-.667.823.823,0,0,0-.808.668A3.6,3.6,0,0,1-14.9-3.825a.823.823,0,0,0-.88.57.823.823,0,0,0,.394.972,3.636,3.636,0,0,1,1.523,4.757A.823.823,0,0,0-13.618,3.5a.823.823,0,0,0,1.049-.052,3.627,3.627,0,0,1,4.862,0A.823.823,0,0,0-6.657,3.5a.823.823,0,0,0,.246-1.021A3.637,3.637,0,0,1-4.889-2.283" transform="translate(15.818 7.385)" fill="#9c5e5e"/>
                </g>
                <g id="g6724" transform="translate(45.317 27.218)">
                  <path id="path6726" d="M-7.23-3.552l-4.231-6.042a4.438,4.438,0,0,0-7.276,0l-4.231,6.042a4.53,4.53,0,0,0-.393.683l-.029.062.056.04A23.4,23.4,0,0,1-17.07,3.94l.021.034.04,0a18.943,18.943,0,0,0,1.909.1,18.684,18.684,0,0,0,5.527-.832,4.444,4.444,0,0,0,2.342-6.8" transform="translate(23.39 11.49)" fill="#bb8080"/>
                </g>
                <g id="g6728" transform="translate(45.317 27.218)">
                  <path id="path6730" d="M-2.816-4.73l4.231-6.042A4.407,4.407,0,0,1,3.524-12.4l-.7-1.007a4.438,4.438,0,0,0-7.277,0L-8.688-7.364a4.545,4.545,0,0,0-.393.683l-.029.062.056.04A23.288,23.288,0,0,1-3.4-.8a4.4,4.4,0,0,1,.58-3.933" transform="translate(9.111 15.303)" fill="#af6c6c"/>
                </g>
                <g id="g6732" transform="translate(56.144 19.669)">
                  <path id="path6734" d="M-7.242-1.939a4.384,4.384,0,0,0-5.721-4.127l-7.358,2.32a4.439,4.439,0,0,0-2.3,6.784L-18.235,9.3a4.442,4.442,0,0,0,7.171.147A18.539,18.539,0,0,0-7.242-1.88Z" transform="translate(23.431 6.274)" fill="#bb8080"/>
                </g>
                <g id="g6736" transform="translate(56.144 21.174)">
                  <path id="path6738" d="M-4.778-5.122l-4.388-6.267a4.435,4.435,0,0,1,.06-5.181l-3.242,1.022a4.439,4.439,0,0,0-2.3,6.783L-10.263-2.5a4.442,4.442,0,0,0,7.171.147c.26-.341.5-.691.739-1.046A4.4,4.4,0,0,1-4.778-5.122" transform="translate(15.458 16.57)" fill="#af6c6c"/>
                </g>
                <g id="g6740" transform="translate(53.526 6.011)">
                  <path id="path6742" d="M-6.887-3.255a18.857,18.857,0,0,0-9.6-7.061,4.44,4.44,0,0,0-5.795,4.233V1.575a4.444,4.444,0,0,0,4.428,4.446,4.48,4.48,0,0,0,1.349-.21l7.3-2.3A4.431,4.431,0,0,0-6.887-3.255" transform="translate(22.283 10.531)" fill="#bb8080"/>
                </g>
                <g id="g6744" transform="translate(53.526 6.011)">
                  <path id="path6746" d="M-2.578-5.416v-7.659A4.418,4.418,0,0,1-.789-16.639a18.377,18.377,0,0,0-1.757-.668,4.44,4.44,0,0,0-5.795,4.233v7.659A4.444,4.444,0,0,0-3.913-.97a4.485,4.485,0,0,0,1.349-.21l1.885-.594a4.406,4.406,0,0,1-1.9-3.641" transform="translate(8.341 17.522)" fill="#af6c6c"/>
                </g>
                <g id="g6748" transform="translate(37.493 6.011)">
                  <path id="path6750" d="M-4.654-.1a18.856,18.856,0,0,0-9.6,7.061,4.431,4.431,0,0,0,2.318,6.764l7.3,2.3a4.48,4.48,0,0,0,1.349.21A4.444,4.444,0,0,0,1.141,11.8V4.137A4.44,4.44,0,0,0-4.654-.1" transform="translate(15.056 0.311)" fill="#bb8080"/>
                </g>
                <g id="g6752" transform="translate(37.493 6.011)">
                  <path id="path6754" d="M-2.811-4.618a18.858,18.858,0,0,1,9.6-7.061c.047-.015.095-.027.142-.041a4.441,4.441,0,0,0-5.623-3,18.858,18.858,0,0,0-9.6,7.061A4.431,4.431,0,0,0-5.973-.9l2.9.914a4.386,4.386,0,0,1,.265-4.632" transform="translate(9.093 14.939)" fill="#af6c6c"/>
                </g>
                <g id="g6756" transform="translate(34.884 19.669)">
                  <path id="path6758" d="M-5.851-1.131l-7.358-2.32A4.384,4.384,0,0,0-18.929.677V.736a18.608,18.608,0,0,0,3.229,10.5l.036.053.06-.021c2.355-.836,4.1-.841,5.035-.016l.014.01c.687.39,1.362.817,2.006,1.272l.056.04.049-.049a4.524,4.524,0,0,0,.509-.606l4.388-6.267a4.439,4.439,0,0,0-2.3-6.783" transform="translate(18.93 3.658)" fill="#bb8080"/>
                </g>
                <g id="g6760" transform="translate(34.884 19.669)">
                  <path id="path6762" d="M-2.61-2.6v-.059a4.365,4.365,0,0,1,3.825-4.3L-2.724-8.2A4.384,4.384,0,0,0-8.445-4.068v.059a18.608,18.608,0,0,0,3.229,10.5l.036.053.06-.021c2.154-.764,3.792-.832,4.774-.207A18.6,18.6,0,0,1-2.61-2.6" transform="translate(8.445 8.403)" fill="#af6c6c"/>
                </g>
                <g id="g6764" transform="translate(7.808 62.247)">
                  <path id="path6766" d="M-18.441-7.777l.328-.383-34.332-17-7.072,7.437-.145.323C-51.307-2.66-31.2-2.632-18.357-6.569h0Z" transform="translate(59.66 25.16)" fill="#e9ae8d"/>
                </g>
                <g id="g6768" transform="translate(33.545 34.518)">
                  <path id="path6770" d="M-8.918-18.478h.649c3.937-12.841,3.91-32.95-10.83-41.3l-2.364.484-7.388,7.769Z" transform="translate(28.852 59.781)" fill="#f4c0a6"/>
                </g>
                <g id="g6772" transform="translate(20.65 47.36)">
                  <path id="path6774" d="M-13.167-7.619a45.064,45.064,0,0,0-5-10.065,46.31,46.31,0,0,0-5.712-6.966l-1.977.552L-42.6-7.388v1.454A46.328,46.328,0,0,0-35.635-.222a45.064,45.064,0,0,0,10.065,5l11.431,4.045A7.57,7.57,0,0,0-9.122,3.812Z" transform="translate(42.6 24.65)" fill="#e9ae8d"/>
                </g>
                <g id="g6776" transform="translate(20.65 58.158)">
                  <path id="path6778" d="M-12.733-10.146A7.569,7.569,0,0,0-7.8-14.924c-13.4-3.791-23.946-17.9-23.946-17.9a28.847,28.847,0,0,1-4.73,1.752l-4.72,4.712v1.454A46.327,46.327,0,0,0-34.229-19.2a45.06,45.06,0,0,0,10.065,5Z" transform="translate(41.195 32.826)" fill="#e29a74"/>
                </g>
                <g id="g6780" transform="translate(7.17 33.881)">
                  <path id="path6782" d="M-16.208-.327c2.832,2.832-2.819,13.074-12.621,22.877S-48.874,38-51.706,35.171-48.887,22.1-39.085,12.295-19.039-3.159-16.208-.327" transform="translate(52.436 1.058)" fill="#855151"/>
                </g>
                <g id="g6784" transform="translate(7.17 52.199)">
                  <path id="path6786" d="M-10.258-2.666c-13.893,6.4-14.416-2.586-14.168-5.959C-31.3-.54-34.811,6.932-32.457,9.286c2.767,2.767,12.606-2.564,22.2-11.952" transform="translate(33.188 8.624)" fill="#704444"/>
                </g>
                <g id="g6788" transform="translate(10.684 37.395)">
                  <path id="path6790" d="M-11.942-.241c2.087,2.087-2.077,9.634-9.3,16.856S-36.012,28-38.1,25.915s2.077-9.634,9.3-16.856,14.77-11.387,16.856-9.3" transform="translate(38.637 0.779)" fill="#bb8080"/>
                </g>
                <g id="g6792" transform="translate(10.685 52.38)">
                  <path id="path6794" d="M-2.342,0c-4.249,5.366-6.286,10.121-4.7,11.71,1.458,1.458,5.581-.138,10.4-3.693C-2.146,7.8-2.5,2.553-2.342,0" transform="translate(7.578)" fill="#af6c6c"/>
                </g>
                <g id="g6796" transform="translate(20.055 46.765)">
                  <path id="path6798" d="M-.908-5.943a58.835,58.835,0,0,0,6-5.261,58.853,58.853,0,0,0,5.261-6L-1.994-19.229c-.158.155-.316.31-.474.468s-.313.316-.468.474Z" transform="translate(2.936 19.229)" fill="#af6c6c"/>
                </g>
                <g id="g6800" transform="translate(44.476 26.357)">
                  <path id="path6802" d="M-15.8,4.07a19.832,19.832,0,0,1-2-.1.946.946,0,0,1-.707-.441,22.539,22.539,0,0,0-6.034-6.461.946.946,0,0,1-.307-1.169,5.383,5.383,0,0,1,.469-.813l4.231-6.042a5.242,5.242,0,0,1,1.954-1.7,5.345,5.345,0,0,1,2.392-.566,5.345,5.345,0,0,1,2.392.566,5.242,5.242,0,0,1,1.954,1.7l4.231,6.042A5.241,5.241,0,0,1-6.3-2.558a5.339,5.339,0,0,1-.246,2.4A5.36,5.36,0,0,1-7.83,1.893,5.275,5.275,0,0,1-10.013,3.2,19.549,19.549,0,0,1-15.8,4.07Zm-1.352-1.946c.459.036.913.054,1.352.054a17.659,17.659,0,0,0,5.223-.786A3.4,3.4,0,0,0-8.337-.775a3.373,3.373,0,0,0-.433-3.058L-13-9.875a3.371,3.371,0,0,0-2.8-1.455,3.371,3.371,0,0,0-2.8,1.455l-4.144,5.918A24.428,24.428,0,0,1-17.148,2.124Z" transform="translate(24.93 13.223)"/>
                </g>
                <g id="g6804" transform="translate(55.284 18.806)">
                  <path id="path6806" d="M.417-4.946h0a5.351,5.351,0,0,1-2.4-.567,5.315,5.315,0,0,1-1.953-1.7l-4.388-6.267a5.247,5.247,0,0,1-.918-2.355A5.347,5.347,0,0,1-9-18.225,5.347,5.347,0,0,1-7.732-20.27,5.246,5.246,0,0,1-5.57-21.579L1.788-23.9a5.288,5.288,0,0,1,1.592-.246,5.235,5.235,0,0,1,1.992.393A5.294,5.294,0,0,1,7.04-22.667,5.133,5.133,0,0,1,8.632-18.95s0,0,0,0v.059a19.532,19.532,0,0,1-1.059,6.365,19.5,19.5,0,0,1-2.94,5.491A5.262,5.262,0,0,1,.417-4.946ZM3.379-22.253a3.4,3.4,0,0,0-1.023.159L-5-19.774a3.38,3.38,0,0,0-2.205,2.158,3.38,3.38,0,0,0,.436,3.055l4.388,6.267a3.375,3.375,0,0,0,2.8,1.456A3.383,3.383,0,0,0,3.128-8.181,17.521,17.521,0,0,0,6.739-18.889v-.057A3.346,3.346,0,0,0,3.379-22.253Z" transform="translate(9.282 24.146)"/>
                </g>
                <g id="g6808" transform="translate(36.633 5.148)">
                  <path id="path6810" d="M6.409-3.6a5.313,5.313,0,0,1-1.6-.249l-7.3-2.3a5.258,5.258,0,0,1-2.17-1.317A5.37,5.37,0,0,1-5.936-9.522,5.319,5.319,0,0,1-6.173-11.9a5.176,5.176,0,0,1,.915-2.335A19.652,19.652,0,0,1-.865-18.726a19.489,19.489,0,0,1,5.65-2.894,5.318,5.318,0,0,1,1.623-.255,5.236,5.236,0,0,1,2.022.405,5.332,5.332,0,0,1,1.686,1.115,5.259,5.259,0,0,1,1.591,3.79v7.658a5.257,5.257,0,0,1-1.59,3.788A5.327,5.327,0,0,1,8.431-4,5.237,5.237,0,0,1,6.409-3.6Zm0-16.385a3.428,3.428,0,0,0-1.046.165,17.82,17.82,0,0,0-9.073,6.674,3.33,3.33,0,0,0-.432,3.015A3.4,3.4,0,0,0-1.925-7.952l7.3,2.3a3.435,3.435,0,0,0,1.034.161h0a3.442,3.442,0,0,0,2.384-.98A3.379,3.379,0,0,0,9.814-8.905v-7.658A3.417,3.417,0,0,0,6.407-19.982Z" transform="translate(6.216 21.875)"/>
                </g>
                <g id="g6812" transform="translate(6.227 32.934)">
                  <path id="path6814" d="M-19.169-2.845a3.787,3.787,0,0,1,2.79,1.008c1.719,1.719,1.23,5.16-1.413,9.951A67.732,67.732,0,0,1-29,22.378a73.254,73.254,0,0,1-11.968,9.838c-2.708,1.729-6.547,3.791-9.457,3.791A3.787,3.787,0,0,1-53.215,35c-1.719-1.719-1.23-5.159,1.413-9.951A67.733,67.733,0,0,1-40.594,10.785,73.253,73.253,0,0,1-28.626.947C-25.918-.783-22.079-2.845-19.169-2.845ZM-50.425,34.115c1.914,0,4.911-1.241,8.439-3.494A71.348,71.348,0,0,0-30.338,21.04,65.823,65.823,0,0,0-19.449,7.2a18.532,18.532,0,0,0,2.072-5.152A3.031,3.031,0,0,0-17.717-.5a2,2,0,0,0-1.452-.453c-1.914,0-4.911,1.241-8.439,3.494a71.347,71.347,0,0,0-11.648,9.581,65.824,65.824,0,0,0-10.889,13.84,18.532,18.532,0,0,0-2.072,5.152,3.03,3.03,0,0,0,.34,2.546A2,2,0,0,0-50.425,34.115Z" transform="translate(54.222 2.845)"/>
                </g>
                <g id="g6816" transform="translate(9.741 36.448)">
                  <path id="path6818" d="M-14.346-2.566a3.029,3.029,0,0,1,2.232.816,2.781,2.781,0,0,1,.759,1.537,5.156,5.156,0,0,1-.056,1.806,15.03,15.03,0,0,1-1.7,4.286,50.159,50.159,0,0,1-8.3,10.566,54.225,54.225,0,0,1-8.86,7.283c-2.023,1.292-4.9,2.833-7.1,2.833a3.029,3.029,0,0,1-2.232-.816,2.781,2.781,0,0,1-.759-1.537,5.156,5.156,0,0,1,.056-1.806,15.03,15.03,0,0,1,1.7-4.286,50.159,50.159,0,0,1,8.3-10.566A54.225,54.225,0,0,1-21.448.266C-19.425-1.026-16.55-2.566-14.346-2.566Zm-23.03,27.233c1.344,0,3.561-.924,6.084-2.535a52.318,52.318,0,0,0,8.541-7.026A48.25,48.25,0,0,0-14.77,4.963a13.416,13.416,0,0,0,1.5-3.722,1.953,1.953,0,0,0-.182-1.654,1.246,1.246,0,0,0-.894-.261c-1.344,0-3.561.924-6.084,2.535A52.319,52.319,0,0,0-28.97,8.887a48.25,48.25,0,0,0-7.982,10.142,13.415,13.415,0,0,0-1.5,3.722,1.953,1.953,0,0,0,.182,1.654A1.245,1.245,0,0,0-37.376,24.667Z" transform="translate(40.423 2.566)"/>
                </g>
                <g id="g6820" transform="translate(19.705 46.414)">
                  <path id="path6822" d="M-14.979,8.933a.946.946,0,0,1-.316-.054L-26.726,4.834A46.061,46.061,0,0,1-37-.277,47.389,47.389,0,0,1-44.11-6.105a.946.946,0,0,1-.274-.753.946.946,0,0,1,.4-.693,75.447,75.447,0,0,0,10-8.48,75.447,75.447,0,0,0,8.48-10,.946.946,0,0,1,.777-.406.947.947,0,0,1,.669.277,47.368,47.368,0,0,1,5.828,7.108A46.049,46.049,0,0,1-13.116-8.776L-9.071,2.655a.946.946,0,0,1,.013.593A8.5,8.5,0,0,1-14.7,8.892.946.946,0,0,1-14.979,8.933ZM-41.968-6.66a45.68,45.68,0,0,0,6.019,4.811,44.169,44.169,0,0,0,9.854,4.9l11.126,3.937a6.612,6.612,0,0,0,4.006-4.006L-14.9-8.144A44.157,44.157,0,0,0-19.8-18a45.654,45.654,0,0,0-4.811-6.019,79.144,79.144,0,0,1-8.033,9.324A79.153,79.153,0,0,1-41.968-6.66Z" transform="translate(44.387 26.437)"/>
                </g>
                <g id="g6824" transform="translate(19.111 45.819)">
                  <path id="path6826" d="M-1.748-5.838A.945.945,0,0,1-2.1-5.906a.946.946,0,0,1-.583-.725L-4.711-18.974a.946.946,0,0,1,.258-.815c.154-.157.313-.32.475-.481s.324-.321.481-.475A.946.946,0,0,1-2.681-21L9.662-18.975a.946.946,0,0,1,.725.583.946.946,0,0,1-.125.922,59.53,59.53,0,0,1-5.346,6.093A59.5,59.5,0,0,1-1.177-6.03.946.946,0,0,1-1.748-5.838ZM-2.765-18.807-1.074-8.514a59.5,59.5,0,0,0,4.652-4.2,59.513,59.513,0,0,0,4.2-4.652L-2.514-19.058l-.126.125Z" transform="translate(4.723 21.016)"/>
                </g>
                <g id="g6828" transform="translate(34.023 18.806)">
                  <path id="path6830" d="M-2.556-5.224A.944.944,0,0,1-3.1-5.4c-.62-.438-1.271-.85-1.933-1.226a.946.946,0,0,1-.158-.112,2.081,2.081,0,0,0-1.4-.4,8.64,8.64,0,0,0-2.778.583.946.946,0,0,1-1.1-.36A19.468,19.468,0,0,1-13.845-17.9v-.058s0,0,0,0a5.133,5.133,0,0,1,1.592-3.717,5.294,5.294,0,0,1,1.669-1.085,5.236,5.236,0,0,1,1.992-.393A5.287,5.287,0,0,1-7-22.912l7.358,2.32a5.247,5.247,0,0,1,2.162,1.309,5.347,5.347,0,0,1,1.267,2.045,5.346,5.346,0,0,1,.24,2.394,5.246,5.246,0,0,1-.918,2.354L-1.28-6.222a5.4,5.4,0,0,1-.606.721A.945.945,0,0,1-2.556-5.224Zm-1.468-3c.435.249.865.512,1.285.786l4.3-6.136a3.38,3.38,0,0,0,.436-3.054A3.38,3.38,0,0,0-.212-18.788l-7.358-2.32a3.4,3.4,0,0,0-1.023-.159,3.346,3.346,0,0,0-3.36,3.307v.057a17.579,17.579,0,0,0,2.664,9.33,9.495,9.495,0,0,1,2.7-.457A3.931,3.931,0,0,1-4.023-8.226Z" transform="translate(13.845 23.159)"/>
                </g>
                <g id="g6832" transform="translate(29.156 0.288)">
                  <path id="path6834" d="M-38.181-26.61h0a10.1,10.1,0,0,1,3.083.48,24.62,24.62,0,0,1,12.538,9.218A10.128,10.128,0,0,1-21.1-13.87a9.948,9.948,0,0,1,.371,3.306A2.158,2.158,0,0,0-20.26-9.1a9.891,9.891,0,0,1,1.594,2.889,10.056,10.056,0,0,1,.562,3.3v.077a24.224,24.224,0,0,1-5,14.806,10.222,10.222,0,0,1-5.589,3.689,2.132,2.132,0,0,0-1.237.865,10.245,10.245,0,0,1-5.413,4.007,24.407,24.407,0,0,1-6.685,1.078.946.946,0,0,1-.907-.616A23.24,23.24,0,0,0-53.335,8.442a.946.946,0,0,1-.158-.112,2.079,2.079,0,0,0-1.4-.4c-1.635,0-4.137.938-7.044,2.64a.946.946,0,0,1-1.276-.308,24.191,24.191,0,0,1-2.836-6.255,24.51,24.51,0,0,1-.966-6.843V-2.9a9.927,9.927,0,0,1,2.156-6.2,2.16,2.16,0,0,0,.466-1.463,9.949,9.949,0,0,1,.372-3.305,10.128,10.128,0,0,1,1.463-3.043A24.62,24.62,0,0,1-50.017-26.13a10.1,10.1,0,0,1,3.083-.48,10.2,10.2,0,0,1,3.621.662,2.128,2.128,0,0,0,.756.139,2.129,2.129,0,0,0,.756-.139A10.192,10.192,0,0,1-38.181-26.61ZM-20-2.907a8.027,8.027,0,0,0-1.746-5.018,4.049,4.049,0,0,1-.874-2.744,8.09,8.09,0,0,0-1.492-5.154,22.716,22.716,0,0,0-11.568-8.506,8.208,8.208,0,0,0-2.506-.39,8.305,8.305,0,0,0-2.951.54,4.015,4.015,0,0,1-1.426.261,4.014,4.014,0,0,1-1.426-.261,8.309,8.309,0,0,0-2.951-.54,8.209,8.209,0,0,0-2.506.39,22.716,22.716,0,0,0-11.568,8.505A8.091,8.091,0,0,0-62.5-10.669a4.051,4.051,0,0,1-.873,2.744A8.052,8.052,0,0,0-65.12-2.892v.056A22.443,22.443,0,0,0-62.082,8.476a26.342,26.342,0,0,1,3.548-1.663,10.8,10.8,0,0,1,3.645-.776,3.93,3.93,0,0,1,2.566.8,24.269,24.269,0,0,1,6.9,5.869A27.035,27.035,0,0,1-41.4,19.692a22.458,22.458,0,0,0,5.506-.97,8.345,8.345,0,0,0,4.408-3.265,4.023,4.023,0,0,1,2.333-1.633,8.322,8.322,0,0,0,4.551-3A22.347,22.347,0,0,0-20-2.836Z" transform="translate(67.012 26.61)"/>
                </g>
                <g id="g6836" transform="translate(52.664 5.147)">
                  <path id="path6838" d="M-8.892,14.447a5.255,5.255,0,0,1-.922-.082,5.346,5.346,0,0,1-2.211-.949,5.346,5.346,0,0,1-1.57-1.823,5.246,5.246,0,0,1-.6-2.455V1.479a5.247,5.247,0,0,1,.6-2.462,5.351,5.351,0,0,1,1.577-1.826A5.347,5.347,0,0,1-9.8-3.753a5.241,5.241,0,0,1,2.526.177A19.544,19.544,0,0,1-4.24-2.313a.946.946,0,0,1,.4,1.276.946.946,0,0,1-1.276.4A17.645,17.645,0,0,0-7.849-1.774a3.377,3.377,0,0,0-3.05.494,3.382,3.382,0,0,0-1.4,2.759V9.137a3.38,3.38,0,0,0,1.395,2.752,3.379,3.379,0,0,0,3.044.5l7.3-2.3A3.4,3.4,0,0,0,1.656,7.915,3.33,3.33,0,0,0,1.224,4.9,17.846,17.846,0,0,0-.689,2.621.946.946,0,0,1-.684,1.283a.946.946,0,0,1,1.338.005A19.744,19.744,0,0,1,2.771,3.81,5.2,5.2,0,0,1,3.449,8.52a5.37,5.37,0,0,1-1.272,2.058A5.258,5.258,0,0,1,.007,11.9l-7.3,2.3A5.3,5.3,0,0,1-8.892,14.447Z" transform="translate(14.194 3.833)"/>
                </g>
                <g id="g6840" transform="translate(6.863 33.572)">
                  <path id="path6842" d="M-44.444,15.86a43.8,43.8,0,0,1-7.621-.645,31.494,31.494,0,0,1-11.129-4.082,24.366,24.366,0,0,1-8.5-8.8.946.946,0,0,1,.274-1.237.946.946,0,0,1,1.259.145l.006.007c.017.02.037.042.046.051a3.03,3.03,0,0,0,2.547.34A18.532,18.532,0,0,0-62.408-.436a65.824,65.824,0,0,0,13.84-10.889,65.825,65.825,0,0,0,10.889-13.84,18.532,18.532,0,0,0,2.072-5.152,3.031,3.031,0,0,0-.34-2.547c-.011-.011-.034-.031-.056-.051a.946.946,0,0,1-.148-1.26.946.946,0,0,1,1.238-.275,24.531,24.531,0,0,1,9.737,10.137,34.583,34.583,0,0,1,3.633,13.258.946.946,0,0,1-.864,1.022.946.946,0,0,1-1.022-.864c-.543-6.5-2.789-15.059-10.173-20.459-.018,1.824-.829,4.22-2.42,7.1A67.734,67.734,0,0,1-47.229-9.986,67.733,67.733,0,0,1-61.494,1.221c-2.88,1.589-5.272,2.4-7.1,2.42,5.446,7.374,14.776,10.331,24.294,10.331a49.937,49.937,0,0,0,14.453-2.183A6.614,6.614,0,0,0-25.454,7.4,50.8,50.8,0,0,0-23.317-5.251a.946.946,0,0,1,.984-.907.946.946,0,0,1,.907.984A52.715,52.715,0,0,1-23.644,7.955,8.5,8.5,0,0,1-29.288,13.6a52.829,52.829,0,0,1-10.894,2.08Q-42.345,15.86-44.444,15.86Z" transform="translate(71.815 34.572)"/>
                </g>
              </g>
            </g>
          </g>
        </g>
      </g>
      <path id="Trazado_952692" data-name="Trazado 952692" d="M31.138,147.506s-.233,5.733-4.818,6.278c0,0,4.921,1.47,5.464,6.3,0,0,1.23-5.848,4.538-6.327,0,0-3.835-.767-5.184-6.246" transform="translate(374.228 6316.118)" fill="#6b0b0c"/>
      <path id="Trazado_952694" data-name="Trazado 952694" d="M71.262,81.707s-.355,8.738-7.344,9.568c0,0,7.5,2.24,8.329,9.594,0,0,1.875-8.912,6.916-9.643,0,0-5.844-1.169-7.9-9.519" transform="translate(388.27 6444.396)" fill="#6b0b0c"/>
    </g>
  </g>
</svg>
