<svg xmlns="http://www.w3.org/2000/svg" xmlns:xlink="http://www.w3.org/1999/xlink" width="83" height="83" viewBox="0 0 83 83">
  <defs>
    <clipPath id="clip-path">
      <rect id="Rectángulo_403288" data-name="Rectángulo 403288" width="83" height="83" transform="translate(645 6999.001)" fill="#6b0b0c" stroke="#6b0b0c" stroke-width="1"/>
    </clipPath>
  </defs>
  <g id="Grupo_1103516" data-name="Grupo 1103516" transform="translate(-645 -6999.001)">
    <g id="Enmascarar_grupo_1098830" data-name="Enmascarar grupo 1098830" clip-path="url(#clip-path)">
      <g id="Outline" transform="translate(642.233 6996.234)">
        <path id="Trazado_987408" data-name="Trazado 987408" d="M85.361,29.455,59.078,3.172a1.383,1.383,0,0,0-1.956,0L27.265,33.029l1.956,1.956L58.1,6.106,82.427,30.433,65.985,46.874,25.257,36.013a1.384,1.384,0,0,0-1.335.358L3.172,57.122a1.383,1.383,0,0,0,0,1.956L29.455,85.361a1.383,1.383,0,0,0,1.956,0l53.95-53.95A1.383,1.383,0,0,0,85.361,29.455ZM61.75,48.608,47.3,53.769,30.788,40.352ZM30.433,82.427,6.106,58.1l3.577-3.577L34.01,78.85Zm5.533-5.533L11.64,52.567l12.41-12.41L25,39.21l21.165,17.2a1.383,1.383,0,0,0,1.338.229l13.574-4.848ZM59.078,11.472a1.383,1.383,0,0,0-1.956,0l-6.917,6.917a1.383,1.383,0,0,0,0,1.956l6.917,6.917a1.383,1.383,0,0,0,1.956,0l6.917-6.917a1.383,1.383,0,0,0,0-1.956ZM58.1,24.327l-4.96-4.96,4.96-4.96,4.96,4.96ZM69.167,38.733a1.379,1.379,0,0,0,.978-.405l6.917-6.917a1.383,1.383,0,0,0,0-1.956l-6.917-6.917a1.383,1.383,0,0,0-1.956,0l-6.917,6.917a1.383,1.383,0,0,0,0,1.956l6.917,6.917a1.379,1.379,0,0,0,.978.405Zm0-13.26,4.96,4.96-4.96,4.96-4.96-4.96ZM46.055,22.538l-6.917,6.917a1.383,1.383,0,0,0,0,1.956l6.917,6.917a1.383,1.383,0,0,0,1.956,0l6.917-6.917a1.383,1.383,0,0,0,0-1.956l-6.917-6.917a1.383,1.383,0,0,0-1.956,0Zm.978,12.855-4.96-4.96,4.96-4.96,4.96,4.96Zm15.622,6.511.405-.405-4.96-4.96-4.555,4.555-1.956-1.956,5.533-5.533a1.383,1.383,0,0,1,1.956,0l6.917,6.917a1.383,1.383,0,0,1,0,1.956l-1.383,1.383Zm-41.5,5.533,1.956,1.956-5.533,5.533-1.956-1.956Zm4.15-4.15,1.956,1.956-2.2,2.2L23.1,45.493Z" fill="#6b0b0c"/>
      </g>
    </g>
    <path id="Trazado_952692" data-name="Trazado 952692" d="M31.064,147.506s-.229,5.645-4.744,6.182c0,0,4.846,1.447,5.381,6.2,0,0,1.212-5.758,4.468-6.23,0,0-3.776-.755-5.1-6.15" transform="translate(625.67 6856.543)" fill="#6b0b0c"/>
  </g>
</svg>
