<svg xmlns="http://www.w3.org/2000/svg" xmlns:xlink="http://www.w3.org/1999/xlink" width="160" height="136" viewBox="0 0 160 136">
  <defs>
    <clipPath id="clip-path">
      <rect id="_371595221_cda6fa44-3ef3-4885-8550-35f98c8ab671" data-name="371595221_cda6fa44-3ef3-4885-8550-35f98c8ab671" width="151" height="136" transform="translate(394.328 1075.207)" fill="#6b0b0c"/>
    </clipPath>
  </defs>
  <g id="Grupo_1103749" data-name="Grupo 1103749" transform="translate(-984.711 -5735)">
    <g id="Grupo_1102665" data-name="Grupo 1102665" transform="translate(594.383 4659.793)">
      <path id="Rectángulo_403519" data-name="Rectángulo 403519" d="M79,0h2a79,79,0,0,1,79,79v0a0,0,0,0,1,0,0H0a0,0,0,0,1,0,0v0A79,79,0,0,1,79,0Z" transform="translate(390.328 1132.207)" fill="#d4d38f"/>
      <g id="Enmascarar_grupo_1098803" data-name="Enmascarar grupo 1098803" clip-path="url(#clip-path)">
        <g id="internacional" transform="translate(401.828 1075.207)">
          <circle id="Elipse_11631" data-name="Elipse 11631" cx="61.932" cy="61.932" r="61.932" transform="translate(6.068 10.147)" fill="#b3d8fb"/>
          <path id="Trazado_986954" data-name="Trazado 986954" d="M68,10.147a62.225,62.225,0,0,0-11.844,1.136,61.94,61.94,0,0,1,0,121.591A61.935,61.935,0,1,0,68,10.147Z" fill="#89c6fc"/>
          <path id="Trazado_986955" data-name="Trazado 986955" d="M50.692,57.743l-6.684,9.442a10.092,10.092,0,0,0,2.406,14.067l1.7,1.2a10.092,10.092,0,0,1,4.254,8.608l-.979,26.623a6.325,6.325,0,0,0,9.93,5.427l18.312-12.722a27.815,27.815,0,0,0,6.831-6.771l11.8-16.668a7.965,7.965,0,0,0-1.9-11.1L66.874,54.975a11.608,11.608,0,0,0-16.182,2.767Z" fill="#05e29a"/>
          <path id="Trazado_986956" data-name="Trazado 986956" d="M64.217,16.1a5.117,5.117,0,0,1-.648-5.789,61.57,61.57,0,0,0-29.2,9.763L25.69,28.747a11.991,11.991,0,0,0-3.512,8.479v9.667a3.109,3.109,0,0,0,4.883,2.554l7.13-4.951a13.849,13.849,0,0,1,7.9-2.473h9.177a11.336,11.336,0,0,0,8.016-3.32l9.056-9.056a6.227,6.227,0,0,0,.29-8.5Z" fill="#05e29a"/>
          <path id="Trazado_986957" data-name="Trazado 986957" d="M109.176,25.822l-3.545,12.339a21.361,21.361,0,0,0,1.045,14.651l3.871,8.617a10.881,10.881,0,0,0,16,4.571l2.874-1.932a61.805,61.805,0,0,0-20.241-38.247Z" fill="#1dd08d"/>
          <path id="Trazado_986958" data-name="Trazado 986958" d="M129.779,33.828c-.393,9.432-7.583,17.68-11.129,21.194a2.759,2.759,0,0,1-3.887,0c-3.645-3.612-11.147-12.233-11.147-22a13.09,13.09,0,0,1,13.234-13.089,13.239,13.239,0,0,1,12.929,13.894Z" fill="#fc6b55"/>
          <path id="Trazado_986959" data-name="Trazado 986959" d="M118.141,20.015a13.456,13.456,0,0,1,3.313,9.427c-.383,9.186-7.212,17.248-10.843,20.908a49.589,49.589,0,0,0,4.153,4.674,2.76,2.76,0,0,0,3.887,0c3.546-3.514,10.735-11.762,11.129-21.194a13.274,13.274,0,0,0-11.638-13.814Z" fill="#fc534e"/>
          <circle id="Elipse_11632" data-name="Elipse 11632" cx="6.405" cy="6.405" r="6.405" transform="translate(110.301 27.11)" fill="#e5ecf1"/>
          <path id="Trazado_986960" data-name="Trazado 986960" d="M117.944,27.231a6.4,6.4,0,0,1-5.7,10.877,6.4,6.4,0,1,0,5.7-10.877Z" fill="#c2d0da"/>
          <path id="Trazado_986961" data-name="Trazado 986961" d="M88.611,54.7c-.393,9.432-7.583,17.68-11.129,21.194a2.759,2.759,0,0,1-3.887,0c-3.645-3.612-11.147-12.233-11.147-22A13.09,13.09,0,0,1,75.682,40.811,13.239,13.239,0,0,1,88.611,54.7Z" fill="#fc6b55"/>
          <path id="Trazado_986962" data-name="Trazado 986962" d="M76.974,40.891a13.456,13.456,0,0,1,3.313,9.427C79.9,59.5,73.075,67.566,69.444,71.226A49.59,49.59,0,0,0,73.6,75.9a2.76,2.76,0,0,0,3.887,0C81.028,72.385,88.218,64.137,88.612,54.7A13.274,13.274,0,0,0,76.974,40.891Z" fill="#fc534e"/>
          <circle id="Elipse_11633" data-name="Elipse 11633" cx="6.405" cy="6.405" r="6.405" transform="translate(69.133 47.987)" fill="#e5ecf1"/>
          <path id="Trazado_986963" data-name="Trazado 986963" d="M76.777,48.108a6.4,6.4,0,0,1-5.7,10.877,6.4,6.4,0,1,0,5.7-10.877Z" fill="#c2d0da"/>
          <path id="Trazado_986964" data-name="Trazado 986964" d="M68.315,85.414c-.393,9.432-7.583,17.68-11.129,21.194a2.759,2.759,0,0,1-3.887,0c-3.645-3.612-11.147-12.233-11.147-22A13.09,13.09,0,0,1,55.386,71.52,13.239,13.239,0,0,1,68.315,85.414Z" fill="#fc6b55"/>
          <path id="Trazado_986965" data-name="Trazado 986965" d="M56.678,71.6a13.455,13.455,0,0,1,3.313,9.427c-.383,9.186-7.212,17.248-10.843,20.908a49.591,49.591,0,0,0,4.153,4.674,2.76,2.76,0,0,0,3.887,0c3.546-3.514,10.735-11.762,11.129-21.194A13.274,13.274,0,0,0,56.678,71.6Z" fill="#fc534e"/>
          <circle id="Elipse_11634" data-name="Elipse 11634" cx="6.405" cy="6.405" r="6.405" transform="translate(48.837 78.696)" fill="#e5ecf1"/>
          <path id="Trazado_986966" data-name="Trazado 986966" d="M56.48,78.817a6.4,6.4,0,0,1-5.7,10.877,6.4,6.4,0,1,0,5.7-10.877Z" fill="#c2d0da"/>
          <path id="Trazado_986967" data-name="Trazado 986967" d="M39.394,15.884C39,25.316,31.811,33.564,28.265,37.078a2.759,2.759,0,0,1-3.887,0c-3.645-3.612-11.147-12.233-11.147-22A13.09,13.09,0,0,1,26.465,1.99,13.239,13.239,0,0,1,39.394,15.884Z" fill="#fc6b55"/>
          <path id="Trazado_986968" data-name="Trazado 986968" d="M27.756,2.07A13.455,13.455,0,0,1,31.069,11.5c-.383,9.186-7.212,17.248-10.843,20.908a49.59,49.59,0,0,0,4.153,4.674,2.76,2.76,0,0,0,3.887,0C31.811,33.564,39,25.316,39.394,15.884A13.274,13.274,0,0,0,27.756,2.07Z" fill="#fc534e"/>
          <circle id="Elipse_11635" data-name="Elipse 11635" cx="6.405" cy="6.405" r="6.405" transform="translate(19.916 9.166)" fill="#e5ecf1"/>
          <path id="Trazado_986969" data-name="Trazado 986969" d="M27.559,9.287a6.4,6.4,0,0,1-5.7,10.877,6.4,6.4,0,1,0,5.7-10.877Z" fill="#c2d0da"/>
          <path id="Trazado_986970" data-name="Trazado 986970" d="M127.1,47.694a28.709,28.709,0,0,0,4.667-13.782,15.54,15.54,0,0,0-4.224-11.288,14.827,14.827,0,0,0-10.671-4.678H116.7a14.954,14.954,0,0,0-9.669,3.513,63.957,63.957,0,0,0-65.7-7.478,15.538,15.538,0,0,0-4.173-9.3A14.825,14.825,0,0,0,26.487,0h-.168A15.079,15.079,0,0,0,11.242,15.079c0,6.708,3.149,12.8,6.554,17.431A63.709,63.709,0,0,0,8.306,49.173,1.989,1.989,0,1,0,12.02,50.6a59.708,59.708,0,0,1,8.246-14.782,13.992,13.992,0,0,0-.078,1.41v9.667A5.1,5.1,0,0,0,28.2,51.081l7.13-4.951a11.806,11.806,0,0,1,6.764-2.118h9.177a13.239,13.239,0,0,0,9.423-3.9l9.056-9.056a8.24,8.24,0,0,0,.382-11.21l-4.41-5.056a3.139,3.139,0,0,1-.723-2.569c1-.05,2-.082,3.006-.082A60.1,60.1,0,0,1,104.334,24.4a14.959,14.959,0,0,0-2.707,8.621,24.1,24.1,0,0,0,1.4,7.9,23.326,23.326,0,0,0,1.837,12.705l3.871,8.617a12.871,12.871,0,0,0,18.922,5.408l.123-.083q.165,2.24.166,4.509A59.943,59.943,0,1,1,9.637,58.347a1.989,1.989,0,1,0-3.874-.908,64.229,64.229,0,0,0-1.685,14.64,63.921,63.921,0,0,0,109.12,45.2,63.969,63.969,0,0,0,13.9-69.584ZM18.514,7.188A11.022,11.022,0,0,1,26.32,3.979h.123a10.878,10.878,0,0,1,7.828,3.438A11.541,11.541,0,0,1,37.406,15.8c-.37,8.865-7.5,16.845-10.542,19.863a.774.774,0,0,1-1.086,0C22.6,32.52,15.22,24.217,15.22,15.079A11.022,11.022,0,0,1,18.514,7.188ZM62.718,17.4l4.41,5.056a4.25,4.25,0,0,1-.2,5.782L57.875,37.3a9.284,9.284,0,0,1-6.609,2.738H42.089a15.766,15.766,0,0,0-9.033,2.828l-7.13,4.95a1.12,1.12,0,0,1-1.759-.92V39.348a4.767,4.767,0,0,0,5.5-.857c3.837-3.8,10.1-11.2,11.464-20a60,60,0,0,1,19.851-5.937A7.12,7.12,0,0,0,62.718,17.4Zm53.987,4.521h.123a10.878,10.878,0,0,1,7.828,3.438,11.541,11.541,0,0,1,3.135,8.383c-.37,8.865-7.5,16.845-10.542,19.864a.774.774,0,0,1-1.086,0c-3.174-3.146-10.558-11.45-10.558-20.587a11.1,11.1,0,0,1,11.1-11.1Zm8.728,42.427a8.892,8.892,0,0,1-13.072-3.736L108.491,52a19.438,19.438,0,0,1-.864-2.313,50.9,50.9,0,0,0,5.736,6.753,4.765,4.765,0,0,0,6.687,0,52.1,52.1,0,0,0,4.3-4.831,59.233,59.233,0,0,1,2.925,11.506Z"/>
          <path id="Trazado_986971" data-name="Trazado 986971" d="M116.706,41.91a8.394,8.394,0,1,0-8.394-8.394A8.4,8.4,0,0,0,116.706,41.91Zm0-12.81a4.415,4.415,0,1,1-4.415,4.415A4.42,4.42,0,0,1,116.706,29.1Z"/>
          <path id="Trazado_986972" data-name="Trazado 986972" d="M86.375,43.5A14.825,14.825,0,0,0,75.7,38.822h-.167A15.09,15.09,0,0,0,60.764,50.865a13.616,13.616,0,0,0-11.7,5.729l-6.684,9.442a12.059,12.059,0,0,0-.92,12.435,15.033,15.033,0,0,0-1.3,6.139c0,8.763,5.371,16.475,9.669,21.244l-.433,11.76a8.319,8.319,0,0,0,13.053,7.134l18.312-12.722a29.714,29.714,0,0,0,7.319-7.255l5.528-7.809a1.99,1.99,0,0,0-3.248-2.3l-5.528,7.809a25.75,25.75,0,0,1-6.342,6.287L60.182,121.479a4.336,4.336,0,0,1-6.807-3.72l.324-8.627a4.747,4.747,0,0,0,4.887-1.111C62.784,103.86,69.889,95.4,70.3,85.5a15.542,15.542,0,0,0-4.224-11.288,14.98,14.98,0,0,0-21.442-.319c-.134.133-.263.27-.392.407a8.088,8.088,0,0,1,1.386-5.961l6.684-9.442a9.636,9.636,0,0,1,8.164-4.053c.428,9.849,7.467,18.264,11.716,22.474a4.765,4.765,0,0,0,6.687,0,50.538,50.538,0,0,0,6.006-7.146l10.323,7.308A5.975,5.975,0,0,1,96.636,85.8l-1.451,2.05a1.989,1.989,0,1,0,3.247,2.3l1.451-2.05A9.954,9.954,0,0,0,97.51,74.226L86.985,66.775A27.45,27.45,0,0,0,90.6,54.788,15.538,15.538,0,0,0,86.375,43.5ZM55.242,73.509h.123a10.878,10.878,0,0,1,7.828,3.438,11.542,11.542,0,0,1,3.135,8.383c-.37,8.865-7.5,16.844-10.542,19.864a.773.773,0,0,1-1.085,0c-3.175-3.146-10.559-11.448-10.559-20.586a11.1,11.1,0,0,1,11.1-11.1Zm20.841.977a.773.773,0,0,1-1.086,0C71.822,71.341,64.438,63.038,64.438,53.9a11.1,11.1,0,0,1,11.1-11.1h.123a10.878,10.878,0,0,1,7.828,3.438,11.541,11.541,0,0,1,3.135,8.383C86.254,63.487,79.129,71.466,76.082,74.486Z"/>
          <path id="Trazado_986973" data-name="Trazado 986973" d="M81.943,52.4a1.989,1.989,0,0,0-1.99,1.99,4.41,4.41,0,1,1-3.539-4.329,1.99,1.99,0,1,0,.784-3.9,8.4,8.4,0,1,0,6.734,8.23A1.989,1.989,0,0,0,81.943,52.4Z"/>
          <path id="Trazado_986974" data-name="Trazado 986974" d="M55.242,93.5A8.394,8.394,0,1,0,46.848,85.1,8.4,8.4,0,0,0,55.242,93.5Zm0-12.81A4.415,4.415,0,1,1,50.827,85.1,4.42,4.42,0,0,1,55.242,80.685Z"/>
          <path id="Trazado_986975" data-name="Trazado 986975" d="M34.715,15.571a8.394,8.394,0,1,0-8.395,8.394,8.4,8.4,0,0,0,8.395-8.394Zm-12.81,0a4.415,4.415,0,1,1,4.415,4.415,4.42,4.42,0,0,1-4.415-4.415Z"/>
        </g>
      </g>
      <path id="Trazado_952692" data-name="Trazado 952692" d="M32.192,147.506s-.284,6.987-5.872,7.652c0,0,6,1.791,6.66,7.672,0,0,1.5-7.127,5.53-7.712,0,0-4.674-.934-6.318-7.612" transform="translate(371.107 952.575)" fill="#eef0e7"/>
      <path id="Trazado_952694" data-name="Trazado 952694" d="M72.868,81.707s-.432,10.649-8.95,11.661c0,0,9.141,2.731,10.151,11.693,0,0,2.285-10.862,8.429-11.753,0,0-7.123-1.424-9.629-11.6" transform="translate(459.562 1096.008)" fill="#eef0e7"/>
    </g>
  </g>
</svg>
