<svg xmlns="http://www.w3.org/2000/svg" xmlns:xlink="http://www.w3.org/1999/xlink" width="73" height="73" viewBox="0 0 73 73">
  <defs>
    <clipPath id="clip-path">
      <rect id="Rectángulo_403288" data-name="Rectángulo 403288" width="73" height="73" transform="translate(299.713 3446.969)" fill="#6b0b0c" stroke="#6b0b0c" stroke-width="1"/>
    </clipPath>
  </defs>
  <g id="Grupo_1103759" data-name="Grupo 1103759" transform="translate(-919.711 -3467.969)">
    <g id="Grupo_1103450" data-name="Grupo 1103450" transform="translate(619.998 21)">
      <g id="Enmascarar_grupo_1098812" data-name="Enmascarar grupo 1098812" clip-path="url(#clip-path)">
        <g id="sabor_1_" data-name="sabor (1)" transform="translate(299.712 3446.969)">
          <path id="Trazado_986998" data-name="Trazado 986998" d="M62.915,25.938c.081-1.3.123-2.628.123-3.934A25.957,25.957,0,0,0,60.212,9.686a18.574,18.574,0,0,0-7.189-7.525,16.712,16.712,0,0,0-16.511.052,16.312,16.312,0,0,0-9-2.192,16.911,16.911,0,0,0-9.24,3.357L19.544,5.1a14.776,14.776,0,0,1,8.07-2.938,14.216,14.216,0,0,1,8.315,2.2l.559.352.565-.341a14.635,14.635,0,0,1,14.915-.348c4.739,2.678,7.788,7.694,8.663,14.065a18.267,18.267,0,0,0-5.35-6.309c-5.047-3.745-11.7-4.668-18.777-2.612-6.8-2.038-13.574-1.088-18.627,2.624a18.55,18.55,0,0,0-5.526,6.5A19.9,19.9,0,0,1,17.994,6.407L16.511,4.86C12.289,8.909,9.963,15,9.963,22c0,1.235.039,2.491.116,3.732l.048,0a25.172,25.172,0,0,0-.164,2.878,33.236,33.236,0,0,0,5.451,18.746C18.114,60.406,26.614,73,36.737,73c4.091,0,8.172-2.069,11.8-5.984a39.69,39.69,0,0,0,7.861-13.7l-2.024-.7a43.132,43.132,0,0,1-3.016,6.762q-.337-.461-.641-.963l-1.837,1.106a14.61,14.61,0,0,0,1.3,1.833,29.894,29.894,0,0,1-3.218,4.209c-.148.16-.3.315-.446.467a11.368,11.368,0,0,0-3.739-3.186l-1.014,1.888a9.182,9.182,0,0,1,3.172,2.765,12.892,12.892,0,0,1-8.2,3.363,12.87,12.87,0,0,1-8.2-3.369,8.716,8.716,0,0,1,1.151-1.317l-1.466-1.564a10.918,10.918,0,0,0-1.265,1.411,29.316,29.316,0,0,1-3.666-4.674,14.6,14.6,0,0,0,1.3-1.828l-1.837-1.1q-.3.5-.639.96a43.768,43.768,0,0,1-5.455-20.408q0-1.007.066-1.952a7.425,7.425,0,0,1,1.386.428l.829-1.977a9.539,9.539,0,0,0-1.975-.588c.638-3.982,2.266-6.962,4.8-8.726l.059-.039a9.948,9.948,0,0,0,.269,1.322l2.066-.569a7.78,7.78,0,0,1-.275-1.831c3.172-1.224,7.245-1.063,11.775.494v9.159c-.535-.034-1.067-.09-1.589-.176l-.345,2.115a18.539,18.539,0,0,0,1.934.208V45h2.143V36.832a18.529,18.529,0,0,0,2.015-.221L39.468,34.5a16.263,16.263,0,0,1-1.66.187v-9.15c4.584-1.521,8.651-1.705,11.777-.562a7.769,7.769,0,0,1-.258,1.822l2.071.551a9.926,9.926,0,0,0,.257-1.328c.059.039.119.078.176.119,2.519,1.774,4.091,4.7,4.7,8.736a9.529,9.529,0,0,0-1.989.589l.827,1.977a7.414,7.414,0,0,1,1.386-.426q.06.944.061,1.953a41.539,41.539,0,0,1-1.786,11.629l2.055.61a47.2,47.2,0,0,0,1.139-4.7l.062.039a34.214,34.214,0,0,0,4.755-17.929,26.409,26.409,0,0,0-.134-2.674ZM53.952,13.467a24.426,24.426,0,0,1-6.57,2.907V10.6A16.368,16.368,0,0,1,53.952,13.467Zm-8.714-3.158v6.608a38.991,38.991,0,0,1-7.667.87V11.1A22.559,22.559,0,0,1,45.239,10.308Zm-9.81.784v6.673a38.53,38.53,0,0,1-7.194-.92V10.307a21.583,21.583,0,0,1,7.194.785ZM19.539,13.244a16.8,16.8,0,0,1,6.553-2.672v5.7a23.552,23.552,0,0,1-6.553-3.033ZM58.931,40.275c.016-.441.025-.878.025-1.31,0-6.826-2.037-11.868-5.89-14.582-3.99-2.81-9.628-3.068-16.323-.752-6.435-2.3-12.175-2.037-16.2.759-3.945,2.743-6.03,7.783-6.03,14.575,0,.806.029,1.621.082,2.442a33.024,33.024,0,0,1-2.493-12.795c0-5.728,2.008-10.624,5.69-13.98,4.5,3.333,11.551,5.3,19.116,5.3,7.316,0,14.229-1.869,18.735-5.03,3.4,3.321,5.247,8.105,5.247,13.706a34.587,34.587,0,0,1-1.963,11.664Z" fill="#6b0b0c"/>
          <path id="Trazado_986999" data-name="Trazado 986999" d="M49.173,31.554l-1.642-1.378a12.17,12.17,0,0,1-4.212,3.142l.9,1.945A14.325,14.325,0,0,0,49.173,31.554Z" fill="#6b0b0c"/>
          <path id="Trazado_987000" data-name="Trazado 987000" d="M30.219,33.348a12.222,12.222,0,0,1-4.232-3.119l-1.633,1.389a14.376,14.376,0,0,0,4.974,3.68Z" fill="#6b0b0c"/>
          <path id="Trazado_987001" data-name="Trazado 987001" d="M22.966,38.39l-1.593,1.433a13.672,13.672,0,0,1,2.734,4.852l2.036-.67a15.819,15.819,0,0,0-3.176-5.616Z" fill="#6b0b0c"/>
          <path id="Trazado_987002" data-name="Trazado 987002" d="M26.453,55.062a19.6,19.6,0,0,0,.639-5c0-.448-.015-.9-.044-1.341l-2.139.142c.026.395.039.8.039,1.2a17.457,17.457,0,0,1-.568,4.457Z" fill="#6b0b0c"/>
          <path id="Trazado_987003" data-name="Trazado 987003" d="M49.092,54.511a17.467,17.467,0,0,1-.567-4.454c0-.4.013-.808.04-1.2l-2.139-.143c-.03.444-.045.9-.045,1.347a19.614,19.614,0,0,0,.638,5Z" fill="#6b0b0c"/>
          <path id="Trazado_987004" data-name="Trazado 987004" d="M52.106,39.817l-1.592-1.435A15.819,15.819,0,0,0,47.334,44l2.036.671a13.667,13.667,0,0,1,2.737-4.852Z" fill="#6b0b0c"/>
          <path id="Trazado_987005" data-name="Trazado 987005" d="M32.96,64.162a10.752,10.752,0,0,1,3.777-.673h0a11.125,11.125,0,0,1,1.34.081l.259-2.128a13.255,13.255,0,0,0-1.6-.1h0a12.89,12.89,0,0,0-4.527.808Z" fill="#6b0b0c"/>
          <path id="Trazado_987006" data-name="Trazado 987006" d="M35.665,47.156h2.143V49.29H35.665Z" fill="#6b0b0c"/>
        </g>
      </g>
      <path id="Trazado_952692" data-name="Trazado 952692" d="M30.531,147.506s-.2,5.01-4.211,5.487c0,0,4.3,1.284,4.776,5.5,0,0,1.075-5.111,3.966-5.53,0,0-3.351-.67-4.53-5.459" transform="translate(279.263 3358.609)" fill="#6b0b0c"/>
    </g>
  </g>
</svg>
