<svg xmlns="http://www.w3.org/2000/svg" xmlns:xlink="http://www.w3.org/1999/xlink" width="74.726" height="77.635" viewBox="0 0 74.726 77.635">
  <defs>
    <clipPath id="clip-path">
      <rect id="Rectángulo_403288" data-name="Rectángulo 403288" width="69.711" height="69.711" transform="translate(195.289 2045.645)" fill="#fff" stroke="#707070" stroke-width="1"/>
    </clipPath>
    <clipPath id="clip-path-2">
      <path id="path10623" d="M0-69.711H69.711V0H0Z"/>
    </clipPath>
    <clipPath id="clip-path-3">
      <rect id="Rectángulo_403931" data-name="Rectángulo 403931" width="33" height="33" transform="translate(237.711 2042.645)" fill="#fff" stroke="#707070" stroke-width="1"/>
    </clipPath>
  </defs>
  <g id="Grupo_1103752" data-name="Grupo 1103752" transform="translate(-192.985 -5747.076)">
    <g id="Grupo_1103456" data-name="Grupo 1103456" transform="translate(1 3709.355)">
      <path id="Rectángulo_403287" data-name="Rectángulo 403287" d="M22.285,0h0A22.285,22.285,0,0,1,44.569,22.285V64a0,0,0,0,1,0,0H0a0,0,0,0,1,0,0V22.285A22.285,22.285,0,0,1,22.285,0Z" transform="translate(207.86 2051.358)" fill="#ffd839"/>
      <g id="Enmascarar_grupo_1098823" data-name="Enmascarar grupo 1098823" clip-path="url(#clip-path)">
        <g id="g10617" transform="translate(195.289 2115.355)">
          <g id="g10619">
            <g id="g10621" clip-path="url(#clip-path-2)">
              <g id="g10627" transform="translate(37.624 -25.735)">
                <path id="path10629" d="M0,0C-.049,10.488-9.487,19.484-14.605,23.594a5.081,5.081,0,0,1-6.4-.03C-26.086,19.407-35.439,10.322-35.389-.166c.036-7.757,5.209-14.7,9.97-19.449a11.026,11.026,0,0,1,15.632.073C-5.07-14.746.036-7.757,0,0" fill="#d1a4a4"/>
              </g>
              <g id="g10631" transform="translate(20.022 -2.171)">
                <path id="path10633" d="M0,0C-5.079-4.158-14.432-13.243-14.383-23.731c.036-7.757,5.209-14.7,9.97-19.449a10.95,10.95,0,0,1,6.082-3.079A11,11,0,0,0-7.817-43.18c-4.762,4.752-9.934,11.693-9.97,19.449C-17.836-13.243-8.483-4.158-3.4,0a5.081,5.081,0,0,0,4.92.857A5.075,5.075,0,0,1,0,0" fill="#c59191"/>
              </g>
              <g id="g10635" transform="translate(28.077 -25.735)">
                <path id="path10637" d="M0,0C-.023,10.488-4.368,19.484-6.725,23.594c-.863,1.5-2.091,1.492-2.947-.03-2.339-4.158-6.645-13.243-6.623-23.731A47.555,47.555,0,0,1-11.7-19.616c1.989-4.312,5.227-4.279,7.2.073A48.068,48.068,0,0,1,0,0" fill="#b98080"/>
              </g>
              <g id="g10639" transform="translate(17.093 -57.901)">
                <path id="path10641" d="M0,0A1.908,1.908,0,0,0,.988,2.6,19.752,19.752,0,0,0,15.3,2.327,19.752,19.752,0,0,0,26.179-6.978a1.908,1.908,0,0,0-.988-2.6,19.752,19.752,0,0,0-14.313.273A19.751,19.751,0,0,0,0,0" fill="#bbec6c"/>
              </g>
              <g id="g10643" transform="translate(21.486 -55.302)">
                <path id="path10645" d="M0,0A1.908,1.908,0,0,1-.988-2.6,19.752,19.752,0,0,1,9.89-11.9a22.6,22.6,0,0,1,6.116-1.409A21.65,21.65,0,0,0,6.486-11.9,19.752,19.752,0,0,0-4.392-2.6,1.908,1.908,0,0,0-3.4,0a17.65,17.65,0,0,0,8.2,1.137A16.256,16.256,0,0,1,0,0" fill="#a2e62e"/>
              </g>
              <g id="g10647" transform="translate(64.442 -13.444)">
                <path id="path10649" d="M0,0C-5.48,8.844-18.126,11.559-24.585,12.382a5.04,5.04,0,0,1-5.4-3.344c-2.14-6.15-5.339-18.683.14-27.527,4.053-6.541,12.026-9.73,18.516-11.279A10.938,10.938,0,0,1,1.855-21.6C3.358-15.1,4.053-6.541,0,0" fill="#d1a4a4"/>
              </g>
              <g id="g10651" transform="translate(38.002 -31.934)">
                <path id="path10653" d="M0,0C-5.479,8.845-2.279,21.378-.14,27.528a5.038,5.038,0,0,0,3.289,3.164c-.453.068-.886.128-1.295.18a5.042,5.042,0,0,1-5.4-3.344C-5.683,21.378-8.883,8.845-3.4,0,.649-6.541,8.623-9.73,15.113-11.279a10.859,10.859,0,0,1,4.241-.165c-.279.044-.558.1-.837.165C12.026-9.73,4.053-6.541,0,0" fill="#c59191"/>
              </g>
              <g id="g10655" transform="translate(39.462 -5.203)">
                <path id="path10657" d="M0,0A1.017,1.017,0,0,1-1.12-.694c-1.791-5.562-4.442-16.679,0-23.842,3.443-5.557,10.938-8.341,16.619-9.7a5.876,5.876,0,0,1,4.463.715,5.871,5.871,0,0,1,2.676,3.708c1.315,5.691,2.16,13.641-1.284,19.2C16.912-3.449,5.778-.873,0,0" fill="#c59191"/>
              </g>
              <g id="g10659" transform="translate(41.742 -29.739)">
                <path id="path10661" d="M0,0C-4.439,7.163-1.786,18.28,0,23.842a1,1,0,0,0,.138.275c-.875.172-1.691.309-2.421.419A1.017,1.017,0,0,1-3.4,23.842C-5.19,18.28-7.842,7.163-3.4,0,.038-5.558,7.533-8.341,13.215-9.7a5.835,5.835,0,0,1,3.054.085C10.634-8.226,3.371-5.445,0,0" fill="#b98080"/>
              </g>
              <g id="g10663" transform="translate(8.026 -10.967)">
                <path id="path10665" d="M0,0A53.437,53.437,0,0,0,8.6,8.8a5.081,5.081,0,0,0,6.4.03A52.131,52.131,0,0,0,24.4-.852" fill="none" stroke="#000" stroke-linecap="round" stroke-linejoin="round" stroke-miterlimit="10" stroke-width="2.042"/>
              </g>
              <g id="g10667" transform="translate(5.346 -15.033)">
                <path id="path10669" d="M0,0A22.119,22.119,0,0,1-3.1-10.869c.037-7.757,5.209-14.7,9.971-19.45a11.026,11.026,0,0,1,15.632.074,38.268,38.268,0,0,1,8.074,11.5" fill="none" stroke="#000" stroke-linecap="round" stroke-linejoin="round" stroke-miterlimit="10" stroke-width="2.042"/>
              </g>
              <g id="g10671" transform="translate(28.085 -25.735)">
                <path id="path10673" d="M0,0C-.023,10.488-4.368,19.484-6.725,23.594c-.863,1.5-2.091,1.492-2.947-.03-2.339-4.158-6.645-13.243-6.623-23.731A47.555,47.555,0,0,1-11.7-19.616c1.989-4.312,5.227-4.279,7.2.073A48.068,48.068,0,0,1,0,0Z" fill="none" stroke="#000" stroke-linecap="round" stroke-linejoin="round" stroke-miterlimit="10" stroke-width="2.042"/>
              </g>
              <g id="g10675" transform="translate(19.937 -1.023)">
                <path id="path10677" d="M0,0V-47.54" fill="none" stroke="#000" stroke-linecap="round" stroke-linejoin="round" stroke-miterlimit="10" stroke-width="2.042"/>
              </g>
              <g id="g10679" transform="translate(17.101 -57.901)">
                <path id="path10681" d="M0,0A1.908,1.908,0,0,0,.988,2.6,19.752,19.752,0,0,0,15.3,2.327,19.752,19.752,0,0,0,26.179-6.978a1.908,1.908,0,0,0-.988-2.6,19.752,19.752,0,0,0-14.313.273A19.751,19.751,0,0,0,0,0Z" fill="none" stroke="#000" stroke-linecap="round" stroke-linejoin="round" stroke-miterlimit="10" stroke-width="2.042"/>
              </g>
              <g id="g10683" transform="translate(28.757 -60.845)">
                <path id="path10685" d="M0,0-11.831,4.5" fill="none" stroke="#000" stroke-linecap="round" stroke-linejoin="round" stroke-miterlimit="10" stroke-width="2.042"/>
              </g>
              <g id="g10687" transform="translate(8.044 -60.336)">
                <path id="path10689" d="M0,0A11.846,11.846,0,0,1,8.883,3.988c.129.144.254.291.375.443a11.818,11.818,0,0,1,2.619,7.343" fill="none" stroke="#000" stroke-linecap="round" stroke-linejoin="round" stroke-miterlimit="10" stroke-width="2.042"/>
              </g>
              <g id="g10691" transform="translate(67.469 -24.536)">
                <path id="path10693" d="M0,0A22.1,22.1,0,0,1-3.02,11.092C-8.5,19.937-21.146,22.652-27.605,23.474A5.042,5.042,0,0,1-33,20.13c-2.139-6.15-5.339-18.683.14-27.528,4.053-6.541,12.026-9.73,18.517-11.279A10.937,10.937,0,0,1-1.164-10.51,47.448,47.448,0,0,1-.219-5.036" fill="none" stroke="#000" stroke-linecap="round" stroke-linejoin="round" stroke-miterlimit="10" stroke-width="2.042"/>
              </g>
              <g id="g10695" transform="translate(39.47 -5.203)">
                <path id="path10697" d="M0,0A1.017,1.017,0,0,1-1.12-.694c-1.791-5.562-4.442-16.679,0-23.842,3.443-5.557,10.938-8.341,16.619-9.7a5.876,5.876,0,0,1,4.463.715,5.871,5.871,0,0,1,2.676,3.708c1.315,5.691,2.16,13.641-1.284,19.2C16.912-3.449,5.778-.873,0,0Z" fill="none" stroke="#000" stroke-linecap="round" stroke-linejoin="round" stroke-miterlimit="10" stroke-width="2.042"/>
              </g>
              <g id="g10699" transform="translate(39.209 -5.363)">
                <path id="path10701" d="M0,0C-.317.183-.533.047-.511-.32-.25-4.625.834-13.452,5.253-20.626c3.429-5.566,8.64-9.75,12.409-12.279,1.015-.681,1.913-.848,2.529-.47s.882,1.275.724,2.511c-.58,4.529-1.991,11.1-5.42,16.663C11.075-7.028,3.71-2.141,0,0Z" fill="none" stroke="#000" stroke-linecap="round" stroke-linejoin="round" stroke-miterlimit="10" stroke-width="2.042"/>
              </g>
              <g id="g10703" transform="translate(46.176 -36.347)">
                <path id="path10705" d="M0,0A56.12,56.12,0,0,1,17.075,10.577" fill="none" stroke="#000" stroke-linecap="round" stroke-linejoin="round" stroke-miterlimit="10" stroke-width="2.042"/>
              </g>
              <g id="g10707" transform="translate(38.356 -29.756)">
                <path id="path10709" d="M0,0,22.475,13.924" fill="none" stroke="#000" stroke-linecap="round" stroke-linejoin="round" stroke-miterlimit="10" stroke-width="2.042"/>
              </g>
              <g id="g10711" transform="translate(35.914 -19.838)">
                <path id="path10713" d="M0,0H0A56.093,56.093,0,0,0,17.125,10.608" fill="none" stroke="#000" stroke-linecap="round" stroke-linejoin="round" stroke-miterlimit="10" stroke-width="2.042"/>
              </g>
            </g>
          </g>
        </g>
      </g>
      <path id="Trazado_952694" data-name="Trazado 952694" d="M69.991,81.707s-.293,7.226-6.073,7.913c0,0,6.2,1.853,6.888,7.935,0,0,1.55-7.371,5.72-7.975,0,0-4.834-.966-6.534-7.873" transform="translate(128.067 1956.014)" fill="#6b0b0c"/>
      <g id="Enmascarar_grupo_1098824" data-name="Enmascarar grupo 1098824" transform="translate(-4 3)" clip-path="url(#clip-path-3)">
        <g id="hora" transform="translate(237.711 2042.645)">
          <path id="Trazado_987357" data-name="Trazado 987357" d="M21.252,25.487a5.634,5.634,0,0,1,7.77-5.212,14.53,14.53,0,1,0-6.607,8.639A5.609,5.609,0,0,1,21.252,25.487Z" fill="#74b9df"/>
          <g id="Grupo_1103506" data-name="Grupo 1103506" opacity="0.1">
            <path id="Trazado_987358" data-name="Trazado 987358" d="M2.25,16.409A14.53,14.53,0,0,1,15.9,1.907c-.292-.017-.587-.027-.883-.027a14.53,14.53,0,1,0,0,29.059c.3,0,.591-.01.883-.027A14.53,14.53,0,0,1,2.25,16.409Z"/>
          </g>
          <path id="Trazado_987359" data-name="Trazado 987359" d="M21.252,25.487a5.634,5.634,0,0,1,4.512-5.521,11.326,11.326,0,1,0-4.5,5.884C21.256,25.73,21.252,25.609,21.252,25.487Z" fill="#fff"/>
          <g id="Grupo_1103507" data-name="Grupo 1103507" opacity="0.1">
            <path id="Trazado_987360" data-name="Trazado 987360" d="M5.8,16.409A11.323,11.323,0,0,1,16.066,5.137c-.347-.032-.7-.049-1.053-.049a11.322,11.322,0,1,0,0,22.644c.355,0,.706-.017,1.053-.049A11.323,11.323,0,0,1,5.8,16.409Z"/>
          </g>
          <circle id="Elipse_11642" data-name="Elipse 11642" cx="1.577" cy="1.577" r="1.577" transform="translate(13.436 14.832)" fill="#ef5a50"/>
          <path id="Trazado_987361" data-name="Trazado 987361" d="M10.981,17.09a.323.323,0,0,1-.322.322H7.819A.323.323,0,0,1,7.5,17.09V15.729a.323.323,0,0,1,.322-.322h2.84a.323.323,0,0,1,.322.322Z" fill="#abccd3"/>
          <path id="Trazado_987362" data-name="Trazado 987362" d="M32.517,25.487a5.632,5.632,0,1,1-5.632-5.633A5.633,5.633,0,0,1,32.517,25.487Z" fill="#86d5b5"/>
          <g id="Grupo_1103508" data-name="Grupo 1103508" opacity="0.1">
            <path id="Trazado_987363" data-name="Trazado 987363" d="M22.451,25.487a5.633,5.633,0,0,1,5.033-5.6,5.633,5.633,0,1,0,0,11.2A5.634,5.634,0,0,1,22.451,25.487Z"/>
          </g>
          <path id="Trazado_987364" data-name="Trazado 987364" d="M26.166,28.27a1.352,1.352,0,0,1-.96-.4L23.553,26.18A1.014,1.014,0,0,1,25,24.761l1.163,1.187,2.369-2.427a1.014,1.014,0,0,1,1.451,1.417l-2.857,2.926a1.353,1.353,0,0,1-.961.406Z" fill="#fff"/>
          <path id="Trazado_987365" data-name="Trazado 987365" d="M15.013,8.205a.484.484,0,0,0-.484.484v5.717a2.061,2.061,0,1,0,2.487,2.487H21.3a.484.484,0,0,0,0-.967H17.016A2.067,2.067,0,0,0,15.5,14.406V8.689A.484.484,0,0,0,15.013,8.205Zm1.094,8.2a1.094,1.094,0,1,1-1.094-1.094A1.095,1.095,0,0,1,16.107,16.409Z"/>
          <path id="Trazado_987366" data-name="Trazado 987366" d="M7.819,14.923a.807.807,0,0,0-.806.806V17.09a.807.807,0,0,0,.806.806h2.84a.807.807,0,0,0,.806-.806V15.729a.807.807,0,0,0-.806-.806ZM10.5,16.929H7.98V15.89H10.5Z"/>
          <path id="Trazado_987367" data-name="Trazado 987367" d="M29.592,20A15.015,15.015,0,1,0,15.013,31.423h0a15.109,15.109,0,0,0,3.134-.328.484.484,0,0,0-.2-.946,14.138,14.138,0,0,1-2.933.307h0A14.046,14.046,0,0,1,5.081,6.478a14.049,14.049,0,0,1,23.6,13.164,6.094,6.094,0,0,0-1.8-.27q-.225,0-.447.016a11.857,11.857,0,0,0-.021-6.043.484.484,0,0,0-.934.251,10.846,10.846,0,0,1,.357,2.331h-.9a.484.484,0,0,0,0,.967h.9a10.774,10.774,0,0,1-.456,2.664,6.127,6.127,0,0,0-4.616,5.93c0,.034,0,.068,0,.1A10.768,10.768,0,0,1,15.5,27.237v-.9a.484.484,0,0,0-.967,0v.9A10.8,10.8,0,0,1,7.7,24.4l.635-.634a.484.484,0,0,0-.684-.684l-.635.635a10.8,10.8,0,0,1-2.843-7.214h.781a.484.484,0,0,0,0-.967H4.21A10.8,10.8,0,0,1,7.019,9.1l.635.635a.484.484,0,1,0,.684-.684L7.7,8.415A10.8,10.8,0,0,1,14.53,5.583v.9a.484.484,0,0,0,.967,0v-.9a10.779,10.779,0,0,1,6.83,2.829l-.637.637a.484.484,0,0,0,.684.684L23.01,9.1a10.87,10.87,0,0,1,1.327,1.784.484.484,0,1,0,.831-.494A11.806,11.806,0,1,0,15.013,28.215,11.731,11.731,0,0,0,20.88,26.65a6.082,6.082,0,0,0,.837,2.106q-.589.32-1.215.587a.484.484,0,0,0,.378.89,15.108,15.108,0,0,0,1.424-.7A6.111,6.111,0,0,0,30.242,30.6a.484.484,0,1,0-.532-.808,5.145,5.145,0,1,1,1.636-1.734.484.484,0,0,0,.838.484A6.117,6.117,0,0,0,29.592,20Z"/>
          <path id="Trazado_987368" data-name="Trazado 987368" d="M29.259,22.732a1.485,1.485,0,0,0-1.071.451l-2.024,2.073-.817-.834a1.5,1.5,0,0,0-2.139,2.1L24.86,28.2a1.838,1.838,0,0,0,1.306.549h0a1.839,1.839,0,0,0,1.306-.551l2.857-2.926a1.5,1.5,0,0,0-1.072-2.543Zm.38,1.868-2.857,2.926a.866.866,0,0,1-.615.26h0a.866.866,0,0,1-.615-.259L23.9,25.842a.53.53,0,1,1,.757-.742l1.163,1.187a.484.484,0,0,0,.345.145h0a.483.483,0,0,0,.346-.146l2.369-2.427a.53.53,0,0,1,.759.741Z"/>
        </g>
      </g>
    </g>
  </g>
</svg>
