<svg xmlns="http://www.w3.org/2000/svg" xmlns:xlink="http://www.w3.org/1999/xlink" width="79.726" height="77.635" viewBox="0 0 79.726 77.635">
  <defs>
    <clipPath id="clip-path">
      <rect id="Rectángulo_403288" data-name="Rectángulo 403288" width="69.711" height="69.711" transform="translate(195.289 2045.645)" fill="#fff" stroke="#707070" stroke-width="1"/>
    </clipPath>
    <clipPath id="clip-path-2">
      <path id="path10623" d="M0-69.711H69.711V0H0Z"/>
    </clipPath>
    <clipPath id="clip-path-3">
      <rect id="Rectángulo_403931" data-name="Rectángulo 403931" width="33" height="33" transform="translate(238.711 2045.645)" fill="#fff" stroke="#707070" stroke-width="1"/>
    </clipPath>
  </defs>
  <g id="Grupo_1103753" data-name="Grupo 1103753" transform="translate(-611.274 -5747.076)">
    <g id="Grupo_1103509" data-name="Grupo 1103509" transform="translate(419.289 3709.355)">
      <path id="Rectángulo_403287" data-name="Rectángulo 403287" d="M22.285,0h0A22.285,22.285,0,0,1,44.569,22.285V64a0,0,0,0,1,0,0H0a0,0,0,0,1,0,0V22.285A22.285,22.285,0,0,1,22.285,0Z" transform="translate(207.86 2051.358)" fill="#ffd839"/>
      <g id="Enmascarar_grupo_1098823" data-name="Enmascarar grupo 1098823" clip-path="url(#clip-path)">
        <g id="g10617" transform="translate(195.289 2115.355)">
          <g id="g10619">
            <g id="g10621" clip-path="url(#clip-path-2)">
              <g id="g10627" transform="translate(37.624 -25.735)">
                <path id="path10629" d="M0,0C-.049,10.488-9.487,19.484-14.605,23.594a5.081,5.081,0,0,1-6.4-.03C-26.086,19.407-35.439,10.322-35.389-.166c.036-7.757,5.209-14.7,9.97-19.449a11.026,11.026,0,0,1,15.632.073C-5.07-14.746.036-7.757,0,0" fill="#d1a4a4"/>
              </g>
              <g id="g10631" transform="translate(20.022 -2.171)">
                <path id="path10633" d="M0,0C-5.079-4.158-14.432-13.243-14.383-23.731c.036-7.757,5.209-14.7,9.97-19.449a10.95,10.95,0,0,1,6.082-3.079A11,11,0,0,0-7.817-43.18c-4.762,4.752-9.934,11.693-9.97,19.449C-17.836-13.243-8.483-4.158-3.4,0a5.081,5.081,0,0,0,4.92.857A5.075,5.075,0,0,1,0,0" fill="#c59191"/>
              </g>
              <g id="g10635" transform="translate(28.077 -25.735)">
                <path id="path10637" d="M0,0C-.023,10.488-4.368,19.484-6.725,23.594c-.863,1.5-2.091,1.492-2.947-.03-2.339-4.158-6.645-13.243-6.623-23.731A47.555,47.555,0,0,1-11.7-19.616c1.989-4.312,5.227-4.279,7.2.073A48.068,48.068,0,0,1,0,0" fill="#b98080"/>
              </g>
              <g id="g10639" transform="translate(17.093 -57.901)">
                <path id="path10641" d="M0,0A1.908,1.908,0,0,0,.988,2.6,19.752,19.752,0,0,0,15.3,2.327,19.752,19.752,0,0,0,26.179-6.978a1.908,1.908,0,0,0-.988-2.6,19.752,19.752,0,0,0-14.313.273A19.751,19.751,0,0,0,0,0" fill="#bbec6c"/>
              </g>
              <g id="g10643" transform="translate(21.486 -55.302)">
                <path id="path10645" d="M0,0A1.908,1.908,0,0,1-.988-2.6,19.752,19.752,0,0,1,9.89-11.9a22.6,22.6,0,0,1,6.116-1.409A21.65,21.65,0,0,0,6.486-11.9,19.752,19.752,0,0,0-4.392-2.6,1.908,1.908,0,0,0-3.4,0a17.65,17.65,0,0,0,8.2,1.137A16.256,16.256,0,0,1,0,0" fill="#a2e62e"/>
              </g>
              <g id="g10647" transform="translate(64.442 -13.444)">
                <path id="path10649" d="M0,0C-5.48,8.844-18.126,11.559-24.585,12.382a5.04,5.04,0,0,1-5.4-3.344c-2.14-6.15-5.339-18.683.14-27.527,4.053-6.541,12.026-9.73,18.516-11.279A10.938,10.938,0,0,1,1.855-21.6C3.358-15.1,4.053-6.541,0,0" fill="#d1a4a4"/>
              </g>
              <g id="g10651" transform="translate(38.002 -31.934)">
                <path id="path10653" d="M0,0C-5.479,8.845-2.279,21.378-.14,27.528a5.038,5.038,0,0,0,3.289,3.164c-.453.068-.886.128-1.295.18a5.042,5.042,0,0,1-5.4-3.344C-5.683,21.378-8.883,8.845-3.4,0,.649-6.541,8.623-9.73,15.113-11.279a10.859,10.859,0,0,1,4.241-.165c-.279.044-.558.1-.837.165C12.026-9.73,4.053-6.541,0,0" fill="#c59191"/>
              </g>
              <g id="g10655" transform="translate(39.462 -5.203)">
                <path id="path10657" d="M0,0A1.017,1.017,0,0,1-1.12-.694c-1.791-5.562-4.442-16.679,0-23.842,3.443-5.557,10.938-8.341,16.619-9.7a5.876,5.876,0,0,1,4.463.715,5.871,5.871,0,0,1,2.676,3.708c1.315,5.691,2.16,13.641-1.284,19.2C16.912-3.449,5.778-.873,0,0" fill="#9d91c5"/>
              </g>
              <g id="g10659" transform="translate(41.742 -29.739)">
                <path id="path10661" d="M0,0C-4.439,7.163-1.786,18.28,0,23.842a1,1,0,0,0,.138.275c-.875.172-1.691.309-2.421.419A1.017,1.017,0,0,1-3.4,23.842C-5.19,18.28-7.842,7.163-3.4,0,.038-5.558,7.533-8.341,13.215-9.7a5.835,5.835,0,0,1,3.054.085C10.634-8.226,3.371-5.445,0,0" fill="#b6aae2"/>
              </g>
              <g id="g10663" transform="translate(8.026 -10.967)">
                <path id="path10665" d="M0,0A53.437,53.437,0,0,0,8.6,8.8a5.081,5.081,0,0,0,6.4.03A52.131,52.131,0,0,0,24.4-.852" fill="none" stroke="#000" stroke-linecap="round" stroke-linejoin="round" stroke-miterlimit="10" stroke-width="2.042"/>
              </g>
              <g id="g10667" transform="translate(5.346 -15.033)">
                <path id="path10669" d="M0,0A22.119,22.119,0,0,1-3.1-10.869c.037-7.757,5.209-14.7,9.971-19.45a11.026,11.026,0,0,1,15.632.074,38.268,38.268,0,0,1,8.074,11.5" fill="none" stroke="#000" stroke-linecap="round" stroke-linejoin="round" stroke-miterlimit="10" stroke-width="2.042"/>
              </g>
              <g id="g10671" transform="translate(28.085 -25.735)">
                <path id="path10673" d="M0,0C-.023,10.488-4.368,19.484-6.725,23.594c-.863,1.5-2.091,1.492-2.947-.03-2.339-4.158-6.645-13.243-6.623-23.731A47.555,47.555,0,0,1-11.7-19.616c1.989-4.312,5.227-4.279,7.2.073A48.068,48.068,0,0,1,0,0Z" fill="none" stroke="#000" stroke-linecap="round" stroke-linejoin="round" stroke-miterlimit="10" stroke-width="2.042"/>
              </g>
              <g id="g10675" transform="translate(19.937 -1.023)">
                <path id="path10677" d="M0,0V-47.54" fill="none" stroke="#000" stroke-linecap="round" stroke-linejoin="round" stroke-miterlimit="10" stroke-width="2.042"/>
              </g>
              <g id="g10679" transform="translate(17.101 -57.901)">
                <path id="path10681" d="M0,0A1.908,1.908,0,0,0,.988,2.6,19.752,19.752,0,0,0,15.3,2.327,19.752,19.752,0,0,0,26.179-6.978a1.908,1.908,0,0,0-.988-2.6,19.752,19.752,0,0,0-14.313.273A19.751,19.751,0,0,0,0,0Z" fill="none" stroke="#000" stroke-linecap="round" stroke-linejoin="round" stroke-miterlimit="10" stroke-width="2.042"/>
              </g>
              <g id="g10683" transform="translate(28.757 -60.845)">
                <path id="path10685" d="M0,0-11.831,4.5" fill="none" stroke="#000" stroke-linecap="round" stroke-linejoin="round" stroke-miterlimit="10" stroke-width="2.042"/>
              </g>
              <g id="g10687" transform="translate(8.044 -60.336)">
                <path id="path10689" d="M0,0A11.846,11.846,0,0,1,8.883,3.988c.129.144.254.291.375.443a11.818,11.818,0,0,1,2.619,7.343" fill="none" stroke="#000" stroke-linecap="round" stroke-linejoin="round" stroke-miterlimit="10" stroke-width="2.042"/>
              </g>
              <g id="g10691" transform="translate(67.469 -24.536)">
                <path id="path10693" d="M0,0A22.1,22.1,0,0,1-3.02,11.092C-8.5,19.937-21.146,22.652-27.605,23.474A5.042,5.042,0,0,1-33,20.13c-2.139-6.15-5.339-18.683.14-27.528,4.053-6.541,12.026-9.73,18.517-11.279A10.937,10.937,0,0,1-1.164-10.51,47.448,47.448,0,0,1-.219-5.036" fill="none" stroke="#000" stroke-linecap="round" stroke-linejoin="round" stroke-miterlimit="10" stroke-width="2.042"/>
              </g>
              <g id="g10695" transform="translate(39.47 -5.203)">
                <path id="path10697" d="M0,0A1.017,1.017,0,0,1-1.12-.694c-1.791-5.562-4.442-16.679,0-23.842,3.443-5.557,10.938-8.341,16.619-9.7a5.876,5.876,0,0,1,4.463.715,5.871,5.871,0,0,1,2.676,3.708c1.315,5.691,2.16,13.641-1.284,19.2C16.912-3.449,5.778-.873,0,0Z" fill="none" stroke="#000" stroke-linecap="round" stroke-linejoin="round" stroke-miterlimit="10" stroke-width="2.042"/>
              </g>
              <g id="g10699" transform="translate(39.209 -5.363)">
                <path id="path10701" d="M0,0C-.317.183-.533.047-.511-.32-.25-4.625.834-13.452,5.253-20.626c3.429-5.566,8.64-9.75,12.409-12.279,1.015-.681,1.913-.848,2.529-.47s.882,1.275.724,2.511c-.58,4.529-1.991,11.1-5.42,16.663C11.075-7.028,3.71-2.141,0,0Z" fill="none" stroke="#000" stroke-linecap="round" stroke-linejoin="round" stroke-miterlimit="10" stroke-width="2.042"/>
              </g>
              <g id="g10703" transform="translate(46.176 -36.347)">
                <path id="path10705" d="M0,0A56.12,56.12,0,0,1,17.075,10.577" fill="none" stroke="#000" stroke-linecap="round" stroke-linejoin="round" stroke-miterlimit="10" stroke-width="2.042"/>
              </g>
              <g id="g10707" transform="translate(38.356 -29.756)">
                <path id="path10709" d="M0,0,22.475,13.924" fill="none" stroke="#000" stroke-linecap="round" stroke-linejoin="round" stroke-miterlimit="10" stroke-width="2.042"/>
              </g>
              <g id="g10711" transform="translate(35.914 -19.838)">
                <path id="path10713" d="M0,0H0A56.093,56.093,0,0,0,17.125,10.608" fill="none" stroke="#000" stroke-linecap="round" stroke-linejoin="round" stroke-miterlimit="10" stroke-width="2.042"/>
              </g>
            </g>
          </g>
        </g>
      </g>
      <path id="Trazado_952694" data-name="Trazado 952694" d="M69.991,81.707s-.293,7.226-6.073,7.913c0,0,6.2,1.853,6.888,7.935,0,0,1.55-7.371,5.72-7.975,0,0-4.834-.966-6.534-7.873" transform="translate(128.067 1956.014)" fill="#6b0b0c"/>
      <g id="Enmascarar_grupo_1098825" data-name="Enmascarar grupo 1098825" clip-path="url(#clip-path-3)">
        <g id="gerente-de-tiempo" transform="translate(240.532 2047.464)">
          <g id="Grupo_1103511" data-name="Grupo 1103511">
            <g id="Grupo_1103510" data-name="Grupo 1103510">
              <circle id="Elipse_11643" data-name="Elipse 11643" cx="13.554" cy="13.554" r="13.554" transform="translate(0.487 0.487)" fill="#ffe27a"/>
              <path id="Trazado_987369" data-name="Trazado 987369" d="M14.042,26.5A13.554,13.554,0,0,1,.5,13.493c-.007.182-.012.364-.012.548a13.554,13.554,0,1,0,27.109,0c0-.184,0-.366-.012-.548A13.554,13.554,0,0,1,14.042,26.5Z" fill="#f9cf58"/>
              <circle id="Elipse_11644" data-name="Elipse 11644" cx="11.214" cy="11.214" r="11.214" transform="translate(-1.821 14.042) rotate(-45)" fill="#f9f6f6"/>
              <path id="Trazado_987370" data-name="Trazado 987370" d="M14.042,24.161a11.216,11.216,0,0,1-11.2-10.668q-.013.272-.013.548a11.216,11.216,0,0,0,22.432,0q0-.276-.014-.548a11.216,11.216,0,0,1-11.2,10.668Z" fill="#ecdaec"/>
              <path id="Trazado_987371" data-name="Trazado 987371" d="M13,15.081,6.111,21.972A11.216,11.216,0,1,0,14.042,2.826v9.746" fill="#ff4755"/>
              <circle id="Elipse_11645" data-name="Elipse 11645" cx="1.47" cy="1.47" r="1.47" transform="translate(12.571 12.571)" fill="#ffe27a"/>
              <path id="Trazado_987372" data-name="Trazado 987372" d="M14.042,14.415a1.47,1.47,0,0,1-1.364-.922,1.47,1.47,0,1,0,2.728,0,1.47,1.47,0,0,1-1.364.922Z" fill="#f9cf58"/>
              <path id="Trazado_987373" data-name="Trazado 987373" d="M14.042,24.161a11.172,11.172,0,0,1-7.364-2.756l-.567.567a11.216,11.216,0,0,0,19.147-7.931q0-.276-.014-.548a11.216,11.216,0,0,1-11.2,10.668Z" fill="#fc2b3a"/>
            </g>
            <path id="Trazado_987374" data-name="Trazado 987374" d="M30.264,21.354l-1.407-.212a6.566,6.566,0,0,0-1.035-2.5l.846-1.145a.5.5,0,0,0-.049-.655l-.729-.728a.5.5,0,0,0-.655-.049l-1.145.846a6.566,6.566,0,0,0-2.5-1.035L23.38,14.47a.5.5,0,0,0-.5-.429h-1.03a.5.5,0,0,0-.5.429l-.212,1.407a6.566,6.566,0,0,0-2.5,1.035L17.5,16.067a.5.5,0,0,0-.655.049l-.729.728a.5.5,0,0,0-.049.655l.846,1.145a6.566,6.566,0,0,0-1.035,2.5l-1.407.212a.5.5,0,0,0-.429.5v1.03a.5.5,0,0,0,.429.5l1.407.212a6.566,6.566,0,0,0,1.035,2.5l-.846,1.145a.5.5,0,0,0,.049.655l.729.729a.5.5,0,0,0,.655.049l1.145-.846a6.566,6.566,0,0,0,2.5,1.035l.212,1.407a.5.5,0,0,0,.5.429h1.03a.5.5,0,0,0,.5-.429l.212-1.407a6.566,6.566,0,0,0,2.5-1.035l1.145.846a.5.5,0,0,0,.655-.049l.729-.729a.5.5,0,0,0,.049-.655l-.846-1.145a6.566,6.566,0,0,0,1.035-2.5l1.407-.212a.5.5,0,0,0,.429-.5v-1.03a.5.5,0,0,0-.429-.5Zm-7.9,5.231a4.218,4.218,0,1,1,4.218-4.218A4.218,4.218,0,0,1,22.367,26.585Z" fill="#4a80aa"/>
            <circle id="Elipse_11646" data-name="Elipse 11646" cx="4.218" cy="4.218" r="4.218" transform="translate(18.149 18.149)" fill="#ffe27a"/>
            <path id="Trazado_987375" data-name="Trazado 987375" d="M22.367,27.681a4.212,4.212,0,0,0,4.181-4.766,4.217,4.217,0,0,1-8.363,0,4.212,4.212,0,0,0,4.181,4.766Z" fill="#407093"/>
            <path id="Trazado_987376" data-name="Trazado 987376" d="M22.367,25.489a4.218,4.218,0,0,1-4.181-3.67,4.218,4.218,0,1,0,8.363,0,4.218,4.218,0,0,1-4.181,3.67Z" fill="#f9cf58"/>
          </g>
          <g id="Grupo_1103512" data-name="Grupo 1103512">
            <path id="Trazado_987377" data-name="Trazado 987377" d="M22.38,17.7A4.684,4.684,0,1,0,24.1,26.739a.458.458,0,0,0-.336-.852,3.773,3.773,0,1,1,1.354-.915.458.458,0,1,0,.664.63,4.684,4.684,0,0,0-3.4-7.906Z"/>
            <path id="Trazado_987378" data-name="Trazado 987378" d="M30.36,20.913l-1.1-.165a6.983,6.983,0,0,0-.862-2.081l.659-.892a.956.956,0,0,0-.094-1.252l-.73-.73a.972.972,0,0,0-.249-.18,14.176,14.176,0,0,0,.089-1.575A14.039,14.039,0,0,0,4.991,3.3a.458.458,0,1,0,.59.7,13.123,13.123,0,0,1,21.58,10.035,13.27,13.27,0,0,1-.1,1.609c-.026.016-.052.033-.078.052l-.892.659q-.261-.162-.534-.3a11.8,11.8,0,0,0,.175-2.021,11.642,11.642,0,0,0-1.955-6.475.458.458,0,1,0-.762.507,10.73,10.73,0,0,1,1.8,5.968,10.892,10.892,0,0,1-.127,1.656,7.014,7.014,0,0,0-.679-.2l-.165-1.1a.956.956,0,0,0-.951-.819H21.864a.956.956,0,0,0-.952.819l-.165,1.1a6.982,6.982,0,0,0-2.081.862l-.892-.659a.957.957,0,0,0-1.252.094l-.73.73a.956.956,0,0,0-.094,1.252l.659.892a6.981,6.981,0,0,0-.862,2.081l-1.1.165a.956.956,0,0,0-.819.952V22.9a.956.956,0,0,0,.819.951l1.1.165a7.014,7.014,0,0,0,.2.679,10.892,10.892,0,0,1-1.656.127A10.739,10.739,0,0,1,6.75,21.974l6.286-6.286a1.93,1.93,0,1,0,1.46-3.525V3.269a10.741,10.741,0,0,1,7.432,3.424.458.458,0,0,0,.67-.624,11.7,11.7,0,1,0-8.56,19.665,11.8,11.8,0,0,0,2.021-.175q.137.272.3.534l-.659.892c-.019.025-.036.051-.052.078a13.272,13.272,0,0,1-1.609.1A13.123,13.123,0,0,1,4.307,5.234a.458.458,0,0,0-.678-.614,14.039,14.039,0,0,0,10.41,23.458,14.176,14.176,0,0,0,1.575-.089.972.972,0,0,0,.18.249l.73.73a.956.956,0,0,0,1.252.094l.892-.659a6.982,6.982,0,0,0,2.081.862l.165,1.1a.956.956,0,0,0,.952.819H22.9a.956.956,0,0,0,.951-.819l.165-1.1a6.98,6.98,0,0,0,2.081-.862l.892.659a.956.956,0,0,0,1.252-.093l.73-.73a.957.957,0,0,0,.094-1.252l-.659-.892a6.98,6.98,0,0,0,.862-2.081l1.1-.165a.956.956,0,0,0,.819-.951V21.864a.956.956,0,0,0-.819-.952ZM15.054,14.038a1.015,1.015,0,1,1-1.015-1.015A1.016,1.016,0,0,1,15.054,14.038ZM3.269,14.5H4.926a.458.458,0,1,0,0-.915H3.269A10.739,10.739,0,0,1,6.1,6.75L7.272,7.919a.458.458,0,1,0,.647-.647L6.75,6.1a10.739,10.739,0,0,1,6.831-2.834v8.894a1.929,1.929,0,0,0-1.192,2.877L6.1,21.327A10.739,10.739,0,0,1,3.269,14.5Zm27,8.4a.047.047,0,0,1-.04.046l-1.41.212a.458.458,0,0,0-.382.368,6.089,6.089,0,0,1-.965,2.329.458.458,0,0,0,.01.53l.848,1.147a.047.047,0,0,1,0,.061l-.73.73a.046.046,0,0,1-.061,0l-1.147-.848a.458.458,0,0,0-.53-.01,6.088,6.088,0,0,1-2.329.965.458.458,0,0,0-.368.382l-.212,1.41a.047.047,0,0,1-.046.04H21.864a.047.047,0,0,1-.046-.04l-.212-1.41a.458.458,0,0,0-.368-.382,6.09,6.09,0,0,1-2.329-.965.458.458,0,0,0-.53.01l-1.147.848a.047.047,0,0,1-.061,0l-.73-.73a.047.047,0,0,1,0-.061l.848-1.147a.457.457,0,0,0,.01-.53,6.09,6.09,0,0,1-.965-2.329.458.458,0,0,0-.382-.368l-1.41-.212a.047.047,0,0,1-.04-.046V21.864a.047.047,0,0,1,.04-.046l1.41-.212a.458.458,0,0,0,.382-.368,6.09,6.09,0,0,1,.965-2.329.458.458,0,0,0-.01-.53l-.848-1.147a.047.047,0,0,1,0-.061l.73-.73a.047.047,0,0,1,.061,0l1.147.848a.458.458,0,0,0,.53.01,6.09,6.09,0,0,1,2.329-.965.458.458,0,0,0,.368-.382l.212-1.41a.047.047,0,0,1,.046-.04H22.9a.047.047,0,0,1,.046.04l.212,1.41a.458.458,0,0,0,.368.382,6.09,6.09,0,0,1,2.329.965.457.457,0,0,0,.53-.01l1.147-.848a.047.047,0,0,1,.061,0l.73.73a.047.047,0,0,1,0,.061l-.848,1.147a.458.458,0,0,0-.01.53,6.089,6.089,0,0,1,.965,2.329.458.458,0,0,0,.382.368l1.41.212a.047.047,0,0,1,.04.046V22.9Z"/>
            <path id="Trazado_987379" data-name="Trazado 987379" d="M23.6,21.021l-1.71,1.753-.742-.722a.458.458,0,0,0-.638.656l1.07,1.04a.458.458,0,0,0,.647-.009l2.029-2.08a.458.458,0,0,0-.655-.639Z"/>
          </g>
        </g>
      </g>
    </g>
  </g>
</svg>
