<svg xmlns="http://www.w3.org/2000/svg" xmlns:xlink="http://www.w3.org/1999/xlink" width="68" height="73" viewBox="0 0 68 73">
  <defs>
    <clipPath id="clip-path">
      <rect id="Rectángulo_403984" data-name="Rectángulo 403984" width="62.433" height="63.667" fill="none"/>
    </clipPath>
    <clipPath id="clip-path-3">
      <rect id="Rectángulo_403974" data-name="Rectángulo 403974" width="44.469" height="21.946" fill="none"/>
    </clipPath>
    <clipPath id="clip-path-4">
      <path id="Trazado_987883" data-name="Trazado 987883" d="M34.546,0,21.367,7.609,32.53,14.053,45.709,6.444Z" transform="translate(-21.367 0.001)" fill="none"/>
    </clipPath>
    <linearGradient id="linear-gradient" x1="-0.496" y1="4.53" x2="-0.473" y2="4.53" gradientUnits="objectBoundingBox">
      <stop offset="0" stop-color="#bec7ee"/>
      <stop offset="1" stop-color="#bec7ee"/>
    </linearGradient>
    <clipPath id="clip-path-6">
      <path id="Trazado_987888" data-name="Trazado 987888" d="M39.737,39.534,61.754,52.245l16.411-9.474L56.148,30.059Z" transform="translate(-39.737 -30.059)" fill="none"/>
    </clipPath>
    <linearGradient id="linear-gradient-2" x1="-0.584" y1="2.104" x2="-0.57" y2="2.104" gradientUnits="objectBoundingBox">
      <stop offset="0" stop-color="#fcf1ec"/>
      <stop offset="0.591" stop-color="#fcf1ec"/>
      <stop offset="0.596" stop-color="#fffffa"/>
      <stop offset="1" stop-color="#fffffa"/>
    </linearGradient>
    <clipPath id="clip-path-8">
      <path id="Trazado_987890" data-name="Trazado 987890" d="M47.905,18.315c-4.535,2.618-8.2,8.964-8.184,14.175L61.743,45.212C61.728,40,65.392,33.655,69.927,31.037c2.282-1.318,4.349-1.44,5.842-.572L53.747,17.743a4.248,4.248,0,0,0-2.158-.554,7.477,7.477,0,0,0-3.684,1.126" transform="translate(-39.721 -17.189)" fill="none"/>
    </clipPath>
    <linearGradient id="linear-gradient-3" x1="-0.456" y1="1.383" x2="-0.443" y2="1.383" gradientUnits="objectBoundingBox">
      <stop offset="0" stop-color="#d0d9e7"/>
      <stop offset="1" stop-color="#bec7ee"/>
    </linearGradient>
    <clipPath id="clip-path-10">
      <path id="Trazado_987902" data-name="Trazado 987902" d="M96.538,45.843l-.087-.05ZM89.6,45.065a14.923,14.923,0,0,0-6.751,11.694l2.121,1.224A14.922,14.922,0,0,1,91.72,46.289c1.842-1.063,3.512-1.176,4.73-.5l-2.033-1.174a3.462,3.462,0,0,0-1.8-.475,6.124,6.124,0,0,0-3.015.922" transform="translate(-82.848 -44.143)" fill="none"/>
    </clipPath>
    <linearGradient id="linear-gradient-4" x1="-2.349" y1="2.195" x2="-2.319" y2="2.195" xlink:href="#linear-gradient-3"/>
  </defs>
  <g id="Grupo_1103751" data-name="Grupo 1103751" transform="translate(13367.801 11895)">
    <g id="Grupo_1102767" data-name="Grupo 1102767" transform="translate(-14631.301 -12401)">
      <circle id="Elipse_11617" data-name="Elipse 11617" cx="34" cy="34" r="34" transform="translate(1263.5 511)" fill="#ffd839"/>
      <g id="Grupo_1103647" data-name="Grupo 1103647" transform="translate(1263.5 506)">
        <g id="Grupo_1103646" data-name="Grupo 1103646" clip-path="url(#clip-path)">
          <g id="Grupo_1103629" data-name="Grupo 1103629">
            <g id="Grupo_1103628" data-name="Grupo 1103628" clip-path="url(#clip-path)">
              <g id="Grupo_1103627" data-name="Grupo 1103627" transform="translate(0 41.721)" opacity="0.7" style="mix-blend-mode: multiply;isolation: isolate">
                <g id="Grupo_1103626" data-name="Grupo 1103626">
                  <g id="Grupo_1103625" data-name="Grupo 1103625" clip-path="url(#clip-path-3)">
                    <path id="Trazado_987877" data-name="Trazado 987877" d="M24.722,73.84H13.091L0,81.4,24.921,95.787H44.469Z" transform="translate(0 -73.84)" fill="#4c5989"/>
                  </g>
                </g>
              </g>
              <path id="Trazado_987878" data-name="Trazado 987878" d="M35.337,34.876V47.894a4.982,4.982,0,0,0,2.492,4.315L43.7,55.6,52.713,35Z" transform="translate(-15.371 -15.171)" fill="#2a1a2f"/>
              <path id="Trazado_987879" data-name="Trazado 987879" d="M40.554,18.893,22.238,15.626,27.215,26.48,33.6,30.167Z" transform="translate(-9.673 -6.797)" fill="#737a9e"/>
              <path id="Trazado_987880" data-name="Trazado 987880" d="M41.123,18.883V32.068l10.541-6.558,1.957-12.277Z" transform="translate(-17.888 -5.757)" fill="#a0a8d0"/>
              <path id="Trazado_987881" data-name="Trazado 987881" d="M32.53,21.229,21.367,14.785V13.467L32.53,19.911Z" transform="translate(-9.295 -5.858)" fill="#737a9e"/>
              <path id="Trazado_987882" data-name="Trazado 987882" d="M54.3,12.724,41.124,20.333V19.015L54.3,11.406Z" transform="translate(-17.888 -4.961)" fill="#a0a8d0"/>
            </g>
          </g>
          <g id="Grupo_1103631" data-name="Grupo 1103631" transform="translate(12.073 -0.001)">
            <g id="Grupo_1103630" data-name="Grupo 1103630" clip-path="url(#clip-path-4)">
              <rect id="Rectángulo_403976" data-name="Rectángulo 403976" width="24.342" height="14.054" fill="url(#linear-gradient)"/>
            </g>
          </g>
          <g id="Grupo_1103633" data-name="Grupo 1103633">
            <g id="Grupo_1103632" data-name="Grupo 1103632" clip-path="url(#clip-path)">
              <path id="Trazado_987884" data-name="Trazado 987884" d="M22.734,7.952,35.141.789l10.39,6L33.124,13.951Z" transform="translate(-9.889 -0.343)" fill="#a0a8d0"/>
              <path id="Trazado_987885" data-name="Trazado 987885" d="M43.14.789l10.39,6L41.124,13.951l2.007-6.243Z" transform="translate(-17.888 -0.343)" fill="#737a9e"/>
              <path id="Trazado_987886" data-name="Trazado 987886" d="M61.754,84.037,39.736,71.325v-24.5L61.754,59.54Z" transform="translate(-17.285 -20.37)" fill="#2a1a2f"/>
              <path id="Trazado_987887" data-name="Trazado 987887" d="M95.116,77.054,78.705,86.529v-24.5l16.411-9.475Z" transform="translate(-34.236 -22.862)" fill="#a0a8d0"/>
            </g>
          </g>
          <g id="Grupo_1103635" data-name="Grupo 1103635" transform="translate(22.452 16.984)">
            <g id="Grupo_1103634" data-name="Grupo 1103634" clip-path="url(#clip-path-6)">
              <rect id="Rectángulo_403978" data-name="Rectángulo 403978" width="38.429" height="22.186" fill="url(#linear-gradient-2)"/>
            </g>
          </g>
          <g id="Grupo_1103637" data-name="Grupo 1103637">
            <g id="Grupo_1103636" data-name="Grupo 1103636" clip-path="url(#clip-path)">
              <path id="Trazado_987889" data-name="Trazado 987889" d="M61.743,56.992,39.721,44.27l0,1.472L48.937,52.2l12.81,6.26Z" transform="translate(-17.278 -19.257)" fill="#2a1a2f"/>
            </g>
          </g>
          <g id="Grupo_1103639" data-name="Grupo 1103639" transform="translate(22.443 9.712)">
            <g id="Grupo_1103638" data-name="Grupo 1103638" clip-path="url(#clip-path-8)">
              <rect id="Rectángulo_403980" data-name="Rectángulo 403980" width="42.3" height="45.243" transform="matrix(0.5, -0.866, 0.866, 0.5, -12.149, 21.018)" fill="url(#linear-gradient-3)"/>
            </g>
          </g>
          <g id="Grupo_1103641" data-name="Grupo 1103641">
            <g id="Grupo_1103640" data-name="Grupo 1103640" clip-path="url(#clip-path)">
              <path id="Trazado_987891" data-name="Trazado 987891" d="M95.118,45.526c-.015-5.211-3.7-7.312-8.237-4.694S78.682,49.8,78.7,55.007l0,1.472L95.122,47Z" transform="translate(-34.232 -17.272)" fill="#a0a8d0"/>
              <path id="Trazado_987892" data-name="Trazado 987892" d="M55.537,17.465a8.671,8.671,0,0,0-2.383.97,12.445,12.445,0,0,0-1.366.931L73.815,32.083a12.468,12.468,0,0,1,1.361-.926,8.69,8.69,0,0,1,2.393-.973Z" transform="translate(-22.527 -7.597)" fill="#fffffa"/>
              <path id="Trazado_987893" data-name="Trazado 987893" d="M40.658,35.514a14.647,14.647,0,0,0-.937,4.947L61.743,53.184a14.661,14.661,0,0,1,.94-4.954Z" transform="translate(-17.278 -15.448)" fill="#9199c0"/>
              <path id="Trazado_987894" data-name="Trazado 987894" d="M85.947,64.841c0,3.5,2.454,4.912,5.48,3.164a12.113,12.113,0,0,0,5.481-9.492c0-3.5-2.454-4.912-5.481-3.164a12.114,12.114,0,0,0-5.48,9.492" transform="translate(-37.386 -23.751)" fill="#737a9e"/>
              <path id="Trazado_987895" data-name="Trazado 987895" d="M97.945,72.639l-.373.216,4.783,5.435.373-.215Z" transform="translate(-42.443 -31.597)" fill="#cfd8e7"/>
              <path id="Trazado_987896" data-name="Trazado 987896" d="M94.162,73.021a8.4,8.4,0,0,1-1.9,2.081,9.144,9.144,0,0,1-1.182.831c-.712.409-1.188.5-1.349.318l4.783,5.435c.161.184.636.091,1.337-.312a9.136,9.136,0,0,0,1.193-.837,8.4,8.4,0,0,0,1.9-2.081Z" transform="translate(-39.033 -31.763)" fill="#959dc4"/>
              <path id="Trazado_987897" data-name="Trazado 987897" d="M89.679,77.411l-.375.216,4.783,5.435.375-.216Z" transform="translate(-38.846 -33.673)" fill="#cfd8e7"/>
              <path id="Trazado_987898" data-name="Trazado 987898" d="M93.912,83.23l-4.783-5.435c-.243.436-.284.732-.155.88l4.783,5.435c-.129-.147-.087-.444.156-.88" transform="translate(-38.671 -33.84)" fill="#737a9e"/>
              <path id="Trazado_987899" data-name="Trazado 987899" d="M102.265,82.475a9.543,9.543,0,0,1-3.08,2.912c-1.184.684-1.729.49-1.216-.432l-.375.217c-.6,1.082.038,1.308,1.429.505a11.2,11.2,0,0,0,3.616-3.418Z" transform="translate(-42.353 -35.782)" fill="#868eb4"/>
              <path id="Trazado_987900" data-name="Trazado 987900" d="M86.6,58.926c0,4.305,3.023,6.05,6.751,3.9A14.923,14.923,0,0,0,100.1,51.131c0-4.306-3.023-6.051-6.751-3.9A14.923,14.923,0,0,0,86.6,58.926" transform="translate(-37.671 -20.145)" fill="#a0a8d0"/>
              <path id="Trazado_987901" data-name="Trazado 987901" d="M93.426,62.536c-2.2-1.272-.639-6.47,2.415-8.233,1.924-1.112,3.507-.207,3.507,2.024,0,3.54-3.728,7.476-5.922,6.209M95.9,54.548c-2.914,1.683-4.331,6.579-2.33,7.736a2.261,2.261,0,0,0,2.271-.231A7.226,7.226,0,0,0,99.107,56.4c0-2.052-1.42-2.882-3.205-1.851" transform="translate(-40.19 -23.414)" fill="#737a9e"/>
            </g>
          </g>
          <g id="Grupo_1103643" data-name="Grupo 1103643" transform="translate(46.81 24.941)">
            <g id="Grupo_1103642" data-name="Grupo 1103642" clip-path="url(#clip-path-10)">
              <rect id="Rectángulo_403982" data-name="Rectángulo 403982" width="18.831" height="18.776" transform="translate(-5.993 10.38) rotate(-60)" fill="url(#linear-gradient-4)"/>
            </g>
          </g>
          <g id="Grupo_1103645" data-name="Grupo 1103645">
            <g id="Grupo_1103644" data-name="Grupo 1103644" clip-path="url(#clip-path)">
              <path id="Trazado_987903" data-name="Trazado 987903" d="M84.969,67.7l-2.121-1.224c0,2.127.738,3.629,1.934,4.345l2.12,1.224c-1.2-.716-1.933-2.218-1.933-4.345" transform="translate(-36.038 -28.915)" fill="#9199c0"/>
              <path id="Trazado_987904" data-name="Trazado 987904" d="M68.5,70.451l-8.553-4.938V60.141L68.5,65.079Z" transform="translate(-26.075 -26.161)" fill="#2a1a2f"/>
              <path id="Trazado_987905" data-name="Trazado 987905" d="M77.124,72.166l-2.043,1.179V67.973l2.043-1.179Z" transform="translate(-32.66 -29.055)" fill="#38243d"/>
              <path id="Trazado_987906" data-name="Trazado 987906" d="M68.5,64.171l-8.553-4.938,2.043-1.179,8.553,4.938Z" transform="translate(-26.075 -25.253)" fill="#533b57"/>
              <path id="Trazado_987907" data-name="Trazado 987907" d="M43.969,8.718c-1.987-2.61-2.489-1.676-3.78-2.26C39.457,6.126,37.8,4.649,36.712,4.8S34.395,6.551,33.551,7.04a8.6,8.6,0,0,1-1.593.5c-1.41.479-.853,1.426-3.508,1.966a3.938,3.938,0,0,0-2.119,1.355l8.358,4.825L45.375,9.52c-.39-.457-1.036-.316-1.405-.8" transform="translate(-11.454 -2.082)" fill="#68302f"/>
              <path id="Trazado_987908" data-name="Trazado 987908" d="M52.926,9.508c-.371,0,.214.492.5.368.217-.092.06-.367-.5-.368" transform="translate(-22.97 -4.136)" fill="#763735"/>
              <path id="Trazado_987909" data-name="Trazado 987909" d="M35.3,11.42c-.371,0,.214.492.5.368.217-.092.06-.367-.5-.368" transform="translate(-15.302 -4.968)" fill="#763735"/>
              <path id="Trazado_987910" data-name="Trazado 987910" d="M38.2,15.474c-.371,0,.214.492.5.368.217-.092.06-.367-.5-.368" transform="translate(-16.567 -6.731)" fill="#763735"/>
              <path id="Trazado_987911" data-name="Trazado 987911" d="M45.745,14.609c-.371,0,.214.492.5.368.217-.092.06-.367-.5-.368" transform="translate(-19.847 -6.355)" fill="#763735"/>
              <path id="Trazado_987912" data-name="Trazado 987912" d="M50.081,11.125c-.371,0,.214.492.5.368.217-.092.06-.367-.5-.368" transform="translate(-21.733 -4.839)" fill="#763735"/>
              <path id="Trazado_987913" data-name="Trazado 987913" d="M42.179,10.865c-.371,0,.214.492.5.368.216-.092.06-.367-.5-.368" transform="translate(-18.296 -4.726)" fill="#763735"/>
              <path id="Trazado_987914" data-name="Trazado 987914" d="M49.652,16.525c-.371,0,.214.492.5.368.217-.092.06-.367-.5-.368" transform="translate(-21.546 -7.188)" fill="#763735"/>
              <path id="Trazado_987915" data-name="Trazado 987915" d="M56.329,12.569c-.371,0,.214.492.5.369.217-.093.06-.368-.5-.369" transform="translate(-24.451 -5.467)" fill="#763735"/>
              <path id="Trazado_987916" data-name="Trazado 987916" d="M47.415,7.329c-.371,0,.214.493.5.368.217-.092.06-.367-.5-.368" transform="translate(-20.573 -3.188)" fill="#763735"/>
              <path id="Trazado_987917" data-name="Trazado 987917" d="M41.458,22.159c-.324,0,.188.431.441.323.189-.081.053-.321-.441-.323" transform="translate(-17.988 -9.639)" fill="#763735"/>
              <path id="Trazado_987918" data-name="Trazado 987918" d="M42.951,17.968c-.324,0,.188.431.441.323.189-.081.053-.322-.441-.323" transform="translate(-18.638 -7.816)" fill="#763735"/>
              <path id="Trazado_987919" data-name="Trazado 987919" d="M37.476,18.988c-.324,0,.188.431.441.323.189-.081.053-.321-.441-.323" transform="translate(-16.256 -8.26)" fill="#763735"/>
              <path id="Trazado_987920" data-name="Trazado 987920" d="M39.93,9.445c-.324,0,.188.431.441.323.189-.081.053-.322-.441-.323" transform="translate(-17.324 -4.108)" fill="#763735"/>
              <path id="Trazado_987921" data-name="Trazado 987921" d="M32.781,18.445c-.324,0,.188.431.441.323.189-.081.053-.321-.441-.323" transform="translate(-14.214 -8.023)" fill="#763735"/>
              <path id="Trazado_987922" data-name="Trazado 987922" d="M44,17.707c-.324,0,.188.431.441.323.189-.081.053-.321-.441-.323" transform="translate(-19.095 -7.702)" fill="#763735"/>
              <path id="Trazado_987923" data-name="Trazado 987923" d="M53.728,15.2c-.324,0,.188.431.441.323.189-.081.053-.321-.441-.323" transform="translate(-23.326 -6.612)" fill="#763735"/>
              <path id="Trazado_987924" data-name="Trazado 987924" d="M43.59,13.753c-.324,0,.188.431.441.323.189-.081.053-.321-.441-.323" transform="translate(-18.916 -5.982)" fill="#763735"/>
              <path id="Trazado_987925" data-name="Trazado 987925" d="M45.488,7.468c-.325,0,.187.431.441.323.189-.081.053-.321-.441-.323" transform="translate(-19.741 -3.249)" fill="#763735"/>
              <path id="Trazado_987926" data-name="Trazado 987926" d="M28.558,15.057c-.324,0,.188.431.441.323.189-.081.053-.321-.441-.323" transform="translate(-12.377 -6.55)" fill="#763735"/>
              <path id="Trazado_987927" data-name="Trazado 987927" d="M33.243,14.325c-.324,0,.188.431.441.323.189-.081.053-.321-.441-.323" transform="translate(-14.415 -6.231)" fill="#763735"/>
              <path id="Trazado_987928" data-name="Trazado 987928" d="M39.978,8.809c-.324,0,.188.431.441.323.189-.081.053-.321-.441-.323" transform="translate(-17.344 -3.832)" fill="#763735"/>
              <path id="Trazado_987929" data-name="Trazado 987929" d="M42.052,78.555v.709l4.149,2.4v-.647Z" transform="translate(-18.292 -34.171)" fill="#19101c"/>
              <path id="Trazado_987930" data-name="Trazado 987930" d="M45.746,81.15,41.507,78.7l.288-.54,4.238,2.453Z" transform="translate(-18.055 -33.998)" fill="#331f39"/>
              <path id="Trazado_987931" data-name="Trazado 987931" d="M49.3,82.5v.372l-.289.167Z" transform="translate(-21.319 -35.886)" fill="#38243d"/>
              <path id="Trazado_987932" data-name="Trazado 987932" d="M42.052,80.748v.709l4.149,2.4v-.647Z" transform="translate(-18.292 -35.125)" fill="#19101c"/>
              <path id="Trazado_987933" data-name="Trazado 987933" d="M45.746,83.343l-4.239-2.452.288-.54L46.033,82.8Z" transform="translate(-18.055 -34.952)" fill="#331f39"/>
              <path id="Trazado_987934" data-name="Trazado 987934" d="M49.3,84.692v.373l-.289.167Z" transform="translate(-21.319 -36.84)" fill="#38243d"/>
              <path id="Trazado_987935" data-name="Trazado 987935" d="M42.052,82.941v.709l4.149,2.4V85.4Z" transform="translate(-18.292 -36.079)" fill="#19101c"/>
              <path id="Trazado_987936" data-name="Trazado 987936" d="M45.746,85.536l-4.239-2.452.288-.54L46.033,85Z" transform="translate(-18.055 -35.906)" fill="#331f39"/>
              <path id="Trazado_987937" data-name="Trazado 987937" d="M49.3,86.885v.372l-.289.167Z" transform="translate(-21.319 -37.794)" fill="#38243d"/>
              <path id="Trazado_987938" data-name="Trazado 987938" d="M42.052,85.135v.709l4.149,2.4v-.647Z" transform="translate(-18.292 -37.033)" fill="#19101c"/>
              <path id="Trazado_987939" data-name="Trazado 987939" d="M45.746,87.73l-4.239-2.452.288-.54,4.238,2.452Z" transform="translate(-18.055 -36.86)" fill="#331f39"/>
              <path id="Trazado_987940" data-name="Trazado 987940" d="M49.3,89.078v.373l-.289.167Z" transform="translate(-21.319 -38.748)" fill="#38243d"/>
              <path id="Trazado_987941" data-name="Trazado 987941" d="M42.052,87.328v.709l4.149,2.4v-.647Z" transform="translate(-18.292 -37.987)" fill="#19101c"/>
              <path id="Trazado_987942" data-name="Trazado 987942" d="M45.746,89.923l-4.239-2.452.288-.54,4.238,2.453Z" transform="translate(-18.055 -37.814)" fill="#331f39"/>
              <path id="Trazado_987943" data-name="Trazado 987943" d="M49.3,91.271v.372l-.289.167Z" transform="translate(-21.319 -39.702)" fill="#38243d"/>
              <path id="Trazado_987944" data-name="Trazado 987944" d="M68.727,93.955v.709l4.149,2.4v-.647Z" transform="translate(-29.895 -40.87)" fill="#19101c"/>
              <path id="Trazado_987945" data-name="Trazado 987945" d="M72.42,96.551,68.181,94.1l.288-.54,4.238,2.452Z" transform="translate(-29.658 -40.697)" fill="#331f39"/>
              <path id="Trazado_987946" data-name="Trazado 987946" d="M75.971,97.9v.373l-.289.167Z" transform="translate(-32.922 -42.585)" fill="#38243d"/>
              <path id="Trazado_987947" data-name="Trazado 987947" d="M68.727,96.149v.709l4.149,2.4v-.647Z" transform="translate(-29.895 -41.824)" fill="#19101c"/>
              <path id="Trazado_987948" data-name="Trazado 987948" d="M72.42,98.744l-4.239-2.452.288-.54L72.707,98.2Z" transform="translate(-29.658 -41.651)" fill="#331f39"/>
              <path id="Trazado_987949" data-name="Trazado 987949" d="M75.971,100.092v.372l-.289.167Z" transform="translate(-32.922 -43.539)" fill="#38243d"/>
              <path id="Trazado_987950" data-name="Trazado 987950" d="M68.727,98.342v.709l4.149,2.4V100.8Z" transform="translate(-29.895 -42.778)" fill="#19101c"/>
              <path id="Trazado_987951" data-name="Trazado 987951" d="M72.42,100.937l-4.239-2.452.288-.54,4.238,2.452Z" transform="translate(-29.658 -42.605)" fill="#331f39"/>
              <path id="Trazado_987952" data-name="Trazado 987952" d="M75.971,102.285v.373l-.289.167Z" transform="translate(-32.922 -44.493)" fill="#38243d"/>
              <path id="Trazado_987953" data-name="Trazado 987953" d="M68.727,100.535v.709l4.149,2.4v-.647Z" transform="translate(-29.895 -43.732)" fill="#19101c"/>
              <path id="Trazado_987954" data-name="Trazado 987954" d="M72.42,103.13l-4.239-2.452.288-.54,4.238,2.452Z" transform="translate(-29.658 -43.559)" fill="#331f39"/>
              <path id="Trazado_987955" data-name="Trazado 987955" d="M75.971,104.479v.372l-.289.167Z" transform="translate(-32.922 -45.447)" fill="#38243d"/>
              <path id="Trazado_987956" data-name="Trazado 987956" d="M68.727,102.728v.709l4.149,2.4v-.647Z" transform="translate(-29.895 -44.686)" fill="#19101c"/>
              <path id="Trazado_987957" data-name="Trazado 987957" d="M72.42,105.323l-4.239-2.452.288-.54,4.238,2.452Z" transform="translate(-29.658 -44.513)" fill="#331f39"/>
              <path id="Trazado_987958" data-name="Trazado 987958" d="M75.971,106.672v.373l-.289.167Z" transform="translate(-32.922 -46.401)" fill="#38243d"/>
              <path id="Trazado_987959" data-name="Trazado 987959" d="M70.223,68.654c0,.216-.175.29-.392.166a.812.812,0,0,1-.391-.618c0-.216.175-.29.391-.165a.809.809,0,0,1,.392.617" transform="translate(-30.206 -29.569)" fill="#d85088"/>
              <path id="Trazado_987960" data-name="Trazado 987960" d="M70.153,71.165l-.5-.288v-.788l.5.288Z" transform="translate(-30.299 -30.488)" fill="#38243d"/>
              <path id="Trazado_987961" data-name="Trazado 987961" d="M67.5,67.084c0,.216-.175.29-.391.166a.811.811,0,0,1-.392-.618c0-.216.175-.29.392-.165a.811.811,0,0,1,.391.617" transform="translate(-29.023 -28.886)" fill="#d85088"/>
              <path id="Trazado_987962" data-name="Trazado 987962" d="M67.433,69.595l-.5-.288v-.788l.5.288Z" transform="translate(-29.116 -29.805)" fill="#38243d"/>
              <path id="Trazado_987963" data-name="Trazado 987963" d="M64.783,65.513c0,.216-.175.29-.391.166A.811.811,0,0,1,64,65.061c0-.216.175-.29.392-.165a.81.81,0,0,1,.391.617" transform="translate(-27.839 -28.203)" fill="#d85088"/>
              <path id="Trazado_987964" data-name="Trazado 987964" d="M64.713,68.024l-.5-.288v-.788l.5.288Z" transform="translate(-27.932 -29.122)" fill="#38243d"/>
              <path id="Trazado_987965" data-name="Trazado 987965" d="M62.062,63.943c0,.216-.176.29-.392.166a.813.813,0,0,1-.392-.618c0-.216.176-.29.392-.165a.812.812,0,0,1,.392.617" transform="translate(-26.656 -27.52)" fill="#d85088"/>
              <path id="Trazado_987966" data-name="Trazado 987966" d="M61.992,66.453l-.5-.288v-.788l.5.288Z" transform="translate(-26.749 -28.438)" fill="#38243d"/>
            </g>
          </g>
        </g>
      </g>
    </g>
  </g>
</svg>
