<svg xmlns="http://www.w3.org/2000/svg" xmlns:xlink="http://www.w3.org/1999/xlink" width="83" height="83" viewBox="0 0 83 83">
  <defs>
    <clipPath id="clip-path">
      <rect id="Rectángulo_403288" data-name="Rectángulo 403288" width="83" height="83" transform="translate(645 6999.002)" fill="#6b0b0c" stroke="#6b0b0c" stroke-width="1"/>
    </clipPath>
    <clipPath id="clip-path-2">
      <path id="path561" d="M0-83H83V0H0Z" fill="#6b0b0c"/>
    </clipPath>
  </defs>
  <g id="Grupo_1103749" data-name="Grupo 1103749" transform="translate(-917 -1950.619)">
    <g id="Grupo_1103514" data-name="Grupo 1103514" transform="translate(272 -5048.383)">
      <g id="Enmascarar_grupo_1098828" data-name="Enmascarar grupo 1098828" clip-path="url(#clip-path)">
        <g id="g555" transform="translate(645 7082.002)">
          <g id="g557">
            <g id="g559" clip-path="url(#clip-path-2)">
              <g id="g565" transform="translate(1.305 -44.04)">
                <path id="path567" d="M0,0,8.313-21.072a1.266,1.266,0,0,1,1.643-.713l6.615,2.61a1.266,1.266,0,0,1,.713,1.643L8.971,3.539a1.266,1.266,0,0,1-1.643.713L.713,1.643A1.267,1.267,0,0,1,0,0Z" fill="none" stroke="#6b0b0c" stroke-linecap="round" stroke-linejoin="round" stroke-miterlimit="10" stroke-width="2.432"/>
              </g>
              <g id="g569" transform="translate(59.562 -32.253)">
                <path id="path571" d="M0,0-4.328-3.334" fill="none" stroke="#6b0b0c" stroke-linecap="round" stroke-linejoin="round" stroke-miterlimit="10" stroke-width="2.432"/>
              </g>
              <g id="g573" transform="translate(53.771 -27.594)">
                <path id="path575" d="M0,0-3.847-2.962" fill="none" stroke="#6b0b0c" stroke-linecap="round" stroke-linejoin="round" stroke-miterlimit="10" stroke-width="2.432"/>
              </g>
              <g id="g577" transform="translate(47.407 -23.35)">
                <path id="path579" d="M0,0-2.742-2.122" fill="none" stroke="#6b0b0c" stroke-linecap="round" stroke-linejoin="round" stroke-miterlimit="10" stroke-width="2.432"/>
              </g>
              <g id="g581" transform="translate(18.504 -30.32)">
                <path id="path583" d="M0,0H0A3.214,3.214,0,0,1-.373-4.53L2.632-8.058a3.214,3.214,0,0,1,4.53-.373A3.214,3.214,0,0,1,7.535-3.9L4.53-.373A3.214,3.214,0,0,1,0,0Z" fill="none" stroke="#6b0b0c" stroke-linecap="round" stroke-linejoin="round" stroke-miterlimit="10" stroke-width="2.432"/>
              </g>
              <g id="g585" transform="translate(23.407 -26.163)">
                <path id="path587" d="M0,0H0A3.214,3.214,0,0,1-.373-4.53L2.633-8.058a3.214,3.214,0,0,1,4.53-.373A3.214,3.214,0,0,1,7.536-3.9L4.53-.373A3.214,3.214,0,0,1,0,0Z" fill="none" stroke="#6b0b0c" stroke-linecap="round" stroke-linejoin="round" stroke-miterlimit="10" stroke-width="2.432"/>
              </g>
              <g id="g589" transform="translate(28.31 -22.005)">
                <path id="path591" d="M0,0H0A3.214,3.214,0,0,1-.373-4.53L2.633-8.058a3.214,3.214,0,0,1,4.53-.373A3.214,3.214,0,0,1,7.535-3.9L4.53-.373A3.214,3.214,0,0,1,0,0Z" fill="none" stroke="#6b0b0c" stroke-linecap="round" stroke-linejoin="round" stroke-miterlimit="10" stroke-width="2.432"/>
              </g>
              <g id="g593" transform="translate(33.213 -17.848)">
                <path id="path595" d="M0,0H0A3.214,3.214,0,0,1-.373-4.53L2.632-8.058a3.214,3.214,0,0,1,4.53-.373A3.214,3.214,0,0,1,7.535-3.9L4.53-.373A3.214,3.214,0,0,1,0,0Z" fill="none" stroke="#6b0b0c" stroke-linecap="round" stroke-linejoin="round" stroke-miterlimit="10" stroke-width="2.432"/>
              </g>
              <g id="g597" transform="translate(64.954 -37.337)">
                <path id="path599" d="M0,0-1.617-1.193-9.219-6.8l-.871-.612a15.534,15.534,0,0,1-13.948-4.759,1.544,1.544,0,0,0-2.147-.068c-6.73,6.045-10.628,4.5-12.52,2.7a1.938,1.938,0,0,1,.3-3.033,66.46,66.46,0,0,0,9.409-7.551l-.43-.161a16.156,16.156,0,0,0-4.762-1l-4.451-.25a14.562,14.562,0,0,0-1.75,0,6.844,6.844,0,0,1-3.081-.516l-3.223-1.348-7.9,20.034L-48.346.564l1.977,1.39,2.551-2.994a3.214,3.214,0,0,1,4.53-.373,3.214,3.214,0,0,1,.373,4.53,3.214,3.214,0,0,1,4.53-.373,3.214,3.214,0,0,1,.373,4.53,3.214,3.214,0,0,1,4.53-.373,3.214,3.214,0,0,1,.373,4.53,3.214,3.214,0,0,1,4.53-.373,3.214,3.214,0,0,1,.373,4.53l-1.219,1.431L-22.742,19a3.707,3.707,0,0,0,4.87-.365,3.648,3.648,0,0,0,.324-4.647l1.346.993a3.706,3.706,0,0,0,4.969-.472,3.647,3.647,0,0,0,.05-4.765l.756.558A3.707,3.707,0,0,0-5.62,10a3.648,3.648,0,0,0,.228-4.915l1.135.838a3.647,3.647,0,0,0,5.039-.69A3.7,3.7,0,0,0,0,0Z" fill="none" stroke="#6b0b0c" stroke-linecap="round" stroke-linejoin="round" stroke-miterlimit="10" stroke-width="2.432"/>
              </g>
              <g id="g601" transform="translate(46.766 -60.021)">
                <path id="path603" d="M0,0-4.615-.731A4.908,4.908,0,0,0-8.874.662,71.174,71.174,0,0,1-20.214,10.1a1.938,1.938,0,0,0-.3,3.033c1.892,1.8,5.79,3.347,12.52-2.7a1.544,1.544,0,0,1,2.147.068A15.532,15.532,0,0,0,8.132,15.262l10.82,7.985L25.715,18.9,17.992-.672,13.3,1.06a8.107,8.107,0,0,1-4.076.4L5.638.894" fill="none" stroke="#6b0b0c" stroke-linecap="round" stroke-linejoin="round" stroke-miterlimit="10" stroke-width="2.432"/>
              </g>
              <g id="g605" transform="translate(76.587 -56.988)">
                <path id="path607" d="M0,0-3.205-8.124a1.267,1.267,0,0,0-1.643-.713l-6.615,2.61a1.267,1.267,0,0,0-.713,1.643l8.313,21.072A1.267,1.267,0,0,0-2.22,17.2l6.615-2.61a1.266,1.266,0,0,0,.713-1.643L2.085,5.285" fill="none" stroke="#6b0b0c" stroke-linecap="round" stroke-linejoin="round" stroke-miterlimit="10" stroke-width="2.432"/>
              </g>
            </g>
          </g>
        </g>
      </g>
      <path id="Trazado_952692" data-name="Trazado 952692" d="M31.064,147.506s-.229,5.645-4.744,6.182c0,0,4.846,1.447,5.381,6.2,0,0,1.212-5.758,4.468-6.23,0,0-3.776-.755-5.1-6.15" transform="translate(685.67 6913.495)" fill="#6b0b0c"/>
    </g>
  </g>
</svg>
