<svg xmlns="http://www.w3.org/2000/svg" xmlns:xlink="http://www.w3.org/1999/xlink" width="83" height="84.953" viewBox="0 0 83 84.953">
  <defs>
    <clipPath id="clip-path">
      <rect id="Rectángulo_403288" data-name="Rectángulo 403288" width="83" height="83" transform="translate(645 6999.002)" fill="#6b0b0c" stroke="#6b0b0c" stroke-width="1"/>
    </clipPath>
  </defs>
  <g id="Grupo_1103515" data-name="Grupo 1103515" transform="translate(-645 -6997.049)">
    <g id="Enmascarar_grupo_1098829" data-name="Enmascarar grupo 1098829" clip-path="url(#clip-path)">
      <g id="cacao_9_" data-name="cacao (9)" transform="translate(642.229 6996.236)">
        <path id="Trazado_987404" data-name="Trazado 987404" d="M70.328,25.5a13.706,13.706,0,0,0-24.442-.032c-.293.289-.889.9-1.663,1.783q-.742-.869-1.562-1.751a13.5,13.5,0,0,0-10.845-7.454V13.814A50.923,50.923,0,0,0,58.924,5.261a1.383,1.383,0,1,0-1.648-2.222,49.118,49.118,0,0,1-25.46,8.007V6.917a1.383,1.383,0,0,0-2.767,0v4.133C21.811,10.866,17.312,9.262,14.771,7.9A11.1,11.1,0,0,1,10.854,4.8,1.383,1.383,0,0,0,8.506,6.26c.186.3,4.614,7.177,20.544,7.556v4.23a13.492,13.492,0,0,0-10.829,7.42c-1.568,1.542-11.3,11.626-11.3,24.337a56.8,56.8,0,0,0,1.44,11.439C10.242,69.4,13.579,75.169,18.282,78.4a13.466,13.466,0,0,0,12.151,7.362,13.362,13.362,0,0,0,8.533-2.95,7.038,7.038,0,0,0,1.28.657,15,15,0,0,0,5.4.909,15.01,15.01,0,0,0,5.4-.909q.354-.142.653-.294a5.133,5.133,0,0,0,2.371,1.677,16.516,16.516,0,0,0,10.809,0,6.667,6.667,0,0,0,1.512-.82,6.666,6.666,0,0,0,1.512.82,16.516,16.516,0,0,0,10.809,0c2.519-1.008,2.9-2.462,2.9-3.241s-.376-2.233-2.9-3.241a12.38,12.38,0,0,0-2.608-.692,3.815,3.815,0,0,0-.844-3.587l-.022-.029c3.087-4.023,6.363-11.331,6.37-24.229.046-.938.309-11.874-11.288-24.337ZM37.35,80.233a2.481,2.481,0,0,0,.021.318A10.483,10.483,0,0,1,30.433,83a10.742,10.742,0,0,1-9.794-6.074,1.383,1.383,0,0,0-.515-.616C9.873,69.6,9.683,49.992,9.683,49.8c0-12.315,10.527-22.41,10.632-22.51a1.412,1.412,0,0,0,.322-.46,10.932,10.932,0,0,1,19.589-.005,1.382,1.382,0,0,0,.264.405A40.79,40.79,0,0,1,50.072,42.99a21.6,21.6,0,0,1,1.114,6.723c0,.029,0,.058,0,.086,0,11.641-2.794,18.208-5.138,21.668-2.493,3.681-5.012,4.7-5.025,4.7a1.4,1.4,0,0,0-.791.751s-.016.036-.046.1c-2.462,1.007-2.833,2.444-2.833,3.215Zm21.71-12.48a4.934,4.934,0,0,0-2.473-1.827,11.423,11.423,0,0,0-1.785-.537,13.68,13.68,0,0,1,3.3-.372c3.247,0,5.142.931,5.5,1.383C63.279,66.805,61.718,67.593,59.059,67.752Zm3.288,2.271a2.84,2.84,0,0,0-.273.982,16.043,16.043,0,0,0-3.013-.43l.032-.053A15.729,15.729,0,0,0,62.348,70.023Zm-8.4-20.013c0-.058,0-.114,0-.173.006-.116.015-.388,0-.8a12.758,12.758,0,0,1,4.146-.622c3.237,0,5.131.925,5.5,1.379-.016.018-.036.04-.06.063a13.73,13.73,0,0,0-3.923.85,6.645,6.645,0,0,0-1.519.825A9.473,9.473,0,0,0,53.948,50.01Zm2.729,3.937c-.015.017-.036.039-.059.062a15.191,15.191,0,0,0-2.822.481q.056-.823.092-1.683A5.433,5.433,0,0,1,56.677,53.947Zm-.06-8.237a15.084,15.084,0,0,0-2.94.516c-.088-.551-.2-1.157-.351-1.812a6.18,6.18,0,0,1,3.352,1.232A.878.878,0,0,1,56.617,45.71Zm-3.1,11.807a12,12,0,0,1,4.586-.8c3.237,0,5.131.925,5.5,1.379-.016.018-.037.04-.061.063a13.729,13.729,0,0,0-3.923.85,6.666,6.666,0,0,0-1.512.82,6.666,6.666,0,0,0-1.512-.82,12.969,12.969,0,0,0-3.164-.772c.032-.237.062-.477.09-.72ZM63.5,54.859a13.725,13.725,0,0,0-3.923-.85c-.024-.023-.045-.045-.06-.063.365-.454,2.258-1.379,5.5-1.379s5.142.931,5.5,1.383c-.357.453-2.252,1.383-5.5,1.383-.183,0-.365,0-.547-.01A7.543,7.543,0,0,0,63.5,54.859Zm.965-7.836a7.528,7.528,0,0,0-.965-.464,13.729,13.729,0,0,0-3.924-.85c-.024-.024-.045-.045-.06-.063.364-.454,2.258-1.379,5.5-1.379s5.142.931,5.5,1.383c-.357.453-2.252,1.383-5.5,1.383-.182,0-.365,0-.547-.01Zm-.934-5.464a13.725,13.725,0,0,0-3.923.85,6.666,6.666,0,0,0-1.513.82,6.666,6.666,0,0,0-1.512-.82,13.727,13.727,0,0,0-3.924-.85c-.024-.024-.045-.045-.06-.063.365-.454,2.258-1.379,5.5-1.379s5.131.925,5.5,1.379c-.015.018-.035.039-.06.063ZM52.982,60.97c2.14.253,3.405.913,3.7,1.275-.016.017-.036.04-.06.063a13.729,13.729,0,0,0-3.923.85c-.071.028-.14.057-.208.086q.268-1.087.5-2.275ZM63.5,63.159a13.827,13.827,0,0,0-4.021-.857c.241-.428,2.155-1.435,5.533-1.435,3.247,0,5.142.931,5.5,1.383-.357.453-2.252,1.383-5.5,1.383-.182,0-.364,0-.546-.01a7.519,7.519,0,0,0-.966-.464Zm6.359,9.975c2.9,1.66,3.652,3.187,3.644,3.587-.417.092-1.95-.074-5.038-1.839-2.907-1.661-3.653-3.189-3.645-3.587.413-.093,1.949.073,5.039,1.839Zm-1.141-3.673a10.722,10.722,0,0,0-3.355-.931A2.858,2.858,0,0,0,66.4,66.4v-.052a13.822,13.822,0,0,0,4.022-.857c.258-.1.492-.211.707-.323a18.886,18.886,0,0,1-2.407,4.294Zm1.7-10.452a13.824,13.824,0,0,0-4.023-.857c0-.017,0-.035,0-.052v-.052a13.822,13.822,0,0,0,4.022-.857c2.108-.843,2.715-2,2.857-2.811a37.2,37.2,0,0,1-.717,6.017,5.591,5.591,0,0,0-2.142-1.388Zm0-8.3a13.824,13.824,0,0,0-4.023-.857c0-.017,0-.035,0-.052v-.052a13.822,13.822,0,0,0,4.022-.857,4.844,4.844,0,0,0,2.516-1.9,39.126,39.126,0,0,1,.378,5.575c0,.375-.006.746-.015,1.115-.089-.813-.627-2.071-2.88-2.972Zm0-8.3a13.823,13.823,0,0,0-4.022-.857c0-.017,0-.035,0-.052,0-.064,0-.133-.009-.205a8.987,8.987,0,0,0,4.383-1.685,21.589,21.589,0,0,1,1.435,3.841,6.2,6.2,0,0,0-1.788-1.041Zm-5.889-3.7-.083,0a7.549,7.549,0,0,0-.945-.452,13.824,13.824,0,0,0-4.023-.857c0-.017,0-.035,0-.052s0-.035,0-.052a13.824,13.824,0,0,0,4.023-.857,7.572,7.572,0,0,0,.947-.453c2.733.133,4.344.951,4.677,1.373-.306.362-1.734,1.185-4.6,1.347ZM58.1,34.583c-3.247,0-5.142-.931-5.5-1.383.333-.423,2.008-1.261,4.871-1.371.208-.007.416-.012.628-.012,3.247,0,5.142.931,5.5,1.383C63.242,33.652,61.347,34.583,58.1,34.583Zm-5.4,1.857a13.729,13.729,0,0,0,3.923.85c.022.022.042.042.057.059-.015.017-.035.037-.057.059a13.725,13.725,0,0,0-3.923.85,7.22,7.22,0,0,0-1.176.589c-.383-.912-.826-1.864-1.337-2.849.33-.021.664-.033,1-.033.183,0,.365,0,.547.01a7.531,7.531,0,0,0,.966.464ZM50.989,76.967a14.974,14.974,0,0,0-5.178-.883,19.729,19.729,0,0,0,2.492-3,17.254,17.254,0,0,0,1.917.205A2.637,2.637,0,0,0,49.8,74.7,2.92,2.92,0,0,0,50.989,76.967ZM45.65,81.616c-3.247,0-5.142-.931-5.5-1.383.357-.453,2.252-1.383,5.5-1.383s5.142.931,5.5,1.383C50.792,80.685,48.9,81.616,45.65,81.616Zm5.533-11.067c-.455,0-.9-.02-1.342-.058a29.132,29.132,0,0,0,1.219-2.706l.123,0c3.247,0,5.142.931,5.5,1.383-.356.453-2.252,1.383-5.5,1.383ZM52.6,74.7c.357-.453,2.252-1.383,5.5-1.383s5.142.931,5.5,1.383c-.357.453-2.252,1.383-5.5,1.383S52.957,75.152,52.6,74.7Zm.159,3.266a10.994,10.994,0,0,0,1.308.415q-.348.14-.643.29a3.746,3.746,0,0,0-.665-.7ZM59.483,83c-3.247,0-5.142-.931-5.5-1.383.357-.453,2.252-1.383,5.5-1.383s5.142.931,5.5,1.383C64.625,82.069,62.73,83,59.483,83Zm5.4-4.624a10.917,10.917,0,0,0-1.374-.439,5.374,5.374,0,0,0,2.233-1.5q.631.44,1.35.852c.5.287,1.025.568,1.558.83-.258.081-.507.167-.744.262A6.666,6.666,0,0,0,66.4,79.2a6.666,6.666,0,0,0-1.512-.82Zm13.927,3.241c-.357.453-2.252,1.383-5.5,1.383s-5.142-.931-5.5-1.383c.357-.453,2.252-1.383,5.5-1.383S78.458,81.163,78.815,81.616Zm.037-31.9c0,.029,0,.058,0,.086,0,11.87-2.839,18.579-5.578,22.291a16.818,16.818,0,0,0-2.035-1.359l-.007,0c3.181-4.4,4.854-10.637,4.854-18.161,0-7.208-1.534-12.943-4.559-17.044a15.9,15.9,0,0,0-12.995-6.467c-.143,0-.286-.005-.43-.005q-.382,0-.759.015A16.216,16.216,0,0,0,47.951,32.2q-.89-1.355-1.961-2.763c1.165-1.363,1.982-2.14,1.991-2.148a1.38,1.38,0,0,0,.324-.465,10.933,10.933,0,0,1,19.588,0,1.382,1.382,0,0,0,.264.405A40.79,40.79,0,0,1,77.738,42.99a21.577,21.577,0,0,1,1.114,6.723Z" fill="#6b0b0c"/>
        <path id="Trazado_987405" data-name="Trazado 987405" d="M30.433,23.516A1.383,1.383,0,0,0,29.05,24.9v53.95a1.383,1.383,0,1,0,2.767,0V24.9A1.383,1.383,0,0,0,30.433,23.516Z" fill="#6b0b0c"/>
        <path id="Trazado_987406" data-name="Trazado 987406" d="M25.569,26.456a1.383,1.383,0,0,0-1.88.541c-.29.523-7.09,12.965-7.09,25.569,0,12.642,6.834,23.779,7.125,24.247a1.383,1.383,0,0,0,2.35-1.46c-.067-.108-6.708-10.953-6.708-22.787,0-11.877,6.677-24.109,6.744-24.231a1.383,1.383,0,0,0-.541-1.879Z" fill="#6b0b0c"/>
        <path id="Trazado_987407" data-name="Trazado 987407" d="M37.177,27a1.383,1.383,0,1,0-2.421,1.339c.068.122,6.744,12.333,6.744,24.23,0,11.834-6.641,22.679-6.708,22.786a1.383,1.383,0,1,0,2.35,1.461c.291-.468,7.125-11.605,7.125-24.247C44.266,39.962,37.466,27.521,37.177,27Z" fill="#6b0b0c"/>
      </g>
    </g>
    <path id="Trazado_952692" data-name="Trazado 952692" d="M31.064,147.506s-.229,5.645-4.744,6.182c0,0,4.846,1.447,5.381,6.2,0,0,1.212-5.758,4.468-6.23,0,0-3.776-.755-5.1-6.15" transform="translate(689.67 6849.543)" fill="#6b0b0c"/>
  </g>
</svg>
