<svg xmlns="http://www.w3.org/2000/svg" xmlns:xlink="http://www.w3.org/1999/xlink" width="160" height="136" viewBox="0 0 160 136">
  <defs>
    <clipPath id="clip-path">
      <rect id="_371595221_cda6fa44-3ef3-4885-8550-35f98c8ab671" data-name="371595221_cda6fa44-3ef3-4885-8550-35f98c8ab671" width="151" height="136" transform="translate(469.711 5735)" fill="#6b0b0c"/>
    </clipPath>
    <clipPath id="clip-path-2">
      <path id="path2847" d="M0-136H136V0H0Z"/>
    </clipPath>
  </defs>
  <g id="Grupo_1103749" data-name="Grupo 1103749" transform="translate(-465.711 -5735)">
    <path id="Rectángulo_403519" data-name="Rectángulo 403519" d="M79,0h2a79,79,0,0,1,79,79v0a0,0,0,0,1,0,0H0a0,0,0,0,1,0,0v0A79,79,0,0,1,79,0Z" transform="translate(465.711 5792)" fill="#d4d38f"/>
    <g id="Enmascarar_grupo_1098802" data-name="Enmascarar grupo 1098802" clip-path="url(#clip-path)">
      <g id="g2841" transform="translate(477.211 5871)">
        <g id="g2843">
          <g id="g2845" clip-path="url(#clip-path-2)">
            <g id="g2851" transform="translate(73.313 -92.353)">
              <path id="path2853" d="M0,0H53.125V-13.525a5.328,5.328,0,0,0-5.312-5.312H5.312A5.328,5.328,0,0,0,0-13.525Z" fill="#ffc144" fill-rule="evenodd"/>
            </g>
            <path id="path2855" d="M126.438-92.352H73.313v11.831h53.125Z" fill="#60a4ff" fill-rule="evenodd"/>
            <g id="g2857" transform="translate(126.438 -80.521)">
              <path id="path2859" d="M0,0H-53.125V23.834l13.071-12H-5.312A5.328,5.328,0,0,0,0,6.519Z" fill="#ff5a58" fill-rule="evenodd"/>
            </g>
            <g id="g2861" transform="translate(73.313 -56.687)">
              <path id="path2863" d="M0,0V-35.666c-15.394-2.966-5.9-10.2-12.161-13.426-8.32-4.285,4.225-18.98,13.269-19.363,5.926-.251-1.146-16.272-15.742-2.85-2.473,2.273-10.376,4.468-14.7,5.737-4.982,1.463-2.373,3.39-6.5,9.581-3.984,5.97-3.459.615-5.332,4.307-2.352,4.638-4.52,5.195-6.258,5.329-4.876.378-9.387,8.975-6.056,13.705,3.653,5.188,1.179,18.359,1.677,19.574,2.142,5.224-1,14.434-5.939,14.728-8.429.5-2.536,4.213-5.312,5.9-2.617,1.587,2.931,6.531,3.883,6.494,5.946-.236,11.769,11.541,15.153,5.726.955-1.64,16.774,4.943,17.071,7.374.635,5.19,3.932,2.129,3.864,4.425-.163,5.454,3.915,3.471,4.131,5.036C-17.935,44-8.5,40.287-6.183,40.017,4.732,38.741-.321,55.087,6.229,53.976s3.049-9.059,4.029-15.7c.678-4.593,2.741-5.028,1.329-10.186-.9-3.3-2.62-4.221-1.627-6.642,1.29-3.144,4.487-1.765,5.676-4.057,2.045-3.944-2.556-7.34.335-9.072,5.73-3.432,9.075,5.892,14.465,2.7C35.073,8.268,26.78-.129,29.369-3.018c2-2.237-1.483-5.762-1.7-8.986H13.071Z" fill="#cbe558" fill-rule="evenodd"/>
            </g>
            <g id="g2865" transform="translate(21.335 -85.532)">
              <path id="path2867" d="M0,0A10.386,10.386,0,0,0-1.5-3.8C-4.835-8.529-.325-17.126,4.551-17.5c1.738-.135,3.907-.692,6.258-5.329,1.872-3.692,1.348,1.662,5.332-4.308,4.131-6.191,1.523-8.119,6.5-9.581,4.322-1.269,12.225-3.463,14.7-5.737,14.6-13.422,21.668,2.6,15.743,2.85-9.044.383-21.59,15.078-13.269,19.363C46.082-17.02,36.584-9.786,51.978-6.82h50.468m-22.737,24.2c.526,3.071,3.532,6.333,1.638,8.446-2.589,2.888,5.7,11.286,1.068,14.035-5.391,3.2-8.736-6.128-14.465-2.7-2.891,1.732,1.709,5.128-.335,9.072-1.189,2.293-4.386.913-5.676,4.057-.994,2.42.724,3.343,1.627,6.642,1.412,5.158-.651,5.593-1.329,10.186-.981,6.638,2.521,14.585-4.029,15.7s-1.5-15.235-12.412-13.959c-2.315.27-11.752,3.981-12.771-3.408-.216-1.565-4.293.417-4.131-5.036.068-2.3-3.229.764-3.863-4.426-.3-2.431-16.117-9.014-17.072-7.373C4.573,54.433-1.25,42.657-7.195,42.893c-.951.038-6.5-4.907-3.883-6.494,2.776-1.684-3.117-5.4,5.312-5.9C-3,30.339-.805,27.389.223,23.906" fill="none" stroke="#000" stroke-linecap="round" stroke-linejoin="round" stroke-miterlimit="22.926" stroke-width="5.312"/>
            </g>
            <g id="g2869" transform="translate(21.619 -73.58)">
              <path id="path2871" d="M0,0V0" fill="none" stroke="#000" stroke-linecap="round" stroke-linejoin="round" stroke-miterlimit="2.613" stroke-width="5.312"/>
            </g>
            <g id="g2873" transform="translate(121.125 -111.19)">
              <path id="path2875" d="M0,0H-42.5a5.328,5.328,0,0,0-5.312,5.313V54.5l13.071-12H0a5.328,5.328,0,0,0,5.313-5.312V5.313A5.328,5.328,0,0,0,0,0Z" fill="none" stroke="#000" stroke-linecap="round" stroke-linejoin="round" stroke-miterlimit="22.926" stroke-width="5.312"/>
            </g>
            <g id="g2877" transform="translate(123.781 -80.521)">
              <path id="path2879" d="M0,0H-47.812" fill="none" stroke="#000" stroke-linecap="round" stroke-linejoin="round" stroke-miterlimit="22.926" stroke-width="5.312"/>
            </g>
          </g>
        </g>
      </g>
    </g>
    <path id="Trazado_952692" data-name="Trazado 952692" d="M32.192,147.506s-.284,6.987-5.872,7.652c0,0,6,1.791,6.66,7.672,0,0,1.5-7.127,5.53-7.712,0,0-4.674-.934-6.318-7.612" transform="translate(451.503 5620.368)" fill="#eef0e7"/>
    <path id="Trazado_952694" data-name="Trazado 952694" d="M72.868,81.707s-.432,10.649-8.95,11.661c0,0,9.141,2.731,10.151,11.693,0,0,2.285-10.862,8.429-11.753,0,0-7.123-1.424-9.629-11.6" transform="translate(534.944 5755.801)" fill="#eef0e7"/>
  </g>
</svg>
