<svg xmlns="http://www.w3.org/2000/svg" xmlns:xlink="http://www.w3.org/1999/xlink" width="73" height="78.494" viewBox="0 0 73 78.494">
  <defs>
    <clipPath id="clip-path">
      <rect id="Rectángulo_403288" data-name="Rectángulo 403288" width="73" height="73" transform="translate(299.713 3446.969)" fill="#586c16" stroke="#586c16" stroke-width="1"/>
    </clipPath>
    <clipPath id="clip-path-2">
      <path id="path2187" d="M0-73H73V0H0Z" fill="#586c16"/>
    </clipPath>
  </defs>
  <g id="Grupo_1103758" data-name="Grupo 1103758" transform="translate(-609.711 -3462.474)">
    <g id="Grupo_1103449" data-name="Grupo 1103449" transform="translate(309.998 21)">
      <g id="Enmascarar_grupo_1098810" data-name="Enmascarar grupo 1098810" clip-path="url(#clip-path)">
        <g id="g2181" transform="translate(299.713 3519.969)">
          <g id="g2183">
            <g id="g2185" clip-path="url(#clip-path-2)">
              <g id="g2191" transform="translate(54.672 -44.692)">
                <path id="path2193" d="M0,0C5.6-3.22,9.574-7.038,17.259-7.038m-70.861,0c7.684,0,11.66,3.818,17.259,7.038" fill="none" stroke="#586c16" stroke-miterlimit="22.926" stroke-width="2.139"/>
              </g>
              <g id="g2195" transform="translate(71.931 -51.73)">
                <path id="path2197" d="M0,0C-7.859-2.221-21.176-8.1-30.522-5.672a30.365,30.365,0,0,1-4.909.8,30.365,30.365,0,0,1-4.909-.8C-49.686-8.1-63-2.221-70.861,0" fill="none" stroke="#586c16" stroke-miterlimit="22.926" stroke-width="2.139"/>
              </g>
              <g id="g2199" transform="translate(45.097 -9.862)">
                <path id="path2201" d="M0,0A15.222,15.222,0,0,1-8.6,2.377c-9.995,0-14.976-7.164-16.034-17.1l-2.139-20.1c4.489-6.2,12.614-5.741,18.172-2.139,5.559-3.6,13.683-4.059,18.172,2.139l-1.788,16.8" fill="none" stroke="#586c16" stroke-miterlimit="22.926" stroke-width="2.139"/>
              </g>
              <g id="g2203" transform="translate(50.142 -63.849)">
                <path id="path2205" d="M0,0V-2.139m-4.277,0V-4.277" fill="none" stroke="#586c16" stroke-miterlimit="2.613" stroke-width="2.139"/>
              </g>
              <g id="g2207" transform="translate(36.5 -26.607)">
                <path id="path2209" d="M0,0V4.329M0-4.277v2.139M0-20.224V-6.416" fill="none" stroke="#586c16" stroke-miterlimit="22.926" stroke-width="2.139"/>
              </g>
              <g id="g2211" transform="translate(14.673 -64.819)">
                <path id="path2213" d="M0,0C-5.178,4.4-10.08,9.729-13.6,12.554v1.069c5.487,8.13,12.5,14.565,18.483,18.013m33.9,0c5.981-3.449,13-9.883,18.483-18.013V12.554C49.4,6.255,34.692-12.5,25.345-5.614c-1.267.934-2.214,1.762-3.519,1.762s-2.251-.829-3.519-1.762C13.6-9.087,7.522-6.041,1.65-1.36" fill="none" stroke="#586c16" stroke-miterlimit="22.926" stroke-width="2.139"/>
              </g>
              <g id="g2215" transform="translate(58.029 -1.069)">
                <path id="path2217" d="M0,0A13.9,13.9,0,0,1-13.9-13.9,13.9,13.9,0,0,1,0-27.8,13.9,13.9,0,0,1,13.9-13.9,13.9,13.9,0,0,1,0,0Z" fill="none" stroke="#586c16" stroke-miterlimit="22.926" stroke-width="2.139"/>
              </g>
              <g id="g2219" transform="translate(56.517 -14.971)">
                <path id="path2221" d="M0,0,6.049-6.049,9.074-3.025,0,6.049-6.049,0l3.025-3.025Z" fill="none" stroke="#586c16" stroke-miterlimit="22.926" stroke-width="2.139"/>
              </g>
            </g>
          </g>
        </g>
      </g>
      <path id="Trazado_952692" data-name="Trazado 952692" d="M30.531,147.506s-.2,5.01-4.211,5.487c0,0,4.3,1.284,4.776,5.5,0,0,1.075-5.111,3.966-5.53,0,0-3.351-.67-4.53-5.459" transform="translate(276.263 3293.968)" fill="#586c16"/>
    </g>
  </g>
</svg>
