<svg xmlns="http://www.w3.org/2000/svg" width="295" height="192.5" viewBox="0 0 295 192.5">
  <g id="Grupo_1103754" data-name="Grupo 1103754" transform="translate(-1124.711 -4204.5)">
    <g id="Grupo_1103746" data-name="Grupo 1103746">
      <rect id="Rectángulo_403923" data-name="Rectángulo 403923" width="295" height="130" transform="translate(1124.711 4267)" fill="#ccd2b8"/>
      <g id="Grupo_1103744" data-name="Grupo 1103744" transform="translate(1165 4197.243)">
        <g id="Grupo_1103745" data-name="Grupo 1103745" transform="translate(3.48 7.257)">
          <path id="Trazado_990282" data-name="Trazado 990282" d="M386.655,91.7c.011.082.01.168.021.251.414,4.709.6,9.153,1.013,13.874.134,1.44.261,2.9.384,4.339.02.2.032.419.052.621.327,3.83.579,7.656.638,11.487.009.2.014.4.008.6.031,2.728-.047,5.461-.262,8.184a58.2,58.2,0,0,1-2.487,13.021,4.945,4.945,0,0,1-.189.59,42.579,42.579,0,0,1-2.148,5.328l-17.5,2.258,16.488-.315c-.548,1.009-1.143,1.982-1.782,2.93q-.818,1.2-1.724,2.352c-.166.193-.328.4-.494.59a62.5,62.5,0,0,1-10.127,9.553c-.561.438-1.126.865-1.691,1.292-.313.234-.615.465-.92.685a113.272,113.272,0,0,1-35.587,17.876c-.393.123-.8.237-1.209.351a6.729,6.729,0,0,0,3.445-3.359c.3-.548.565-1.123.8-1.677a71.7,71.7,0,0,0,4.57-18.063c.053-.333.092-.674.146-1.006.96-7,1.558-14.117,3.033-20.979.083-.4.177-.807.271-1.212a58.694,58.694,0,0,1,2.412-8.053,52.532,52.532,0,0,1,4.447-8.855c.13-.232.268-.441.413-.665a64.882,64.882,0,0,1,5.956-7.872l3.314,11.446-2.035-12.855c1.8-1.945,3.7-3.8,5.679-5.547q1.366-1.207,2.785-2.355c.156-.141.326-.275.5-.408a165.4,165.4,0,0,1,21-13.952l.011,0c.264-.147.5-.3.767-.447" transform="translate(-178.9 -56.568)" fill="#917d44"/>
          <path id="Trazado_990283" data-name="Trazado 990283" d="M386.192,91.714c.011.082.01.168.022.251-4.469,7.993-9.56,15.77-14.49,23.294-.23.357-.463.7-.692,1.061-.181.271-.359.552-.548.837-.772,1.169-1.538,2.36-2.315,3.556,0,.011-.008.015,0,.026-.023.006-.039.035-.052.075l-.008.015c-1.227,1.858-2.432,3.746-3.636,5.647-.142.235-.287.459-.432.682-3.388,5.395-6.659,10.9-9.572,16.556-.114.2-.209.388-.3.585-.707,1.358-1.385,2.733-2.037,4.112-1.412,2.985-2.736,6.068-4.028,9.043l-.064.165c-.067.153-.126.292-.193.445-1.643,3.819-3.347,7.765-5.26,11.538q-.328.66-.666,1.285c-.1.211-.214.414-.336.632-3.573,6.741-7.347,11.8-11.691,15.707-.37.336-.74.672-1.128.988a.228.228,0,0,1-.1.065.3.3,0,0,1-.308-.1.289.289,0,0,1,.031-.412,41.461,41.461,0,0,0,3.745-3.552,60.159,60.159,0,0,0,8.922-12.942c.123-.218.237-.42.336-.632.233-.432.452-.871.682-1.315,1.365-2.715,2.631-5.524,3.855-8.31.126-.292.255-.573.373-.849.411-.934.81-1.864,1.2-2.78,1.311-3.042,2.667-6.182,4.1-9.233.677-1.423,1.371-2.827,2.091-4.225.124-.254.26-.512.387-.756,4.057-7.8,8.759-15.314,13.507-22.616l0-.011c.148-.212.293-.436.438-.66,1.075-1.657,2.154-3.3,3.221-4.944,4.818-7.359,9.8-14.969,14.182-22.781,0,.011.011,0,.011,0,.264-.147.5-.3.767-.447" transform="translate(-178.44 -56.576)" fill="#621212"/>
          <path id="Trazado_990284" data-name="Trazado 990284" d="M404.963,122.5l3.6,13.773.169.649a.331.331,0,0,1-.017.2c-.022.006-.038.035-.052.075a.327.327,0,0,1-.135.087l-.011,0a.285.285,0,0,1-.355-.218l-.038-.136-3.657-14.025c.156-.141.327-.275.5-.408" transform="translate(-218.989 -72.963)" fill="#621212"/>
          <path id="Trazado_990285" data-name="Trazado 990285" d="M428.47,157.068c.008.205.014.4.008.6l-24.271,4.277-.105.017a.3.3,0,0,1-.346-.233.329.329,0,0,1,.244-.349l.639-.118Z" transform="translate(-218.609 -91.359)" fill="#621212"/>
          <path id="Trazado_990286" data-name="Trazado 990286" d="M407.777,180.489a4.863,4.863,0,0,1-.189.59l-31.205-.378-.16,0a.333.333,0,0,1-.28-.215l-.042-.147-5.878-19.56c.131-.232.268-.441.413-.665l5.853,19.469.16.529.234.008Z" transform="translate(-200.658 -92.978)" fill="#621212"/>
          <path id="Trazado_990287" data-name="Trazado 990287" d="M435.156,131.184c.02.2.032.419.051.621l-17.178,6.359-.022.007-.023.006a.294.294,0,0,1-.181-.56l.774-.29Z" transform="translate(-225.985 -77.583)" fill="#621212"/>
          <path id="Trazado_990288" data-name="Trazado 990288" d="M360.4,216.567l.206.736a.294.294,0,1,1-.566.159l-.013-.045-5.247-18.527c.083-.4.177-.807.271-1.212Z" transform="translate(-192.545 -112.972)" fill="#621212"/>
          <path id="Trazado_990289" data-name="Trazado 990289" d="M400.5,231.772c-.166.193-.328.4-.494.59l-30.372.244-.111-.005a.3.3,0,1,1-.008-.6l.376-.007Z" transform="translate(-200.229 -131.118)" fill="#621212"/>
          <path id="Trazado_990290" data-name="Trazado 990290" d="M376.884,250.309c-.313.234-.615.465-.92.685l-23.9,2.169-.191.016a.3.3,0,0,1-.29-.163l-.051-.1-3.552-6.8c.053-.333.093-.674.146-1.006l3.742,7.173.151.276.382-.034Z" transform="translate(-188.928 -138.22)" fill="#621212"/>
          <path id="Trazado_990291" data-name="Trazado 990291" d="M7.959,128.413c.006.083.024.167.031.25.561,4.694,1.3,9.081,1.856,13.786.164,1.437.339,2.887.515,4.325.022.2.055.416.077.618.466,3.815,1,7.611,1.733,11.373.034.2.068.394.115.585.53,2.676,1.167,5.335,1.936,7.956a58.207,58.207,0,0,0,5.106,12.234,4.93,4.93,0,0,0,.306.539,42.534,42.534,0,0,0,3.2,4.774l17.586-1.379-16.2,3.075c.744.875,1.526,1.7,2.345,2.5q1.047,1.006,2.17,1.947c.2.155.4.322.6.477a62.507,62.507,0,0,0,11.873,7.271c.639.313,1.279.616,1.919.917.355.165.7.329,1.041.482a113.269,113.269,0,0,0,38.5,10.192c.41.039.832.067,1.255.1a6.731,6.731,0,0,1-4.061-2.58c-.4-.475-.784-.984-1.128-1.478a71.672,71.672,0,0,1-8.179-16.741c-.121-.315-.229-.64-.349-.954-2.376-6.653-4.421-13.5-7.273-19.91-.164-.377-.339-.754-.515-1.131a58.737,58.737,0,0,0-4.013-7.387,52.536,52.536,0,0,0-6.17-7.754c-.175-.2-.352-.377-.54-.566a64.836,64.836,0,0,0-7.445-6.483l-.894,11.883-.647-13c-2.162-1.534-4.4-2.956-6.7-4.263q-1.584-.9-3.209-1.734c-.181-.106-.376-.2-.57-.3a165.39,165.39,0,0,0-23.417-9.346H8.8c-.289-.09-.553-.19-.842-.28" transform="translate(-7.959 -76.108)" fill="#917d44"/>
          <path id="Trazado_990292" data-name="Trazado 990292" d="M7.965,128.425c.006.083.024.167.03.25,6.014,6.906,12.593,13.473,18.962,19.825.3.3.6.594.9.9.232.227.465.467.708.707,1,.986,1.99,1.995,3,3,0,.012.011.013.01.024.023,0,.045.027.066.063l.011.013c1.582,1.567,3.15,3.168,4.717,4.781.187.2.375.39.563.58,4.423,4.584,8.755,9.3,12.766,14.239.153.175.284.337.414.511.971,1.184,1.916,2.391,2.838,3.607,1.995,2.632,3.923,5.377,5.8,8.024l.1.148c.1.136.183.26.28.4,2.392,3.4,4.87,6.913,7.516,10.213q.457.578.916,1.122c.141.186.294.361.459.549,4.88,5.865,9.613,10.045,14.665,12.974.431.253.862.505,1.307.735a.225.225,0,0,0,.115.043.3.3,0,0,0,.282-.158.289.289,0,0,0-.116-.4,41.466,41.466,0,0,1-4.394-2.708A60.158,60.158,0,0,1,68.477,197.03c-.164-.188-.318-.363-.458-.549-.317-.375-.622-.76-.938-1.147-1.894-2.377-3.709-4.867-5.478-7.342-.183-.26-.367-.508-.539-.755-.593-.829-1.175-1.657-1.746-2.474-1.907-2.708-3.879-5.5-5.9-8.2-.954-1.254-1.922-2.485-2.914-3.706-.174-.224-.359-.448-.534-.66-5.573-6.807-11.715-13.191-17.861-19.363v-.012c-.189-.178-.377-.367-.565-.556q-2.088-2.1-4.167-4.179c-6.225-6.213-12.66-12.64-18.555-19.386,0,.012-.012,0-.012,0-.289-.09-.553-.19-.842-.28" transform="translate(-7.962 -76.114)" fill="#621212"/>
          <path id="Trazado_990293" data-name="Trazado 990293" d="M59.022,149l-.7,14.219-.033.669a.335.335,0,0,0,.058.193c.023,0,.045.027.066.063a.333.333,0,0,0,.15.057h.012a.285.285,0,0,0,.3-.287l.009-.141.7-14.477c-.181-.106-.376-.2-.57-.3" transform="translate(-34.748 -87.067)" fill="#621212"/>
          <path id="Trazado_990294" data-name="Trazado 990294" d="M16.967,192.4c.034.2.068.393.115.585l24.632-.794.107,0a.3.3,0,0,0,.291-.3.328.328,0,0,0-.311-.291l-.649.016Z" transform="translate(-12.753 -109.733)" fill="#621212"/>
          <path id="Trazado_990295" data-name="Trazado 990295" d="M32.267,206.313a4.963,4.963,0,0,0,.306.539l30.464-6.773.156-.037a.335.335,0,0,0,.23-.268l.01-.152,1.739-20.35c-.175-.2-.352-.377-.54-.566L62.9,198.961l-.049.551-.227.056Z" transform="translate(-20.896 -102.875)" fill="#621212"/>
          <path id="Trazado_990296" data-name="Trazado 990296" d="M13.1,167.677c.022.2.055.417.077.618l18.117,2.7.023,0,.023,0a.294.294,0,0,0,.063-.585l-.817-.125Z" transform="translate(-10.694 -97.005)" fill="#621212"/>
          <path id="Trazado_990297" data-name="Trazado 990297" d="M121.418,231.868l-.051.763a.294.294,0,1,0,.587.039l0-.047,1.333-19.21c-.164-.377-.339-.754-.515-1.131Z" transform="translate(-68.317 -120.746)" fill="#621212"/>
          <path id="Trazado_990298" data-name="Trazado 990298" d="M52.367,255.239c.2.155.4.321.6.476l29.775-5.994.108-.028a.3.3,0,1,0-.115-.585l-.37.07Z" transform="translate(-31.594 -140.343)" fill="#621212"/>
          <path id="Trazado_990299" data-name="Trazado 990299" d="M83.144,268.246c.355.165.7.329,1.041.482l23.833-2.781.19-.023a.3.3,0,0,0,.25-.219l.03-.1,2.081-7.383c-.121-.314-.229-.64-.349-.954l-2.19,7.788-.091.3-.38.046Z" transform="translate(-47.974 -144.685)" fill="#621212"/>
          <path id="Trazado_990300" data-name="Trazado 990300" d="M221.873,118.088c-.129.624-.27,1.247-.435,1.858v.012a77.554,77.554,0,0,1-4.705,13.575,65.183,65.183,0,0,1-6.646,11.41c-.13.188-.27.376-.412.565-7.575,10.21-18.1,18.2-30.231,21.656-.2.058-.412.117-.611.176-.518.141-1.047.27-1.576.4a48.025,48.025,0,0,1-33.948-4.729c-.235-.13-.471-.259-.706-.412a39.907,39.907,0,0,1-13.163-12.151c-9.2-13.657-9.8-34.042-9.2-50.1.541-14.163,3.859-28.455,11.269-40.535a65.891,65.891,0,0,1,18.574-19.221q.953-.67,1.906-1.376c.706-.494,1.412-1.023,2.105-1.564A151.823,151.823,0,0,0,171.61,22a23.4,23.4,0,0,1,4.482-3.8c.106-.071.223-.141.329-.2.211-.118.412-.235.623-.341h.012a9.23,9.23,0,0,1,1.706-.682,4.8,4.8,0,0,1,.647-.176,7.343,7.343,0,0,1,5.223.694,6.379,6.379,0,0,1,.612.353,13.959,13.959,0,0,1,3.964,4.035c4.705,6.858,5.728,11.175,10.081,17.856.141.236.305.483.471.73.2.306.411.611.611.917,3.929,5.835,8.623,12.4,12.657,19.256l.012.012c.341.576.682,1.141,1,1.718l.011.012a69.346,69.346,0,0,1,7.423,17.35,84.5,84.5,0,0,1,.4,38.359" transform="translate(-67.63 -16.597)" fill="#441c16"/>
          <path id="Trazado_990301" data-name="Trazado 990301" d="M136.05,120.037a122.03,122.03,0,0,0,7.611,58.438l-.553.212a122.744,122.744,0,0,1-7.634-58.721A108.518,108.518,0,0,1,157.964,65.35c.576-.729,1.176-1.459,1.776-2.176.706-.494,1.412-1.023,2.105-1.564q-1.764,2.029-3.423,4.105a108.083,108.083,0,0,0-22.373,54.322" transform="translate(-75.381 -40.554)" fill="#f5b274"/>
          <path id="Trazado_990302" data-name="Trazado 990302" d="M197.935,18.86c-2.988,5.752-6.434,11.281-9.8,16.7-2.694,4.329-5.481,8.811-7.987,13.327A161.842,161.842,0,0,0,164.2,164.216c-.235-.13-.471-.259-.706-.412A162.515,162.515,0,0,1,179.632,48.6c2.517-4.517,5.305-9,8-13.34,3.2-5.152,6.469-10.41,9.351-15.856.106-.071.224-.141.329-.2.212-.117.412-.235.624-.341" transform="translate(-88.52 -17.801)" fill="#f5b274"/>
          <path id="Trazado_990303" data-name="Trazado 990303" d="M217.5,165.792l-.577.117a227.639,227.639,0,0,1-3.846-62.72A505.946,505.946,0,0,1,227.9,17.2a4.848,4.848,0,0,1,.646-.176,506.648,506.648,0,0,0-14.88,86.211,226.857,226.857,0,0,0,3.835,62.555" transform="translate(-116.767 -16.825)" fill="#f5b274"/>
          <path id="Trazado_990304" data-name="Trazado 990304" d="M246.244,168.181q-.035.424-.071.847l-.588-.058c.012-.2.035-.412.047-.612,4.223-49.087,8.552-99.774,5.8-149.849a6.363,6.363,0,0,1,.611.353c2.706,49.91-1.6,100.409-5.8,149.32" transform="translate(-134.429 -17.615)" fill="#f5b274"/>
          <path id="Trazado_990305" data-name="Trazado 990305" d="M300.213,171.269c-.13.188-.27.377-.412.565a73.8,73.8,0,0,1-4.435-21.538,263.512,263.512,0,0,1-.13-26.738c.235-8.128.471-16.527-.012-24.761a140.963,140.963,0,0,0-5.811-32.736c.141.235.306.482.471.729.2.306.412.612.612.917a140.763,140.763,0,0,1,5.317,31.054c.482,8.258.247,16.68.012,24.809a262.532,262.532,0,0,0,.13,26.69,73.681,73.681,0,0,0,4.258,21.009" transform="translate(-157.756 -42.923)" fill="#f5b274"/>
          <path id="Trazado_990306" data-name="Trazado 990306" d="M327.645,168.21c-.129.624-.27,1.247-.435,1.858-1.494-19.879-3.776-39.841-8.4-59.3.341.576.683,1.141,1,1.718l.011.012c4.2,18.315,6.387,37.041,7.823,55.709" transform="translate(-173.402 -66.719)" fill="#f5b274"/>
          <path id="Trazado_990307" data-name="Trazado 990307" d="M57.812,326.012,41.28,328.28l1.263,4.171-1.452,3.854,17.795-2.264-.947-8.849" transform="translate(-25.593 -180.839)" fill="#441c16"/>
          <path id="Trazado_990308" data-name="Trazado 990308" d="M41.279,331.792a4.242,4.242,0,0,1,2.589,2.92c.751,2.4-2.778,5.106-2.778,5.106Z" transform="translate(-25.592 -184.351)" fill="#f5b274"/>
          <path id="Trazado_990309" data-name="Trazado 990309" d="M231.572,272.293c-3.905,11.1-9.316,26.526-34.536,37.324s-75.989,11.716-103.621,1.235c-.576-.223-1.141-.435-1.682-.67-14.327-6-20.691-20.173-19.291-33.6a34.109,34.109,0,0,1,2.529-9.845,31.4,31.4,0,0,1,17.868-17.268,73.771,73.771,0,0,1,20.1-4.328c18.915-1.541,42.346-5.858,73.871-12.328,27.372-5.634,46.605-1.259,54.345,4.623a12.066,12.066,0,0,1,2.729,2.764,5.963,5.963,0,0,1,.812,1.835c1.929,7.469-9.54,20.044-13.128,30.254" transform="translate(-42.178 -130.283)" fill="#621212"/>
          <path id="Trazado_990310" data-name="Trazado 990310" d="M239.511,247.457a14.714,14.714,0,0,1-1.47,3.552,44.921,44.921,0,0,0-4.34,11.469c-.436.941-.824,1.87-1.153,2.776-3.764,10.5-10.309,22.894-34.658,33.116s-70.04,10.367-96.707.451c-.565-.212-2.474-1.59-3-1.8-5.776-2.364-10.822-1.992-13.939-6.439a17.057,17.057,0,0,1-2.988-8.41c-.012-.012-.012-.012,0-.024a16.774,16.774,0,0,1,.305-4.717c0-.023.012-.035.012-.047a24.41,24.41,0,0,1,6.316-11.739c5.564-5.764,13.375-8.893,21.221-10.481s15.9-1.788,23.867-2.611c17.374-1.8,34.277-6.564,51.44-9.728s35.089-4.729,51.934-.129a5.5,5.5,0,0,1,2.4,1.117,3.618,3.618,0,0,1,.765,3.647" transform="translate(-46.941 -135.395)" fill="#f5b274"/>
          <path id="Trazado_990311" data-name="Trazado 990311" d="M239.556,250.187a14.715,14.715,0,0,1-1.47,3.552,44.921,44.921,0,0,0-4.34,11.469c-.436.941-.824,1.87-1.153,2.776-3.764,10.5-8.987,25.091-33.336,35.313S125.9,314.378,99.235,304.461c-.565-.211-1.105-.423-1.635-.635A29.821,29.821,0,0,1,84.285,293.31,17.057,17.057,0,0,1,81.3,284.9c-.012-.012-.012-.012,0-.024a17.155,17.155,0,0,1,.305-2.317c0-.012.012-.035.012-.047a24.41,24.41,0,0,1,6.316-11.739c5.564-5.764,13.375-8.893,21.221-10.481s15.9-1.788,23.867-2.612c17.374-1.8,34.277-6.563,51.44-9.728s35.089-4.729,51.934-.129a5.5,5.5,0,0,1,2.4,1.117,2.9,2.9,0,0,1,.765,1.247" transform="translate(-46.987 -138.125)" fill="#b65743"/>
          <path id="Trazado_990312" data-name="Trazado 990312" d="M243.359,263.457c-.082.212-.176.412-.27.624-3,6.658-8.893,14.516-11.4,21.35-.035.117-.082.224-.117.329-.153.447-.318.894-.482,1.353-3.882,10.975-9.834,25.608-34.054,35.971-25.232,10.8-75.989,11.716-103.621,1.235-.576-.223-1.141-.435-1.682-.67a31,31,0,0,1-15.245-13.457c-.188-.364-.388-.729-.576-1.094a32.231,32.231,0,0,1-2.317-5.87c-.071-.224-.129-.435-.188-.659a34.764,34.764,0,0,1-.965-12.516c2.6,13.034,16,38.43,81.741,30.431,0,0,51.851-3.8,65.273-25.42,12.281-19.821,22.02-32.042,25.244-39.559.588,2.258-.059,4.976-1.341,7.952" transform="translate(-42.178 -143.749)" fill="#441c16"/>
          <path id="Trazado_990313" data-name="Trazado 990313" d="M244.671,272.5c-.082.212-.176.412-.27.624A52.373,52.373,0,0,0,234.249,285.8c-1.388,2.317-2.729,4.752-4.023,7.1-3.329,6.058-6.776,12.328-11.622,17.4-6.293,6.576-14.551,10.681-21.044,13.528a147.557,147.557,0,0,1-58.945,12.586c-1.729,0-3.447-.035-5.164-.094-12.916-.494-24.479-2.846-34.36-6.975a64.7,64.7,0,0,1-24.185-17.068c-.071-.224-.129-.435-.188-.659A64.241,64.241,0,0,0,99.2,329.072c9.857,4.117,21.385,6.458,34.266,6.952a146.461,146.461,0,0,0,63.979-12.457c6.47-2.846,14.692-6.94,20.95-13.48,4.823-5.035,8.258-11.28,11.575-17.327,1.294-2.352,2.635-4.787,4.035-7.116A52.111,52.111,0,0,1,244.671,272.5" transform="translate(-43.49 -152.797)" fill="#b65743"/>
          <path id="Trazado_990314" data-name="Trazado 990314" d="M235.852,319.478c-.035.117-.082.224-.117.329-.153.447-.318.894-.482,1.353-.388.729-.777,1.447-1.165,2.164a77.3,77.3,0,0,1-7.034,11.433,52.965,52.965,0,0,1-13.5,11.634c-17.645,11.222-40.3,16.88-67.519,16.88q-7.8,0-16.1-.624c-9.128-.682-19.809-1.894-29.89-5.752a51.472,51.472,0,0,1-19.386-12.657c-.188-.365-.388-.73-.576-1.094,6.117,7.046,14.022,11.163,20.068,13.469,10.046,3.846,20.7,5.058,29.8,5.74,34.419,2.577,62.5-2.87,83.458-16.209a53,53,0,0,0,13.421-11.563,75.848,75.848,0,0,0,7.011-11.4c.659-1.235,1.329-2.47,2.023-3.705" transform="translate(-46.341 -177.797)" fill="#b65743"/>
          <path id="Trazado_990315" data-name="Trazado 990315" d="M113.971,303.345a15.268,15.268,0,0,1-1.412,6.576c-.082.165-.165.329-.259.482a9.135,9.135,0,0,1-3.07,3.517,1.945,1.945,0,0,1-.259.165,5.921,5.921,0,0,1-3.035.859c-4.435,0-8.034-5.2-8.034-11.6a15.107,15.107,0,0,1,1.564-6.881c.082-.165.165-.318.259-.471,1.446-2.564,3.646-4.211,6.1-4.258h.305c4.353.153,7.834,5.293,7.834,11.61" transform="translate(-55.829 -163.032)" fill="#441c16"/>
          <path id="Trazado_990316" data-name="Trazado 990316" d="M111.01,318.765a1.945,1.945,0,0,1-.259.165,22.081,22.081,0,0,0-3.435-7.458c-.541-.694-1.176-1.353-1.776-1.988a26.51,26.51,0,0,1-2-2.27,12.237,12.237,0,0,1-2.294-5.905c.082-.165.165-.318.259-.471a11.7,11.7,0,0,0,2.282,6.2,23.778,23.778,0,0,0,1.964,2.247,24.591,24.591,0,0,1,1.8,2.011,21.742,21.742,0,0,1,3.458,7.469" transform="translate(-57.609 -167.877)" fill="#f5b274"/>
          <path id="Trazado_990317" data-name="Trazado 990317" d="M121.579,309.921c-.082.165-.165.329-.259.482a26.253,26.253,0,0,0-1.576-7.281,42.689,42.689,0,0,0-2.023-4.176,22.428,22.428,0,0,1-2.87-7.211h.306a22.435,22.435,0,0,0,2.823,7.07,43.186,43.186,0,0,1,2.035,4.2,26.554,26.554,0,0,1,1.564,6.917" transform="translate(-64.849 -163.032)" fill="#f5b274"/>
          <path id="Trazado_990318" data-name="Trazado 990318" d="M258.733,274.762a15.277,15.277,0,0,1-6.306,2.339c-.183.019-.366.038-.545.04a9.127,9.127,0,0,1-4.616-.7,1.915,1.915,0,0,1-.278-.13,5.915,5.915,0,0,1-2.354-2.1c-2.381-3.741.073-9.57,5.472-13a15.1,15.1,0,0,1,6.646-2.374c.183-.019.356-.032.536-.035,2.94-.156,5.51.816,6.87,2.865l.164.258c2.207,3.754-.26,9.451-5.589,12.842" transform="translate(-133.439 -145.493)" fill="#441c16"/>
          <path id="Trazado_990319" data-name="Trazado 990319" d="M250.98,276.459a1.945,1.945,0,0,1-.278-.13,22.069,22.069,0,0,0,4.448-6.9c.3-.829.51-1.719.724-2.566a26.492,26.492,0,0,1,.842-2.906,12.238,12.238,0,0,1,3.751-5.105c.183-.019.356-.032.536-.034A11.706,11.706,0,0,0,257,264.069a23.821,23.821,0,0,0-.841,2.864,24.515,24.515,0,0,1-.731,2.6,21.739,21.739,0,0,1-4.445,6.928" transform="translate(-137.152 -145.512)" fill="#f5b274"/>
          <path id="Trazado_990320" data-name="Trazado 990320" d="M261.709,280.379c-.183.019-.366.038-.546.041a26.255,26.255,0,0,0,5.3-5.239,42.663,42.663,0,0,0,2.437-3.949,22.416,22.416,0,0,1,4.543-6.293l.164.258a22.44,22.44,0,0,0-4.449,6.177,43.142,43.142,0,0,1-2.451,3.971,26.557,26.557,0,0,1-5,5.033" transform="translate(-142.72 -148.771)" fill="#f5b274"/>
          <path id="Trazado_990321" data-name="Trazado 990321" d="M139.579,348.6a15.281,15.281,0,0,1-6.689.7c-.182-.028-.364-.055-.538-.1a9.142,9.142,0,0,1-4.3-1.827,1.924,1.924,0,0,1-.237-.2,5.921,5.921,0,0,1-1.758-2.619c-1.376-4.216,2.45-9.251,8.533-11.236a15.1,15.1,0,0,1,7.027-.648c.182.028.353.058.528.1,2.887.58,5.134,2.16,5.942,4.483l.095.29c1.2,4.185-2.6,9.09-8.607,11.049" transform="translate(-70.666 -184.734)" fill="#441c16"/>
          <path id="Trazado_990322" data-name="Trazado 990322" d="M130.374,347.561a1.923,1.923,0,0,1-.237-.2,22.077,22.077,0,0,0,6.024-5.579c.492-.73.921-1.538,1.339-2.305a26.478,26.478,0,0,1,1.538-2.605,12.237,12.237,0,0,1,4.9-4.013c.182.027.353.058.528.1a11.71,11.71,0,0,0-5.185,4.093,23.739,23.739,0,0,0-1.526,2.565,24.647,24.647,0,0,1-1.354,2.335,21.732,21.732,0,0,1-6.028,5.605" transform="translate(-72.985 -184.921)" fill="#f5b274"/>
          <path id="Trazado_990323" data-name="Trazado 990323" d="M140.366,354.7c-.182-.027-.364-.054-.539-.1a26.263,26.263,0,0,0,6.433-3.758,42.63,42.63,0,0,0,3.342-3.219,22.423,22.423,0,0,1,5.964-4.966l.095.29a22.438,22.438,0,0,0-5.845,4.878,43.116,43.116,0,0,1-3.361,3.237,26.578,26.578,0,0,1-6.09,3.633" transform="translate(-78.142 -190.135)" fill="#f5b274"/>
          <path id="Trazado_990324" data-name="Trazado 990324" d="M283.235,309.752a15.267,15.267,0,0,1-5.881-3.262c-.134-.127-.268-.254-.386-.388a9.137,9.137,0,0,1-2.473-3.96,1.952,1.952,0,0,1-.082-.3,5.922,5.922,0,0,1,.061-3.153c1.289-4.243,7.31-6.176,13.433-4.315a15.1,15.1,0,0,1,6.129,3.5c.134.126.256.25.375.385,2.033,2.13,2.969,4.713,2.3,7.079l-.089.293c-1.412,4.12-7.343,5.957-13.386,4.12" transform="translate(-149.674 -164.062)" fill="#441c16"/>
          <path id="Trazado_990325" data-name="Trazado 990325" d="M274.7,306.685a1.95,1.95,0,0,1-.082-.3,22.071,22.071,0,0,0,8.134-1.118c.821-.316,1.636-.732,2.418-1.121a26.484,26.484,0,0,1,2.754-1.254,12.238,12.238,0,0,1,6.317-.478c.133.126.256.25.375.385a11.7,11.7,0,0,0-6.595.381,23.735,23.735,0,0,0-2.721,1.227,24.707,24.707,0,0,1-2.448,1.137,21.74,21.74,0,0,1-8.152,1.137" transform="translate(-149.883 -168.604)" fill="#f5b274"/>
          <path id="Trazado_990326" data-name="Trazado 990326" d="M280.469,319.615c-.134-.127-.267-.254-.386-.388a26.265,26.265,0,0,0,7.425.609,42.74,42.74,0,0,0,4.583-.721,22.41,22.41,0,0,1,7.734-.65l-.089.292a22.433,22.433,0,0,0-7.585.646,43.217,43.217,0,0,1-4.609.726,26.562,26.562,0,0,1-7.073-.514" transform="translate(-152.79 -177.186)" fill="#f5b274"/>
          <path id="Trazado_990327" data-name="Trazado 990327" d="M336.738,296.055a15.271,15.271,0,0,1-5.881-3.262c-.134-.127-.268-.254-.386-.388a9.138,9.138,0,0,1-2.473-3.96,1.95,1.95,0,0,1-.082-.3,5.922,5.922,0,0,1,.061-3.153c1.289-4.243,7.31-6.176,13.433-4.315a15.109,15.109,0,0,1,6.129,3.5c.134.126.256.25.375.384,2.032,2.13,2.969,4.713,2.3,7.079l-.089.293c-1.412,4.12-7.343,5.957-13.386,4.12" transform="translate(-178.149 -156.771)" fill="#441c16"/>
          <path id="Trazado_990328" data-name="Trazado 990328" d="M328.207,292.988a1.95,1.95,0,0,1-.082-.3,22.071,22.071,0,0,0,8.134-1.118c.821-.316,1.636-.732,2.418-1.121a26.485,26.485,0,0,1,2.754-1.254,12.238,12.238,0,0,1,6.317-.478c.134.126.256.25.375.385a11.7,11.7,0,0,0-6.595.381,23.7,23.7,0,0,0-2.721,1.227,24.707,24.707,0,0,1-2.448,1.137,21.741,21.741,0,0,1-8.152,1.137" transform="translate(-178.359 -161.314)" fill="#f5b274"/>
          <path id="Trazado_990329" data-name="Trazado 990329" d="M333.973,305.917c-.134-.127-.267-.254-.386-.388a26.247,26.247,0,0,0,7.425.609,42.6,42.6,0,0,0,4.584-.722,22.434,22.434,0,0,1,7.734-.65l-.089.293a22.444,22.444,0,0,0-7.585.646,43.093,43.093,0,0,1-4.609.726,26.564,26.564,0,0,1-7.073-.514" transform="translate(-181.266 -169.896)" fill="#f5b274"/>
          <path id="Trazado_990330" data-name="Trazado 990330" d="M276.559,344.449a14.117,14.117,0,0,1-2.537-5.675c-.029-.168-.057-.336-.071-.5a8.445,8.445,0,0,1,.37-4.3,1.834,1.834,0,0,1,.1-.264,5.478,5.478,0,0,1,1.795-2.3c3.307-2.421,8.831-.508,12.325,4.264a13.959,13.959,0,0,1,2.59,5.986c.029.168.051.327.064.493.321,2.7-.421,5.131-2.229,6.509l-.228.167c-3.33,2.262-8.733.329-12.182-4.382" transform="translate(-149.463 -183.591)" fill="#441c16"/>
          <path id="Trazado_990331" data-name="Trazado 990331" d="M274.876,337.782a1.735,1.735,0,0,1,.1-.264,20.415,20.415,0,0,0,6.634,3.687c.783.222,1.616.367,2.41.513a24.455,24.455,0,0,1,2.731.6,11.312,11.312,0,0,1,4.935,3.151c.029.168.051.327.064.492a10.825,10.825,0,0,0-5.087-3.377,22.055,22.055,0,0,0-2.692-.6,22.863,22.863,0,0,1-2.44-.517,20.094,20.094,0,0,1-6.657-3.683" transform="translate(-150.018 -187.399)" fill="#f5b274"/>
          <path id="Trazado_990332" data-name="Trazado 990332" d="M274.156,347.775c-.029-.168-.057-.335-.07-.5a24.256,24.256,0,0,0,5.151,4.57,39.381,39.381,0,0,0,3.789,2.01,20.717,20.717,0,0,1,6.078,3.811l-.228.167a20.73,20.73,0,0,0-5.965-3.731,39.908,39.908,0,0,1-3.811-2.021,24.558,24.558,0,0,1-4.943-4.3" transform="translate(-149.598 -192.591)" fill="#f5b274"/>
          <path id="Trazado_990333" data-name="Trazado 990333" d="M200.693,288.707a15.276,15.276,0,0,1-2.147-6.373c-.013-.184-.027-.367-.024-.547a9.136,9.136,0,0,1,.842-4.592,1.907,1.907,0,0,1,.138-.274,5.925,5.925,0,0,1,2.17-2.289c3.812-2.266,9.563.364,12.833,5.864a15.108,15.108,0,0,1,2.172,6.714c.014.184.021.357.018.537.067,2.943-.982,5.483-3.071,6.78l-.263.156c-3.819,2.092-9.439-.547-12.667-5.976" transform="translate(-109.371 -153.496)" fill="#441c16"/>
          <path id="Trazado_990334" data-name="Trazado 990334" d="M200.343,280.725a1.9,1.9,0,0,1,.138-.274,22.08,22.08,0,0,0,6.763,4.655c.82.32,1.7.561,2.543.8a26.554,26.554,0,0,1,2.879.929,12.244,12.244,0,0,1,4.989,3.9c.013.184.021.357.018.537a11.707,11.707,0,0,0-5.13-4.163,23.741,23.741,0,0,0-2.837-.927,24.686,24.686,0,0,1-2.575-.809,21.734,21.734,0,0,1-6.79-4.653" transform="translate(-110.35 -157.026)" fill="#f5b274"/>
          <path id="Trazado_990335" data-name="Trazado 990335" d="M198.567,291.4c-.014-.184-.027-.367-.024-.547a26.251,26.251,0,0,0,5.075,5.453,42.694,42.694,0,0,0,3.873,2.555,22.417,22.417,0,0,1,6.152,4.732l-.262.156a22.439,22.439,0,0,0-6.039-4.634,43.1,43.1,0,0,1-3.9-2.569,26.561,26.561,0,0,1-4.879-5.146" transform="translate(-109.392 -162.562)" fill="#f5b274"/>
          <path id="Trazado_990336" data-name="Trazado 990336" d="M154.988,298.519a15.272,15.272,0,0,1-6.689.7c-.182-.027-.364-.055-.539-.1a9.133,9.133,0,0,1-4.3-1.828,1.859,1.859,0,0,1-.237-.2,5.916,5.916,0,0,1-1.758-2.619c-1.376-4.216,2.45-9.251,8.533-11.236a15.1,15.1,0,0,1,7.027-.648c.182.027.353.058.528.1,2.887.58,5.134,2.16,5.942,4.483l.095.29c1.2,4.185-2.6,9.09-8.607,11.05" transform="translate(-78.867 -158.081)" fill="#441c16"/>
          <path id="Trazado_990337" data-name="Trazado 990337" d="M145.783,297.481a1.923,1.923,0,0,1-.237-.2,22.077,22.077,0,0,0,6.024-5.579c.492-.73.921-1.538,1.339-2.305a26.475,26.475,0,0,1,1.538-2.605,12.238,12.238,0,0,1,4.9-4.013c.182.027.353.058.528.1a11.706,11.706,0,0,0-5.185,4.093,23.661,23.661,0,0,0-1.526,2.565,24.644,24.644,0,0,1-1.354,2.335,21.732,21.732,0,0,1-6.028,5.605" transform="translate(-81.186 -158.267)" fill="#f5b274"/>
          <path id="Trazado_990338" data-name="Trazado 990338" d="M155.775,304.619c-.182-.027-.364-.054-.539-.1a26.248,26.248,0,0,0,6.433-3.758,42.633,42.633,0,0,0,3.342-3.219,22.422,22.422,0,0,1,5.964-4.966l.095.29a22.447,22.447,0,0,0-5.845,4.878,43.123,43.123,0,0,1-3.361,3.237,26.58,26.58,0,0,1-6.09,3.633" transform="translate(-86.343 -163.481)" fill="#f5b274"/>
          <path id="Trazado_990339" data-name="Trazado 990339" d="M312.481,263.624a15.273,15.273,0,0,1-6.474,1.819c-.184,0-.368.008-.547,0a9.131,9.131,0,0,1-4.544-1.075,1.944,1.944,0,0,1-.266-.152,5.917,5.917,0,0,1-2.176-2.284c-2.069-3.922.851-9.532,6.511-12.517a15.1,15.1,0,0,1,6.816-1.827c.184,0,.358,0,.537.009,2.943.083,5.426,1.261,6.615,3.413l.142.27c1.9,3.921-1.027,9.4-6.614,12.346" transform="translate(-162.224 -139.533)" fill="#441c16"/>
          <path id="Trazado_990340" data-name="Trazado 990340" d="M304.148,264.364a1.917,1.917,0,0,1-.266-.152,22.071,22.071,0,0,0,4.993-6.517c.362-.8.648-1.671.93-2.5a26.528,26.528,0,0,1,1.075-2.828,12.233,12.233,0,0,1,4.153-4.784c.184,0,.358,0,.537.009a11.706,11.706,0,0,0-4.419,4.911,23.8,23.8,0,0,0-1.071,2.786,24.654,24.654,0,0,1-.939,2.53,21.734,21.734,0,0,1-4.993,6.544" transform="translate(-165.456 -139.533)" fill="#f5b274"/>
          <path id="Trazado_990341" data-name="Trazado 990341" d="M314.71,269.34c-.184,0-.368.008-.547,0a26.254,26.254,0,0,0,5.705-4.791,42.623,42.623,0,0,0,2.75-3.738,22.41,22.41,0,0,1,5.039-5.9l.143.27a22.44,22.44,0,0,0-4.936,5.8,43.144,43.144,0,0,1-2.765,3.759,26.538,26.538,0,0,1-5.388,4.611" transform="translate(-170.928 -143.429)" fill="#f5b274"/>
          <path id="Trazado_990342" data-name="Trazado 990342" d="M367.951,262.963a15.27,15.27,0,0,1-6.082-2.87c-.142-.117-.283-.235-.411-.362a9.132,9.132,0,0,1-2.727-3.789,1.938,1.938,0,0,1-.1-.289,5.92,5.92,0,0,1-.146-3.151c1.008-4.319,6.889-6.641,13.121-5.187a15.1,15.1,0,0,1,6.345,3.088c.142.117.272.233.4.359,2.168,1.992,3.272,4.508,2.758,6.913l-.07.3c-1.138,4.2-6.936,6.425-13.087,4.989" transform="translate(-194.437 -139.16)" fill="#441c16"/>
          <path id="Trazado_990343" data-name="Trazado 990343" d="M359.065,259.846a1.941,1.941,0,0,1-.1-.29,22.075,22.075,0,0,0,8.043-1.649c.8-.37,1.585-.838,2.34-1.278a26.461,26.461,0,0,1,2.665-1.431,12.233,12.233,0,0,1,6.272-.891c.142.117.272.232.4.359a11.7,11.7,0,0,0-6.555.813,23.67,23.67,0,0,0-2.634,1.4,24.6,24.6,0,0,1-2.368,1.3,21.734,21.734,0,0,1-8.06,1.67" transform="translate(-194.772 -143.063)" fill="#f5b274"/>
          <path id="Trazado_990344" data-name="Trazado 990344" d="M365.422,272.329c-.142-.118-.283-.235-.411-.362a26.245,26.245,0,0,0,7.449.12,42.623,42.623,0,0,0,4.527-1.021,22.42,22.42,0,0,1,7.674-1.155l-.07.3a22.431,22.431,0,0,0-7.526,1.142,43.247,43.247,0,0,1-4.552,1.027,26.559,26.559,0,0,1-7.091-.049" transform="translate(-197.99 -151.395)" fill="#f5b274"/>
          <path id="Trazado_990345" data-name="Trazado 990345" d="M331.956,337.031a15.273,15.273,0,0,1-6.475,1.819c-.184,0-.368.008-.547,0a9.136,9.136,0,0,1-4.544-1.075,1.945,1.945,0,0,1-.266-.152,5.921,5.921,0,0,1-2.176-2.284c-2.069-3.922.85-9.532,6.511-12.517a15.1,15.1,0,0,1,6.816-1.827c.184,0,.358,0,.537.009,2.943.084,5.426,1.261,6.615,3.413l.143.27c1.895,3.921-1.027,9.4-6.614,12.346" transform="translate(-172.589 -178.602)" fill="#441c16"/>
          <path id="Trazado_990346" data-name="Trazado 990346" d="M323.623,337.771a1.922,1.922,0,0,1-.266-.152,22.072,22.072,0,0,0,4.994-6.518c.362-.8.648-1.671.93-2.5a26.584,26.584,0,0,1,1.075-2.828,12.236,12.236,0,0,1,4.153-4.783c.184,0,.358,0,.537.009a11.705,11.705,0,0,0-4.419,4.911,23.792,23.792,0,0,0-1.071,2.786,24.661,24.661,0,0,1-.939,2.53,21.734,21.734,0,0,1-4.994,6.544" transform="translate(-175.821 -178.602)" fill="#f5b274"/>
          <path id="Trazado_990347" data-name="Trazado 990347" d="M334.186,342.747c-.184,0-.368.008-.547,0a26.252,26.252,0,0,0,5.7-4.791,42.622,42.622,0,0,0,2.75-3.738,22.418,22.418,0,0,1,5.039-5.9l.143.27a22.442,22.442,0,0,0-4.936,5.8,43.136,43.136,0,0,1-2.765,3.759,26.569,26.569,0,0,1-5.388,4.611" transform="translate(-181.293 -182.498)" fill="#f5b274"/>
          <path id="Trazado_990348" data-name="Trazado 990348" d="M197.164,331.635a15.278,15.278,0,0,1,2.982,6.028c.038.18.076.36.1.538a9.134,9.134,0,0,1-.218,4.664,1.96,1.96,0,0,1-.1.29,5.92,5.92,0,0,1-1.844,2.559c-3.474,2.756-9.525.921-13.5-4.092a15.1,15.1,0,0,1-3.052-6.363c-.038-.181-.068-.351-.09-.53-.461-2.908.239-5.566,2.135-7.131l.239-.19c3.5-2.585,9.427-.723,13.354,4.225" transform="translate(-100.214 -181.4)" fill="#441c16"/>
          <path id="Trazado_990349" data-name="Trazado 990349" d="M200.18,352.518a1.954,1.954,0,0,1-.1.29,22.077,22.077,0,0,0-7.326-3.707c-.856-.207-1.763-.328-2.627-.453a26.567,26.567,0,0,1-2.978-.535,12.235,12.235,0,0,1-5.467-3.2c-.038-.18-.068-.351-.09-.529a11.706,11.706,0,0,0,5.641,3.437,23.759,23.759,0,0,0,2.935.539,24.6,24.6,0,0,1,2.66.457,21.744,21.744,0,0,1,7.352,3.7" transform="translate(-100.37 -191.052)" fill="#f5b274"/>
          <path id="Trazado_990350" data-name="Trazado 990350" d="M202.731,338.986c.038.18.076.36.1.538a26.263,26.263,0,0,0-5.761-4.724,42.654,42.654,0,0,0-4.181-2.014,22.419,22.419,0,0,1-6.73-3.864l.239-.19A22.431,22.431,0,0,0,193,332.516a43.265,43.265,0,0,1,4.2,2.025,26.561,26.561,0,0,1,5.525,4.446" transform="translate(-102.8 -182.723)" fill="#f5b274"/>
          <path id="Trazado_990351" data-name="Trazado 990351" d="M249.858,330.378a15.273,15.273,0,0,1-1.637,6.523c-.088.162-.176.323-.275.473a9.132,9.132,0,0,1-3.19,3.409,1.871,1.871,0,0,1-.264.156,5.918,5.918,0,0,1-3.063.754c-4.432-.152-7.85-5.473-7.63-11.868A15.1,15.1,0,0,1,235.6,323c.088-.162.175-.312.275-.462,1.534-2.513,3.789-4.083,6.248-4.045l.305.01c4.345.3,7.647,5.56,7.43,11.873" transform="translate(-128.151 -177.273)" fill="#441c16"/>
          <path id="Trazado_990352" data-name="Trazado 990352" d="M246.817,345.386a1.916,1.916,0,0,1-.264.156,22.071,22.071,0,0,0-3.176-7.572c-.517-.712-1.129-1.393-1.706-2.048a26.48,26.48,0,0,1-1.921-2.337,12.235,12.235,0,0,1-2.089-5.981c.088-.162.175-.312.275-.462A11.711,11.711,0,0,0,240,333.416a23.768,23.768,0,0,0,1.886,2.313,24.718,24.718,0,0,1,1.729,2.073,21.739,21.739,0,0,1,3.2,7.584" transform="translate(-130.212 -181.876)" fill="#f5b274"/>
          <path id="Trazado_990353" data-name="Trazado 990353" d="M257.7,336.9c-.088.162-.176.324-.275.473a26.258,26.258,0,0,0-1.325-7.331,42.516,42.516,0,0,0-1.878-4.243,22.429,22.429,0,0,1-2.62-7.306l.305.011a22.439,22.439,0,0,0,2.578,7.162,43.22,43.22,0,0,1,1.889,4.268A26.573,26.573,0,0,1,257.7,336.9" transform="translate(-137.633 -177.273)" fill="#f5b274"/>
          <path id="Trazado_990354" data-name="Trazado 990354" d="M74.551,67.813a1.066,1.066,0,0,0-.141-.106c-5.187-4.294-12.786-3.694-19.174-5.882C48.578,59.532,43.32,54.086,40.1,47.816c-3.07-5.976-4.47-12.657-5.223-19.338-.024-.224-.047-.459-.071-.682-.012-.106-.024-.211-.036-.318a37.941,37.941,0,0,1,21.856,5.376A36.152,36.152,0,0,1,71.186,50.121c1.847,4.67,2.494,10.869,3.152,16.08.071.553.141,1.082.212,1.611" transform="translate(-22.227 -22.36)" fill="#917d44"/>
          <path id="Trazado_990355" data-name="Trazado 990355" d="M74.591,68.235a1.067,1.067,0,0,0-.141-.106A83.791,83.791,0,0,0,34.915,28.9c-.024-.224-.047-.459-.071-.682A84.347,84.347,0,0,1,74.379,66.623c.071.553.141,1.082.212,1.611" transform="translate(-22.268 -22.781)" fill="#621212"/>
          <path id="Trazado_990356" data-name="Trazado 990356" d="M369.058,373a1.036,1.036,0,0,1,.141-.106c5.187-4.294,12.786-3.694,19.174-5.882,6.658-2.294,11.916-7.74,15.139-14.009,3.07-5.976,4.47-12.657,5.223-19.338.024-.224.047-.459.071-.682q.018-.159.036-.318a37.941,37.941,0,0,0-21.856,5.376A36.152,36.152,0,0,0,372.422,355.3c-1.847,4.67-2.494,10.869-3.152,16.08-.071.553-.141,1.082-.212,1.611" transform="translate(-200.144 -184.785)" fill="#917d44"/>
          <path id="Trazado_990357" data-name="Trazado 990357" d="M369.058,373.418a1.042,1.042,0,0,1,.141-.106,83.791,83.791,0,0,1,39.535-39.23c.024-.224.047-.459.071-.682a84.347,84.347,0,0,0-39.535,38.406c-.071.553-.141,1.082-.212,1.611" transform="translate(-200.144 -185.207)" fill="#621212"/>
          <path id="Trazado_990358" data-name="Trazado 990358" d="M333.255,29.647l4.675,1.943a1.147,1.147,0,0,1,0,2.119l-4.675,1.943a6.578,6.578,0,0,0-3.549,3.549l-1.943,4.675a1.147,1.147,0,0,1-2.119,0L323.7,39.2a6.576,6.576,0,0,0-3.549-3.549l-4.675-1.943a1.147,1.147,0,0,1,0-2.119l4.675-1.943A6.577,6.577,0,0,0,323.7,26.1l1.943-4.676a1.147,1.147,0,0,1,2.119,0l1.943,4.676a6.579,6.579,0,0,0,3.549,3.549" transform="translate(-171.25 -18.789)" fill="#f5b274"/>
          <path id="Trazado_990359" data-name="Trazado 990359" d="M388.471,97.275l4.675,1.943a1.147,1.147,0,0,1,0,2.119l-4.675,1.943a6.576,6.576,0,0,0-3.549,3.549l-1.943,4.675a1.147,1.147,0,0,1-2.119,0l-1.943-4.675a6.576,6.576,0,0,0-3.549-3.549l-4.675-1.943a1.147,1.147,0,0,1,0-2.119l4.675-1.943a6.576,6.576,0,0,0,3.549-3.549l1.943-4.676a1.147,1.147,0,0,1,2.119,0l1.943,4.676a6.576,6.576,0,0,0,3.549,3.549" transform="translate(-200.638 -54.782)" fill="#f5b274"/>
          <path id="Trazado_990360" data-name="Trazado 990360" d="M37.917,243.018l4.675,1.943a1.147,1.147,0,0,1,0,2.119l-4.675,1.943a6.575,6.575,0,0,0-3.549,3.549l-1.943,4.675a1.147,1.147,0,0,1-2.119,0l-1.943-4.675a6.577,6.577,0,0,0-3.549-3.549l-4.675-1.943a1.147,1.147,0,0,1,0-2.119l4.675-1.943a6.577,6.577,0,0,0,3.549-3.549l1.943-4.676a1.147,1.147,0,0,1,2.119,0l1.943,4.676a6.574,6.574,0,0,0,3.549,3.549" transform="translate(-14.065 -132.349)" fill="#f5b274"/>
        </g>
      </g>
    </g>
  </g>
</svg>
