<svg xmlns="http://www.w3.org/2000/svg" xmlns:xlink="http://www.w3.org/1999/xlink" width="73" height="73" viewBox="0 0 73 73">
  <defs>
    <clipPath id="clip-path">
      <rect id="Rectángulo_403288" data-name="Rectángulo 403288" width="73" height="73" transform="translate(299.713 3446.969)" fill="#586c16" stroke="#6b0b0c" stroke-width="1"/>
    </clipPath>
  </defs>
  <g id="Grupo_1103760" data-name="Grupo 1103760" transform="translate(-1229.711 -3467.969)">
    <g id="Grupo_1103451" data-name="Grupo 1103451" transform="translate(929.998 21)">
      <g id="Enmascarar_grupo_1098813" data-name="Enmascarar grupo 1098813" clip-path="url(#clip-path)">
        <g id="Layer_x0020_1" transform="translate(299.192 3446.448)">
          <path id="Trazado_987007" data-name="Trazado 987007" d="M40.6,38.257a1.211,1.211,0,0,1-.781-.26l-1.084-.824L37.649,38a1.237,1.237,0,0,1-1.518,0l-1.084-.824L33.963,38a1.175,1.175,0,0,1-1.475,0l-1.865-1.388a1.246,1.246,0,0,1-.26-1.735,1.259,1.259,0,0,1,1.778-.26l1.084.781,1.084-.781a1.237,1.237,0,0,1,1.518,0l1.084.781L38,34.613a1.237,1.237,0,0,1,1.518,0l1.084.781,1.084-.781a1.241,1.241,0,0,1,1.475,2L41.336,38A1.178,1.178,0,0,1,40.6,38.257Zm-.607,5.682H33.832a11.108,11.108,0,0,1-3.427-.521l-1.084,4.251,7.591,7.721L44.5,47.669l-1.084-4.251A11.311,11.311,0,0,1,39.992,43.939ZM28.064,42.377a13.951,13.951,0,0,1-6.593-12.058c0-9.152,3.08-10.193,7.417-10.67a9.692,9.692,0,0,0,5.031-1.6c3.34-2.516,6.376-4.6,10.106-4.424,3.21.087,8.285,1.692,8.285,5.552V30.319a13.857,13.857,0,0,1-6.593,12.058l1.128,4.381H52.18a11.088,11.088,0,0,1,4.337.911V22.685a19.627,19.627,0,1,0-39.254,0V47.669a11.255,11.255,0,0,1,4.337-.911h5.335ZM43.679,16.092c-2.776,0-5.292,1.735-8.241,3.947a12.122,12.122,0,0,1-6.289,2.082c-3.21.39-5.162.607-5.162,8.2a11.173,11.173,0,0,0,5.986,10.193.948.948,0,0,0,.217.13,8.589,8.589,0,0,0,3.643.781h6.159a8.589,8.589,0,0,0,3.643-.781.948.948,0,0,1,.217-.13,11.139,11.139,0,0,0,5.942-10.193V19.172c0-1.865-3.817-2.993-5.856-3.08Zm10.5,57.428H10.67l-.043-.043h-.174A1.3,1.3,0,0,1,9.5,72.263V60.118a13.7,13.7,0,0,1,5.248-10.974V22.685a22.143,22.143,0,1,1,44.286,0V49.144a13.7,13.7,0,0,1,5.248,10.974V72.263a.55.55,0,0,1-.043.26v.13l-.043.043v.087h-.043v.043l-.043.043v.043l-.043.043L64.021,73v.043l-.043.043-.043.043-.043.043-.043.043H63.8v.043h-.043l-.043.043h-.043v.043h-.087v.043H63.5v.043h-.087l-.043.043h-.217l-.043.043H54.175ZM20.907,71H52.917V62.5a1.258,1.258,0,0,1,2.516,0v1.692h6.333V60.118a11.218,11.218,0,0,0-4.554-9.239.948.948,0,0,1-.217-.13,8.628,8.628,0,0,0-4.815-1.475H46.411L37.78,58.079a1.092,1.092,0,0,1-.867.39,1.248,1.248,0,0,1-.911-.39L27.37,49.274H21.6a8.49,8.49,0,0,0-4.771,1.475l-.26.13a11.339,11.339,0,0,0-4.554,9.239v4.077h6.376V62.5a1.258,1.258,0,1,1,2.516,0V71Zm34.526,0h6.333V66.711H55.433ZM12.015,71h6.376V66.711H12.015ZM30.146,60.942H24.594a1.258,1.258,0,0,1,0-2.516h5.552a1.258,1.258,0,0,1,0,2.516Zm.607-29.495a3.6,3.6,0,1,1,3.6-3.6A3.591,3.591,0,0,1,30.753,31.447Zm0-4.684a1.1,1.1,0,0,0-1.084,1.084,1.084,1.084,0,0,0,2.169,0A1.1,1.1,0,0,0,30.753,26.762Zm12.318,4.684a3.6,3.6,0,1,1,3.6-3.6A3.591,3.591,0,0,1,43.071,31.447Zm0-4.684a1.1,1.1,0,0,0-1.084,1.084,1.084,1.084,0,0,0,2.169,0A1.1,1.1,0,0,0,43.071,26.762Z" fill="#586c16" fill-rule="evenodd"/>
        </g>
      </g>
      <path id="Trazado_952692" data-name="Trazado 952692" d="M30.531,147.506s-.2,5.01-4.211,5.487c0,0,4.3,1.284,4.776,5.5,0,0,1.075-5.111,3.966-5.53,0,0-3.351-.67-4.53-5.459" transform="translate(277.682 3301.474)" fill="#586c16"/>
    </g>
  </g>
</svg>
