<svg xmlns="http://www.w3.org/2000/svg" xmlns:xlink="http://www.w3.org/1999/xlink" width="84.789" height="102.941" viewBox="0 0 84.789 102.941">
  <defs>
    <clipPath id="clip-path">
      <rect id="Rect치ngulo_403895" data-name="Rect치ngulo 403895" width="71.251" height="71.251" transform="translate(1.295 19.432)" fill="#fff" stroke="#707070" stroke-width="1"/>
    </clipPath>
    <clipPath id="clip-path-2">
      <path id="path6708" d="M0-71.251H71.251V0H0Z"/>
    </clipPath>
  </defs>
  <g id="Grupo_1103748" data-name="Grupo 1103748" transform="translate(-180.211 -963.704)">
    <g id="Grupo_1103417" data-name="Grupo 1103417" transform="translate(-220.337 -5488.51)">
      <g id="Grupo_1101953" data-name="Grupo 1101953" transform="translate(404.002 6452.214)">
        <path id="Rect치ngulo_403287" data-name="Rect치ngulo 403287" d="M35.625,0h0A35.625,35.625,0,0,1,71.251,35.625V95.865a0,0,0,0,1,0,0H0a0,0,0,0,1,0,0V35.625A35.625,35.625,0,0,1,35.625,0Z" transform="translate(0 0)" fill="#ffd839"/>
        <g id="Enmascarar_grupo_1098808" data-name="Enmascarar grupo 1098808" clip-path="url(#clip-path)">
          <g id="g6702" transform="translate(1.295 90.684)">
            <g id="g6704">
              <g id="g6706" clip-path="url(#clip-path-2)">
                <g id="g6712" transform="translate(63.537 -55.71)">
                  <path id="path6714" d="M0,0A2.617,2.617,0,0,1-.566-1.778,7.663,7.663,0,0,0-1.972-6.639,20.006,20.006,0,0,0-12.16-14.13a7.811,7.811,0,0,0-5.139.141,2.6,2.6,0,0,1-1.844,0,7.813,7.813,0,0,0-5.14-.141A20.007,20.007,0,0,0-34.471-6.639a7.661,7.661,0,0,0-1.406,4.861A2.62,2.62,0,0,1-36.444,0a7.628,7.628,0,0,0-1.649,4.749V4.8A19.665,19.665,0,0,0-35,15.44l.721.758,5.706-1.691,8.976,9.721,1.814.434a19.818,19.818,0,0,0,5.432-.875A7.837,7.837,0,0,0-8.2,20.714,2.6,2.6,0,0,1-6.7,19.658a7.819,7.819,0,0,0,4.286-2.828A19.683,19.683,0,0,0,1.649,4.8V4.736A7.609,7.609,0,0,0,0,0" fill="#f4c0a6"/>
                </g>
                <g id="g6716" transform="translate(48.94 -33.474)">
                  <path id="path6718" d="M0,0A7.839,7.839,0,0,1-4.151-3.073,2.6,2.6,0,0,0-5.66-4.129,7.819,7.819,0,0,1-9.946-6.957,19.683,19.683,0,0,1-14-18.988v-.063a7.609,7.609,0,0,1,1.649-4.736,2.618,2.618,0,0,0,.566-1.778,7.661,7.661,0,0,1,1.406-4.861,20.031,20.031,0,0,1,6.19-5.7,2.619,2.619,0,0,1-.355-.1,7.814,7.814,0,0,0-5.139-.14,20.007,20.007,0,0,0-10.188,7.491,7.661,7.661,0,0,0-1.406,4.861,2.619,2.619,0,0,1-.566,1.778A7.627,7.627,0,0,0-23.5-17.486v.05A19.665,19.665,0,0,0-20.407-6.8l.721.758,5.706-1.69L-5,1.992l1.814.434a19.823,19.823,0,0,0,5.432-.875,7.762,7.762,0,0,0,1.7-.764A19.7,19.7,0,0,1,0,0" fill="#e9ae8d"/>
                </g>
                <g id="g6720" transform="translate(49.751 -51.594)">
                  <path id="path6722" d="M0,0A.7.7,0,0,0,.333-.822.7.7,0,0,0-.411-1.3,3.042,3.042,0,0,1-3.753-3.749a.7.7,0,0,0-.683-.564.7.7,0,0,0-.683.564A3.043,3.043,0,0,1-8.461-1.3a.7.7,0,0,0-.744.482A.7.7,0,0,0-8.873,0,3.074,3.074,0,0,1-7.586,4.021a.7.7,0,0,0,.208.863.7.7,0,0,0,.887-.044,3.066,3.066,0,0,1,4.11,0,.7.7,0,0,0,.887.044.7.7,0,0,0,.208-.863A3.074,3.074,0,0,1,0,0" fill="#9c5e5e"/>
                </g>
                <g id="g6724" transform="translate(51.967 -41.533)">
                  <path id="path6726" d="M0,0-3.576-5.108a3.751,3.751,0,0,0-6.151,0L-13.3,0a3.829,3.829,0,0,0-.332.577l-.024.052.047.034a19.779,19.779,0,0,1,5.3,5.67l.018.029.034,0a16.012,16.012,0,0,0,1.614.084,15.794,15.794,0,0,0,4.672-.7A3.757,3.757,0,0,0,0,0" fill="#bb8080"/>
                </g>
                <g id="g6728" transform="translate(43.627 -39.306)">
                  <path id="path6730" d="M0,0,3.576-5.108A3.725,3.725,0,0,1,5.359-6.483l-.6-.851a3.751,3.751,0,0,0-6.151,0L-4.964-2.227A3.842,3.842,0,0,0-5.3-1.65l-.024.052.047.034A19.685,19.685,0,0,1-.49,3.324,3.723,3.723,0,0,1,0,0" fill="#af6c6c"/>
                </g>
                <g id="g6732" transform="translate(61.142 -50.961)">
                  <path id="path6734" d="M0,0A3.705,3.705,0,0,0-4.836-3.489l-6.22,1.961A3.752,3.752,0,0,0-13,4.206l3.71,5.3a3.755,3.755,0,0,0,6.062.124A15.671,15.671,0,0,0,0,.05Z" fill="#bb8080"/>
                </g>
                <g id="g6736" transform="translate(56.486 -43.675)">
                  <path id="path6738" d="M0,0-3.709-5.3a3.749,3.749,0,0,1,.05-4.38l-2.74.864A3.752,3.752,0,0,0-8.346-3.079l3.71,5.3a3.754,3.754,0,0,0,6.062.125c.22-.289.427-.584.625-.884A3.722,3.722,0,0,1,0,0" fill="#af6c6c"/>
                </g>
                <g id="g6740" transform="translate(58.259 -60.019)">
                  <path id="path6742" d="M0,0A15.94,15.94,0,0,0-8.115-5.969a3.753,3.753,0,0,0-4.9,3.578V4.083A3.756,3.756,0,0,0-9.271,7.841,3.787,3.787,0,0,0-8.13,7.663l6.171-1.946A3.746,3.746,0,0,0,0,0" fill="#bb8080"/>
                </g>
                <g id="g6744" transform="translate(50.116 -55.936)">
                  <path id="path6746" d="M0,0V-6.474A3.734,3.734,0,0,1,1.512-9.487a15.534,15.534,0,0,0-1.485-.564,3.753,3.753,0,0,0-4.9,3.578V0A3.756,3.756,0,0,0-1.128,3.758,3.791,3.791,0,0,0,.012,3.58l1.593-.5A3.725,3.725,0,0,1,0,0" fill="#af6c6c"/>
                </g>
                <g id="g6748" transform="translate(40.486 -65.988)">
                  <path id="path6750" d="M0,0A15.939,15.939,0,0,0-8.115,5.969a3.746,3.746,0,0,0,1.959,5.718L.015,13.632a3.786,3.786,0,0,0,1.141.177A3.756,3.756,0,0,0,4.9,10.052V3.578A3.753,3.753,0,0,0,0,0" fill="#bb8080"/>
                </g>
                <g id="g6752" transform="translate(37.004 -57.445)">
                  <path id="path6754" d="M0,0A15.94,15.94,0,0,1,8.115-5.969c.04-.013.08-.023.12-.035a3.754,3.754,0,0,0-4.753-2.54A15.94,15.94,0,0,0-4.633-2.574,3.746,3.746,0,0,0-2.673,3.143l2.45.772A3.708,3.708,0,0,1,0,0" fill="#af6c6c"/>
                </g>
                <g id="g6756" transform="translate(40.543 -52.488)">
                  <path id="path6758" d="M0,0-6.219-1.961a3.706,3.706,0,0,0-4.836,3.489v.05a15.729,15.729,0,0,0,2.729,8.878l.03.044.051-.018c1.991-.706,3.462-.711,4.256-.013l.012.008c.581.329,1.151.691,1.7,1.075l.048.034.041-.041a3.824,3.824,0,0,0,.43-.512l3.709-5.3A3.752,3.752,0,0,0,0,0" fill="#bb8080"/>
                </g>
                <g id="g6760" transform="translate(34.42 -49.717)">
                  <path id="path6762" d="M0,0V-.05A3.69,3.69,0,0,1,3.233-3.682L-.1-4.732A3.706,3.706,0,0,0-4.932-1.243v.05A15.729,15.729,0,0,0-2.2,7.684l.03.044.051-.018c1.821-.646,3.205-.7,4.036-.175A15.726,15.726,0,0,1,0,0" fill="#af6c6c"/>
                </g>
                <g id="g6764" transform="translate(41.443 -3.939)">
                  <path id="path6766" d="M0,0,.277-.324l-29.02-14.37-5.978,6.286-.122.273C-27.782,4.325-10.784,4.349.071,1.02h0Z" fill="#e9ae8d"/>
                </g>
                <g id="g6768" transform="translate(45.205 -7.159)">
                  <path id="path6770" d="M0,0H.549c3.328-10.854,3.3-27.853-9.154-34.914l-2,.409-6.245,6.567Z" fill="#f4c0a6"/>
                </g>
                <g id="g6772" transform="translate(42.335 -16.822)">
                  <path id="path6774" d="M0,0A38.092,38.092,0,0,0-4.231-8.508,39.146,39.146,0,0,0-9.059-14.4l-1.671.466L-24.879.2V1.425a39.161,39.161,0,0,0,5.888,4.828,38.093,38.093,0,0,0,8.508,4.231L-.821,13.9a6.4,6.4,0,0,0,4.24-4.24Z" fill="#e9ae8d"/>
                </g>
                <g id="g6776" transform="translate(41.514 -2.919)">
                  <path id="path6778" d="M0,0A6.4,6.4,0,0,0,4.172-4.038C-7.151-7.243-16.07-19.171-16.07-19.171a24.385,24.385,0,0,1-4,1.481l-3.99,3.983v1.229A39.159,39.159,0,0,0-18.17-7.65,38.089,38.089,0,0,0-9.663-3.419Z" fill="#e29a74"/>
                </g>
                <g id="g6780" transform="translate(36.685 -41.994)">
                  <path id="path6782" d="M0,0C2.394,2.394-2.383,11.052-10.669,19.338S-27.613,32.4-30.006,30.006s2.383-11.052,10.669-19.338S-2.394-2.394,0,0" fill="#855151"/>
                </g>
                <g id="g6784" transform="translate(25.444 -22.09)">
                  <path id="path6786" d="M0,0C-11.744,5.414-12.186-2.186-11.976-5.037-17.791,1.8-20.754,8.113-18.765,10.1-16.426,12.441-8.109,7.935,0,0" fill="#704444"/>
                </g>
                <g id="g6788" transform="translate(31.596 -39.186)">
                  <path id="path6790" d="M0,0C1.764,1.764-1.756,8.143-7.861,14.249S-20.346,23.874-22.11,22.11s1.756-8.143,7.861-14.249S-1.764-1.764,0,0" fill="#bb8080"/>
                </g>
                <g id="g6792" transform="translate(13.457 -26.975)">
                  <path id="path6794" d="M0,0C-3.592,4.536-5.314,8.555-3.971,9.9-2.739,11.13.747,9.782,4.818,6.776.166,6.6-.132,2.158,0,0" fill="#af6c6c"/>
                </g>
                <g id="g6796" transform="translate(18.667 -20.49)">
                  <path id="path6798" d="M0,0A49.733,49.733,0,0,0,5.068-4.447,49.748,49.748,0,0,0,9.515-9.515L-.918-11.23c-.134.131-.267.262-.4.4s-.264.267-.4.4Z" fill="#af6c6c"/>
                </g>
                <g id="g6800" transform="translate(51.911 -41.493)">
                  <path id="path6802" d="M0,0-3.576-5.108a3.685,3.685,0,0,0-6.037,0L-13.189,0a3.732,3.732,0,0,0-.327.566A19.8,19.8,0,0,1-8.2,6.256a15.875,15.875,0,0,0,1.607.084,15.717,15.717,0,0,0,4.651-.7A3.689,3.689,0,0,0,0,0Z" fill="none" stroke="#000" stroke-linecap="round" stroke-linejoin="round" stroke-miterlimit="10" stroke-width="2.087"/>
                </g>
                <g id="g6804" transform="translate(51.909 -41.497)">
                  <path id="path6806" d="M0,0A3.686,3.686,0,0,0,5.949.122,15.676,15.676,0,0,0,9.166-9.414v-.05A3.638,3.638,0,0,0,4.42-12.887L-1.8-10.926A3.685,3.685,0,0,0-3.709-5.3Z" fill="none" stroke="#000" stroke-linecap="round" stroke-linejoin="round" stroke-miterlimit="10" stroke-width="2.087"/>
                </g>
                <g id="g6808" transform="translate(34.353 -54.368)">
                  <path id="path6810" d="M0,0,6.171,1.946a3.685,3.685,0,0,0,4.793-3.514V-8.042a3.686,3.686,0,0,0-4.808-3.512,15.791,15.791,0,0,0-8.08,5.943A3.679,3.679,0,0,0,0,0Z" fill="none" stroke="#000" stroke-linecap="round" stroke-linejoin="round" stroke-miterlimit="10" stroke-width="2.087"/>
                </g>
                <g id="g6812" transform="translate(36.687 -41.994)">
                  <path id="path6814" d="M0,0C2.394,2.394-2.383,11.052-10.669,19.338S-27.613,32.4-30.007,30.006s2.383-11.052,10.669-19.338S-2.394-2.394,0,0Z" fill="none" stroke="#000" stroke-linecap="round" stroke-linejoin="round" stroke-miterlimit="10" stroke-width="2.087"/>
                </g>
                <g id="g6816" transform="translate(31.598 -39.186)">
                  <path id="path6818" d="M0,0C1.764,1.764-1.756,8.143-7.861,14.249S-20.346,23.874-22.11,22.11s1.756-8.143,7.861-14.249S-1.764-1.764,0,0Z" fill="none" stroke="#000" stroke-linecap="round" stroke-linejoin="round" stroke-miterlimit="10" stroke-width="2.087"/>
                </g>
                <g id="g6820" transform="translate(42.336 -16.822)">
                  <path id="path6822" d="M0,0A38.08,38.08,0,0,0-4.231-8.508,39.145,39.145,0,0,0-9.059-14.4h0a64.355,64.355,0,0,1-7.259,8.562,64.356,64.356,0,0,1-8.562,7.259,39.162,39.162,0,0,0,5.888,4.828,38.09,38.09,0,0,0,8.508,4.231L-.821,13.9a6.4,6.4,0,0,0,4.24-4.24Z" fill="none" stroke="#000" stroke-linecap="round" stroke-linejoin="round" stroke-miterlimit="10" stroke-width="2.087"/>
                </g>
                <g id="g6824" transform="translate(18.669 -20.49)">
                  <path id="path6826" d="M0,0A49.719,49.719,0,0,0,5.068-4.447,49.745,49.745,0,0,0,9.515-9.515L-.918-11.23c-.134.131-.267.262-.4.4s-.264.267-.4.4Z" fill="none" stroke="#000" stroke-linecap="round" stroke-linejoin="round" stroke-miterlimit="10" stroke-width="2.087"/>
                </g>
                <g id="g6828" transform="translate(36.601 -42.073)">
                  <path id="path6830" d="M0,0Q.893.506,1.7,1.079a3.749,3.749,0,0,0,.422-.5l3.709-5.3a3.685,3.685,0,0,0-1.91-5.628L-2.3-12.31A3.639,3.639,0,0,0-7.042-8.888v.049A15.665,15.665,0,0,0-4.325,0C-2.364-.7-.842-.74,0,0Z" fill="none" stroke="#000" stroke-linecap="round" stroke-linejoin="round" stroke-miterlimit="10" stroke-width="2.087"/>
                </g>
                <g id="g6832" transform="translate(63.538 -55.71)">
                  <path id="path6834" d="M0,0A2.618,2.618,0,0,1-.566-1.778,7.662,7.662,0,0,0-1.972-6.639,20.006,20.006,0,0,0-12.16-14.13a7.811,7.811,0,0,0-5.139.141,2.6,2.6,0,0,1-1.844,0,7.813,7.813,0,0,0-5.14-.141A20.007,20.007,0,0,0-34.471-6.639a7.662,7.662,0,0,0-1.406,4.861A2.62,2.62,0,0,1-36.444,0a7.627,7.627,0,0,0-1.649,4.749V4.8A19.666,19.666,0,0,0-35,15.44c3.743-2.192,6.745-2.965,8.067-1.8a20.488,20.488,0,0,1,9.151,11.025,19.817,19.817,0,0,0,5.432-.875A7.838,7.838,0,0,0-8.2,20.714a2.6,2.6,0,0,1,1.509-1.056,7.819,7.819,0,0,0,4.286-2.828A19.683,19.683,0,0,0,1.649,4.8V4.736A7.609,7.609,0,0,0,0,0Z" fill="none" stroke="#000" stroke-linecap="round" stroke-linejoin="round" stroke-miterlimit="10" stroke-width="2.087"/>
                </g>
                <g id="g6836" transform="translate(52.563 -64.906)">
                  <path id="path6838" d="M0,0A15.669,15.669,0,0,0-2.438-1.016,3.686,3.686,0,0,0-7.246,2.5V8.969a3.684,3.684,0,0,0,4.793,3.514l6.171-1.946A3.679,3.679,0,0,0,5.641,4.927,15.84,15.84,0,0,0,3.938,2.9" fill="none" stroke="#000" stroke-linecap="round" stroke-linejoin="round" stroke-miterlimit="10" stroke-width="2.087"/>
                </g>
                <g id="g6840" transform="translate(47.5 -22.926)">
                  <path id="path6842" d="M0,0C-.638-7.633-3.682-15.057-10.9-19.147c.029.026.058.051.086.079C-8.419-16.674-13.2-8.017-21.481.27S-38.425,13.332-40.819,10.938c-.028-.028-.053-.057-.079-.086,7.061,12.46,24.06,12.483,34.914,9.155a6.4,6.4,0,0,0,4.24-4.24A43.818,43.818,0,0,0,.1,4.871" fill="none" stroke="#000" stroke-linecap="round" stroke-linejoin="round" stroke-miterlimit="10" stroke-width="2.087"/>
                </g>
              </g>
            </g>
          </g>
        </g>
      </g>
      <path id="Trazado_952692" data-name="Trazado 952692" d="M32.562,147.506s-.3,7.427-6.242,8.133c0,0,6.375,1.9,7.079,8.155,0,0,1.594-7.576,5.878-8.2,0,0-4.968-.993-6.715-8.091" transform="translate(374.228 6313.012)" fill="#6b0b0c"/>
      <path id="Trazado_952694" data-name="Trazado 952694" d="M73.431,81.707s-.459,11.32-9.513,12.4c0,0,9.717,2.9,10.789,12.429,0,0,2.429-11.546,8.959-12.492,0,0-7.571-1.514-10.235-12.332" transform="translate(401.67 6448.624)" fill="#6b0b0c"/>
    </g>
  </g>
</svg>
