<svg xmlns="http://www.w3.org/2000/svg" xmlns:xlink="http://www.w3.org/1999/xlink" width="84.789" height="102.941" viewBox="0 0 84.789 102.941">
  <defs>
    <clipPath id="clip-path">
      <rect id="Rect치ngulo_403895" data-name="Rect치ngulo 403895" width="71.251" height="71.251" fill="#fff" stroke="#707070" stroke-width="1"/>
    </clipPath>
  </defs>
  <g id="Grupo_1103754" data-name="Grupo 1103754" transform="translate(-180.211 -963.704)">
    <g id="Grupo_1103417" data-name="Grupo 1103417" transform="translate(-220.337 -5488.51)">
      <g id="Grupo_1101953" data-name="Grupo 1101953" transform="translate(404.002 6452.214)">
        <path id="Rect치ngulo_403287" data-name="Rect치ngulo 403287" d="M35.625,0h0A35.625,35.625,0,0,1,71.251,35.625V95.865a0,0,0,0,1,0,0H0a0,0,0,0,1,0,0V35.625A35.625,35.625,0,0,1,35.625,0Z" transform="translate(0 0)" fill="#ffd839"/>
        <g id="Enmascarar_grupo_1098795" data-name="Enmascarar grupo 1098795" transform="translate(1.295 19.433)" clip-path="url(#clip-path)">
          <g id="cacao" transform="translate(3.772 0)">
            <g id="Grupo_1103418" data-name="Grupo 1103418" transform="translate(1.088 5.111)">
              <path id="Trazado_986940" data-name="Trazado 986940" d="M48.009,6.96C42.15,3.362,35.463,3.04,31.129,5.7a2.008,2.008,0,0,0-.948,1.544c-.292,3.581,1.278,7.534,4.288,10.815l.327.91,5.5,4.235,1.295-.086C46.7,25.389,52.411,25.68,56.2,23.7a2.556,2.556,0,0,0,1.375-2.24c.064-5.029-3.882-11.01-9.563-14.5Z" transform="translate(4.047 -3.946)" fill="#95d6a4"/>
              <path id="Trazado_986941" data-name="Trazado 986941" d="M43.509,17.96c-5.44-3.223-9.353-8.712-9.755-13.56a11.261,11.261,0,0,0-2.624,1.167,2.008,2.008,0,0,0-.948,1.544c-.292,3.581,1.278,7.534,4.288,10.815l.327.91,5.5,4.235,1.295-.086c5.115,2.271,10.823,2.561,14.609.579a2.556,2.556,0,0,0,1.375-2.24,10.028,10.028,0,0,0-.048-1.081c-4.093,1.212-9.3.51-14.015-2.283Z" transform="translate(4.047 -3.811)" fill="#78c2a4"/>
              <path id="Trazado_986942" data-name="Trazado 986942" d="M46.687,64.7l.57.247a4.919,4.919,0,0,0,.646-.561c6.414-6.65,12.654-19.312,4.754-28.705C47.716,29.8,43.222,21.759,39.148,17.006c-2.716-3.169-5.912-2.229-7.741-1.251l-.152.826-.539.145Z" transform="translate(4.215 -0.732)" fill="#f4c0a6"/>
              <path id="Trazado_986943" data-name="Trazado 986943" d="M28.776,16.417a8.241,8.241,0,0,0-1.34.363l-.216.479,2.214,2.888V47.5L27.22,53.274l.216,2.946c4.246,5.146,11.355,8.127,17.106,9.128a4.926,4.926,0,0,0,.852.072l.634-.445L46.2,64.9Z" transform="translate(3.183 -0.261)" fill="#e9ae8d"/>
              <path id="Trazado_986944" data-name="Trazado 986944" d="M45.172,38.327c-3.491-6.608-7.139-15.258-10-20.618a10.893,10.893,0,0,0-1.157-1.789,1.413,1.413,0,0,0-1.751-.343l-.009,0a9.839,9.839,0,0,1-3.271,1.068h-.01a1.418,1.418,0,0,0-1.039.718l-.084.482,2.078,2.8V33.907L30.86,36.1c.421,2.244.809,4.458,1.113,6.535,1.648,11.277,8.436,19.607,13.236,23.079a4.932,4.932,0,0,0,2.895-.945C49.93,59.135,50.5,48.4,45.172,38.327Z" transform="translate(3.368 -0.558)" fill="#e9ae8d"/>
              <path id="Trazado_986945" data-name="Trazado 986945" d="M30.86,35.972c.421,2.244.809,4.458,1.113,6.535,1.648,11.277,8.436,19.607,13.236,23.079a4.929,4.929,0,0,0,2.731-.835c-10.8-11.687-15.429-40.888-16.52-48.9a9.838,9.838,0,0,1-2.439.673h-.01a1.418,1.418,0,0,0-1.039.718l-.084.482,2.078,2.8V33.778Z" transform="translate(3.368 -0.429)" fill="#e29a74"/>
              <path id="Trazado_986946" data-name="Trazado 986946" d="M35.35,21.935c-.309-3.978-3.187-5.183-5.235-5.534l-.009.02-1.132.316-.9-.18L13.235,64.818l.014,0,.362.6a4.913,4.913,0,0,0,.852-.072c9.1-1.584,21.611-8.125,20.776-20.37-.522-7.658.6-16.805.111-23.046Z" transform="translate(-0.95 -0.265)" fill="#f4c0a6"/>
              <path id="Trazado_986947" data-name="Trazado 986947" d="M14.7,64.916,29.527,16.58l-.309-.838a7.848,7.848,0,0,0-2.549-.871l-1.631.236-5.6,4.059-.406.963c-3.408,4.69-7.092,10.814-11.064,15.537-7.9,9.393-1.66,22.056,4.754,28.705a4.916,4.916,0,0,0,.646.561l.515-.259Z" transform="translate(-3.6 -0.718)" fill="#e9ae8d"/>
              <path id="Trazado_986948" data-name="Trazado 986948" d="M27.716,42.636c1.081-7.395,3.24-16.531,4.091-22.547a10.9,10.9,0,0,0,.121-2.127,1.413,1.413,0,0,0-1.212-1.31h-.01a9.838,9.838,0,0,1-3.271-1.068l-.009,0a1.414,1.414,0,0,0-1.751.343,10.9,10.9,0,0,0-1.157,1.789c-2.862,5.36-6.511,14.01-10,20.618C9.194,48.4,9.759,59.135,11.585,64.771a4.932,4.932,0,0,0,2.895.945c4.8-3.473,11.588-11.8,13.236-23.08Z" transform="translate(-1.819 -0.558)" fill="#e9ae8d"/>
              <path id="Trazado_986949" data-name="Trazado 986949" d="M19.251,39.86c3.2-6.987,6.731-16.04,9.353-21.711a16.9,16.9,0,0,1,.915-1.744,9.844,9.844,0,0,1-2.084-.824l-.009,0a1.414,1.414,0,0,0-1.751.343,10.9,10.9,0,0,0-1.157,1.789c-2.862,5.36-6.511,14.01-10,20.618C9.194,48.4,9.759,59.135,11.585,64.771a4.929,4.929,0,0,0,2.739.939c-.547-5.707.32-15.8,4.928-25.849Z" transform="translate(-1.819 -0.558)" fill="#e29a74"/>
              <path id="Trazado_986950" data-name="Trazado 986950" d="M31.143,7.245A2.009,2.009,0,0,0,30.195,5.7C25.861,3.04,19.175,3.362,13.316,6.96c-5.682,3.489-9.628,9.47-9.563,14.5A2.556,2.556,0,0,0,5.127,23.7c4.456,2.333,11.575,1.519,17.257-1.97C28.243,18.131,31.556,12.313,31.143,7.245Z" transform="translate(-3.752 -3.946)" fill="#95d6a4"/>
              <path id="Trazado_986951" data-name="Trazado 986951" d="M9.04,24.272c-.064-5.029,3.882-11.01,9.563-14.5A18.722,18.722,0,0,1,31.092,6.944a2.009,2.009,0,0,0-.9-1.243C25.861,3.04,19.175,3.362,13.316,6.96c-5.682,3.489-9.628,9.47-9.563,14.5A2.556,2.556,0,0,0,5.128,23.7a11.844,11.844,0,0,0,4,1.194A2.562,2.562,0,0,1,9.04,24.272Z" transform="translate(-3.752 -3.946)" fill="#78c2a4"/>
            </g>
            <g id="Grupo_1103419" data-name="Grupo 1103419" transform="translate(0 0)">
              <path id="Trazado_986952" data-name="Trazado 986952" d="M64.684,25.725a3.6,3.6,0,0,0,1.935-3.151C66.679,17.883,63.54,12.4,58.623,8.6a1.044,1.044,0,1,0-1.276,1.652c4.416,3.411,7.236,8.237,7.184,12.3a1.52,1.52,0,0,1-.816,1.328c-3.378,1.768-8.631,1.568-13.45-.5l-.012-.016c-2.09-2.829-3.82-5.263-7.333-5.263a13.862,13.862,0,0,1-3.726-8.968l6.1,3.743.6,4.77a1.044,1.044,0,1,0,2.071-.261l-.391-3.109L50.7,16.191l.6,4.77a1.044,1.044,0,1,0,2.071-.261l-.391-3.109,6.146,3.774a1.044,1.044,0,1,0,1.092-1.779L57.69,18.036l1.6-.573a1.044,1.044,0,0,0-.7-1.965L55.41,16.636l-3.126-1.919,2.561-.918a1.044,1.044,0,0,0-.7-1.965L50,13.317,46.878,11.4l2.561-.918a1.044,1.044,0,1,0-.7-1.965L44.6,10,40.287,7.35c3.532-1.83,8.466-1.667,13.079.473a1.044,1.044,0,0,0,.879-1.893c-5.51-2.558-11.511-2.564-15.659-.017a3.038,3.038,0,0,0-.3.209,16.934,16.934,0,0,0-2.638-1.561,19.557,19.557,0,0,0-.568-3.8,1.044,1.044,0,0,0-2.008.569A18.253,18.253,0,0,1,33.556,4.7l-2.313,1.42c-1.449-1.152-4.829-2.345-8.782-2.079-10.609.712-19.651,10.5-19.549,18.53a3.6,3.6,0,0,0,1.935,3.151c3.493,1.828,8.031,1.721,11.861.725-2.91,4.238-5.951,9.027-9.185,12.872-7.609,9.047-3.138,21.87,4.8,30.1a5.979,5.979,0,0,0,5.323,1.738c6.071-1.057,12.68-4.012,16.928-8.576,4.6,4.933,11.655,7.659,16.926,8.576a5.983,5.983,0,0,0,5.323-1.738c7.882-8.173,12.458-21,4.8-30.1-.576-.685-1.159-1.415-1.783-2.232a1.044,1.044,0,0,0-1.659,1.267c.644.843,1.247,1.6,1.845,2.309,6.212,7.387,3.249,17.52-2.7,25.012a38.218,38.218,0,0,0-3.912-23.349c-1.785-3.38-3.606-7.283-5.366-11.058-1.328-2.848-4.3-9.3-5.56-11.067.023,0,.045,0,.068,0,2.917-.249,4.389,2.234,6.194,4.643,1.263,1.725,2.572,3.667,3.927,5.679.849,1.26,1.727,2.562,2.616,3.844a1.044,1.044,0,1,0,1.715-1.19c-.881-1.27-1.755-2.566-2.6-3.82-.7-1.032-1.379-2.046-2.051-3.024a21.257,21.257,0,0,0,5.787.843,14.116,14.116,0,0,0,6.534-1.451ZM35.7,6.982l1.5.919a3.017,3.017,0,0,0-.051.361,15.136,15.136,0,0,0,3.418,10.247q-.372.125-.747.289c-2.8-3.206-4.057-8.164-4.292-9.185C35.627,8.677,35.681,7.8,35.7,6.982Zm-.993,7.038a21.749,21.749,0,0,0,3.138,5.673c-1.441.506-1.834.315-3.266.77a9.62,9.62,0,0,0-1.567-.355l-.01,0-.012,0c-.163-.023-.325-.052-.485-.084a33.317,33.317,0,0,0,2.2-6ZM32.335,7.9l1.259-.773A30.1,30.1,0,0,1,30.5,19.368c-.07-.033-.358-.175-.436-.216l-.01-.006-.007,0a9.875,9.875,0,0,0-1.16-.526,18.96,18.96,0,0,0,1.329-1.943c2.107-3.544,2.457-7.125,2.119-8.772ZM5.815,23.875A1.519,1.519,0,0,1,5,22.547a13.346,13.346,0,0,1,2.455-7.239c5.41-8.2,15.672-11.122,21.79-7.958L24.932,10,20.8,8.514a1.044,1.044,0,1,0-.7,1.965l2.561.918-3.126,1.919L15.39,11.834a1.044,1.044,0,1,0-.7,1.965l2.56.918L14.12,16.636,10.944,15.5a1.044,1.044,0,1,0-.7,1.965l1.6.573L9.316,19.586a1.044,1.044,0,1,0,1.092,1.779l6.146-3.774L16.163,20.7a1.044,1.044,0,1,0,2.071.261l.6-4.77,3.126-1.919-.391,3.109a1.044,1.044,0,1,0,2.071.261l.6-4.77L30.334,9.13c.048,6.163-5.326,11.81-11.161,14.282-4.074,1.723-9.507,2.48-13.359.463Zm6,41.8C5.842,58.149,2.928,48.03,9.12,40.666c3.969-4.719,7.564-10.682,10.939-15.359a23.11,23.11,0,0,0,5.534-3.334c-2.863,5.417-6.443,13.882-9.863,20.357a38.219,38.219,0,0,0-3.912,23.349Zm4.474,3.47a3.851,3.851,0,0,1-1.684-.55C12.537,61.775,13.139,51.7,17.576,43.3c4.161-7.876,9.155-19.94,11.041-22.231a.374.374,0,0,1,.463-.081c2.816,1.506,3.9.846,3.943,1.52.169,2.921-2.927,15.729-4.2,24.463C27.451,56.338,22.018,64.839,16.292,69.148Zm3.975-.712A38.217,38.217,0,0,0,30.886,47.277c1.219-8.338,4.2-20.821,4.234-24.3,2.078,1.222,2.21,3.151,2.288,5.576.2,6.088-.685,14.246-.2,21.287C37.862,59.473,29.461,65.9,20.267,68.436Zm15.661-7.461a16.392,16.392,0,0,0,3.365-8.935,38.25,38.25,0,0,0,9.579,16.386C44.417,67.184,39.363,64.766,35.928,60.975ZM46.161,32.153c1.771,3.8,3.6,7.725,5.412,11.151C56,51.688,56.617,61.757,54.542,68.6a3.85,3.85,0,0,1-1.684.55C47.181,64.876,41.707,56.4,40.329,46.975c-.27-1.844-.619-3.9-1.1-6.464.416-13.028.82-15.975-1.91-18.5A10.912,10.912,0,0,0,40.054,21l.013-.007h0l0,0,.007,0a.37.37,0,0,1,.451.087C41.707,22.5,44.249,28.053,46.161,32.153Z" transform="translate(-2.911 0)"/>
            </g>
          </g>
        </g>
      </g>
      <path id="Trazado_952692" data-name="Trazado 952692" d="M32.562,147.506s-.3,7.427-6.242,8.133c0,0,6.375,1.9,7.079,8.155,0,0,1.594-7.576,5.878-8.2,0,0-4.968-.993-6.715-8.091" transform="translate(374.228 6313.012)" fill="#6b0b0c"/>
      <path id="Trazado_952694" data-name="Trazado 952694" d="M73.431,81.707s-.459,11.32-9.513,12.4c0,0,9.717,2.9,10.789,12.429,0,0,2.429-11.546,8.959-12.492,0,0-7.571-1.514-10.235-12.332" transform="translate(401.67 6448.624)" fill="#6b0b0c"/>
    </g>
  </g>
</svg>
