<svg xmlns="http://www.w3.org/2000/svg" xmlns:xlink="http://www.w3.org/1999/xlink" width="83" height="83" viewBox="0 0 83 83">
  <defs>
    <clipPath id="clip-path">
      <rect id="Rectángulo_403288" data-name="Rectángulo 403288" width="83" height="83" transform="translate(645 6999)" fill="#6b0b0c" stroke="#6b0b0c" stroke-width="1"/>
    </clipPath>
  </defs>
  <g id="Grupo_1103750" data-name="Grupo 1103750" transform="translate(-1178.711 -1087)">
    <g id="Grupo_1103468" data-name="Grupo 1103468" transform="translate(533.711 -5912)">
      <g id="Enmascarar_grupo_1098818" data-name="Enmascarar grupo 1098818" clip-path="url(#clip-path)">
        <g id="huella_1_" data-name="huella (1)" transform="translate(645 6999)">
          <g id="Grupo_1103476" data-name="Grupo 1103476">
            <g id="Grupo_1103475" data-name="Grupo 1103475">
              <path id="Trazado_987313" data-name="Trazado 987313" d="M45.056,11.063a1.216,1.216,0,0,0-1.447-.93l-7.137,1.554a1.216,1.216,0,1,0,.517,2.376l7.137-1.554A1.216,1.216,0,0,0,45.056,11.063Z" fill="#6b0b0c"/>
            </g>
          </g>
          <g id="Grupo_1103478" data-name="Grupo 1103478">
            <g id="Grupo_1103477" data-name="Grupo 1103477">
              <path id="Trazado_987314" data-name="Trazado 987314" d="M46.377,14.209a1.216,1.216,0,0,0-1.447-.93L36.472,15.12a1.216,1.216,0,1,0,.517,2.376l8.459-1.841A1.216,1.216,0,0,0,46.377,14.209Z" fill="#6b0b0c"/>
            </g>
          </g>
          <g id="Grupo_1103480" data-name="Grupo 1103480">
            <g id="Grupo_1103479" data-name="Grupo 1103479">
              <path id="Trazado_987315" data-name="Trazado 987315" d="M41.238,23.052A16.345,16.345,0,0,0,25.262,36.1a1.216,1.216,0,0,0,2.383.483,13.869,13.869,0,0,1,6.979-9.405c.85,2.8,1.761,5.579,2.72,8.288a1.215,1.215,0,0,0,1.4.782L52.25,33.3a1.216,1.216,0,0,0,.939-.978A13.8,13.8,0,0,1,54.77,42.385l-.383-5.242a1.216,1.216,0,0,0-1.471-1.1L39.349,39a1.216,1.216,0,0,0-.881,1.612l3.488,9.385a1.215,1.215,0,0,0,1.4.764l7.772-1.692A13.861,13.861,0,0,1,27.55,41.6a1.216,1.216,0,1,0-2.4.391,16.3,16.3,0,1,0,16.088-18.94ZM39.282,33.639C38.434,31.2,37.626,28.7,36.868,26.2a13.778,13.778,0,0,1,4.37-.713,13.919,13.919,0,0,1,1.817.123l-2.922.636a1.216,1.216,0,1,0,.517,2.376l6.21-1.352a1.207,1.207,0,0,0,.583-.312,13.916,13.916,0,0,1,2.791,1.856c.085.788.2,1.581.337,2.371Zm4.586,14.519-2.633-7.083,10.829-2.357.55,7.536Z" fill="#6b0b0c"/>
            </g>
          </g>
          <g id="Grupo_1103482" data-name="Grupo 1103482">
            <g id="Grupo_1103481" data-name="Grupo 1103481">
              <path id="Trazado_987316" data-name="Trazado 987316" d="M49.14,20.295c.087-.4.184-.791.292-1.178a14.392,14.392,0,0,0,.136-6.909C48.179,5.823,43.04,1.5,38.115,2.573S30.313,9.712,31.7,16.1c.316,1.454.672,2.946,1.055,4.447a20.637,20.637,0,0,0-7.947,31.3L22.6,54.056l-.445-.445a1.216,1.216,0,0,0-1.719,0L19.08,54.963l-.16-.16a1.216,1.216,0,0,0-1.72,0L1.464,70.539a1.216,1.216,0,0,0,0,1.72l.16.16L.356,73.686a1.216,1.216,0,0,0,0,1.719l4.829,4.829a1.216,1.216,0,0,0,1.72,0l1.268-1.268.16.16a1.216,1.216,0,0,0,1.72,0l5.413-5.413a1.216,1.216,0,0,0-1.719-1.719l-.89.89L7.706,67.735,18.06,57.382,19.7,59.019l-4.333,4.332a1.216,1.216,0,1,0,1.719,1.719l4.332-4.332,1.793,1.793-5.6,5.6a1.216,1.216,0,1,0,1.719,1.719l6.462-6.462a1.216,1.216,0,0,0,0-1.72l-.16-.16,1.352-1.352a1.216,1.216,0,0,0,0-1.719l-.445-.445,2.214-2.214a20.472,20.472,0,0,0,12.486,4.205h0a20.632,20.632,0,0,0,7.9-39.691Zm-43.1,57.36L2.936,74.546l.408-.408,3.109,3.109ZM11.136,74.6,9.192,76.548,4.043,71.4l1.943-1.943Zm27.5-69.655c3.615-.788,7.456,2.7,8.561,7.777a11.955,11.955,0,0,1-.1,5.736c-.095.338-.182.682-.263,1.029q-.79-.222-1.6-.382a1.216,1.216,0,0,0-.769-2.291L37.186,18.4a1.216,1.216,0,0,0-.929.93q-.614.153-1.213.341c-.35-1.381-.674-2.752-.965-4.09C32.974,10.505,35.017,5.736,38.632,4.949ZM23.908,59.792,20.8,56.683l.492-.492L24.4,59.3Zm.907-3.516-.5-.5L26.4,53.691c.082.085.164.17.247.253s.168.165.252.246Zm16.422,1.278h0a18.2,18.2,0,1,1,18.2-18.2A18.08,18.08,0,0,1,41.235,57.554Z" fill="#6b0b0c"/>
            </g>
          </g>
          <g id="Grupo_1103484" data-name="Grupo 1103484">
            <g id="Grupo_1103483" data-name="Grupo 1103483">
              <path id="Trazado_987317" data-name="Trazado 987317" d="M77.49,22.8a7.408,7.408,0,0,0-3.927-.275,1.216,1.216,0,1,0,.457,2.389,5.009,5.009,0,0,1,2.654.177c3.486,1.241,4.9,6.232,3.162,11.125a140.313,140.313,0,0,1-6.384,14.962l-7.763-2.764a25.526,25.526,0,0,0,.875-11,11.954,11.954,0,0,1,.629-5.7A12.262,12.262,0,0,1,69.8,27.4a1.216,1.216,0,1,0-1.764-1.674A14.713,14.713,0,0,0,64.9,30.9a14.388,14.388,0,0,0-.745,6.871A23.282,23.282,0,0,1,63.02,48.762a1.216,1.216,0,0,0,.74,1.547L73.65,53.83a1.215,1.215,0,0,0,1.493-.6,143.5,143.5,0,0,0,6.984-16.2C84.319,30.876,82.239,24.491,77.49,22.8Z" fill="#6b0b0c"/>
            </g>
          </g>
          <g id="Grupo_1103486" data-name="Grupo 1103486">
            <g id="Grupo_1103485" data-name="Grupo 1103485">
              <path id="Trazado_987318" data-name="Trazado 987318" d="M73.853,56a1.217,1.217,0,0,0-.725-.7l-9.939-3.539a1.216,1.216,0,0,0-1.6.9l-1.516,7.456a1.216,1.216,0,0,0,.784,1.388l7.918,2.819a1.215,1.215,0,0,0,1.485-.58L73.8,57.008A1.217,1.217,0,0,0,73.853,56ZM68.6,61.679l-5.93-2.111,1.026-5.048,7.3,2.6Z" fill="#6b0b0c"/>
            </g>
          </g>
          <g id="Grupo_1103488" data-name="Grupo 1103488">
            <g id="Grupo_1103487" data-name="Grupo 1103487">
              <path id="Trazado_987319" data-name="Trazado 987319" d="M77.959,32.05,71.077,29.6a1.216,1.216,0,1,0-.816,2.291l6.881,2.45a1.216,1.216,0,1,0,.816-2.291Z" fill="#6b0b0c"/>
            </g>
          </g>
          <g id="Grupo_1103490" data-name="Grupo 1103490">
            <g id="Grupo_1103489" data-name="Grupo 1103489">
              <path id="Trazado_987320" data-name="Trazado 987320" d="M77.521,35.456l-8.155-2.9a1.216,1.216,0,0,0-.816,2.291l8.155,2.9a1.216,1.216,0,0,0,.816-2.291Z" fill="#6b0b0c"/>
            </g>
          </g>
          <g id="Grupo_1103492" data-name="Grupo 1103492">
            <g id="Grupo_1103491" data-name="Grupo 1103491">
              <path id="Trazado_987321" data-name="Trazado 987321" d="M76.4,38.617l-7.009-2.5a1.216,1.216,0,0,0-.816,2.291l7.008,2.5a1.216,1.216,0,0,0,.816-2.291Z" fill="#6b0b0c"/>
            </g>
          </g>
          <g id="Grupo_1103494" data-name="Grupo 1103494">
            <g id="Grupo_1103493" data-name="Grupo 1103493">
              <path id="Trazado_987322" data-name="Trazado 987322" d="M74.965,41.669l-5.4-1.924a1.216,1.216,0,0,0-.816,2.291l5.4,1.924a1.216,1.216,0,0,0,.816-2.291Z" fill="#6b0b0c"/>
            </g>
          </g>
          <g id="Grupo_1103496" data-name="Grupo 1103496">
            <g id="Grupo_1103495" data-name="Grupo 1103495">
              <path id="Trazado_987323" data-name="Trazado 987323" d="M73.266,44.626,69.252,43.2a1.216,1.216,0,0,0-.816,2.291l4.014,1.429a1.216,1.216,0,1,0,.816-2.291Z" fill="#6b0b0c"/>
            </g>
          </g>
        </g>
      </g>
      <path id="Trazado_952692" data-name="Trazado 952692" d="M31.064,147.506s-.229,5.645-4.744,6.182c0,0,4.846,1.447,5.381,6.2,0,0,1.212-5.758,4.468-6.23,0,0-3.776-.755-5.1-6.15" transform="translate(625.67 6856.543)" fill="#6b0b0c"/>
    </g>
  </g>
</svg>
