<svg xmlns="http://www.w3.org/2000/svg" xmlns:xlink="http://www.w3.org/1999/xlink" width="69.711" height="69.711" viewBox="0 0 69.711 69.711">
  <defs>
    <clipPath id="clip-path">
      <rect id="Rect치ngulo_403288" data-name="Rect치ngulo 403288" width="69.711" height="69.711" transform="translate(195.289 2045.645)" fill="#fff" stroke="#707070" stroke-width="1"/>
    </clipPath>
    <clipPath id="clip-path-2">
      <path id="path6708" d="M0-69.711H69.711V0H0Z"/>
    </clipPath>
  </defs>
  <g id="Grupo_1103751" data-name="Grupo 1103751" transform="translate(-195.289 -2041.686)">
    <g id="Grupo_1103439" data-name="Grupo 1103439" transform="translate(0 -3.959)">
      <path id="Rect치ngulo_403287" data-name="Rect치ngulo 403287" d="M22.285,0h0A22.285,22.285,0,0,1,44.569,22.285V64a0,0,0,0,1,0,0H0a0,0,0,0,1,0,0V22.285A22.285,22.285,0,0,1,22.285,0Z" transform="translate(207.86 2051.358)" fill="#ffd839"/>
      <g id="Enmascarar_grupo_1098805" data-name="Enmascarar grupo 1098805" clip-path="url(#clip-path)">
        <g id="g6702" transform="translate(195.289 2115.355)">
          <g id="g6704">
            <g id="g6706" clip-path="url(#clip-path-2)">
              <g id="g6712" transform="translate(62.164 -54.506)">
                <path id="path6714" d="M0,0A2.56,2.56,0,0,1-.554-1.739,7.5,7.5,0,0,0-1.93-6.5,19.574,19.574,0,0,0-11.9-13.824a7.642,7.642,0,0,0-5.028.138,2.543,2.543,0,0,1-1.8,0,7.644,7.644,0,0,0-5.028-.138A19.574,19.574,0,0,0-33.726-6.5,7.5,7.5,0,0,0-35.1-1.74,2.563,2.563,0,0,1-35.656,0,7.464,7.464,0,0,0-37.27,4.647V4.7a19.24,19.24,0,0,0,3.022,10.411l.706.742,5.583-1.654,8.782,9.511,1.775.425a19.389,19.389,0,0,0,5.314-.856,7.668,7.668,0,0,0,4.061-3.007A2.541,2.541,0,0,1-6.55,19.233a7.651,7.651,0,0,0,4.193-2.767A19.257,19.257,0,0,0,1.614,4.7V4.634A7.444,7.444,0,0,0,0,0" fill="#f4c0a6"/>
              </g>
              <g id="g6716" transform="translate(47.882 -32.751)">
                <path id="path6718" d="M0,0A7.669,7.669,0,0,1-4.061-3.007,2.541,2.541,0,0,0-5.537-4.04,7.65,7.65,0,0,1-9.731-6.807,19.258,19.258,0,0,1-13.7-18.577v-.061a7.445,7.445,0,0,1,1.614-4.634,2.562,2.562,0,0,0,.554-1.739,7.5,7.5,0,0,1,1.376-4.756A19.6,19.6,0,0,1-4.1-35.341a2.563,2.563,0,0,1-.347-.1,7.645,7.645,0,0,0-5.028-.137,19.574,19.574,0,0,0-9.968,7.329,7.5,7.5,0,0,0-1.376,4.756,2.562,2.562,0,0,1-.554,1.74,7.463,7.463,0,0,0-1.614,4.646v.048A19.24,19.24,0,0,0-19.966-6.649l.706.741,5.583-1.654L-4.9,1.949l1.775.425a19.394,19.394,0,0,0,5.314-.856A7.594,7.594,0,0,0,3.861.77,19.278,19.278,0,0,1,0,0" fill="#e9ae8d"/>
              </g>
              <g id="g6720" transform="translate(48.676 -50.479)">
                <path id="path6722" d="M0,0A.681.681,0,0,0,.326-.8.68.68,0,0,0-.4-1.275a2.977,2.977,0,0,1-3.27-2.393A.681.681,0,0,0-4.34-4.22a.681.681,0,0,0-.668.552,2.977,2.977,0,0,1-3.27,2.393A.681.681,0,0,0-9.007-.8a.681.681,0,0,0,.326.8A3.007,3.007,0,0,1-7.422,3.934a.681.681,0,0,0,.2.845.681.681,0,0,0,.868-.043,3,3,0,0,1,4.021,0,.681.681,0,0,0,.868.043.681.681,0,0,0,.2-.845A3.008,3.008,0,0,1,0,0" fill="#9c5e5e"/>
              </g>
              <g id="g6724" transform="translate(50.843 -40.635)">
                <path id="path6726" d="M0,0-3.5-5A3.67,3.67,0,0,0-9.517-5l-3.5,5a3.746,3.746,0,0,0-.325.564l-.024.051.046.033A19.352,19.352,0,0,1-8.138,6.2l.018.028.033,0a15.666,15.666,0,0,0,1.579.082,15.452,15.452,0,0,0,4.571-.688A3.675,3.675,0,0,0,0,0" fill="#bb8080"/>
              </g>
              <g id="g6728" transform="translate(42.684 -38.457)">
                <path id="path6730" d="M0,0,3.5-5A3.645,3.645,0,0,1,5.243-6.343L4.66-7.176a3.67,3.67,0,0,0-6.018,0l-3.5,5a3.759,3.759,0,0,0-.325.564l-.024.051.046.033A19.26,19.26,0,0,1-.48,3.253,3.643,3.643,0,0,1,0,0" fill="#af6c6c"/>
              </g>
              <g id="g6732" transform="translate(59.821 -49.859)">
                <path id="path6734" d="M0,0A3.625,3.625,0,0,0-4.731-3.413l-6.085,1.918a3.671,3.671,0,0,0-1.9,5.61L-9.091,9.3a3.673,3.673,0,0,0,5.931.122A15.333,15.333,0,0,0,0,.049Z" fill="#bb8080"/>
              </g>
              <g id="g6736" transform="translate(55.265 -42.731)">
                <path id="path6738" d="M0,0-3.629-5.183A3.668,3.668,0,0,1-3.58-9.468l-2.681.845a3.671,3.671,0,0,0-1.9,5.61L-4.536,2.17a3.673,3.673,0,0,0,5.931.122c.215-.282.417-.572.611-.865A3.641,3.641,0,0,1,0,0" fill="#af6c6c"/>
              </g>
              <g id="g6740" transform="translate(57 -58.722)">
                <path id="path6742" d="M0,0A15.6,15.6,0,0,0-7.94-5.84a3.672,3.672,0,0,0-4.792,3.5V3.995A3.675,3.675,0,0,0-9.071,7.671,3.705,3.705,0,0,0-7.955,7.5l6.038-1.9A3.665,3.665,0,0,0,0,0" fill="#bb8080"/>
              </g>
              <g id="g6744" transform="translate(49.033 -54.727)">
                <path id="path6746" d="M0,0V-6.334A3.654,3.654,0,0,1,1.48-9.282,15.2,15.2,0,0,0,.026-9.834a3.672,3.672,0,0,0-4.792,3.5V0A3.675,3.675,0,0,0-1.1,3.677,3.71,3.71,0,0,0,.012,3.5L1.57,3.012A3.644,3.644,0,0,1,0,0" fill="#af6c6c"/>
              </g>
              <g id="g6748" transform="translate(39.611 -64.562)">
                <path id="path6750" d="M0,0A15.594,15.594,0,0,0-7.94,5.84a3.665,3.665,0,0,0,1.917,5.594l6.038,1.9a3.7,3.7,0,0,0,1.116.173A3.675,3.675,0,0,0,4.792,9.834V3.5A3.672,3.672,0,0,0,0,0" fill="#bb8080"/>
              </g>
              <g id="g6752" transform="translate(36.204 -56.203)">
                <path id="path6754" d="M0,0A15.6,15.6,0,0,1,7.94-5.84c.039-.012.079-.023.118-.034a3.673,3.673,0,0,0-4.65-2.485,15.6,15.6,0,0,0-7.94,5.84A3.665,3.665,0,0,0-2.616,3.075l2.4.756A3.628,3.628,0,0,1,0,0" fill="#af6c6c"/>
              </g>
              <g id="g6756" transform="translate(39.667 -51.354)">
                <path id="path6758" d="M0,0-6.085-1.919a3.625,3.625,0,0,0-4.731,3.413v.049a15.389,15.389,0,0,0,2.67,8.686l.03.043.049-.018c1.948-.691,3.388-.7,4.164-.013l.011.008c.568.322,1.126.676,1.659,1.052l.047.033.041-.04a3.741,3.741,0,0,0,.421-.5L1.9,5.61A3.671,3.671,0,0,0,0,0" fill="#bb8080"/>
              </g>
              <g id="g6760" transform="translate(33.676 -48.643)">
                <path id="path6762" d="M0,0V-.049A3.61,3.61,0,0,1,3.163-3.6L-.094-4.63A3.625,3.625,0,0,0-4.826-1.217v.049a15.389,15.389,0,0,0,2.67,8.686l.03.043.049-.018c1.781-.632,3.136-.688,3.948-.171A15.386,15.386,0,0,1,0,0" fill="#af6c6c"/>
              </g>
              <g id="g6764" transform="translate(40.547 -3.854)">
                <path id="path6766" d="M0,0,.271-.317l-28.393-14.06-5.849,6.15-.12.268C-27.181,4.232-10.55,4.255.069,1h0Z" fill="#e9ae8d"/>
              </g>
              <g id="g6768" transform="translate(44.228 -7.004)">
                <path id="path6770" d="M0,0H.537C3.793-10.62,3.77-27.251-8.42-34.159l-1.955.4-6.11,6.426Z" fill="#f4c0a6"/>
              </g>
              <g id="g6772" transform="translate(41.42 -16.458)">
                <path id="path6774" d="M0,0A37.269,37.269,0,0,0-4.139-8.324a38.3,38.3,0,0,0-4.724-5.761l-1.635.456L-24.342.191v1.2a38.315,38.315,0,0,0,5.761,4.724,37.269,37.269,0,0,0,8.324,4.139L-.8,13.6A6.261,6.261,0,0,0,3.345,9.454Z" fill="#e9ae8d"/>
              </g>
              <g id="g6776" transform="translate(40.616 -2.856)">
                <path id="path6778" d="M0,0A6.26,6.26,0,0,0,4.081-3.951C-7-7.087-15.723-18.757-15.723-18.757a23.858,23.858,0,0,1-3.912,1.449l-3.9,3.9v1.2a38.313,38.313,0,0,0,5.761,4.724A37.266,37.266,0,0,0-9.454-3.346Z" fill="#e29a74"/>
              </g>
              <g id="g6780" transform="translate(35.892 -41.086)">
                <path id="path6782" d="M0,0C2.342,2.342-2.331,10.813-10.438,18.92S-27.016,31.7-29.358,29.358s2.331-10.813,10.438-18.92S-2.342-2.342,0,0" fill="#855151"/>
              </g>
              <g id="g6784" transform="translate(24.894 -21.613)">
                <path id="path6786" d="M0,0C-11.49,5.3-11.922-2.139-11.717-4.928c-5.689,6.686-8.589,12.866-6.642,14.812C-16.071,12.173-7.933,7.764,0,0" fill="#704444"/>
              </g>
              <g id="g6788" transform="translate(30.913 -38.339)">
                <path id="path6790" d="M0,0C1.726,1.726-1.718,7.967-7.691,13.941s-12.215,9.417-13.941,7.691,1.718-7.967,7.691-13.941S-1.726-1.726,0,0" fill="#bb8080"/>
              </g>
              <g id="g6792" transform="translate(13.167 -26.392)">
                <path id="path6794" d="M0,0C-3.514,4.438-5.2,8.37-3.885,9.684-2.68,10.89.731,9.57,4.713,6.63.163,6.455-.129,2.111,0,0" fill="#af6c6c"/>
              </g>
              <g id="g6796" transform="translate(18.264 -20.048)">
                <path id="path6798" d="M0,0A48.658,48.658,0,0,0,4.958-4.351,48.672,48.672,0,0,0,9.31-9.31L-.9-10.987c-.131.128-.262.256-.392.387s-.259.261-.387.392Z" fill="#af6c6c"/>
              </g>
              <g id="g6800" transform="translate(50.789 -40.596)">
                <path id="path6802" d="M0,0-3.5-5A3.605,3.605,0,0,0-9.405-5l-3.5,5a3.652,3.652,0,0,0-.32.554,19.369,19.369,0,0,1,5.2,5.567A15.532,15.532,0,0,0-6.452,6.2,15.377,15.377,0,0,0-1.9,5.518,3.61,3.61,0,0,0,0,0Z" fill="none" stroke="#000" stroke-linecap="round" stroke-linejoin="round" stroke-miterlimit="10" stroke-width="2.042"/>
              </g>
              <g id="g6804" transform="translate(50.787 -40.6)">
                <path id="path6806" d="M0,0A3.606,3.606,0,0,0,5.821.12,15.337,15.337,0,0,0,8.968-9.211v-.048a3.56,3.56,0,0,0-4.643-3.349L-1.76-10.689A3.605,3.605,0,0,0-3.629-5.183Z" fill="none" stroke="#000" stroke-linecap="round" stroke-linejoin="round" stroke-miterlimit="10" stroke-width="2.042"/>
              </g>
              <g id="g6808" transform="translate(33.61 -53.193)">
                <path id="path6810" d="M0,0,6.038,1.9a3.6,3.6,0,0,0,4.689-3.438V-7.868a3.607,3.607,0,0,0-4.7-3.436,15.45,15.45,0,0,0-7.9,5.814A3.6,3.6,0,0,0,0,0Z" fill="none" stroke="#000" stroke-linecap="round" stroke-linejoin="round" stroke-miterlimit="10" stroke-width="2.042"/>
              </g>
              <g id="g6812" transform="translate(35.894 -41.086)">
                <path id="path6814" d="M0,0C2.342,2.342-2.331,10.813-10.438,18.92S-27.016,31.7-29.358,29.358s2.331-10.813,10.438-18.92S-2.342-2.342,0,0Z" fill="none" stroke="#000" stroke-linecap="round" stroke-linejoin="round" stroke-miterlimit="10" stroke-width="2.042"/>
              </g>
              <g id="g6816" transform="translate(30.915 -38.339)">
                <path id="path6818" d="M0,0C1.726,1.726-1.718,7.967-7.691,13.941s-12.215,9.417-13.941,7.691,1.718-7.967,7.691-13.941S-1.726-1.726,0,0Z" fill="none" stroke="#000" stroke-linecap="round" stroke-linejoin="round" stroke-miterlimit="10" stroke-width="2.042"/>
              </g>
              <g id="g6820" transform="translate(41.421 -16.458)">
                <path id="path6822" d="M0,0A37.257,37.257,0,0,0-4.139-8.324a38.3,38.3,0,0,0-4.724-5.761h0a62.964,62.964,0,0,1-7.1,8.376,62.965,62.965,0,0,1-8.376,7.1,38.316,38.316,0,0,0,5.761,4.724,37.266,37.266,0,0,0,8.324,4.139L-.8,13.6A6.261,6.261,0,0,0,3.345,9.454Z" fill="none" stroke="#000" stroke-linecap="round" stroke-linejoin="round" stroke-miterlimit="10" stroke-width="2.042"/>
              </g>
              <g id="g6824" transform="translate(18.265 -20.048)">
                <path id="path6826" d="M0,0A48.644,48.644,0,0,0,4.959-4.351,48.67,48.67,0,0,0,9.31-9.31L-.9-10.987c-.131.128-.262.256-.392.387s-.259.261-.387.392Z" fill="none" stroke="#000" stroke-linecap="round" stroke-linejoin="round" stroke-miterlimit="10" stroke-width="2.042"/>
              </g>
              <g id="g6828" transform="translate(35.81 -41.164)">
                <path id="path6830" d="M0,0Q.873.5,1.664,1.055A3.668,3.668,0,0,0,2.078.564L5.707-4.62a3.605,3.605,0,0,0-1.869-5.506l-6.085-1.919A3.56,3.56,0,0,0-6.89-8.7v.048A15.327,15.327,0,0,0-4.232,0C-2.313-.68-.824-.724,0,0Z" fill="none" stroke="#000" stroke-linecap="round" stroke-linejoin="round" stroke-miterlimit="10" stroke-width="2.042"/>
              </g>
              <g id="g6832" transform="translate(62.165 -54.506)">
                <path id="path6834" d="M0,0A2.562,2.562,0,0,1-.554-1.739,7.5,7.5,0,0,0-1.93-6.5,19.574,19.574,0,0,0-11.9-13.824a7.642,7.642,0,0,0-5.028.138,2.542,2.542,0,0,1-1.8,0,7.644,7.644,0,0,0-5.028-.138A19.574,19.574,0,0,0-33.726-6.5,7.5,7.5,0,0,0-35.1-1.74,2.563,2.563,0,0,1-35.656,0,7.462,7.462,0,0,0-37.27,4.647V4.7a19.241,19.241,0,0,0,3.022,10.411c3.662-2.144,6.6-2.9,7.893-1.764A20.045,20.045,0,0,1-17.4,24.129a19.388,19.388,0,0,0,5.314-.856,7.669,7.669,0,0,0,4.061-3.007A2.541,2.541,0,0,1-6.55,19.233a7.65,7.65,0,0,0,4.193-2.767A19.258,19.258,0,0,0,1.614,4.7V4.634A7.445,7.445,0,0,0,0,0Z" fill="none" stroke="#000" stroke-linecap="round" stroke-linejoin="round" stroke-miterlimit="10" stroke-width="2.042"/>
              </g>
              <g id="g6836" transform="translate(51.427 -63.503)">
                <path id="path6838" d="M0,0A15.33,15.33,0,0,0-2.386-.994a3.607,3.607,0,0,0-4.7,3.436V8.776A3.6,3.6,0,0,0-2.4,12.214l6.038-1.9A3.6,3.6,0,0,0,5.519,4.82,15.5,15.5,0,0,0,3.852,2.835" fill="none" stroke="#000" stroke-linecap="round" stroke-linejoin="round" stroke-miterlimit="10" stroke-width="2.042"/>
              </g>
              <g id="g6840" transform="translate(46.473 -22.43)">
                <path id="path6842" d="M0,0C-.624-7.468-3.6-14.732-10.663-18.733c.029.025.057.05.084.077C-8.237-16.314-12.91-7.843-21.017.264S-37.595,13.044-39.937,10.7c-.027-.027-.052-.056-.077-.084,6.909,12.19,23.54,12.213,34.159,8.957a6.262,6.262,0,0,0,4.149-4.149A42.871,42.871,0,0,0,.1,4.765" fill="none" stroke="#000" stroke-linecap="round" stroke-linejoin="round" stroke-miterlimit="10" stroke-width="2.042"/>
              </g>
            </g>
          </g>
        </g>
      </g>
      <path id="Trazado_952692" data-name="Trazado 952692" d="M30.3,147.506s-.193,4.741-3.985,5.192c0,0,4.07,1.215,4.519,5.206,0,0,1.018-4.837,3.753-5.233,0,0-3.171-.634-4.287-5.166" transform="translate(178.899 1910.454)" fill="#6b0b0c"/>
      <path id="Trazado_952694" data-name="Trazado 952694" d="M69.991,81.707s-.293,7.226-6.073,7.913c0,0,6.2,1.853,6.888,7.935,0,0,1.55-7.371,5.72-7.975,0,0-4.834-.966-6.534-7.873" transform="translate(183.438 2014.28)" fill="#6b0b0c"/>
    </g>
  </g>
</svg>
