<svg xmlns="http://www.w3.org/2000/svg" xmlns:xlink="http://www.w3.org/1999/xlink" width="85.001" height="108.276" viewBox="0 0 85.001 108.276">
  <defs>
    <clipPath id="clip-path">
      <rect id="Rect치ngulo_403895" data-name="Rect치ngulo 403895" width="71.251" height="71.251" transform="translate(1.295 19.433)" fill="#fff" stroke="#707070" stroke-width="1"/>
    </clipPath>
  </defs>
  <g id="Grupo_1103748" data-name="Grupo 1103748" transform="translate(-180 -3708.854)">
    <g id="Grupo_1103425" data-name="Grupo 1103425" transform="translate(-220.337 -2730.948)">
      <g id="Grupo_1101953" data-name="Grupo 1101953" transform="translate(404.002 6452.214)">
        <path id="Rect치ngulo_403287" data-name="Rect치ngulo 403287" d="M35.625,0h0A35.625,35.625,0,0,1,71.251,35.625V95.865a0,0,0,0,1,0,0H0a0,0,0,0,1,0,0V35.625A35.625,35.625,0,0,1,35.625,0Z" transform="translate(0 0)" fill="#586c16"/>
        <g id="Enmascarar_grupo_1098804" data-name="Enmascarar grupo 1098804" clip-path="url(#clip-path)">
          <g id="proteger" transform="translate(1.295 19.433)">
            <g id="Grupo_1103435" data-name="Grupo 1103435">
              <path id="Trazado_986976" data-name="Trazado 986976" d="M17.136,59.327a15.612,15.612,0,0,0-3.961,2.894L8.966,54.182h0l-7.923,5.3,6.378,3.508v7.065l11.593-6.844L17.16,59.342Z" fill="#b32425"/>
              <path id="Trazado_986977" data-name="Trazado 986977" d="M54.114,59.327a15.612,15.612,0,0,1,3.961,2.894l4.209-8.039h0l7.923,5.3-6.378,3.508v7.065L52.236,63.212l1.855-3.871Z" fill="#b32425"/>
            </g>
            <g id="Grupo_1103436" data-name="Grupo 1103436">
              <path id="Trazado_986978" data-name="Trazado 986978" d="M17.16,59.342h-.049a15.584,15.584,0,0,0-3.936,2.88l5.839.991Z" fill="#8c1e23"/>
              <path id="Trazado_986979" data-name="Trazado 986979" d="M54.091,59.342h.049a15.584,15.584,0,0,1,3.936,2.88l-5.839.991Z" fill="#8c1e23"/>
            </g>
            <g id="Grupo_1103437" data-name="Grupo 1103437">
              <path id="Trazado_986980" data-name="Trazado 986980" d="M14.434,46.448A22.233,22.233,0,0,0,7.421,51.23l5.754,10.991s2.511-2.872,8.649-4.925A42.835,42.835,0,0,1,14.434,46.448Z" fill="#e93234"/>
              <path id="Trazado_986981" data-name="Trazado 986981" d="M56.817,46.448A42.841,42.841,0,0,1,49.427,57.3c6.138,2.053,8.649,4.925,8.649,4.925L63.829,51.23A22.235,22.235,0,0,0,56.817,46.448Z" fill="#e93234"/>
            </g>
            <path id="Trazado_986982" data-name="Trazado 986982" d="M35.625,66.591C67.083,54.078,62.73,11.8,62.73,11.8a54.361,54.361,0,0,1-27.1-10.607A54.361,54.361,0,0,1,8.521,11.8S4.167,54.078,35.625,66.591Z" fill="#f5ba3d"/>
            <g id="Grupo_1103438" data-name="Grupo 1103438">
              <path id="Trazado_986983" data-name="Trazado 986983" d="M56.817,46.448A42.841,42.841,0,0,1,49.427,57.3c.924.309,1.764.637,2.527.97a41.685,41.685,0,0,0,7.6-10.352C58.763,47.436,57.853,46.94,56.817,46.448Z" fill="#b32425"/>
              <path id="Trazado_986984" data-name="Trazado 986984" d="M14.434,46.448A42.841,42.841,0,0,0,21.824,57.3c-.924.309-1.764.637-2.527.97a41.686,41.686,0,0,1-7.6-10.352C12.488,47.436,13.4,46.94,14.434,46.448Z" fill="#b32425"/>
            </g>
            <path id="Trazado_986985" data-name="Trazado 986985" d="M62.73,11.8c-1.135-.117-2.242-.27-3.32-.45.346,9.72-.55,41.9-26.332,54.125q1.234.591,2.548,1.116C67.083,54.078,62.73,11.8,62.73,11.8Z" fill="#ef9325"/>
            <path id="Trazado_986986" data-name="Trazado 986986" d="M35.625,58.8c23.964-9.533,20.648-41.739,20.648-41.739a41.41,41.41,0,0,1-20.648-8.08,41.412,41.412,0,0,1-20.648,8.08S11.661,49.269,35.625,58.8Z" fill="#ffdb57"/>
            <path id="Trazado_986987" data-name="Trazado 986987" d="M32.831,42.2a2.612,2.612,0,0,1-1.846-.765L25.046,35.5A2.611,2.611,0,0,1,28.738,31.8L32.831,35.9,42.862,25.866a2.611,2.611,0,1,1,3.692,3.692L34.677,41.435A2.61,2.61,0,0,1,32.831,42.2Z" fill="#00b76c"/>
            <path id="Trazado_986988" data-name="Trazado 986988" d="M70.787,58.617l-7.144-4.781,1.11-2.121a1.043,1.043,0,0,0-.131-1.161A22.065,22.065,0,0,0,58.2,45.966,59.257,59.257,0,0,0,61.99,34.741a76.789,76.789,0,0,0,1.778-23.048,1.043,1.043,0,0,0-.931-.931,55,55,0,0,1-19.289-5.8A43.763,43.763,0,0,1,36.294.393a1.044,1.044,0,0,0-1.338,0A53.674,53.674,0,0,1,8.413,10.763a1.043,1.043,0,0,0-.931.931A70.868,70.868,0,0,0,7.522,23.37a1.043,1.043,0,0,0,2.08-.162,74.8,74.8,0,0,1-.11-10.465A57.241,57.241,0,0,0,28.719,6.788a49.2,49.2,0,0,0,6.907-4.269,49.183,49.183,0,0,0,6.906,4.269,57.245,57.245,0,0,0,19.226,5.954,77.209,77.209,0,0,1-1.8,21.523,56.383,56.383,0,0,1-4.111,11.789c-.048.1-.1.2-.147.3q-.16.324-.324.643-.092.18-.186.359-.174.332-.353.658-.149.273-.3.541-.136.242-.274.481t-.281.477c-.068.114-.137.227-.206.34q-.334.548-.68,1.083l-.05.078c-.121.184-.243.366-.365.548l-.159.233q-1.088,1.586-2.292,3.029l-.014.017q-.233.279-.471.552c-.125.143-.251.285-.377.426l-.076.086q-.214.238-.432.471l-.022.024a37.232,37.232,0,0,1-13.212,9.069A37.568,37.568,0,0,1,20.289,53.917l-.046-.058c-.1-.121-.19-.244-.285-.367a43.645,43.645,0,0,1-4.586-7.5,1.045,1.045,0,0,0-.109-.177,60.706,60.706,0,0,1-5.226-18.451,1.043,1.043,0,0,0-2.069.274,63.813,63.813,0,0,0,5.083,18.326,22.074,22.074,0,0,0-6.425,4.587A1.044,1.044,0,0,0,6.5,51.714l1.11,2.121L.463,58.617A1.043,1.043,0,0,0,.541,60.4l5.837,3.21v6.448a1.043,1.043,0,0,0,1.574.9l11.593-6.844.021-.014.035-.023q.031-.021.06-.044l.028-.023c.024-.021.048-.042.07-.065l.011-.011a1.032,1.032,0,0,0,.075-.089l0,0,.005-.008a1.031,1.031,0,0,0,.066-.1l.013-.022a1.047,1.047,0,0,0,.054-.115l.007-.02q.019-.051.032-.1c0-.009.005-.019.007-.028a1.055,1.055,0,0,0,.021-.124c0-.006,0-.011,0-.017a1.022,1.022,0,0,0,0-.113c0-.009,0-.017,0-.026a1.05,1.05,0,0,0-.013-.128l0-.009a1.027,1.027,0,0,0-.028-.116L20,62.882a1.035,1.035,0,0,0-.048-.121l-1.429-2.983A27.687,27.687,0,0,1,21.538,58.5a39.321,39.321,0,0,0,13.7,9.062,1.043,1.043,0,0,0,.771,0,39.375,39.375,0,0,0,13.7-9.061,27.678,27.678,0,0,1,3.011,1.279L51.3,62.761a1.037,1.037,0,0,0-.048.121l-.009.03a1.028,1.028,0,0,0-.028.116l0,.009a1.05,1.05,0,0,0-.013.128c0,.009,0,.017,0,.026a1.058,1.058,0,0,0,0,.113c0,.006,0,.011,0,.017a1.025,1.025,0,0,0,.021.123c0,.009,0,.019.007.028a1.029,1.029,0,0,0,.032.1l.007.021a1.031,1.031,0,0,0,.054.114l.013.022a1.05,1.05,0,0,0,.065.1l.005.008,0,0a1.032,1.032,0,0,0,.075.089l.011.011q.033.034.07.065l.028.023q.029.023.06.044l.035.023.021.014L63.3,70.955a1.043,1.043,0,0,0,1.574-.9V63.609L70.71,60.4a1.043,1.043,0,0,0,.077-1.782ZM15.619,61.511l.165-.117.108-.074.177-.121.114-.075.194-.128.074-.047.23-.145.019-.011.505,1.055-1.659-.282Zm-7.7.567L3.05,59.4l5.531-3.7,3.67,7.01a1.031,1.031,0,0,0,.067.111c.01.014.021.026.031.039s.032.042.05.062.037.037.056.055.023.023.035.034.048.039.073.057l.027.02c.028.019.057.036.087.052l.021.011a1.013,1.013,0,0,0,.1.044l.017.007a1.058,1.058,0,0,0,.106.033l.015,0c.023.005.045.012.068.016l3.028.514L8.465,68.229V62.992A1.045,1.045,0,0,0,7.924,62.077ZM20,56.845a28.092,28.092,0,0,0-3.362,1.564l-.009,0-.026.015h0l-.01.006-.131.073-.238.136-.139.08-.015.009-.021.012c-.125.074-.247.147-.365.219L15.631,59l-.211.132-.044.028-.005,0a19.094,19.094,0,0,0-1.9,1.369l-3.414-6.52L8.7,51.419a23.082,23.082,0,0,1,5.265-3.574q.162.318.328.631c.056.106.114.211.171.317q.216.4.438.8c.033.059.064.119.1.177a43.886,43.886,0,0,0,3.682,5.482l.093.118q.163.205.328.408l.171.207c.1.117.194.235.292.351Q19.781,56.59,20,56.845Zm34.343,4.377.206-.43.019.011.229.145.075.048.194.128.113.075.177.121.108.074.162.115.078.056-1.659.282Zm-3.093-4.385c.09-.1.179-.207.267-.311l.163-.189q.2-.241.4-.486l.014-.017q.98-1.2,1.884-2.483c.08-.114.157-.231.235-.346.1-.139.192-.279.286-.42q.159-.237.315-.477.126-.193.25-.389.207-.325.41-.654.137-.224.272-.449.158-.265.314-.532.175-.3.345-.605c.062-.112.125-.223.187-.336q.224-.406.44-.82l.147-.282c.034-.065.068-.13.1-.2a23.34,23.34,0,0,1,5.264,3.576L57.783,60.53a19.089,19.089,0,0,0-1.9-1.369l0,0-.044-.028L55.62,59l-.069-.042c-.114-.07-.231-.14-.351-.211l-.021-.012-.015-.009-.139-.08-.238-.136-.131-.073-.01-.006h0l-.026-.015-.009,0a28.071,28.071,0,0,0-3.362-1.564Zm12.072,5.241a1.044,1.044,0,0,0-.541.914v5.237l-7.564-4.466,3.028-.514.032-.008c.026-.005.051-.011.076-.018l.054-.017q.036-.013.071-.028l.052-.023c.023-.011.045-.024.067-.037l.047-.029c.022-.015.043-.031.064-.047s.028-.021.041-.032.042-.039.062-.059.022-.021.032-.032a1.028,1.028,0,0,0,.066-.083l.016-.021A1.026,1.026,0,0,0,59,62.7l3.67-7.01L68.2,59.4Z"/>
            <path id="Trazado_986989" data-name="Trazado 986989" d="M57.374,24.526a52.262,52.262,0,0,0-.063-7.57,1.043,1.043,0,0,0-.931-.931A40.761,40.761,0,0,1,36.295,8.182a1.044,1.044,0,0,0-1.338,0,40.758,40.758,0,0,1-20.086,7.843,1.043,1.043,0,0,0-.931.931,56.507,56.507,0,0,0,.237,11.112c.664,5.839,2.515,14.259,7.561,21.213a1.043,1.043,0,1,0,1.689-1.226c-4.769-6.573-6.531-14.6-7.171-20.173a58.5,58.5,0,0,1-.3-9.881,42.837,42.837,0,0,0,19.672-7.7A42.829,42.829,0,0,0,55.3,18a55.772,55.772,0,0,1-.008,6.407,1.043,1.043,0,0,0,2.084.117Z"/>
            <path id="Trazado_986990" data-name="Trazado 986990" d="M35.24,59.771a1.043,1.043,0,0,0,.771,0A30.571,30.571,0,0,0,51.659,45.924a46.766,46.766,0,0,0,5.324-17.1,1.043,1.043,0,0,0-2.07-.262C52.59,46.915,43.23,54.526,35.625,57.676a28.142,28.142,0,0,1-9.584-6.491,1.043,1.043,0,1,0-1.5,1.448A30.27,30.27,0,0,0,35.24,59.771Z"/>
            <path id="Trazado_986991" data-name="Trazado 986991" d="M32.831,43.243a3.63,3.63,0,0,0,2.584-1.07L47.292,30.3a3.654,3.654,0,0,0-5.168-5.168l-9.293,9.293-3.355-3.355a3.654,3.654,0,0,0-5.168,5.168l5.939,5.939A3.629,3.629,0,0,0,32.831,43.243Zm-7.047-10.7a1.57,1.57,0,0,1,2.217,0l4.092,4.092a1.043,1.043,0,0,0,1.476,0L43.6,26.6a1.568,1.568,0,1,1,2.217,2.217L33.939,40.7a1.568,1.568,0,0,1-2.217,0l-5.939-5.939A1.57,1.57,0,0,1,25.783,32.542Z"/>
          </g>
        </g>
      </g>
      <path id="Trazado_952692" data-name="Trazado 952692" d="M32.562,147.506s-.3,7.427-6.242,8.133c0,0,6.375,1.9,7.079,8.155,0,0,1.594-7.576,5.878-8.2,0,0-4.968-.993-6.715-8.091" transform="translate(374.017 6317.12)" fill="#6b0b0c"/>
      <path id="Trazado_952694" data-name="Trazado 952694" d="M73.431,81.707s-.459,11.32-9.513,12.4c0,0,9.717,2.9,10.789,12.429,0,0,2.429-11.546,8.959-12.492,0,0-7.571-1.514-10.235-12.332" transform="translate(401.671 6358.095)" fill="#6b0b0c"/>
    </g>
  </g>
</svg>
