<svg xmlns="http://www.w3.org/2000/svg" xmlns:xlink="http://www.w3.org/1999/xlink" width="67" height="67" viewBox="0 0 67 67">
  <defs>
    <clipPath id="clip-path">
      <rect id="Rectángulo_403598" data-name="Rectángulo 403598" width="67" height="67" transform="translate(722.711 2116)" fill="#6b0b0c" stroke="#707070" stroke-width="1"/>
    </clipPath>
  </defs>
  <g id="Grupo_1103755" data-name="Grupo 1103755" transform="translate(-1019.711 -2201)">
    <g id="Enmascarar_grupo_1098793" data-name="Enmascarar grupo 1098793" transform="translate(297 85)" clip-path="url(#clip-path)">
      <g id="cacao_4_" data-name="cacao (4)" transform="translate(721.834 2115.123)">
        <path id="Trazado_981623" data-name="Trazado 981623" d="M59.61,54.354a21.862,21.862,0,0,0-3.851-2.946,2.809,2.809,0,0,0-4.252,2c-.083.546-.023,1.18.665,1.221a.709.709,0,0,0,.723-.692,1.417,1.417,0,0,1,.356-1.107,1.449,1.449,0,0,1,1.78-.209,20.421,20.421,0,0,1,3.6,2.752,2.915,2.915,0,0,1,.856,2.607c-1.38-.655-2.81-1.278-4.471-.228a8.155,8.155,0,0,0-6.4-2.458,3.124,3.124,0,0,0-3.646-2.158,18.314,18.314,0,0,0-6.414,2.515,4.4,4.4,0,0,0-1.943,4.085A6.591,6.591,0,0,0,33.5,64a2.193,2.193,0,0,0,2.115,2.725H45.643c2.077-.066,4.449-1.5,4.816-5.033a8.3,8.3,0,0,1,2.169-.229,3.789,3.789,0,0,1,3.566,2.359,1.043,1.043,0,0,1-.935,1.487H51.587a3.051,3.051,0,0,1-.486-.039.708.708,0,0,0-.812.586c-.094.785.7.885,1.3.87h3.671a2.439,2.439,0,0,0,2.074-1.144c1.143-1.744-.577-3.95-1.98-4.8A1.607,1.607,0,0,1,57.5,58.71a8.062,8.062,0,0,1,4.407,3.371,1.954,1.954,0,0,1-.831,3.044,2.916,2.916,0,0,1-1.606.089.708.708,0,0,0-.839.546c-.2,1.311,2.21.969,2.932.693A3.372,3.372,0,0,0,63.087,61.3a10.382,10.382,0,0,0-2.349-2.522,4.322,4.322,0,0,0-1.128-4.425ZM35.006,65a.749.749,0,0,1-.134-.651,4.918,4.918,0,0,1,5.109-3.972.708.708,0,0,0,.2-1.4,5.34,5.34,0,0,0-2.172.193,2.986,2.986,0,0,1,1.33-2.343,16.944,16.944,0,0,1,5.925-2.309,1.706,1.706,0,0,1,1.978,1.118,3.435,3.435,0,0,0-2.075,3.6c-3.584.686-6.063,3.045-5.339,6.062h-4.21a.768.768,0,0,1-.612-.3Zm14.04-3.359c-.3,2.48-1.814,3.576-3.4,3.66H41.913a.832.832,0,0,1-.829-.884c.252-3.3,4.333-3.964,6.743-4.067a1.176,1.176,0,0,1,1.218,1.291Zm3.6-1.6a9.682,9.682,0,0,0-2.487.26C49.4,58.883,48,58.823,46.578,59.029c-.072-3.327,4.863-2.974,7.535-.176a2.914,2.914,0,0,0-.258,1.329,5.955,5.955,0,0,0-1.208-.137Z" fill="#6b0b0c"/>
        <path id="Trazado_981624" data-name="Trazado 981624" d="M13.81,14.833a22.894,22.894,0,0,1-2.366,6.892C3.276,36.954,1.887,53.059,13.351,62.83a19.421,19.421,0,0,1,3.01,3.395,3.7,3.7,0,0,0,.554.625,4.14,4.14,0,0,0,6.031-.614,19.452,19.452,0,0,1,3.019-3.406c11.471-9.777,10.067-25.9,1.906-41.107a22.3,22.3,0,0,1-2.219-6.16,4.812,4.812,0,0,0-3.52-4.3,7.238,7.238,0,0,1,1.888-1.7.7.7,0,0,0,.162-.1c2.924-1.993,8.4-1.566,12.312-1.429a7.008,7.008,0,0,0,5.476,5.191.708.708,0,0,0,.3-1.383,5.537,5.537,0,0,1-4.3-3.754c4.032.137,9.9.364,12.639-1.579a.708.708,0,1,0-.8-1.168c-1.392.952-3.719,1.3-6.419,1.389,1.389-1.381,3.808-1.55,4.024-3.951,1.625.221,2.651.439,2.7.448a12.2,12.2,0,0,0,5.825-.46.476.476,0,0,1,.488.081.457.457,0,0,1,.156.449C54.732,12.858,42.392,17.9,31.4,10.776a12.777,12.777,0,0,0-2.629-1.42.708.708,0,0,0-.529,1.313,11.361,11.361,0,0,1,2.336,1.262A19.976,19.976,0,0,0,42.053,15.51c7.6.025,14.445-4.489,15.915-11.941a1.859,1.859,0,0,0-.63-1.809,1.9,1.9,0,0,0-1.908-.322,10.964,10.964,0,0,1-5.051.391C43.733.364,27.8-.615,23.193,8.41a8.906,8.906,0,0,0-1.81,1.545,11.931,11.931,0,0,0-6.149-8.067,2.88,2.88,0,0,0-3.263.343l-.9.77a.713.713,0,0,0,.114,1.156A10.612,10.612,0,0,1,16.4,11.545a4.64,4.64,0,0,0-2.589,3.287ZM46.008,2.6a1.808,1.808,0,0,1-1.181,1.5c-1.4.745-2.524,1.351-3.169,2.645-2.73-.007-5.59-.179-8.358-.237a6.034,6.034,0,0,0,1.22-1.987,4.026,4.026,0,0,1,1.281-1.9A43,43,0,0,1,46.008,2.6ZM33.672,3a7.5,7.5,0,0,0-.475,1.02A3.489,3.489,0,0,1,30.55,6.494a15.8,15.8,0,0,0-4.8.708A14.536,14.536,0,0,1,33.672,3ZM24.118,15.11a24.278,24.278,0,0,0,2.506,7.283c8,15.082,9.448,30.4-2.321,40.056A38.709,38.709,0,0,1,27.145,55.9c5.365-8.853,2.374-23.787-1.767-31.625a36.784,36.784,0,0,1-1.994-7.585.708.708,0,1,0-1.4.178A37.534,37.534,0,0,0,24.1,24.889c.09.172,8.912,17.385,1.8,30.325a40.451,40.451,0,0,0-3.687,9.315,2.564,2.564,0,0,1-1.851,1.852V12.527A3.323,3.323,0,0,1,24.118,15.11ZM12.728,3.446a1.522,1.522,0,0,1,1.832-.313,10.518,10.518,0,0,1,5.584,7.979c-.44.01-1.97-.031-2.38.042a12.059,12.059,0,0,0-5.036-7.708Zm4.1,9.469a10.27,10.27,0,0,0-.631,3.164,18.779,18.779,0,0,1-1.436,5.977,56.6,56.6,0,0,0-4.147,14.456.708.708,0,1,0,1.407.157A55.192,55.192,0,0,1,16.067,22.6a20.2,20.2,0,0,0,1.542-6.427c.181-2.681.9-3.525,1.189-3.646h.152V66.381a2.556,2.556,0,0,1-1.109-.6,1.652,1.652,0,0,1-.321-.824c-.125-.7-.3-1.462-.513-2.27a17.319,17.319,0,0,0-2.486-5.3,19.526,19.526,0,0,1-3.008-11.887.708.708,0,0,0-1.406-.161,20.617,20.617,0,0,0,3.246,12.847,15.857,15.857,0,0,1,2.3,4.929C3.212,52.676,4.41,38.486,12.692,22.393a23.7,23.7,0,0,0,2.36-6.552l.146-.731a3.217,3.217,0,0,1,1.63-2.195Z" fill="#6b0b0c"/>
        <path id="Trazado_981625" data-name="Trazado 981625" d="M10.447,41.8a.72.72,0,0,0,1.026-1.011A.72.72,0,0,0,10.447,41.8Z" fill="#6b0b0c"/>
      </g>
    </g>
  </g>
</svg>
