<svg xmlns="http://www.w3.org/2000/svg" xmlns:xlink="http://www.w3.org/1999/xlink" width="83" height="83.001" viewBox="0 0 83 83.001">
  <defs>
    <clipPath id="clip-path">
      <rect id="Rectángulo_403288" data-name="Rectángulo 403288" width="83" height="83" transform="translate(645 6999.002)" fill="#6b0b0c" stroke="#6b0b0c" stroke-width="1"/>
    </clipPath>
  </defs>
  <g id="Grupo_1103748" data-name="Grupo 1103748" transform="translate(-646.711 -1950.618)">
    <g id="Grupo_1102563" data-name="Grupo 1102563" transform="translate(1.711 -5048.383)">
      <g id="Enmascarar_grupo_1098827" data-name="Enmascarar grupo 1098827" clip-path="url(#clip-path)">
        <g id="campesino_1_" data-name="campesino (1)" transform="translate(645.221 6999.002)">
          <g id="Grupo_1103519" data-name="Grupo 1103519">
            <g id="Grupo_1103517" data-name="Grupo 1103517">
              <path id="Trazado_987380" data-name="Trazado 987380" d="M62.22,31.123s1.136-2.282,4.73.179S70.4,36.723,70.4,36.723s-2.706,1.207-6.3-1.255S62.22,31.123,62.22,31.123Z" fill="none" stroke="#6b0b0c" stroke-linecap="round" stroke-linejoin="round" stroke-miterlimit="10" stroke-width="2.419"/>
            </g>
            <g id="Grupo_1103518" data-name="Grupo 1103518">
              <path id="Trazado_987381" data-name="Trazado 987381" d="M78.575,31.123s-1.136-2.282-4.73.179S70.4,36.723,70.4,36.723s2.706,1.207,6.3-1.255S78.575,31.123,78.575,31.123Z" fill="none" stroke="#6b0b0c" stroke-linecap="round" stroke-linejoin="round" stroke-miterlimit="10" stroke-width="2.419"/>
            </g>
          </g>
          <path id="Trazado_987382" data-name="Trazado 987382" d="M46.338,25.055v10.6A10.914,10.914,0,0,1,35.424,46.565h-6.7A10.914,10.914,0,0,1,17.812,35.651V28.005" fill="none" stroke="#6b0b0c" stroke-linecap="round" stroke-linejoin="round" stroke-miterlimit="10" stroke-width="2.419"/>
          <line id="Línea_4299" data-name="Línea 4299" y1="4.11" transform="translate(27.072 46.565)" fill="none" stroke="#6b0b0c" stroke-linecap="round" stroke-linejoin="round" stroke-miterlimit="10" stroke-width="2.419"/>
          <line id="Línea_4300" data-name="Línea 4300" y1="4.11" transform="translate(37.077 46.565)" fill="none" stroke="#6b0b0c" stroke-linecap="round" stroke-linejoin="round" stroke-miterlimit="10" stroke-width="2.419"/>
          <line id="Línea_4301" data-name="Línea 4301" x2="9.628" transform="translate(15.502 53.703)" fill="none" stroke="#6b0b0c" stroke-linecap="round" stroke-linejoin="round" stroke-miterlimit="10" stroke-width="2.419"/>
          <path id="Trazado_987383" data-name="Trazado 987383" d="M39.02,53.7h9.626V81.349" fill="none" stroke="#6b0b0c" stroke-linecap="round" stroke-linejoin="round" stroke-miterlimit="10" stroke-width="2.419"/>
          <line id="Línea_4302" data-name="Línea 4302" y2="8.162" transform="translate(15.502 59.359)" fill="none" stroke="#6b0b0c" stroke-linecap="round" stroke-linejoin="round" stroke-miterlimit="10" stroke-width="2.419"/>
          <path id="Trazado_987384" data-name="Trazado 987384" d="M4.644,81.349V64.562A10.862,10.862,0,0,1,15.5,53.7" fill="none" stroke="#6b0b0c" stroke-linecap="round" stroke-linejoin="round" stroke-miterlimit="10" stroke-width="2.419"/>
          <path id="Trazado_987385" data-name="Trazado 987385" d="M51.865,75.044,48.647,69V53.7a7.73,7.73,0,0,1,6.97,4.39l5.156,10.765" fill="none" stroke="#6b0b0c" stroke-linecap="round" stroke-linejoin="round" stroke-miterlimit="10" stroke-width="2.419"/>
          <line id="Línea_4303" data-name="Línea 4303" y2="3.558" transform="translate(32.075 30.431)" fill="none" stroke="#6b0b0c" stroke-linecap="round" stroke-linejoin="round" stroke-miterlimit="10" stroke-width="2.419"/>
          <path id="Trazado_987386" data-name="Trazado 987386" d="M29.131,38.771a6.47,6.47,0,0,0,5.887,0" fill="none" stroke="#6b0b0c" stroke-linecap="round" stroke-linejoin="round" stroke-miterlimit="10" stroke-width="2.419"/>
          <path id="Trazado_987387" data-name="Trazado 987387" d="M9.177,72.415H4.644v8.935" fill="none" stroke="#6b0b0c" stroke-linecap="round" stroke-linejoin="round" stroke-miterlimit="10" stroke-width="2.419"/>
          <path id="Trazado_987388" data-name="Trazado 987388" d="M25.13,53.7l2.828,4.023a.98.98,0,0,0,1.633-.045L32.075,53.7l-5-3.029Z" fill="none" stroke="#6b0b0c" stroke-linecap="round" stroke-linejoin="round" stroke-miterlimit="10" stroke-width="2.419"/>
          <path id="Trazado_987389" data-name="Trazado 987389" d="M39.02,53.7l-2.828,4.023a.98.98,0,0,1-1.633-.045L32.075,53.7l5-3.029Z" fill="none" stroke="#6b0b0c" stroke-linecap="round" stroke-linejoin="round" stroke-miterlimit="10" stroke-width="2.419"/>
          <path id="Trazado_987390" data-name="Trazado 987390" d="M51.915,30.706c5.353-1.34,8.68-3.217,8.68-5.3,0-2.224-3.81-4.218-9.838-5.569a88.431,88.431,0,0,0-18.682-1.8,88.458,88.458,0,0,0-18.684,1.8c-6.026,1.351-9.836,3.346-9.836,5.569,0,2.078,3.327,3.955,8.678,5.3" fill="none" stroke="#6b0b0c" stroke-linecap="round" stroke-linejoin="round" stroke-miterlimit="10" stroke-width="2.419"/>
          <path id="Trazado_987391" data-name="Trazado 987391" d="M61.318,20.548c0,.744-.724,4.863-.724,4.863,0-4.071-12.769-7.374-28.52-7.374s-28.52,3.3-28.52,7.374c0,0-1-4-1-4.688,0-4.071,12.666-7.152,29.524-7.152S61.318,16.477,61.318,20.548Z" fill="none" stroke="#6b0b0c" stroke-linecap="round" stroke-linejoin="round" stroke-miterlimit="10" stroke-width="2.419"/>
          <path id="Trazado_987392" data-name="Trazado 987392" d="M13.392,19.84c-.634,4.561-1.19,11.02-1.53,15.408a10.5,10.5,0,0,0,3.044,8.24h0a10.5,10.5,0,0,0,7.426,3.076H41.818a10.5,10.5,0,0,0,7.426-3.076h0a10.5,10.5,0,0,0,3.044-8.24c-.34-4.389-.9-10.848-1.53-15.408" fill="none" stroke="#6b0b0c" stroke-linecap="round" stroke-linejoin="round" stroke-miterlimit="10" stroke-width="2.419"/>
          <path id="Trazado_987393" data-name="Trazado 987393" d="M38.788,18.244c.526,1.475,2.756,6.811,7.55,6.811" fill="none" stroke="#6b0b0c" stroke-linecap="round" stroke-linejoin="round" stroke-miterlimit="10" stroke-width="2.419"/>
          <path id="Trazado_987394" data-name="Trazado 987394" d="M17.812,28.005s14.3-.3,20.624-9.784" fill="none" stroke="#6b0b0c" stroke-linecap="round" stroke-linejoin="round" stroke-miterlimit="10" stroke-width="2.419"/>
          <path id="Trazado_987395" data-name="Trazado 987395" d="M14.832,14.843l1.327-7.048A8.082,8.082,0,0,1,24.1,1.209H40.049a8.085,8.085,0,0,1,7.943,6.585l1.319,7" fill="none" stroke="#6b0b0c" stroke-linecap="round" stroke-linejoin="round" stroke-miterlimit="10" stroke-width="2.419"/>
          <path id="Trazado_987396" data-name="Trazado 987396" d="M55.482,81.349l-3.617-6.306,8.907-6.185,1.945,3.907v0" fill="none" stroke="#6b0b0c" stroke-linecap="round" stroke-linejoin="round" stroke-miterlimit="10" stroke-width="2.419"/>
          <path id="Trazado_987397" data-name="Trazado 987397" d="M15.97,44.417a7.871,7.871,0,0,1-2.612,3.812c-2.556,2.133-5.732,2.538-7.1.9s-.4-4.686,2.161-6.819a7.777,7.777,0,0,1,4.354-1.9" fill="none" stroke="#6b0b0c" stroke-linecap="round" stroke-linejoin="round" stroke-miterlimit="10" stroke-width="2.419"/>
          <path id="Trazado_987398" data-name="Trazado 987398" d="M51.357,40.455a8.026,8.026,0,0,1,3.96,1.859c2.556,2.133,3.523,5.186,2.159,6.819s-4.541,1.229-7.1-.9a8.049,8.049,0,0,1-2.54-3.564" fill="none" stroke="#6b0b0c" stroke-linecap="round" stroke-linejoin="round" stroke-miterlimit="10" stroke-width="2.419"/>
          <line id="Línea_4304" data-name="Línea 4304" y2="9.43" transform="translate(32.075 53.704)" fill="none" stroke="#6b0b0c" stroke-linecap="round" stroke-linejoin="round" stroke-miterlimit="10" stroke-width="2.419"/>
          <path id="Trazado_987399" data-name="Trazado 987399" d="M61.484,81.349l1.234-8.583v0L64.27,61.95,62,58.3l-.635-2.82a2.051,2.051,0,0,1,1.459-2.43,2.074,2.074,0,0,1,.54-.073,2.042,2.042,0,0,1,1.324.487" fill="none" stroke="#6b0b0c" stroke-linecap="round" stroke-linejoin="round" stroke-miterlimit="10" stroke-width="2.419"/>
          <path id="Trazado_987400" data-name="Trazado 987400" d="M76.073,53.618l1.675-.542a1.728,1.728,0,0,1,2.195,2.112l-1.061,3.765a4.227,4.227,0,0,1-2.39,2.733l-4.47,2.227-.135,17.436" fill="none" stroke="#6b0b0c" stroke-linecap="round" stroke-linejoin="round" stroke-miterlimit="10" stroke-width="2.419"/>
          <path id="Trazado_987401" data-name="Trazado 987401" d="M9.177,81.349V69.557a2.036,2.036,0,0,1,2.036-2.036H29a2.036,2.036,0,0,1,2.036,2.036V81.349" fill="none" stroke="#6b0b0c" stroke-linecap="round" stroke-linejoin="round" stroke-miterlimit="10" stroke-width="2.419"/>
          <path id="Trazado_987402" data-name="Trazado 987402" d="M22.749,62.992H17.466A1.966,1.966,0,0,0,15.5,64.958v2.563h9.215V64.958A1.966,1.966,0,0,0,22.749,62.992Z" fill="none" stroke="#6b0b0c" stroke-linecap="round" stroke-linejoin="round" stroke-miterlimit="10" stroke-width="2.419"/>
          <path id="Trazado_987403" data-name="Trazado 987403" d="M76.061,42.086h.525a1.392,1.392,0,0,1,1.368,1.653L75.717,55.489a1.393,1.393,0,0,1-1.368,1.132h-7.9a1.393,1.393,0,0,1-1.368-1.132L62.842,43.738a1.392,1.392,0,0,1,1.368-1.653H70.4" fill="none" stroke="#6b0b0c" stroke-linecap="round" stroke-linejoin="round" stroke-miterlimit="10" stroke-width="2.419"/>
          <line id="Línea_4305" data-name="Línea 4305" y2="5.362" transform="translate(70.399 36.723)" fill="none" stroke="#6b0b0c" stroke-linecap="round" stroke-linejoin="round" stroke-miterlimit="10" stroke-width="2.419"/>
        </g>
      </g>
      <path id="Trazado_952692" data-name="Trazado 952692" d="M31.064,147.506s-.229,5.645-4.744,6.182c0,0,4.846,1.447,5.381,6.2,0,0,1.212-5.758,4.468-6.23,0,0-3.776-.755-5.1-6.15" transform="translate(686.67 6851.495)" fill="#6b0b0c"/>
    </g>
  </g>
</svg>
