<svg xmlns="http://www.w3.org/2000/svg" xmlns:xlink="http://www.w3.org/1999/xlink" width="85" height="101.941" viewBox="0 0 85 101.941">
  <defs>
    <clipPath id="clip-path">
      <rect id="Rect치ngulo_403895" data-name="Rect치ngulo 403895" width="85" height="85" transform="translate(1.295 19.432)" fill="#fff" stroke="#707070" stroke-width="1"/>
    </clipPath>
  </defs>
  <g id="Grupo_1103756" data-name="Grupo 1103756" transform="translate(-180 -2797.504)">
    <g id="Grupo_1103447" data-name="Grupo 1103447" transform="translate(-220.548 -3654.71)">
      <g id="Grupo_1101953" data-name="Grupo 1101953" transform="translate(404.002 6452.214)">
        <path id="Rect치ngulo_403287" data-name="Rect치ngulo 403287" d="M35.625,0h0A35.625,35.625,0,0,1,71.251,35.625V95.865a0,0,0,0,1,0,0H0a0,0,0,0,1,0,0V35.625A35.625,35.625,0,0,1,35.625,0Z" transform="translate(0 0)" fill="#586c16"/>
        <g id="Enmascarar_grupo_1098822" data-name="Enmascarar grupo 1098822" transform="translate(-4.749 -8.567)" clip-path="url(#clip-path)">
          <g id="Artboard_01" transform="translate(11.576 19.431)">
            <path id="Trazado_987329" data-name="Trazado 987329" d="M19.549,64.356v5.459a2.694,2.694,0,0,0,2.614,2.767H63.549a2.693,2.693,0,0,0,2.613-2.767V64.356Z" transform="translate(-7.193 11.048)" fill="#e2e7f7"/>
            <path id="Trazado_987330" data-name="Trazado 987330" d="M25.918,66.654a4.083,4.083,0,0,0-4.083,4.083v1.4H63.1a2.693,2.693,0,0,0,2.613-2.767V66.654Z" transform="translate(-6.751 11.491)" fill="#f6f8ff"/>
            <path id="Trazado_987331" data-name="Trazado 987331" d="M18.387,42.521,18.4,67.2a1.371,1.371,0,0,0,1.371,1.371H66.386A1.371,1.371,0,0,0,67.757,67.2V53.488Z" transform="translate(-7.417 6.834)" fill="#953528"/>
            <path id="Trazado_987332" data-name="Trazado 987332" d="M22.069,26.976,20.7,25.6V5.04A2.742,2.742,0,0,1,23.44,2.3H61.827A2.742,2.742,0,0,1,64.569,5.04V25.6L63.2,26.976Z" transform="translate(-6.971 -0.927)" fill="#d2976a"/>
            <path id="Trazado_987333" data-name="Trazado 987333" d="M64.569,41.46v-17.1L63.2,22.988H22.069L20.7,24.359V41.134Z" transform="translate(-6.971 3.065)" fill="#fbc89b"/>
            <path id="Trazado_987334" data-name="Trazado 987334" d="M63.186,22.988H22.057l-1.371,1.371v2.088l1.371-1.371H63.186l1.371,1.371V24.359Z" transform="translate(-6.973 3.065)" fill="#d2976a"/>
            <path id="Trazado_987335" data-name="Trazado 987335" d="M63.186,23.544H22.057l-1.371-1.371V20.085l1.371,1.371H63.186l1.371-1.371v2.088Z" transform="translate(-6.973 2.505)" fill="#a66a43"/>
            <path id="Trazado_987336" data-name="Trazado 987336" d="M42.533,37.645V27.8A1.371,1.371,0,0,1,43.9,26.432H54.872A1.371,1.371,0,0,1,56.243,27.8V37.856Z" transform="translate(-2.757 3.73)" fill="#d2976a"/>
            <path id="Trazado_987337" data-name="Trazado 987337" d="M24.133,37.645V27.8A1.371,1.371,0,0,1,25.5,26.432H36.472A1.371,1.371,0,0,1,37.843,27.8V37.856Z" transform="translate(-6.308 3.73)" fill="#d2976a"/>
            <path id="Trazado_987338" data-name="Trazado 987338" d="M37.936,2.3h2.742V46.169H37.936Z" transform="translate(-3.644 -0.927)" fill="#a66a43"/>
            <path id="Trazado_987339" data-name="Trazado 987339" d="M46.627,58.236q3.2.642,6.33,1.582l10.766,2.994A5.328,5.328,0,0,0,70.4,56.754L67.755,41.79c-.491-2.318-1.578-4.661-3.918-5.437l-3.774-1.259a27.42,27.42,0,0,0-17.58-.2l-2.376.731a17.3,17.3,0,0,1-12.825-1.061l-3.194-1.84A3.792,3.792,0,0,0,18.4,36.01v9.871Z" transform="translate(-7.414 4.845)" fill="#e2e7f7"/>
            <path id="Trazado_987340" data-name="Trazado 987340" d="M25.517,5.749H36.485A1.371,1.371,0,0,1,37.856,7.12V20.83A1.371,1.371,0,0,1,36.485,22.2H25.517a1.371,1.371,0,0,1-1.371-1.371V7.12a1.371,1.371,0,0,1,1.371-1.371Z" transform="translate(-6.305 -0.261)" fill="#a66a43"/>
            <path id="Trazado_987341" data-name="Trazado 987341" d="M43.9,5.749H54.872A1.371,1.371,0,0,1,56.243,7.12V20.83A1.371,1.371,0,0,1,54.872,22.2H43.9a1.371,1.371,0,0,1-1.371-1.371V7.12A1.371,1.371,0,0,1,43.9,5.749Z" transform="translate(-2.757 -0.261)" fill="#a66a43"/>
            <path id="Trazado_987342" data-name="Trazado 987342" d="M67.738,41.789c-.491-2.318-1.578-4.661-3.918-5.437l-3.774-1.259a27.42,27.42,0,0,0-17.58-.2l-2.376.731a17.3,17.3,0,0,1-12.825-1.061l-3.194-1.84a3.776,3.776,0,0,0-5.585,2.532,11.044,11.044,0,0,0,6.866,2.4A11.076,11.076,0,0,1,30.3,38.824l13.553,6.782A11.066,11.066,0,0,1,48.8,50.552l.365.729a11.07,11.07,0,0,0,6.57,5.607l13.445,4.25a5.27,5.27,0,0,0,1.193-4.387Z" transform="translate(-7.398 4.846)" fill="#f6f8ff"/>
            <path id="Trazado_987343" data-name="Trazado 987343" d="M51.129,58.61a5.16,5.16,0,0,0-5.16,5.16v1.695H61.085a1.371,1.371,0,0,0,1.35-1.371V58.61Z" transform="translate(-2.094 9.939)" fill="#c64635"/>
            <path id="Trazado_987344" data-name="Trazado 987344" d="M18.3,45.208l-6.63-6.631a2.907,2.907,0,0,1,2.058-4.964h0a2.909,2.909,0,0,1,2.056.851l6.9,6.9" transform="translate(-8.876 5.115)" fill="#a66a43"/>
            <path id="Trazado_987345" data-name="Trazado 987345" d="M18.218,41.811a8.165,8.165,0,0,0-.935,10.5A7.748,7.748,0,0,1,18.5,54.964a22.974,22.974,0,0,0,2.084,5.421A22.621,22.621,0,0,0,40.6,71.88h3.769l3.29,1.323a1.557,1.557,0,0,0,1.965-1.965L48.3,67.949V64.181A22.621,22.621,0,0,0,36.8,44.165a22.771,22.771,0,0,0-5.421-2.083,7.748,7.748,0,0,1-2.653-1.213,8.168,8.168,0,0,0-10.5.935" transform="translate(-7.916 6.229)" fill="#d2976a"/>
            <path id="Trazado_987346" data-name="Trazado 987346" d="M47.872,67.957l-.007-3.767a22.621,22.621,0,0,0-11.5-20.016,22.771,22.771,0,0,0-5.421-2.083A7.748,7.748,0,0,1,28.3,40.878a8.122,8.122,0,0,0-9.031-.2,8.122,8.122,0,0,0,.2,9.032,7.762,7.762,0,0,1,1.212,2.653,22.92,22.92,0,0,0,2.083,5.421,22.621,22.621,0,0,0,20.016,11.5h3.767l2.213.891Z" transform="translate(-7.493 6.232)" fill="#fbc89b"/>
            <path id="Trazado_987347" data-name="Trazado 987347" d="M38.864,55.6A30.4,30.4,0,0,0,30.7,47.069l1.575-2.25a33.155,33.155,0,0,1,8.9,9.3Z" transform="translate(-5.041 7.278)" fill="#d2976a"/>
            <path id="Trazado_987348" data-name="Trazado 987348" d="M41.592,67.123,35,63.115A31.856,31.856,0,0,1,24.273,52.385L20.264,45.8l1.94-1.939,6.589,4.007A31.865,31.865,0,0,1,39.523,58.6l4,6.589Z" transform="translate(-7.054 7.092)" fill="#d2976a"/>
            <path id="Trazado_987349" data-name="Trazado 987349" d="M30.531,64.767a33.15,33.15,0,0,1-9.3-8.9l2.244-1.577a30.407,30.407,0,0,0,8.533,8.17Z" transform="translate(-6.868 9.105)" fill="#a66a43"/>
            <path id="Trazado_987350" data-name="Trazado 987350" d="M70.874,47.5a9.242,9.242,0,0,0-2.713-5.218V28.569a1.371,1.371,0,0,0-.4-.969l-.4-.4.4-.4a1.371,1.371,0,0,0,.4-.969V5.262a4.113,4.113,0,0,0-4.113-4.113H25.661a4.113,4.113,0,0,0-4.113,4.113V25.827a1.371,1.371,0,0,0,.4.969l.406.4-.4.4a1.371,1.371,0,0,0-.4.969v8.87c-.053.029-.108.049-.16.08a5.1,5.1,0,0,0-2.565,4.224L16.5,39.412a4.279,4.279,0,0,0-6.051,6.051l5.969,5.969a9.431,9.431,0,0,0,1.024,9.037,6.362,6.362,0,0,1,.973,2.056,1.124,1.124,0,0,0,.026.137c.1.424.225.843.351,1.26l.018,11.258a2.732,2.732,0,0,0,1.371,2.361V82.01a4.069,4.069,0,0,0,3.984,4.139H65.548a4.068,4.068,0,0,0,3.984-4.139V77.542A2.732,2.732,0,0,0,70.9,75.181V69.027c.177-.137.363-.248.528-.4a6.666,6.666,0,0,0,2.095-6.124Zm-9.568-8A29.582,29.582,0,0,0,50.338,38.25V32.681H61.306Zm0-9.558H50.338A2.742,2.742,0,0,0,47.6,32.681v5.942c-.458.084-.917.166-1.371.274V28.569h18.63l.568.568v11.7l-1.371-.457v-7.7A2.742,2.742,0,0,0,61.31,29.94h0ZM65.419,5.262v20l-.563.568H46.225V3.891H64.048A1.371,1.371,0,0,1,65.419,5.262Zm-41.129,0a1.371,1.371,0,0,1,1.371-1.371H43.483V25.827H24.857l-.568-.568Zm.568,23.306H43.483V39.684l-1.371.421V32.681a2.742,2.742,0,0,0-2.742-2.742H28.4a2.742,2.742,0,0,0-2.742,2.742v4.439a5.1,5.1,0,0,0-1.371-.274v-7.71ZM39.371,40.78a15.774,15.774,0,0,1-9.628-1.418L28.4,38.589V32.681H39.371ZM21.548,41.989a2.421,2.421,0,0,1,3.63-2.1l3.266,1.882a18.6,18.6,0,0,0,13.847,1.146l2.41-.742a25.937,25.937,0,0,1,16.709.206l3.77,1.264c1.481.494,2.494,1.981,3,4.375L70.825,62.98a3.957,3.957,0,0,1-4.957,4.5L55.134,64.492c-1.865-.559-3.77-1.032-5.674-1.437a23.182,23.182,0,0,0-10.74-12.717,24.215,24.215,0,0,0-5.751-2.21,6.352,6.352,0,0,1-2.183-1,9.427,9.427,0,0,0-7.979-1.408l-1.259-1.259Zm-9.162,1.542a1.538,1.538,0,1,1,2.174-2.174l5.581,5.583a9.711,9.711,0,0,0-1.618,1.278,9.692,9.692,0,0,0-.662.791Zm8.076,6.623a6.863,6.863,0,0,1,4.853-2.026,6.674,6.674,0,0,1,3.88,1.234,9.065,9.065,0,0,0,3.127,1.429,20.69,20.69,0,0,1,15.87,20.778l.007,3.767a1.372,1.372,0,0,0,.1.51l1.291,3.2a.167.167,0,0,1-.045.188c-.073.074-.137.059-.115.073l-3.275-1.319a1.351,1.351,0,0,0-.51-.1H41.877A21.187,21.187,0,0,1,23.061,67.116a21.478,21.478,0,0,1-1.933-4.963,1.064,1.064,0,0,0-.026-.137,9.081,9.081,0,0,0-1.427-3.123,6.772,6.772,0,0,1,.787-8.739Zm1.086,25.027v-5.27a22.62,22.62,0,0,0,4.737,5.27Zm44,8.226H24.161a1.328,1.328,0,0,1-1.242-1.4V77.923H30.5a25.145,25.145,0,0,0,11.372,2.7h3.5L48.5,81.884a2.926,2.926,0,0,0,3.659-3.778l-.071-.182h14.7V82.01a1.328,1.328,0,0,1-1.242,1.4Zm2.613-8.226H50.985l-.045-.114v-3.5a25.612,25.612,0,0,0-.617-5.5c1.355.319,2.708.665,4.051,1.067l10.755,3a6.778,6.778,0,0,0,1.81.248,6.579,6.579,0,0,0,1.219-.114Z" transform="translate(-9.191 -1.149)"/>
            <path id="Trazado_987351" data-name="Trazado 987351" d="M25.739,23.79H36.706a2.742,2.742,0,0,0,2.742-2.742V7.339A2.742,2.742,0,0,0,36.706,4.6H25.739A2.742,2.742,0,0,0,23,7.339v13.71a2.742,2.742,0,0,0,2.742,2.742Zm0-16.452H36.706v13.71H25.739Z" transform="translate(-6.527 -0.484)"/>
            <path id="Trazado_987352" data-name="Trazado 987352" d="M44.126,23.79H55.094a2.742,2.742,0,0,0,2.742-2.742V7.339A2.742,2.742,0,0,0,55.094,4.6H44.126a2.742,2.742,0,0,0-2.742,2.742v13.71A2.742,2.742,0,0,0,44.126,23.79Zm0-16.452H55.094v13.71H44.126Z" transform="translate(-2.979 -0.484)"/>
            <path id="Trazado_987353" data-name="Trazado 987353" d="M38.153,59.493l4.009,6.589L44.5,64.663,40.5,58.068a33.1,33.1,0,0,0-11.19-11.19l-6.589-4.007-1.424,2.343,6.589,4.007A30.4,30.4,0,0,1,38.153,59.493Z" transform="translate(-6.856 6.902)"/>
            <path id="Trazado_987354" data-name="Trazado 987354" d="M38.864,55.6l2.31-1.478a33.155,33.155,0,0,0-8.9-9.3L30.7,47.063A30.421,30.421,0,0,1,38.864,55.6Z" transform="translate(-5.041 7.278)"/>
            <path id="Trazado_987355" data-name="Trazado 987355" d="M34.48,64.086l6.589,4.006,1.424-2.343L35.9,61.743A30.41,30.41,0,0,1,25.629,51.47l-4.007-6.589-2.343,1.424,4.009,6.59A33.124,33.124,0,0,0,34.48,64.086Z" transform="translate(-7.245 7.29)"/>
            <path id="Trazado_987356" data-name="Trazado 987356" d="M23.476,54.286l-2.244,1.577a33.15,33.15,0,0,0,9.3,8.9l1.478-2.3A30.4,30.4,0,0,1,23.476,54.286Z" transform="translate(-6.868 9.105)"/>
          </g>
        </g>
      </g>
      <path id="Trazado_952692" data-name="Trazado 952692" d="M32.562,147.506s-.3,7.427-6.242,8.133c0,0,6.375,1.9,7.079,8.155,0,0,1.594-7.576,5.878-8.2,0,0-4.968-.993-6.715-8.091" transform="translate(446.27 6304.708)" fill="#6b0b0c"/>
      <path id="Trazado_952694" data-name="Trazado 952694" d="M73.431,81.707s-.459,11.32-9.513,12.4c0,0,9.717,2.9,10.789,12.429,0,0,2.429-11.546,8.959-12.492,0,0-7.571-1.514-10.235-12.332" transform="translate(336.63 6447.624)" fill="#6b0b0c"/>
    </g>
  </g>
</svg>
