<svg xmlns="http://www.w3.org/2000/svg" xmlns:xlink="http://www.w3.org/1999/xlink" width="72.5" height="68" viewBox="0 0 72.5 68">
  <defs>
    <clipPath id="clip-path">
      <rect id="Rectángulo_403973" data-name="Rectángulo 403973" width="59" height="45.333" fill="none"/>
    </clipPath>
    <clipPath id="clip-path-3">
      <rect id="Rectángulo_403970" data-name="Rectángulo 403970" width="40.381" height="23.861" fill="none"/>
    </clipPath>
    <clipPath id="clip-path-4">
      <rect id="Rectángulo_403971" data-name="Rectángulo 403971" width="46.316" height="27.369" fill="none"/>
    </clipPath>
    <clipPath id="clip-path-5">
      <path id="Trazado_987876" data-name="Trazado 987876" d="M13.5,26.719a4.87,4.87,0,0,0-.7.077c-2.522.461-4.2,2.867-4.66,3.727,1.61,3.905,4.674,6.2,7.915,8.619.448.336.9.674,1.354,1.02,6.342,4.837,14.3,6.972,19.73,8.158,2,.437,6.093,1.049,8.709.571a5.033,5.033,0,0,0,1.287-.39,1.341,1.341,0,0,0,.139-.317c.348-1.244-2.067-7.078-7.171-11.632A37.17,37.17,0,0,0,26.55,29.135c-2.335-.62-10.447-2.419-12.892-2.419-.055,0-.108,0-.157,0" transform="translate(-8.146 -26.716)" fill="none"/>
    </clipPath>
  </defs>
  <g id="Grupo_1103750" data-name="Grupo 1103750" transform="translate(13480.5 11903.629)">
    <g id="Grupo_1103649" data-name="Grupo 1103649" transform="translate(-14768 -12176.629)">
      <circle id="Elipse_11618" data-name="Elipse 11618" cx="34" cy="34" r="34" transform="translate(1287.5 273)" fill="#ffd839"/>
      <g id="Grupo_1103624" data-name="Grupo 1103624" transform="translate(1301 290)">
        <g id="Grupo_1103623" data-name="Grupo 1103623" clip-path="url(#clip-path)">
          <g id="Grupo_1103620" data-name="Grupo 1103620" transform="translate(0 0)">
            <g id="Grupo_1103619" data-name="Grupo 1103619" clip-path="url(#clip-path)">
              <g id="Grupo_1103615" data-name="Grupo 1103615" transform="translate(0 21.472)" opacity="0.7" style="mix-blend-mode: multiply;isolation: isolate">
                <g id="Grupo_1103614" data-name="Grupo 1103614">
                  <g id="Grupo_1103613" data-name="Grupo 1103613" clip-path="url(#clip-path-3)">
                    <path id="Trazado_987695" data-name="Trazado 987695" d="M32.956,39.727a37.978,37.978,0,0,0-13.838-7.566c-1.993-.53-10.813-2.531-13.25-2.438-2.315.088-6.652,2.443-5.745,5.219,1.359,4.159,6,6.955,9.272,9.448,5.825,4.442,12.953,6.744,20,8.282a32.284,32.284,0,0,0,5.845.9c1.223.038,4.661.02,5.092-1.521.465-1.66-2.231-7.735-7.374-12.324" transform="translate(0 -29.719)" fill="#4c5989"/>
                  </g>
                </g>
              </g>
              <g id="Grupo_1103618" data-name="Grupo 1103618" transform="translate(8.677 7.867)" opacity="0.7" style="mix-blend-mode: multiply;isolation: isolate">
                <g id="Grupo_1103617" data-name="Grupo 1103617">
                  <g id="Grupo_1103616" data-name="Grupo 1103616" clip-path="url(#clip-path-4)">
                    <path id="Trazado_987696" data-name="Trazado 987696" d="M49.81,22.368A43.548,43.548,0,0,0,33.937,13.69c-2.285-.608-12.4-2.9-15.2-2.8-2.656.1-7.631,2.8-6.591,5.986,1.558,4.77,6.885,7.977,10.634,10.837,6.681,5.1,14.858,7.736,22.938,9.5a36.936,36.936,0,0,0,6.7,1.034c1.4.043,5.347.023,5.841-1.744.532-1.905-2.558-8.873-8.457-14.136" transform="translate(-12.01 -10.889)" fill="#4c5989"/>
                  </g>
                </g>
              </g>
              <path id="Trazado_987697" data-name="Trazado 987697" d="M20.411,1.906c-.685-.025-1.724.944-1.23,1.843A7.956,7.956,0,0,0,20.4,4.906L22.086,3.02c-.341-.347-1.189-1.1-1.675-1.114" transform="translate(-5.287 -0.529)" fill="#7c5e46"/>
              <path id="Trazado_987698" data-name="Trazado 987698" d="M57.742,15.967a44.433,44.433,0,0,0-14.83-10.98C40.687,4.055,38.318,3.521,36.05,2.7c-2.681-.972-5.268-2.359-8.1-2.654C25.16-.246,21.952.9,20.929,3.486c-.834.287-1.222,1.906-1.165,2.81.423,6.6,6.275,10.89,9.761,14.812C41.861,34.983,62.161,36.4,64.321,31.43c.8-1.85-1.35-9.322-6.578-15.463" transform="translate(-5.483 0)" fill="#83413d"/>
              <path id="Trazado_987699" data-name="Trazado 987699" d="M60.043,33.236c-2.346-.054-6.206-1.648-8.4-2.453-7.919-2.907-14.662-6.255-20.7-12.334-4.063-4.089-9.356-6.705-10.748-12.58a4.391,4.391,0,0,0-.427,2.057c.423,6.6,6.274,10.89,9.761,14.811,11.7,13.16,30.553,15.112,34.309,11.035-.806-.637-3.1-.52-3.791-.536" transform="translate(-5.483 -1.629)" fill="#68302f"/>
              <path id="Trazado_987700" data-name="Trazado 987700" d="M52.215,35.681c-2.173-.717-4.349-1.476-6.465-2.35-4.06-1.678-8.342-3.678-11.633-6.64a97.084,97.084,0,0,1-9.294-9.466c-1.316-1.566-2.546-3.268-3.7-4.953a11.986,11.986,0,0,1-1.194-2.135c.923,6.027,6.344,10.071,9.646,13.785,8.778,9.873,21.583,13.438,29.017,12.88a27.768,27.768,0,0,1-6.372-1.121" transform="translate(-5.529 -2.813)" fill="#5b2727"/>
              <path id="Trazado_987701" data-name="Trazado 987701" d="M33.678,4.669C26.623,2.022,24.505.86,22.129,2.005a1.806,1.806,0,0,0-1.1,1.834c.243,1.248,4.917,4.055,8.033,5.666,13.162,6.8,17.306,10.145,18.544,11.159C52.232,24.454,60.7,30.371,63.4,31.512a.318.318,0,0,0,.439-.34c-.5-3.159-6.811-14.25-16.051-20.93-3.269-2.363-4.294-2.508-10.552-4.628-1.186-.4-2.37-.5-3.552-.945" transform="translate(-5.83 -0.434)" fill="#914844"/>
              <path id="Trazado_987702" data-name="Trazado 987702" d="M63.845,30.743A53.382,53.382,0,0,0,59.6,24.2C49.23,10.492,42.606,11.176,33.09,6.37c-2.875-1.452-5.52-2.991-8.754-3.425-.837-.113-1.045.432-.41.892.987.715,13.276,5.12,25.007,13.121A83.648,83.648,0,0,1,63.845,30.743" transform="translate(-6.537 -0.813)" fill="#a55553"/>
              <path id="Trazado_987703" data-name="Trazado 987703" d="M40.208,35.78A37.984,37.984,0,0,0,26.37,28.214c-1.993-.53-10.813-2.531-13.249-2.438-3.827.145-5.973,4.147-6.088,4.493a3.767,3.767,0,0,0-.108,1.756c1.129,5.541,6.583,8.488,9.993,11.4C28.981,53.734,46.334,52.568,47.581,48.1c.465-1.66-2.231-7.735-7.374-12.324" transform="translate(-1.906 -7.152)" fill="#efb48c"/>
              <path id="Trazado_987704" data-name="Trazado 987704" d="M36.645,50.438c-7.044-1.537-14.173-3.839-20-8.282-3.917-2.987-7.736-5.4-9.6-10.209a3.746,3.746,0,0,0-.121,1.791c1.129,5.541,6.583,8.488,9.993,11.4,11.441,9.777,27.632,9.23,30.336,5.339-2.564,1.415-8.659.384-10.609-.041" transform="translate(-1.906 -8.866)" fill="#68302f"/>
              <path id="Trazado_987705" data-name="Trazado 987705" d="M37.567,53.47c-1.924-.353-3.854-.742-5.748-1.235-3.633-.947-7.492-2.141-10.624-4.265a83.028,83.028,0,0,1-8.973-6.93c-1.3-1.172-2.537-2.469-3.715-3.761A10.253,10.253,0,0,1,7.247,35.61c1.485,5,6.546,7.786,9.775,10.545,8.585,7.335,19.842,8.859,26.071,7.52a23.736,23.736,0,0,1-5.526-.205" transform="translate(-2.011 -9.882)" fill="#5b2727"/>
              <path id="Trazado_987706" data-name="Trazado 987706" d="M45.853,48.891c-2.616.478-6.705-.134-8.709-.571C31.712,47.133,23.757,45,17.415,40.162c-.454-.346-.906-.684-1.355-1.019-3.24-2.423-6.3-4.714-7.914-8.62.465-.86,2.138-3.266,4.66-3.727a4.88,4.88,0,0,1,.7-.076c2.233-.085,10.662,1.782,13.048,2.416a37.186,37.186,0,0,1,13.56,7.416c5.1,4.555,7.518,10.389,7.171,11.632a1.346,1.346,0,0,1-.139.318,5.091,5.091,0,0,1-1.287.39" transform="translate(-2.261 -7.414)" fill="#c78f66"/>
            </g>
          </g>
          <g id="Grupo_1103622" data-name="Grupo 1103622" transform="translate(5.885 19.302)">
            <g id="Grupo_1103621" data-name="Grupo 1103621" clip-path="url(#clip-path-5)">
              <path id="Trazado_987707" data-name="Trazado 987707" d="M45.813,48.212c.354-.454-.242-1.28-.914-1.7.626-.282.132-1.2-.5-1.7.681-.374-.262-1.912-1.9-2.09a3.036,3.036,0,0,0-.871-.608c.29-.454-.43-1.217-1.116-1.491.275-.446-.413-1.181-1.011-1.459a2.133,2.133,0,0,0-1.586-1.186,2.871,2.871,0,0,0-1.4-.9c.543-.7-1.014-2.273-2.519-2.117a3.976,3.976,0,0,1-.748.027,2.654,2.654,0,0,0-1.608-1.042c-.077-.014-1.052-.007-1.006.072a3.094,3.094,0,0,0-2.1-1.658,2.786,2.786,0,0,0-3.059-1.349,2.678,2.678,0,0,0-.6-.073c-.733-.586-2.472-.982-2.52-.156a1.755,1.755,0,0,0-.338,0,2.241,2.241,0,0,0-2.017-.6,2.255,2.255,0,0,0-1.8-.631c-.756-.427-2.022-.51-1.737.311a2.389,2.389,0,0,0-.592-.288c-.043-.014-.227-.405-.28-.466-.784-.9-2.242-.912-2.514-.526-.019.027-.037.059-.069.068a4.259,4.259,0,0,1-.944-.366c-1.178-.409-1.981.047-1.931,1.338-.931-.274-1.527.256-1.006.993-.741-.243-1.566-.182-1.294.556a1.48,1.48,0,0,0-1.933,1.414,4.044,4.044,0,0,0,.466,1.826,17.359,17.359,0,0,0,7.535,8.606c.761.389,1.558.7,2.353,1.014l8.134,3.188c2.532.992,5.024,2.12,7.623,2.911l4.034,1.228c.746.226,1.492.454,2.254.616a13.66,13.66,0,0,0,5.489.035c4.55-.907,3.185-3.236,2.019-3.8" transform="translate(-7.524 -27.112)" fill="#68302f"/>
              <path id="Trazado_987708" data-name="Trazado 987708" d="M51.153,47.353c-.616.026-.541.585-.24.906a3.885,3.885,0,0,0,2.1.838c.7-.268-.255-1.813-1.859-1.744" transform="translate(-19.951 -32.442)" fill="#7c3731"/>
              <path id="Trazado_987709" data-name="Trazado 987709" d="M53.06,48.925a3.631,3.631,0,0,1-1.967-.785c-.213-.227-.3-.58-.089-.751-.444.108-.363.59-.09.88a3.885,3.885,0,0,0,2.1.839.345.345,0,0,0,.23-.347.32.32,0,0,1-.183.164" transform="translate(-19.952 -32.453)" fill="#68302f"/>
              <path id="Trazado_987710" data-name="Trazado 987710" d="M35.2,43.676c-.817.035-.717.776-.318,1.2a5.144,5.144,0,0,0,2.783,1.112c.933-.355-.338-2.4-2.465-2.313" transform="translate(-15.483 -31.422)" fill="#83413d"/>
              <path id="Trazado_987711" data-name="Trazado 987711" d="M37.734,45.76a4.821,4.821,0,0,1-2.609-1.042c-.282-.3-.4-.769-.118-1-.59.144-.481.782-.119,1.168A5.144,5.144,0,0,0,37.671,46a.457.457,0,0,0,.306-.459.426.426,0,0,1-.243.217" transform="translate(-15.485 -31.436)" fill="#68302f"/>
              <path id="Trazado_987712" data-name="Trazado 987712" d="M20.779,29.553c-.618.027-.543.587-.241.909a3.894,3.894,0,0,0,2.107.842c.707-.269-.256-1.819-1.866-1.751" transform="translate(-11.522 -27.503)" fill="#83413d"/>
              <path id="Trazado_987713" data-name="Trazado 987713" d="M22.694,31.131a3.645,3.645,0,0,1-1.975-.789c-.214-.228-.306-.582-.09-.753-.446.108-.364.592-.09.884a3.889,3.889,0,0,0,2.107.841.345.345,0,0,0,.231-.348.323.323,0,0,1-.184.165" transform="translate(-11.523 -27.513)" fill="#68302f"/>
              <path id="Trazado_987714" data-name="Trazado 987714" d="M36.931,52.468c-.788.034-.692.748-.307,1.159A4.961,4.961,0,0,0,39.309,54.7c.9-.342-.326-2.318-2.378-2.231" transform="translate(-15.968 -33.862)" fill="#83413d"/>
              <path id="Trazado_987715" data-name="Trazado 987715" d="M39.371,54.479a4.655,4.655,0,0,1-2.517-1c-.273-.29-.39-.743-.114-.961-.569.139-.465.755-.115,1.127a4.961,4.961,0,0,0,2.685,1.072.44.44,0,0,0,.295-.443.412.412,0,0,1-.234.21" transform="translate(-15.97 -33.875)" fill="#68302f"/>
              <path id="Trazado_987716" data-name="Trazado 987716" d="M58.241,55.243c-.851.036-.747.808-.332,1.251a5.359,5.359,0,0,0,2.9,1.157c.972-.369-.352-2.5-2.568-2.408" transform="translate(-21.869 -34.632)" fill="#83413d"/>
              <path id="Trazado_987717" data-name="Trazado 987717" d="M60.876,57.414a5.016,5.016,0,0,1-2.717-1.085c-.294-.313-.42-.8-.123-1.037-.613.15-.5.815-.124,1.217a5.359,5.359,0,0,0,2.9,1.157.477.477,0,0,0,.318-.478.443.443,0,0,1-.253.226" transform="translate(-21.871 -34.646)" fill="#68302f"/>
              <path id="Trazado_987718" data-name="Trazado 987718" d="M42.544,50.366c-.68.029-.6.645-.264,1a4.276,4.276,0,0,0,2.316.925c.777-.3-.281-2-2.051-1.924" transform="translate(-17.549 -33.279)" fill="#7c3f2f"/>
              <path id="Trazado_987719" data-name="Trazado 987719" d="M44.649,52.1a4.012,4.012,0,0,1-2.17-.867c-.236-.25-.336-.639-.1-.828-.491.119-.4.651-.1.972A4.282,4.282,0,0,0,44.6,52.3a.381.381,0,0,0,.254-.382.353.353,0,0,1-.2.181" transform="translate(-17.55 -33.29)" fill="#68302f"/>
              <path id="Trazado_987720" data-name="Trazado 987720" d="M15.653,38.217c-.675.029-.592.641-.262.991a4.246,4.246,0,0,0,2.3.918c.77-.293-.279-1.984-2.035-1.909" transform="translate(-10.087 -29.907)" fill="#83413d"/>
              <path id="Trazado_987721" data-name="Trazado 987721" d="M17.741,39.938a3.98,3.98,0,0,1-2.154-.86c-.233-.249-.333-.635-.1-.822-.486.118-.4.646-.1.965a4.246,4.246,0,0,0,2.3.918.377.377,0,0,0,.252-.379.351.351,0,0,1-.2.179" transform="translate(-10.089 -29.919)" fill="#68302f"/>
              <path id="Trazado_987722" data-name="Trazado 987722" d="M27.095,39.5c-.76.033-.668.722-.3,1.118a4.788,4.788,0,0,0,2.591,1.035c.868-.33-.315-2.237-2.295-2.152" transform="translate(-13.245 -30.264)" fill="#7c3731"/>
              <path id="Trazado_987723" data-name="Trazado 987723" d="M29.449,41.444a4.486,4.486,0,0,1-2.428-.97c-.263-.28-.376-.716-.109-.926-.549.134-.449.728-.111,1.087a4.788,4.788,0,0,0,2.59,1.035.426.426,0,0,0,.284-.428.391.391,0,0,1-.225.2" transform="translate(-13.246 -30.277)" fill="#68302f"/>
              <path id="Trazado_987724" data-name="Trazado 987724" d="M46.911,45.333c-.857.037-.752.814-.334,1.259A5.4,5.4,0,0,0,49.5,47.757c.978-.372-.355-2.52-2.585-2.425" transform="translate(-18.724 -31.882)" fill="#83413d"/>
              <path id="Trazado_987725" data-name="Trazado 987725" d="M49.563,47.519a5.052,5.052,0,0,1-2.735-1.092c-.3-.315-.423-.806-.124-1.043-.618.15-.505.82-.125,1.224A5.393,5.393,0,0,0,49.5,47.772a.478.478,0,0,0,.32-.482.444.444,0,0,1-.254.228" transform="translate(-18.725 -31.896)" fill="#68302f"/>
              <path id="Trazado_987726" data-name="Trazado 987726" d="M26.7,50.362c-.615.026-.54.584-.239.9a3.865,3.865,0,0,0,2.094.836c.7-.267-.254-1.808-1.855-1.74" transform="translate(-13.166 -33.278)" fill="#83413d"/>
              <path id="Trazado_987727" data-name="Trazado 987727" d="M28.606,51.931a3.633,3.633,0,0,1-1.963-.784c-.213-.226-.3-.579-.089-.749-.444.108-.362.589-.09.879a3.873,3.873,0,0,0,2.094.837.344.344,0,0,0,.23-.346.32.32,0,0,1-.183.164" transform="translate(-13.167 -33.288)" fill="#68302f"/>
              <path id="Trazado_987728" data-name="Trazado 987728" d="M42.087,47.342c-.746.032-.655.707-.29,1.095a4.685,4.685,0,0,0,2.537,1.014c.85-.324-.309-2.191-2.248-2.108" transform="translate(-17.408 -32.439)" fill="#7c3f2f"/>
              <path id="Trazado_987729" data-name="Trazado 987729" d="M44.392,49.243a4.4,4.4,0,0,1-2.378-.949c-.257-.275-.368-.7-.107-.907-.538.131-.439.713-.109,1.064a4.687,4.687,0,0,0,2.537,1.013.416.416,0,0,0,.278-.418.385.385,0,0,1-.221.2" transform="translate(-17.41 -32.452)" fill="#68302f"/>
              <path id="Trazado_987730" data-name="Trazado 987730" d="M33.641,37.309c-.681.029-.6.647-.265,1a4.284,4.284,0,0,0,2.321.926c.778-.3-.282-2-2.055-1.928" transform="translate(-15.078 -29.655)" fill="#7c3731"/>
              <path id="Trazado_987731" data-name="Trazado 987731" d="M35.749,39.047a4.025,4.025,0,0,1-2.175-.868c-.236-.251-.337-.642-.1-.83-.492.12-.4.652-.1.974a4.284,4.284,0,0,0,2.321.926.381.381,0,0,0,.254-.383.354.354,0,0,1-.2.181" transform="translate(-15.079 -29.667)" fill="#68302f"/>
              <path id="Trazado_987732" data-name="Trazado 987732" d="M49.493,48.849c-.834.035-.733.792-.325,1.225a5.247,5.247,0,0,0,2.84,1.134c.952-.362-.345-2.452-2.515-2.36" transform="translate(-19.445 -32.857)" fill="#7c3731"/>
              <path id="Trazado_987733" data-name="Trazado 987733" d="M52.074,50.976a4.927,4.927,0,0,1-2.662-1.063c-.288-.307-.412-.785-.12-1.016-.6.147-.491.8-.122,1.191a5.254,5.254,0,0,0,2.84,1.134.468.468,0,0,0,.312-.469.435.435,0,0,1-.248.222" transform="translate(-19.447 -32.872)" fill="#68302f"/>
              <path id="Trazado_987734" data-name="Trazado 987734" d="M46.633,42.83c-.782.033-.688.743-.3,1.151A4.927,4.927,0,0,0,49,45.045c.894-.34-.324-2.3-2.362-2.215" transform="translate(-18.662 -31.187)" fill="#7c3731"/>
              <path id="Trazado_987735" data-name="Trazado 987735" d="M49.056,44.826a4.623,4.623,0,0,1-2.5-1c-.271-.288-.387-.737-.113-.954-.564.138-.461.75-.114,1.119A4.927,4.927,0,0,0,49,45.058a.438.438,0,0,0,.293-.44.409.409,0,0,1-.233.208" transform="translate(-18.664 -31.2)" fill="#68302f"/>
              <path id="Trazado_987736" data-name="Trazado 987736" d="M46.022,47.931c-.744.032-.654.707-.29,1.094a4.693,4.693,0,0,0,2.535,1.012c.85-.323-.308-2.189-2.245-2.106" transform="translate(-18.501 -32.603)" fill="#83413d"/>
              <path id="Trazado_987737" data-name="Trazado 987737" d="M48.326,49.829a4.389,4.389,0,0,1-2.376-.949c-.257-.274-.368-.7-.107-.907-.537.131-.439.712-.109,1.063a4.682,4.682,0,0,0,2.535,1.012.417.417,0,0,0,.278-.418.389.389,0,0,1-.221.2" transform="translate(-18.502 -32.615)" fill="#68302f"/>
              <path id="Trazado_987738" data-name="Trazado 987738" d="M55.157,49.836c-.8.034-.7.756-.31,1.17a5.007,5.007,0,0,0,2.711,1.083c.91-.345-.329-2.342-2.4-2.253" transform="translate(-21.025 -33.131)" fill="#7c3731"/>
              <path id="Trazado_987739" data-name="Trazado 987739" d="M57.622,51.867a4.7,4.7,0,0,1-2.542-1.015c-.275-.293-.393-.749-.115-.97-.574.139-.469.762-.116,1.137A5.009,5.009,0,0,0,57.56,52.1a.445.445,0,0,0,.3-.447.413.413,0,0,1-.236.212" transform="translate(-21.026 -33.145)" fill="#68302f"/>
              <path id="Trazado_987740" data-name="Trazado 987740" d="M24.507,48.4c-.616.026-.541.585-.24.905a3.873,3.873,0,0,0,2.1.838c.7-.267-.255-1.812-1.859-1.743" transform="translate(-12.557 -32.733)" fill="#83413d"/>
              <path id="Trazado_987741" data-name="Trazado 987741" d="M26.414,49.972a3.632,3.632,0,0,1-1.967-.785c-.213-.227-.3-.58-.089-.751-.444.108-.363.59-.09.881a3.885,3.885,0,0,0,2.1.838.345.345,0,0,0,.23-.347.316.316,0,0,1-.183.164" transform="translate(-12.558 -32.744)" fill="#68302f"/>
              <path id="Trazado_987742" data-name="Trazado 987742" d="M33.205,49.615c-.769.033-.676.73-.3,1.131a4.843,4.843,0,0,0,2.62,1.046c.879-.334-.318-2.262-2.321-2.177" transform="translate(-14.938 -33.07)" fill="#7c3731"/>
              <path id="Trazado_987743" data-name="Trazado 987743" d="M35.586,51.576a4.535,4.535,0,0,1-2.456-.98c-.267-.283-.381-.725-.111-.937-.555.135-.453.736-.112,1.1a4.839,4.839,0,0,0,2.62,1.046.429.429,0,0,0,.288-.432.4.4,0,0,1-.228.2" transform="translate(-14.94 -33.083)" fill="#68302f"/>
              <path id="Trazado_987744" data-name="Trazado 987744" d="M21.849,41.763c-.72.031-.633.684-.28,1.058a4.531,4.531,0,0,0,2.454.98c.823-.312-.3-2.118-2.173-2.038" transform="translate(-11.797 -30.891)" fill="#7c3f2f"/>
              <path id="Trazado_987745" data-name="Trazado 987745" d="M24.079,43.6a4.25,4.25,0,0,1-2.3-.918c-.249-.265-.356-.678-.1-.878-.519.126-.424.69-.105,1.03a4.533,4.533,0,0,0,2.454.98.4.4,0,0,0,.269-.4.374.374,0,0,1-.214.191" transform="translate(-11.799 -30.903)" fill="#68302f"/>
              <path id="Trazado_987746" data-name="Trazado 987746" d="M39.01,38.188c-.756.033-.664.718-.295,1.112a4.765,4.765,0,0,0,2.577,1.029c.864-.329-.313-2.225-2.282-2.141" transform="translate(-16.552 -29.899)" fill="#7c3f2f"/>
              <path id="Trazado_987747" data-name="Trazado 987747" d="M41.351,40.118a4.463,4.463,0,0,1-2.415-.965c-.262-.278-.374-.712-.109-.921-.545.133-.446.724-.111,1.081a4.765,4.765,0,0,0,2.577,1.029.423.423,0,0,0,.282-.426.392.392,0,0,1-.225.2" transform="translate(-16.553 -29.912)" fill="#68302f"/>
              <path id="Trazado_987748" data-name="Trazado 987748" d="M12.722,39.266c-.629.027-.553.6-.245.925a3.962,3.962,0,0,0,2.144.856c.718-.273-.261-1.851-1.9-1.781" transform="translate(-9.284 -30.198)" fill="#7c3f2f"/>
              <path id="Trazado_987749" data-name="Trazado 987749" d="M14.669,40.872a3.717,3.717,0,0,1-2.009-.8c-.217-.232-.311-.592-.09-.767-.454.111-.371.6-.092.9a3.955,3.955,0,0,0,2.143.856.351.351,0,0,0,.235-.354.324.324,0,0,1-.186.168" transform="translate(-9.285 -30.209)" fill="#68302f"/>
              <path id="Trazado_987750" data-name="Trazado 987750" d="M17.819,30.6c-.806.035-.707.765-.314,1.184a5.072,5.072,0,0,0,2.745,1.1c.92-.35-.333-2.37-2.431-2.28" transform="translate(-10.661 -27.794)" fill="#83413d"/>
              <path id="Trazado_987751" data-name="Trazado 987751" d="M20.312,32.658A4.754,4.754,0,0,1,17.74,31.63c-.278-.3-.4-.759-.116-.981-.582.142-.475.772-.118,1.151a5.068,5.068,0,0,0,2.745,1.1.45.45,0,0,0,.3-.453.418.418,0,0,1-.239.215" transform="translate(-10.662 -27.807)" fill="#68302f"/>
              <path id="Trazado_987752" data-name="Trazado 987752" d="M21.468,45.592c-.79.034-.694.751-.308,1.162a4.971,4.971,0,0,0,2.693,1.075c.9-.343-.327-2.325-2.385-2.237" transform="translate(-11.677 -31.954)" fill="#7c3731"/>
              <path id="Trazado_987753" data-name="Trazado 987753" d="M23.915,47.608A4.662,4.662,0,0,1,21.391,46.6c-.274-.291-.391-.744-.114-.963-.57.139-.466.757-.116,1.13a4.976,4.976,0,0,0,2.693,1.075.442.442,0,0,0,.3-.444.41.41,0,0,1-.235.21" transform="translate(-11.678 -31.967)" fill="#68302f"/>
              <path id="Trazado_987754" data-name="Trazado 987754" d="M53.142,50.714c-.8.035-.707.764-.314,1.183a5.066,5.066,0,0,0,2.742,1.095c.919-.349-.333-2.367-2.428-2.277" transform="translate(-20.464 -33.375)" fill="#83413d"/>
              <path id="Trazado_987755" data-name="Trazado 987755" d="M55.633,52.766a4.748,4.748,0,0,1-2.57-1.026c-.278-.3-.4-.758-.116-.98-.58.142-.474.771-.118,1.15A5.072,5.072,0,0,0,55.572,53a.452.452,0,0,0,.3-.453.418.418,0,0,1-.239.215" transform="translate(-20.465 -33.389)" fill="#68302f"/>
              <path id="Trazado_987756" data-name="Trazado 987756" d="M38.468,35.054c-.681.029-.6.646-.265,1a4.286,4.286,0,0,0,2.318.926c.777-.3-.281-2-2.053-1.925" transform="translate(-16.418 -29.029)" fill="#83413d"/>
              <path id="Trazado_987757" data-name="Trazado 987757" d="M40.575,36.789a4.014,4.014,0,0,1-2.173-.868c-.236-.25-.336-.64-.1-.829-.491.119-.4.652-.1.972a4.286,4.286,0,0,0,2.318.926.382.382,0,0,0,.254-.383.354.354,0,0,1-.2.181" transform="translate(-16.419 -29.041)" fill="#68302f"/>
              <path id="Trazado_987758" data-name="Trazado 987758" d="M15.178,28.616c-.637.027-.559.6-.248.936a4.006,4.006,0,0,0,2.169.866c.728-.276-.263-1.873-1.921-1.8" transform="translate(-9.964 -27.243)" fill="#83413d"/>
              <path id="Trazado_987759" data-name="Trazado 987759" d="M17.149,30.24a3.755,3.755,0,0,1-2.033-.812c-.22-.234-.315-.6-.092-.775-.46.111-.375.61-.093.91a4.006,4.006,0,0,0,2.169.866.357.357,0,0,0,.238-.358.333.333,0,0,1-.189.17" transform="translate(-9.965 -27.254)" fill="#68302f"/>
              <path id="Trazado_987760" data-name="Trazado 987760" d="M35.925,35.9c-.738.032-.649.7-.288,1.086a4.644,4.644,0,0,0,2.516,1c.844-.32-.306-2.173-2.229-2.09" transform="translate(-15.7 -29.265)" fill="#83413d"/>
              <path id="Trazado_987761" data-name="Trazado 987761" d="M38.213,37.789a4.356,4.356,0,0,1-2.359-.942c-.255-.272-.365-.7-.106-.9-.532.129-.435.707-.108,1.056a4.651,4.651,0,0,0,2.516,1,.414.414,0,0,0,.275-.415.385.385,0,0,1-.219.2" transform="translate(-15.701 -29.278)" fill="#68302f"/>
              <path id="Trazado_987762" data-name="Trazado 987762" d="M54.542,53.47c-.873.038-.767.829-.34,1.282a5.5,5.5,0,0,0,2.972,1.187c1-.379-.361-2.566-2.633-2.469" transform="translate(-20.838 -34.14)" fill="#83413d"/>
              <path id="Trazado_987763" data-name="Trazado 987763" d="M57.244,55.7a5.154,5.154,0,0,1-2.787-1.113c-.3-.321-.431-.821-.126-1.063-.629.153-.513.836-.127,1.247a5.5,5.5,0,0,0,2.972,1.187.489.489,0,0,0,.327-.491.454.454,0,0,1-.259.232" transform="translate(-20.84 -34.154)" fill="#68302f"/>
              <path id="Trazado_987764" data-name="Trazado 987764" d="M13.175,29.714c-.868.037-.762.824-.338,1.276a5.469,5.469,0,0,0,2.956,1.181c.991-.377-.358-2.553-2.618-2.456" transform="translate(-9.359 -27.547)" fill="#83413d"/>
              <path id="Trazado_987765" data-name="Trazado 987765" d="M15.863,31.928a5.123,5.123,0,0,1-2.771-1.107c-.3-.319-.428-.816-.125-1.057-.626.152-.511.831-.126,1.241A5.467,5.467,0,0,0,15.8,32.185a.487.487,0,0,0,.324-.488.454.454,0,0,1-.258.231" transform="translate(-9.361 -27.562)" fill="#68302f"/>
              <path id="Trazado_987766" data-name="Trazado 987766" d="M39.687,50.148c-.7.03-.613.663-.272,1.026a4.392,4.392,0,0,0,2.378.95c.8-.3-.289-2.053-2.107-1.976" transform="translate(-16.752 -33.218)" fill="#83413d"/>
              <path id="Trazado_987767" data-name="Trazado 987767" d="M41.848,51.928a4.117,4.117,0,0,1-2.23-.89c-.242-.257-.345-.657-.1-.85-.5.122-.411.668-.1,1a4.4,4.4,0,0,0,2.378.949.39.39,0,0,0,.261-.392.366.366,0,0,1-.207.186" transform="translate(-16.753 -33.23)" fill="#68302f"/>
              <path id="Trazado_987768" data-name="Trazado 987768" d="M20.1,35.575c-.86.037-.755.816-.335,1.264a5.412,5.412,0,0,0,2.929,1.17c.982-.373-.355-2.529-2.594-2.433" transform="translate(-11.282 -29.174)" fill="#7c3f2f"/>
              <path id="Trazado_987769" data-name="Trazado 987769" d="M22.761,37.769a5.076,5.076,0,0,1-2.745-1.1c-.3-.316-.425-.81-.124-1.048-.621.151-.507.824-.126,1.229a5.41,5.41,0,0,0,2.929,1.169.48.48,0,0,0,.321-.483.445.445,0,0,1-.255.229" transform="translate(-11.284 -29.188)" fill="#68302f"/>
              <path id="Trazado_987770" data-name="Trazado 987770" d="M12.75,34.974c-.824.035-.723.782-.321,1.21a5.184,5.184,0,0,0,2.805,1.12c.94-.357-.341-2.422-2.485-2.33" transform="translate(-9.251 -29.007)" fill="#83413d"/>
              <path id="Trazado_987771" data-name="Trazado 987771" d="M15.3,37.074a4.86,4.86,0,0,1-2.629-1.05c-.285-.3-.407-.775-.118-1-.594.145-.486.789-.121,1.177a5.186,5.186,0,0,0,2.805,1.121.461.461,0,0,0,.307-.463.424.424,0,0,1-.244.219" transform="translate(-9.252 -29.021)" fill="#68302f"/>
              <path id="Trazado_987772" data-name="Trazado 987772" d="M24.9,30.8c-.7.03-.613.663-.272,1.026a4.4,4.4,0,0,0,2.378.95c.8-.3-.288-2.053-2.106-1.976" transform="translate(-12.648 -27.848)" fill="#83413d"/>
              <path id="Trazado_987773" data-name="Trazado 987773" d="M27.06,32.578a4.115,4.115,0,0,1-2.229-.89c-.241-.257-.345-.657-.1-.85-.5.123-.411.668-.1,1a4.4,4.4,0,0,0,2.378.949.39.39,0,0,0,.261-.392.363.363,0,0,1-.207.186" transform="translate(-12.65 -27.86)" fill="#68302f"/>
              <path id="Trazado_987774" data-name="Trazado 987774" d="M40.187,54.828c-.668.028-.587.634-.26.982a4.21,4.21,0,0,0,2.277.91c.763-.29-.277-1.966-2.016-1.891" transform="translate(-16.897 -34.517)" fill="#83413d"/>
              <path id="Trazado_987775" data-name="Trazado 987775" d="M42.255,56.533a3.946,3.946,0,0,1-2.135-.852c-.23-.246-.33-.629-.1-.814-.482.117-.393.64-.1.955a4.2,4.2,0,0,0,2.276.909.374.374,0,0,0,.25-.376.348.348,0,0,1-.2.178" transform="translate(-16.898 -34.528)" fill="#68302f"/>
              <path id="Trazado_987776" data-name="Trazado 987776" d="M57.357,52.413c-.7.03-.613.663-.272,1.026a4.394,4.394,0,0,0,2.377.949c.8-.3-.288-2.053-2.105-1.975" transform="translate(-21.656 -33.847)" fill="#83413d"/>
              <path id="Trazado_987777" data-name="Trazado 987777" d="M59.517,54.194a4.113,4.113,0,0,1-2.228-.89c-.241-.256-.345-.657-.1-.85-.5.122-.411.668-.1,1a4.394,4.394,0,0,0,2.378.949.39.39,0,0,0,.261-.392.363.363,0,0,1-.207.186" transform="translate(-21.657 -33.859)" fill="#68302f"/>
              <path id="Trazado_987778" data-name="Trazado 987778" d="M8.775,33.44c-.607.026-.532.576-.236.892a3.816,3.816,0,0,0,2.066.825c.693-.263-.251-1.784-1.83-1.717" transform="translate(-8.193 -28.581)" fill="#7c3731"/>
              <path id="Trazado_987779" data-name="Trazado 987779" d="M10.654,34.988a3.578,3.578,0,0,1-1.937-.774c-.21-.223-.3-.571-.087-.738-.438.106-.358.581-.089.867a3.827,3.827,0,0,0,2.067.825.34.34,0,0,0,.226-.341.315.315,0,0,1-.18.161" transform="translate(-8.194 -28.592)" fill="#68302f"/>
              <path id="Trazado_987780" data-name="Trazado 987780" d="M48.374,53.181c-.774.033-.68.735-.3,1.138a4.87,4.87,0,0,0,2.636,1.053c.884-.336-.32-2.277-2.335-2.191" transform="translate(-19.147 -34.06)" fill="#7c3731"/>
              <path id="Trazado_987781" data-name="Trazado 987781" d="M50.77,55.155a4.564,4.564,0,0,1-2.472-.987c-.267-.285-.382-.728-.111-.943-.558.136-.456.741-.113,1.106a4.87,4.87,0,0,0,2.636,1.053A.432.432,0,0,0,51,54.949a.4.4,0,0,1-.23.206" transform="translate(-19.149 -34.073)" fill="#68302f"/>
              <path id="Trazado_987782" data-name="Trazado 987782" d="M10.151,30.715c-.619.027-.544.588-.241.91a3.906,3.906,0,0,0,2.11.842c.707-.269-.256-1.821-1.868-1.753" transform="translate(-8.572 -27.825)" fill="#7c3731"/>
              <path id="Trazado_987783" data-name="Trazado 987783" d="M12.068,32.295a3.656,3.656,0,0,1-1.977-.79c-.214-.228-.306-.583-.089-.754-.446.109-.365.593-.091.885a3.9,3.9,0,0,0,2.11.842.345.345,0,0,0,.231-.348.321.321,0,0,1-.184.165" transform="translate(-8.573 -27.836)" fill="#68302f"/>
              <path id="Trazado_987784" data-name="Trazado 987784" d="M28.67,47.571c-.706.03-.62.67-.275,1.037a4.448,4.448,0,0,0,2.405.961c.806-.307-.292-2.077-2.13-2" transform="translate(-13.693 -32.503)" fill="#7c3731"/>
              <path id="Trazado_987785" data-name="Trazado 987785" d="M30.856,49.372a4.17,4.17,0,0,1-2.255-.9c-.243-.26-.349-.665-.1-.86-.509.124-.415.676-.1,1.009a4.44,4.44,0,0,0,2.405.96.393.393,0,0,0,.264-.4.365.365,0,0,1-.209.188" transform="translate(-13.694 -32.515)" fill="#68302f"/>
              <path id="Trazado_987786" data-name="Trazado 987786" d="M34.978,46.186c-.746.032-.655.709-.29,1.1A4.7,4.7,0,0,0,37.231,48.3c.853-.324-.309-2.2-2.253-2.113" transform="translate(-15.435 -32.118)" fill="#7c3731"/>
              <path id="Trazado_987787" data-name="Trazado 987787" d="M37.289,48.09a4.4,4.4,0,0,1-2.384-.952c-.258-.275-.368-.7-.108-.909-.538.131-.439.715-.109,1.066a4.7,4.7,0,0,0,2.544,1.016.418.418,0,0,0,.279-.42.387.387,0,0,1-.222.2" transform="translate(-15.436 -32.131)" fill="#68302f"/>
              <path id="Trazado_987788" data-name="Trazado 987788" d="M26.006,33.573c-.735.032-.645.7-.286,1.079a4.621,4.621,0,0,0,2.5,1c.839-.319-.3-2.16-2.217-2.079" transform="translate(-12.948 -28.618)" fill="#7c3731"/>
              <path id="Trazado_987789" data-name="Trazado 987789" d="M28.281,35.448a4.339,4.339,0,0,1-2.346-.936c-.254-.27-.363-.691-.105-.9-.53.129-.433.7-.108,1.05a4.623,4.623,0,0,0,2.5,1,.411.411,0,0,0,.275-.413.382.382,0,0,1-.218.2" transform="translate(-12.949 -28.631)" fill="#68302f"/>
              <path id="Trazado_987790" data-name="Trazado 987790" d="M50.29,51.519c-.858.037-.753.814-.334,1.261a5.393,5.393,0,0,0,2.922,1.166c.98-.372-.355-2.522-2.588-2.427" transform="translate(-19.661 -33.598)" fill="#83413d"/>
              <path id="Trazado_987791" data-name="Trazado 987791" d="M52.945,53.707a5.064,5.064,0,0,1-2.738-1.093c-.3-.316-.424-.808-.124-1.045-.619.151-.506.821-.126,1.226a5.4,5.4,0,0,0,2.922,1.167.48.48,0,0,0,.32-.483.444.444,0,0,1-.254.228" transform="translate(-19.663 -33.613)" fill="#68302f"/>
              <path id="Trazado_987792" data-name="Trazado 987792" d="M33.831,32.948c-.731.031-.642.694-.285,1.075a4.6,4.6,0,0,0,2.492,1c.836-.318-.3-2.152-2.207-2.071" transform="translate(-15.12 -28.445)" fill="#83413d"/>
              <path id="Trazado_987793" data-name="Trazado 987793" d="M36.1,34.813a4.316,4.316,0,0,1-2.336-.933c-.253-.269-.362-.689-.105-.892-.527.129-.431.7-.107,1.046a4.607,4.607,0,0,0,2.492.995.41.41,0,0,0,.274-.412.38.38,0,0,1-.217.2" transform="translate(-15.122 -28.457)" fill="#68302f"/>
              <path id="Trazado_987794" data-name="Trazado 987794" d="M32.31,47.339c-.694.03-.61.659-.27,1.02A4.368,4.368,0,0,0,34.4,49.3c.793-.3-.287-2.041-2.094-1.964" transform="translate(-14.706 -32.438)" fill="#83413d"/>
              <path id="Trazado_987795" data-name="Trazado 987795" d="M34.458,49.109a4.094,4.094,0,0,1-2.216-.885c-.24-.255-.342-.653-.1-.845-.5.122-.409.665-.1.992a4.372,4.372,0,0,0,2.364.944.387.387,0,0,0,.259-.39.359.359,0,0,1-.206.185" transform="translate(-14.707 -32.45)" fill="#68302f"/>
              <path id="Trazado_987796" data-name="Trazado 987796" d="M16.846,33.355c-.756.033-.664.717-.294,1.11a4.763,4.763,0,0,0,2.573,1.028c.863-.328-.312-2.222-2.279-2.139" transform="translate(-10.401 -28.558)" fill="#83413d"/>
              <path id="Trazado_987797" data-name="Trazado 987797" d="M19.185,35.283a4.463,4.463,0,0,1-2.412-.963c-.262-.278-.374-.712-.109-.92-.545.132-.445.723-.111,1.079a4.76,4.76,0,0,0,2.574,1.028.423.423,0,0,0,.282-.425.39.39,0,0,1-.224.2" transform="translate(-10.403 -28.571)" fill="#68302f"/>
              <path id="Trazado_987798" data-name="Trazado 987798" d="M26.968,48.574c-.671.029-.59.637-.262.987a4.227,4.227,0,0,0,2.287.912c.767-.291-.277-1.974-2.025-1.9" transform="translate(-13.228 -32.781)" fill="#83413d"/>
              <path id="Trazado_987799" data-name="Trazado 987799" d="M29.046,50.286A3.959,3.959,0,0,1,26.9,49.43c-.232-.246-.332-.631-.1-.817-.484.118-.4.642-.1.959a4.221,4.221,0,0,0,2.287.913.375.375,0,0,0,.251-.377.348.348,0,0,1-.2.178" transform="translate(-13.229 -32.793)" fill="#68302f"/>
              <path id="Trazado_987800" data-name="Trazado 987800" d="M24.562,39.341c-.656.028-.577.623-.256.965a4.128,4.128,0,0,0,2.235.892c.75-.285-.271-1.93-1.98-1.857" transform="translate(-12.564 -30.219)" fill="#83413d"/>
              <path id="Trazado_987801" data-name="Trazado 987801" d="M26.593,41.015a3.877,3.877,0,0,1-2.1-.837c-.227-.241-.324-.618-.095-.8-.473.115-.387.628-.1.937a4.132,4.132,0,0,0,2.235.893.368.368,0,0,0,.246-.369.341.341,0,0,1-.2.175" transform="translate(-12.565 -30.23)" fill="#68302f"/>
              <path id="Trazado_987802" data-name="Trazado 987802" d="M47.9,41.054c-.72.031-.633.684-.28,1.059a4.531,4.531,0,0,0,2.455.98c.823-.313-.3-2.12-2.175-2.04" transform="translate(-19.026 -30.694)" fill="#7c3731"/>
              <path id="Trazado_987803" data-name="Trazado 987803" d="M50.128,42.893a4.256,4.256,0,0,1-2.3-.919c-.249-.265-.356-.678-.1-.878-.52.126-.425.69-.105,1.03a4.533,4.533,0,0,0,2.456.98.4.4,0,0,0,.269-.405.37.37,0,0,1-.214.192" transform="translate(-19.027 -30.707)" fill="#68302f"/>
              <path id="Trazado_987804" data-name="Trazado 987804" d="M38.23,46.958c-.809.035-.71.768-.315,1.189a5.1,5.1,0,0,0,2.756,1.1c.924-.351-.335-2.38-2.441-2.29" transform="translate(-16.325 -32.333)" fill="#83413d"/>
              <path id="Trazado_987805" data-name="Trazado 987805" d="M40.735,49.022a4.777,4.777,0,0,1-2.583-1.032c-.28-.3-.4-.762-.117-.985-.583.142-.476.775-.118,1.156a5.094,5.094,0,0,0,2.756,1.1.453.453,0,0,0,.3-.455.419.419,0,0,1-.24.215" transform="translate(-16.326 -32.346)" fill="#68302f"/>
              <path id="Trazado_987806" data-name="Trazado 987806" d="M21.266,33.653c-.658.028-.578.625-.256.967a4.141,4.141,0,0,0,2.243.9c.752-.286-.272-1.936-1.986-1.863" transform="translate(-11.649 -28.64)" fill="#7c3731"/>
              <path id="Trazado_987807" data-name="Trazado 987807" d="M23.305,35.332a3.885,3.885,0,0,1-2.1-.84c-.228-.242-.325-.62-.095-.8-.475.116-.388.631-.1.941a4.141,4.141,0,0,0,2.243.9.369.369,0,0,0,.246-.371.343.343,0,0,1-.2.176" transform="translate(-11.65 -28.652)" fill="#68302f"/>
              <path id="Trazado_987808" data-name="Trazado 987808" d="M24.44,45c-.83.035-.73.789-.324,1.22a5.222,5.222,0,0,0,2.829,1.13c.949-.361-.343-2.443-2.506-2.35" transform="translate(-12.493 -31.79)" fill="#83413d"/>
              <path id="Trazado_987809" data-name="Trazado 987809" d="M27.012,47.123a4.9,4.9,0,0,1-2.652-1.059c-.288-.306-.41-.782-.12-1.011-.6.146-.489.8-.121,1.187a5.226,5.226,0,0,0,2.829,1.129.464.464,0,0,0,.31-.467.431.431,0,0,1-.246.221" transform="translate(-12.495 -31.804)" fill="#68302f"/>
              <path id="Trazado_987810" data-name="Trazado 987810" d="M54.344,57.626c-.781.033-.686.741-.3,1.148a4.918,4.918,0,0,0,2.66,1.062c.892-.34-.323-2.3-2.356-2.21" transform="translate(-20.802 -35.293)" fill="#83413d"/>
              <path id="Trazado_987811" data-name="Trazado 987811" d="M56.761,59.618a4.609,4.609,0,0,1-2.493-1c-.27-.288-.386-.735-.113-.952-.563.137-.459.748-.113,1.116A4.916,4.916,0,0,0,56.7,59.849a.436.436,0,0,0,.292-.439.405.405,0,0,1-.232.208" transform="translate(-20.804 -35.306)" fill="#68302f"/>
              <path id="Trazado_987812" data-name="Trazado 987812" d="M10.458,36.641c-.668.029-.586.634-.26.981a4.2,4.2,0,0,0,2.274.907c.762-.29-.276-1.963-2.014-1.889" transform="translate(-8.647 -29.47)" fill="#7c3731"/>
              <path id="Trazado_987813" data-name="Trazado 987813" d="M12.524,38.343a3.94,3.94,0,0,1-2.131-.851c-.23-.246-.329-.628-.1-.813-.481.117-.393.639-.1.954a4.206,4.206,0,0,0,2.274.908.374.374,0,0,0,.249-.376.344.344,0,0,1-.2.178" transform="translate(-8.648 -29.481)" fill="#68302f"/>
              <path id="Trazado_987814" data-name="Trazado 987814" d="M33.256,52.071c-.83.035-.729.788-.323,1.22a5.222,5.222,0,0,0,2.826,1.129c.948-.36-.343-2.441-2.5-2.348" transform="translate(-14.94 -33.751)" fill="#83413d"/>
              <path id="Trazado_987815" data-name="Trazado 987815" d="M35.826,54.187a4.893,4.893,0,0,1-2.649-1.058c-.287-.306-.41-.782-.12-1.011-.6.146-.489.795-.121,1.186a5.222,5.222,0,0,0,2.827,1.129.464.464,0,0,0,.31-.467.431.431,0,0,1-.246.221" transform="translate(-14.942 -33.765)" fill="#68302f"/>
              <path id="Trazado_987816" data-name="Trazado 987816" d="M45.039,52.778c-.867.037-.762.824-.337,1.274a5.46,5.46,0,0,0,2.954,1.18c.99-.376-.359-2.551-2.617-2.454" transform="translate(-18.202 -33.948)" fill="#83413d"/>
              <path id="Trazado_987817" data-name="Trazado 987817" d="M47.724,54.989a5.109,5.109,0,0,1-2.769-1.105c-.3-.319-.43-.816-.125-1.057-.626.152-.512.831-.128,1.24a5.462,5.462,0,0,0,2.954,1.179.484.484,0,0,0,.324-.487.454.454,0,0,1-.257.23" transform="translate(-18.203 -33.962)" fill="#68302f"/>
              <path id="Trazado_987818" data-name="Trazado 987818" d="M25.621,42.585c-.806.035-.708.765-.314,1.184a5.068,5.068,0,0,0,2.745,1.1c.92-.35-.333-2.37-2.431-2.28" transform="translate(-12.826 -31.119)" fill="#83413d"/>
              <path id="Trazado_987819" data-name="Trazado 987819" d="M28.115,44.64a4.754,4.754,0,0,1-2.573-1.027c-.279-.3-.4-.759-.116-.982-.581.142-.475.772-.118,1.152a5.068,5.068,0,0,0,2.745,1.1.45.45,0,0,0,.3-.453.418.418,0,0,1-.239.215" transform="translate(-12.828 -31.133)" fill="#68302f"/>
              <path id="Trazado_987820" data-name="Trazado 987820" d="M51.311,55.059c-.819.035-.72.778-.319,1.2a5.159,5.159,0,0,0,2.79,1.114c.936-.355-.339-2.409-2.472-2.318" transform="translate(-19.953 -34.581)" fill="#83413d"/>
              <path id="Trazado_987821" data-name="Trazado 987821" d="M53.846,57.148A4.836,4.836,0,0,1,51.231,56.1c-.283-.3-.405-.771-.118-1-.591.144-.483.785-.12,1.17a5.157,5.157,0,0,0,2.791,1.115.46.46,0,0,0,.306-.461.428.428,0,0,1-.243.218" transform="translate(-19.954 -34.595)" fill="#68302f"/>
              <path id="Trazado_987822" data-name="Trazado 987822" d="M50.636,42.265c-.617.026-.542.586-.24.907a3.881,3.881,0,0,0,2.1.839c.7-.268-.255-1.814-1.861-1.746" transform="translate(-19.808 -31.03)" fill="#83413d"/>
              <path id="Trazado_987823" data-name="Trazado 987823" d="M52.546,43.838a3.641,3.641,0,0,1-1.97-.786c-.213-.227-.3-.581-.089-.751-.444.108-.363.59-.09.881a3.879,3.879,0,0,0,2.1.839.344.344,0,0,0,.23-.347.318.318,0,0,1-.183.164" transform="translate(-19.809 -31.041)" fill="#68302f"/>
              <path id="Trazado_987824" data-name="Trazado 987824" d="M32.178,34.536c-.657.028-.577.624-.256.965a4.14,4.14,0,0,0,2.238.894c.751-.285-.272-1.932-1.982-1.859" transform="translate(-14.677 -28.886)" fill="#83413d"/>
              <path id="Trazado_987825" data-name="Trazado 987825" d="M34.211,36.212a3.873,3.873,0,0,1-2.1-.837c-.227-.242-.324-.618-.095-.8-.474.116-.387.629-.1.939a4.13,4.13,0,0,0,2.238.893.368.368,0,0,0,.246-.369.341.341,0,0,1-.2.175" transform="translate(-14.678 -28.897)" fill="#68302f"/>
              <path id="Trazado_987826" data-name="Trazado 987826" d="M50.643,44.01c-.851.036-.748.808-.332,1.251a5.363,5.363,0,0,0,2.9,1.158c.972-.37-.352-2.5-2.568-2.409" transform="translate(-19.761 -31.514)" fill="#83413d"/>
              <path id="Trazado_987827" data-name="Trazado 987827" d="M53.278,46.182A5.024,5.024,0,0,1,50.56,45.1c-.295-.314-.421-.8-.123-1.037-.614.15-.5.816-.125,1.217a5.357,5.357,0,0,0,2.9,1.158.477.477,0,0,0,.318-.479.442.442,0,0,1-.253.227" transform="translate(-19.762 -31.529)" fill="#68302f"/>
              <path id="Trazado_987828" data-name="Trazado 987828" d="M53.9,47.353c-.72.031-.633.684-.28,1.058a4.533,4.533,0,0,0,2.454.98c.823-.313-.3-2.119-2.173-2.039" transform="translate(-20.691 -32.442)" fill="#83413d"/>
              <path id="Trazado_987829" data-name="Trazado 987829" d="M56.129,49.19a4.25,4.25,0,0,1-2.3-.918c-.249-.265-.356-.678-.1-.878-.519.126-.424.69-.105,1.03a4.533,4.533,0,0,0,2.454.98.4.4,0,0,0,.269-.4.374.374,0,0,1-.214.191" transform="translate(-20.693 -32.454)" fill="#68302f"/>
              <path id="Trazado_987830" data-name="Trazado 987830" d="M40.049,44.789c-.614.026-.539.583-.239.9a3.864,3.864,0,0,0,2.092.835c.7-.267-.254-1.805-1.852-1.738" transform="translate(-16.871 -31.731)" fill="#83413d"/>
              <path id="Trazado_987831" data-name="Trazado 987831" d="M41.951,46.355a3.628,3.628,0,0,1-1.961-.783c-.212-.225-.3-.578-.088-.748-.443.108-.362.588-.09.878a3.867,3.867,0,0,0,2.092.835.344.344,0,0,0,.229-.345.318.318,0,0,1-.182.163" transform="translate(-16.872 -31.741)" fill="#68302f"/>
              <path id="Trazado_987832" data-name="Trazado 987832" d="M42,36.968c-.656.028-.577.624-.256.965a4.132,4.132,0,0,0,2.236.893c.75-.285-.272-1.93-1.98-1.858" transform="translate(-17.402 -29.56)" fill="#83413d"/>
              <path id="Trazado_987833" data-name="Trazado 987833" d="M44.027,38.642a3.875,3.875,0,0,1-2.1-.837c-.227-.242-.324-.618-.095-.8-.473.116-.387.629-.1.938a4.13,4.13,0,0,0,2.235.893.368.368,0,0,0,.246-.369.341.341,0,0,1-.2.175" transform="translate(-17.403 -29.572)" fill="#68302f"/>
              <path id="Trazado_987834" data-name="Trazado 987834" d="M36.787,49.405c-.678.029-.6.644-.264,1a4.276,4.276,0,0,0,2.313.923c.775-.295-.281-2-2.048-1.921" transform="translate(-15.951 -33.012)" fill="#83413d"/>
              <path id="Trazado_987835" data-name="Trazado 987835" d="M38.888,51.137a4.006,4.006,0,0,1-2.167-.866c-.235-.25-.335-.639-.1-.827-.49.119-.4.65-.1.97a4.273,4.273,0,0,0,2.313.923.379.379,0,0,0,.254-.381.351.351,0,0,1-.2.181" transform="translate(-15.953 -33.024)" fill="#68302f"/>
              <path id="Trazado_987836" data-name="Trazado 987836" d="M45.135,38.475c-.686.03-.6.651-.267,1.007a4.311,4.311,0,0,0,2.334.932c.782-.3-.283-2.016-2.068-1.939" transform="translate(-18.267 -29.979)" fill="#83413d"/>
              <path id="Trazado_987837" data-name="Trazado 987837" d="M47.255,40.224a4.048,4.048,0,0,1-2.188-.873c-.237-.252-.338-.645-.1-.835-.495.121-.4.656-.1.98a4.316,4.316,0,0,0,2.334.932.383.383,0,0,0,.256-.385.358.358,0,0,1-.2.182" transform="translate(-18.268 -29.99)" fill="#68302f"/>
              <path id="Trazado_987838" data-name="Trazado 987838" d="M51.167,57.428c-.706.03-.621.67-.275,1.038a4.448,4.448,0,0,0,2.406.96c.807-.306-.292-2.077-2.131-2" transform="translate(-19.937 -35.238)" fill="#83413d"/>
              <path id="Trazado_987839" data-name="Trazado 987839" d="M53.353,59.229a4.17,4.17,0,0,1-2.255-.9c-.244-.26-.349-.665-.1-.86-.509.124-.416.676-.1,1.009a4.442,4.442,0,0,0,2.406.96.4.4,0,0,0,.264-.4.364.364,0,0,1-.21.188" transform="translate(-19.938 -35.25)" fill="#68302f"/>
              <path id="Trazado_987840" data-name="Trazado 987840" d="M43.273,40.3c-.816.035-.717.775-.318,1.2a5.134,5.134,0,0,0,2.781,1.11c.933-.354-.337-2.4-2.463-2.311" transform="translate(-17.723 -30.486)" fill="#83413d"/>
              <path id="Trazado_987841" data-name="Trazado 987841" d="M45.8,42.386a4.813,4.813,0,0,1-2.607-1.041c-.282-.3-.4-.769-.118-.994-.589.143-.481.782-.119,1.167a5.146,5.146,0,0,0,2.781,1.11.458.458,0,0,0,.306-.459.428.428,0,0,1-.243.217" transform="translate(-17.724 -30.5)" fill="#68302f"/>
              <path id="Trazado_987842" data-name="Trazado 987842" d="M44.146,55.622c-.8.034-.7.757-.311,1.173a5.03,5.03,0,0,0,2.717,1.085c.911-.347-.329-2.347-2.407-2.258" transform="translate(-17.969 -34.737)" fill="#83413d"/>
              <path id="Trazado_987843" data-name="Trazado 987843" d="M46.615,57.657a4.7,4.7,0,0,1-2.547-1.017c-.276-.293-.394-.751-.115-.972-.576.14-.47.764-.117,1.14a5.018,5.018,0,0,0,2.717,1.085.447.447,0,0,0,.3-.449.415.415,0,0,1-.237.212" transform="translate(-17.97 -34.751)" fill="#68302f"/>
              <path id="Trazado_987844" data-name="Trazado 987844" d="M29.753,50.53c-.77.033-.676.731-.3,1.131a4.849,4.849,0,0,0,2.623,1.048c.88-.335-.318-2.264-2.323-2.179" transform="translate(-13.98 -33.324)" fill="#83413d"/>
              <path id="Trazado_987845" data-name="Trazado 987845" d="M32.136,52.494a4.541,4.541,0,0,1-2.459-.982c-.266-.283-.38-.725-.111-.938-.556.135-.454.738-.113,1.1a4.847,4.847,0,0,0,2.623,1.048.431.431,0,0,0,.288-.433.4.4,0,0,1-.228.205" transform="translate(-13.982 -33.337)" fill="#68302f"/>
              <path id="Trazado_987846" data-name="Trazado 987846" d="M14.935,41.77c-.759.033-.666.72-.3,1.116a4.777,4.777,0,0,0,2.585,1.032c.866-.329-.314-2.232-2.29-2.147" transform="translate(-9.871 -30.893)" fill="#83413d"/>
              <path id="Trazado_987847" data-name="Trazado 987847" d="M17.284,43.705a4.474,4.474,0,0,1-2.422-.967c-.262-.279-.375-.714-.11-.924-.547.133-.446.726-.111,1.084a4.777,4.777,0,0,0,2.584,1.032.424.424,0,0,0,.284-.426.4.4,0,0,1-.225.2" transform="translate(-9.872 -30.906)" fill="#68302f"/>
              <path id="Trazado_987848" data-name="Trazado 987848" d="M35,41.392c-.679.029-.6.645-.264,1a4.278,4.278,0,0,0,2.314.924c.776-.295-.281-2-2.05-1.923" transform="translate(-15.456 -30.788)" fill="#83413d"/>
              <path id="Trazado_987849" data-name="Trazado 987849" d="M37.1,43.125a4.01,4.01,0,0,1-2.17-.866c-.235-.25-.335-.639-.1-.828-.49.12-.4.651-.1.971a4.271,4.271,0,0,0,2.314.924.379.379,0,0,0,.254-.381.353.353,0,0,1-.2.181" transform="translate(-15.457 -30.8)" fill="#68302f"/>
              <path id="Trazado_987850" data-name="Trazado 987850" d="M12.592,32.187c-.777.033-.683.738-.3,1.143a4.9,4.9,0,0,0,2.649,1.058c.888-.338-.322-2.287-2.346-2.2" transform="translate(-9.216 -28.233)" fill="#83413d"/>
              <path id="Trazado_987851" data-name="Trazado 987851" d="M15,34.17a4.588,4.588,0,0,1-2.482-.991c-.269-.286-.384-.732-.112-.947-.561.137-.458.745-.114,1.111A4.9,4.9,0,0,0,14.938,34.4a.436.436,0,0,0,.291-.437A.409.409,0,0,1,15,34.17" transform="translate(-9.218 -28.247)" fill="#68302f"/>
              <path id="Trazado_987852" data-name="Trazado 987852" d="M17.994,44.077c-.772.033-.678.733-.3,1.135a4.857,4.857,0,0,0,2.63,1.05c.882-.335-.319-2.271-2.329-2.185" transform="translate(-10.717 -31.533)" fill="#7c3731"/>
              <path id="Trazado_987853" data-name="Trazado 987853" d="M20.384,46.046a4.556,4.556,0,0,1-2.465-.985c-.267-.284-.381-.727-.111-.941-.557.136-.455.74-.113,1.1a4.859,4.859,0,0,0,2.631,1.05.431.431,0,0,0,.288-.433.4.4,0,0,1-.229.205" transform="translate(-10.718 -31.546)" fill="#68302f"/>
              <path id="Trazado_987854" data-name="Trazado 987854" d="M19.456,39.568c-.7.03-.611.66-.271,1.022a4.372,4.372,0,0,0,2.369.946c.795-.3-.288-2.045-2.1-1.968" transform="translate(-11.138 -30.282)" fill="#83413d"/>
              <path id="Trazado_987855" data-name="Trazado 987855" d="M21.609,41.342a4.105,4.105,0,0,1-2.221-.886c-.241-.256-.343-.655-.1-.847-.5.122-.41.666-.1.994a4.383,4.383,0,0,0,2.369.946.389.389,0,0,0,.26-.391.361.361,0,0,1-.207.185" transform="translate(-11.14 -30.294)" fill="#68302f"/>
              <path id="Trazado_987856" data-name="Trazado 987856" d="M42.228,42.452c-.851.036-.748.808-.332,1.251a5.359,5.359,0,0,0,2.9,1.157c.972-.369-.352-2.5-2.568-2.409" transform="translate(-17.425 -31.082)" fill="#83413d"/>
              <path id="Trazado_987857" data-name="Trazado 987857" d="M44.863,44.623a5.02,5.02,0,0,1-2.718-1.085c-.294-.314-.42-.8-.122-1.037-.614.15-.5.815-.125,1.216a5.355,5.355,0,0,0,2.9,1.158.478.478,0,0,0,.318-.479.442.442,0,0,1-.253.227" transform="translate(-17.427 -31.097)" fill="#68302f"/>
              <path id="Trazado_987858" data-name="Trazado 987858" d="M41.2,52.657c-.725.031-.637.689-.282,1.066a4.567,4.567,0,0,0,2.47.986c.828-.315-.3-2.133-2.188-2.052" transform="translate(-17.167 -33.914)" fill="#83413d"/>
              <path id="Trazado_987859" data-name="Trazado 987859" d="M43.446,54.506a4.278,4.278,0,0,1-2.315-.924c-.251-.267-.358-.683-.1-.884-.522.127-.427.694-.105,1.036a4.56,4.56,0,0,0,2.469.986.4.4,0,0,0,.271-.407.377.377,0,0,1-.215.193" transform="translate(-17.168 -33.926)" fill="#68302f"/>
              <path id="Trazado_987860" data-name="Trazado 987860" d="M48,56.206c-.736.032-.647.7-.288,1.082a4.632,4.632,0,0,0,2.508,1c.841-.319-.3-2.165-2.221-2.084" transform="translate(-19.051 -34.899)" fill="#7c3f2f"/>
              <path id="Trazado_987861" data-name="Trazado 987861" d="M50.278,58.084a4.345,4.345,0,0,1-2.351-.939c-.255-.271-.364-.694-.106-.9-.531.129-.434.705-.108,1.052a4.634,4.634,0,0,0,2.508,1,.412.412,0,0,0,.275-.414.38.38,0,0,1-.218.2" transform="translate(-19.052 -34.912)" fill="#68302f"/>
              <path id="Trazado_987862" data-name="Trazado 987862" d="M30.047,41.512c-.851.036-.748.808-.332,1.251a5.357,5.357,0,0,0,2.9,1.158c.972-.37-.352-2.5-2.568-2.409" transform="translate(-14.045 -30.821)" fill="#83413d"/>
              <path id="Trazado_987863" data-name="Trazado 987863" d="M32.683,43.684A5.024,5.024,0,0,1,29.964,42.6c-.294-.313-.42-.8-.122-1.037-.614.15-.5.816-.125,1.217a5.357,5.357,0,0,0,2.9,1.158.477.477,0,0,0,.318-.479.442.442,0,0,1-.253.227" transform="translate(-14.046 -30.836)" fill="#68302f"/>
              <path id="Trazado_987864" data-name="Trazado 987864" d="M36.506,39.209c-.776.033-.682.737-.3,1.141a4.885,4.885,0,0,0,2.644,1.056c.886-.337-.322-2.284-2.342-2.2" transform="translate(-15.853 -30.182)" fill="#83413d"/>
              <path id="Trazado_987865" data-name="Trazado 987865" d="M38.909,41.19a4.581,4.581,0,0,1-2.479-.99c-.268-.285-.384-.73-.112-.946-.56.137-.457.743-.113,1.11a4.893,4.893,0,0,0,2.644,1.056.434.434,0,0,0,.29-.436.405.405,0,0,1-.23.207" transform="translate(-15.854 -30.195)" fill="#68302f"/>
              <path id="Trazado_987866" data-name="Trazado 987866" d="M29.132,31.963c-.72.031-.632.684-.28,1.058a4.531,4.531,0,0,0,2.454.98c.822-.312-.3-2.118-2.173-2.038" transform="translate(-13.819 -28.171)" fill="#83413d"/>
              <path id="Trazado_987867" data-name="Trazado 987867" d="M31.362,33.8a4.25,4.25,0,0,1-2.3-.918c-.249-.265-.356-.678-.1-.877-.519.126-.424.689-.105,1.029a4.533,4.533,0,0,0,2.454.98.4.4,0,0,0,.269-.4.374.374,0,0,1-.214.191" transform="translate(-13.82 -28.184)" fill="#68302f"/>
              <path id="Trazado_987868" data-name="Trazado 987868" d="M30.085,38.39c-.709.03-.623.673-.276,1.042a4.465,4.465,0,0,0,2.415.964c.809-.308-.293-2.084-2.139-2.006" transform="translate(-14.085 -29.955)" fill="#7c3f2f"/>
              <path id="Trazado_987869" data-name="Trazado 987869" d="M32.279,40.2a4.181,4.181,0,0,1-2.263-.9c-.245-.261-.35-.667-.1-.863-.512.125-.418.679-.1,1.013a4.459,4.459,0,0,0,2.415.964.4.4,0,0,0,.264-.4.371.371,0,0,1-.21.189" transform="translate(-14.087 -29.967)" fill="#68302f"/>
              <path id="Trazado_987870" data-name="Trazado 987870" d="M29.477,35.433c-.716.03-.629.68-.279,1.053a4.51,4.51,0,0,0,2.439.974c.818-.311-.3-2.106-2.16-2.027" transform="translate(-13.915 -29.134)" fill="#83413d"/>
              <path id="Trazado_987871" data-name="Trazado 987871" d="M31.693,37.259a4.225,4.225,0,0,1-2.286-.913c-.248-.263-.354-.674-.1-.872-.517.126-.422.686-.1,1.023a4.5,4.5,0,0,0,2.439.974.4.4,0,0,0,.267-.4.37.37,0,0,1-.212.191" transform="translate(-13.916 -29.146)" fill="#68302f"/>
              <path id="Trazado_987872" data-name="Trazado 987872" d="M26.684,36.914c-.733.031-.644.7-.285,1.077a4.617,4.617,0,0,0,2.5,1c.837-.318-.3-2.156-2.212-2.074" transform="translate(-13.136 -29.545)" fill="#83413d"/>
              <path id="Trazado_987873" data-name="Trazado 987873" d="M28.953,38.783a4.328,4.328,0,0,1-2.34-.935c-.254-.269-.363-.69-.106-.893-.528.129-.431.7-.107,1.048a4.606,4.606,0,0,0,2.5,1,.409.409,0,0,0,.274-.412.38.38,0,0,1-.217.2" transform="translate(-13.138 -29.557)" fill="#68302f"/>
              <path id="Trazado_987874" data-name="Trazado 987874" d="M22.6,32.524c-.65.027-.571.617-.253.954a4.084,4.084,0,0,0,2.212.884c.742-.282-.269-1.91-1.959-1.838" transform="translate(-12.021 -28.327)" fill="#83413d"/>
              <path id="Trazado_987875" data-name="Trazado 987875" d="M24.612,34.181a3.831,3.831,0,0,1-2.074-.828c-.225-.239-.322-.611-.094-.791-.468.114-.383.622-.095.928a4.084,4.084,0,0,0,2.212.884.363.363,0,0,0,.243-.365.338.338,0,0,1-.193.173" transform="translate(-12.022 -28.338)" fill="#68302f"/>
            </g>
          </g>
        </g>
      </g>
    </g>
  </g>
</svg>
