<svg xmlns="http://www.w3.org/2000/svg" xmlns:xlink="http://www.w3.org/1999/xlink" width="85" height="94" viewBox="0 0 85 94">
  <defs>
    <clipPath id="clip-path">
      <rect id="Rect치ngulo_403288" data-name="Rect치ngulo 403288" width="85" height="85" transform="translate(-0.289 -0.289)" fill="#fff" stroke="#707070" stroke-width="1"/>
    </clipPath>
    <clipPath id="clip-path-2">
      <path id="path153" d="M0-71H84.422V13.422H0Z" transform="translate(0 71)"/>
    </clipPath>
  </defs>
  <g id="Grupo_1103750" data-name="Grupo 1103750" transform="translate(-179.711 -1771)">
    <g id="Grupo_1102770" data-name="Grupo 1102770" transform="translate(0 1076)">
      <path id="Rect치ngulo_403287" data-name="Rect치ngulo 403287" d="M32,0h0A32,32,0,0,1,64,32V94a0,0,0,0,1,0,0H0a0,0,0,0,1,0,0V32A32,32,0,0,1,32,0Z" transform="translate(190.711 695)" fill="#6b0b0c"/>
      <g id="Enmascarar_grupo_1098792" data-name="Enmascarar grupo 1098792" transform="translate(180 704.289)" clip-path="url(#clip-path)">
        <g id="g147" transform="translate(0 0)">
          <g id="g149">
            <g id="g151" clip-path="url(#clip-path-2)">
              <g id="g157" transform="translate(1.237 9.539)">
                <path id="path159" d="M0,8.281v-50.4A1.684,1.684,0,0,1,1.684-43.8h78.58a1.684,1.684,0,0,1,1.684,1.684v50.4Z" transform="translate(0 43.803)" fill="#ffd839"/>
              </g>
              <g id="g161" transform="translate(77.744 9.539)">
                <path id="path163" d="M0,0V52.084H5.441V1.684A1.685,1.685,0,0,0,3.757,0Z" fill="#665203"/>
              </g>
              <g id="g165" transform="translate(30.875 22.856)">
                <path id="path167" d="M3.446,1.811-15.918-9.369a1.542,1.542,0,0,0-2.314,1.336v22.36a1.542,1.542,0,0,0,2.314,1.336L3.446,4.482a1.542,1.542,0,0,0,0-2.671" transform="translate(18.231 9.578)" fill="#d63be7"/>
              </g>
              <g id="g169" transform="translate(30.875 22.856)">
                <path id="path171" d="M3.446,1.811-15.918-9.369a1.542,1.542,0,0,0-2.314,1.336v22.36a1.542,1.542,0,0,0,2.314,1.336L3.446,4.482a1.542,1.542,0,0,0,0-2.671" transform="translate(18.231 9.578)" fill="#df1718"/>
              </g>
              <g id="g173" transform="translate(1.237 61.654)">
                <path id="path175" d="M12.759,2.1H-65.8A1.693,1.693,0,0,1-67.5.41V-11.126H14.453V.41A1.694,1.694,0,0,1,12.759,2.1" transform="translate(67.496 11.126)" fill="#fef5e4"/>
              </g>
              <g id="g177" transform="translate(77.744 61.654)">
                <path id="path179" d="M0,0V13.229H3.748a1.693,1.693,0,0,0,1.694-1.693V0Z" fill="#fee4c2"/>
              </g>
              <g id="g181" transform="translate(13.933 65.96)">
                <path id="path183" d="M.734.367A2.308,2.308,0,0,1-1.574,2.675,2.308,2.308,0,0,1-3.883.367,2.308,2.308,0,0,1-1.574-1.941,2.308,2.308,0,0,1,.734.367" transform="translate(3.883 1.941)" fill="#888dc4"/>
              </g>
              <path id="path185" d="M2.473-61.545H81.949v49.61H2.473Zm81.949-1.237a1.237,1.237,0,0,0-1.237-1.237H1.237A1.237,1.237,0,0,0,0-62.781V-7.025a1.237,1.237,0,0,0,2.473,0v-2.4H81.949V1.327H2.473V-.594A1.237,1.237,0,0,0,0-.594V2.563A1.237,1.237,0,0,0,1.237,3.8H83.185a1.237,1.237,0,0,0,1.237-1.237Z" transform="translate(0 72.32)"/>
              <g id="g187" transform="translate(29.638 21.634)">
                <path id="path189" d="M3.741,1.835-15.623-9.345a2.812,2.812,0,0,0-4.168,2.407v22.36a2.812,2.812,0,0,0,4.168,2.407L-3.962,11.1A1.237,1.237,0,0,0-5.2,8.954l-11.661,6.732a.306.306,0,0,1-.459-.265V-6.939a.306.306,0,0,1,.459-.265L2.5,3.977a.306.306,0,0,1,0,.529L.737,5.527A1.237,1.237,0,0,0,1.974,7.668l1.768-1.02a2.808,2.808,0,0,0,0-4.813" transform="translate(19.791 9.706)"/>
              </g>
              <g id="g191" transform="translate(8.532 64.723)">
                <path id="path193" d="M1.226.393A1.072,1.072,0,1,1,.154,1.465,1.073,1.073,0,0,1,1.226.393M-2.092,2.7A3.548,3.548,0,0,0,1.226,5.01,3.548,3.548,0,0,0,4.544,2.7H59.678a1.237,1.237,0,0,0,0-2.473H4.544A3.548,3.548,0,0,0,1.226-2.08,3.548,3.548,0,0,0-2.092.228H-5.287a1.237,1.237,0,0,0,0,2.473Z" transform="translate(6.484 2.08)"/>
              </g>
            </g>
          </g>
        </g>
      </g>
    </g>
  </g>
</svg>
